<svg width="124" height="34" viewBox="0 0 124 34" fill="none" xmlns="http://www.w3.org/2000/svg">
<g clip-path="url(#clip0_151_76)">
<path d="M109.066 0.525159C108.774 0.631565 108.703 0.844378 108.747 1.51828C108.774 1.88184 108.818 2.68875 108.854 3.30059L108.916 4.41786L107.603 5.1627C106.885 5.57059 106.238 5.98735 106.167 6.09376C106.034 6.2977 106.123 6.67012 106.327 6.80313C106.389 6.8386 106.921 6.93614 107.506 7.02481C108.774 7.21102 109.607 7.3529 109.652 7.39723C109.669 7.4061 109.873 8.21302 110.122 9.17954C110.565 10.9618 110.707 11.2722 111.062 11.2722C111.363 11.2722 111.505 11.1037 112.046 10.0485C112.338 9.50763 112.587 9.0554 112.613 9.0554C112.64 9.06427 114.75 12.6998 117.313 17.1511C120.035 21.8862 122.084 25.3533 122.261 25.5218C122.509 25.7612 122.624 25.8144 122.953 25.8144C123.281 25.8144 123.405 25.7612 123.68 25.5129C123.972 25.238 124.008 25.1671 123.999 24.7769C123.99 24.3868 123.635 23.7395 119.273 16.1935C116.683 11.7067 114.564 8.00907 114.564 7.9736C114.564 7.93813 115.096 7.92927 115.752 7.95587C116.878 8.00907 116.949 8.0002 117.127 7.82286C117.49 7.4593 117.393 7.31743 115.921 5.89868L114.538 4.55973L114.786 3.90356C114.919 3.54 115.105 3.04344 115.203 2.80403C115.761 1.35868 115.761 1.37641 115.593 1.12813C115.362 0.764573 115.078 0.835511 113.864 1.55375C113.252 1.90844 112.658 2.25426 112.542 2.30746C112.356 2.405 112.214 2.33407 110.937 1.49168C109.501 0.542893 109.297 0.436487 109.066 0.525159Z" fill="#FF8B1F"/>
<path d="M95.145 7.15782C94.1075 7.36177 93.3449 7.8938 92.9637 8.67411C92.6267 9.34802 92.609 10.2259 92.9105 10.8466C93.1587 11.352 93.7794 11.9372 94.3292 12.1855C94.9233 12.4515 96.3598 12.5047 97.0603 12.2831C98.4702 11.8397 99.2682 10.4653 98.9135 9.09974C98.6032 7.91153 97.5746 7.20216 96.076 7.14896C95.6859 7.13122 95.2691 7.14009 95.145 7.15782Z" fill="#FF8B1F"/>
<path d="M43.0059 17.5236V26.0804H45.6217H48.2375V17.5236V8.96673H45.6217H43.0059V17.5236Z" fill="#FF8B1F"/>
<path d="M0 12.0702V14.1984H2.34981H4.69961V20.1394V26.0804H7.44844H10.1973V20.1394V14.1984H12.5471H14.8969V12.0702V9.94212H7.44844H0V12.0702Z" fill="#FF8B1F"/>
<path d="M64.4202 10.1372C64.4556 10.2525 65.6084 13.8703 66.9916 18.1886L69.5011 26.0361H72.4538H75.4066L76.7367 21.8419C77.4638 19.5453 78.0845 17.6566 78.12 17.6566C78.1554 17.6566 79.6008 22.3385 80.5762 25.6548L80.7092 26.0804H83.6442H86.5881L89.1685 18.0113L91.7489 9.94212H89.1508H86.5527L85.8876 11.9993C85.5241 13.1343 84.8768 15.1649 84.4512 16.5038C84.0255 17.8428 83.6531 18.9778 83.6176 19.0133C83.5822 19.0487 82.9437 17.0359 82.1811 14.5353L80.8067 9.98646L78.2707 9.95986L75.7347 9.94212L75.4776 10.7579C74.7238 13.1609 72.8529 18.8625 72.8085 18.9157C72.7819 18.9512 72.1346 16.9561 71.3809 14.4821L70.0065 9.98646L67.1867 9.95986L64.3758 9.94212L64.4202 10.1372Z" fill="#FF8B1F"/>
<path d="M19.5965 13.3915C15.5087 14.2604 13.2476 18.0999 14.5777 21.9128C15.4112 24.3158 17.5925 25.8853 20.6251 26.2666C23.0724 26.5681 25.6173 25.9385 26.9297 24.706L27.4085 24.2626L26.0429 22.8971L24.6774 21.5404L24.0744 21.904C23.3473 22.3385 23.0902 22.4005 21.9906 22.4005C21.228 22.4005 21.095 22.3739 20.6162 22.1345C20.2615 21.9572 19.9866 21.7355 19.7827 21.4695L19.4812 21.0704L23.8705 21.0438L28.2597 21.0261L28.3218 20.2901C28.3927 19.43 28.2597 18.2773 28.0115 17.5324C27.444 15.8388 26.1493 14.4733 24.4646 13.7905C23.099 13.2319 21.1216 13.0722 19.5965 13.3915ZM22.5049 17.0979C22.9039 17.3196 23.2675 17.7985 23.365 18.2063L23.4271 18.4546H21.4143H19.4103L19.4635 18.2507C19.5876 17.8428 19.96 17.3108 20.2438 17.1334C20.9088 16.7255 21.831 16.7078 22.5049 17.0979Z" fill="#FF8B1F"/>
<path d="M33.9081 13.356C32.1524 13.6663 30.6894 14.4733 29.9977 15.5107C29.5011 16.2467 29.3947 16.6369 29.3947 17.7009C29.3947 18.5256 29.4125 18.632 29.6874 19.1817C30.3879 20.6005 31.5495 21.1237 35.1141 21.5936C35.7259 21.6734 36.3112 21.8064 36.4264 21.8774C36.719 22.0724 36.6481 22.3651 36.2668 22.5601C35.9919 22.702 35.7969 22.7197 34.6707 22.6843C33.2254 22.6311 32.1702 22.4005 31.2036 21.904C30.9022 21.7532 30.6273 21.6646 30.5918 21.7089C30.4588 21.8596 29.1731 25.043 29.2174 25.1139C29.3061 25.2469 30.6805 25.7257 31.5938 25.9474C37.2777 27.2952 41.9241 25.1582 41.4098 21.434C41.2856 20.6005 40.9753 19.9709 40.4078 19.4744C39.5477 18.694 38.7762 18.428 36.2491 18.0556C34.6264 17.8162 34.2894 17.7098 34.2451 17.426C34.2008 17.1246 34.5111 16.9383 35.2382 16.8497C36.3998 16.7078 38.0225 16.9738 39.0334 17.4881L39.5477 17.7453L39.6275 17.5502C39.6718 17.4349 39.991 16.6723 40.3369 15.8477C40.6827 15.023 40.9664 14.3136 40.9664 14.2782C40.9664 14.154 39.6009 13.6841 38.6964 13.489C37.5348 13.2407 34.9633 13.1698 33.9081 13.356Z" fill="#FF8B1F"/>
<path d="M54.8879 13.2673C54.817 13.2851 54.4534 13.3471 54.0899 13.4003C52.7421 13.622 50.543 14.4201 50.543 14.6861C50.543 14.7481 50.9065 15.5373 51.3499 16.4506L52.1568 18.0999L52.6179 17.8428C53.9835 17.0713 56.1382 16.9029 57.0338 17.5058C57.3353 17.7098 57.7254 18.2241 57.7254 18.4103C57.7254 18.4901 57.2377 18.5344 55.8899 18.5699C52.9283 18.6586 51.6869 19.031 50.6849 20.1394C50.0996 20.7867 49.9755 21.1946 49.9755 22.3562C49.9755 23.6331 50.1528 24.1562 50.8533 24.9188C51.6514 25.7701 52.6977 26.2223 54.1342 26.3198C55.8722 26.4351 57.1491 25.9563 57.9116 24.8922L58.1688 24.5464V25.309V26.0804H60.6073H63.0457V22.3473C63.0457 20.0507 63.0103 18.3748 62.9482 17.9847C62.5403 15.3511 60.9176 13.8171 58.0358 13.356C57.353 13.2407 55.3047 13.1875 54.8879 13.2673ZM57.7964 21.6379C57.7343 22.5247 57.0604 23.1454 56.1471 23.1542C55.4288 23.1542 54.9766 22.7641 54.9766 22.1256C54.9766 21.3897 55.482 21.1237 56.9185 21.1148H57.8318L57.7964 21.6379Z" fill="#FF8B1F"/>
<path d="M93.2563 13.4624C93.2208 13.489 93.1942 16.3442 93.1942 19.8024V26.0804H95.8544H98.5145L98.4968 19.7581L98.4702 13.4447L95.8898 13.4181C94.4711 13.4092 93.2918 13.4269 93.2563 13.4624Z" fill="#FF8B1F"/>
<path d="M100.465 15.3511V17.3019L102.948 17.3196L105.431 17.3462L102.859 20.2103L100.288 23.0744V24.5819V26.0804H106.318H112.347V24.174V22.2675L109.652 22.2498L106.956 22.2232L109.519 19.3679L112.081 16.5038V14.9521V13.4003H106.273H100.465V15.3511Z" fill="#FF8B1F"/>
</g>
<defs>
<clipPath id="clip0_151_76">
<rect width="124" height="33" fill="white" transform="translate(0 0.5)"/>
</clipPath>
</defs>
</svg>
