<svg width="159" height="98" viewBox="0 0 159 98" fill="none" xmlns="http://www.w3.org/2000/svg">
<path d="M67.1053 3.05266C67.1053 4.73858 65.7386 6.10529 64.0526 6.10529C62.3667 6.10529 61 4.73858 61 3.05266C61 1.36673 62.3667 2.46951e-05 64.0526 2.46951e-05C65.7386 2.46951e-05 67.1053 1.36673 67.1053 3.05266Z" fill="#FFA551"/>
<path d="M97.6316 3.05266C97.6316 4.73858 96.2649 6.10529 94.5789 6.10529C92.893 6.10529 91.5263 4.73858 91.5263 3.05266C91.5263 1.36673 92.893 2.46951e-05 94.5789 2.46951e-05C96.2649 2.46951e-05 97.6316 1.36673 97.6316 3.05266Z" fill="#FFA551"/>
<path d="M128.158 3.05266C128.158 4.73858 126.791 6.10529 125.105 6.10529C123.419 6.10529 122.053 4.73858 122.053 3.05266C122.053 1.36673 123.419 2.46951e-05 125.105 2.46951e-05C126.791 2.46951e-05 128.158 1.36673 128.158 3.05266Z" fill="#FFA551"/>
<path d="M158.684 3.05266C158.684 4.73858 157.318 6.10529 155.632 6.10529C153.946 6.10529 152.579 4.73858 152.579 3.05266C152.579 1.36673 153.946 2.46951e-05 155.632 2.46951e-05C157.318 2.46951e-05 158.684 1.36673 158.684 3.05266Z" fill="#FFA551"/>
<path d="M67.1053 33.579C67.1053 35.2649 65.7386 36.6316 64.0526 36.6316C62.3667 36.6316 61 35.2649 61 33.579C61 31.893 62.3667 30.5263 64.0526 30.5263C65.7386 30.5263 67.1053 31.893 67.1053 33.579Z" fill="#FFA551"/>
<path d="M97.6316 33.579C97.6316 35.2649 96.2649 36.6316 94.5789 36.6316C92.893 36.6316 91.5263 35.2649 91.5263 33.579C91.5263 31.893 92.893 30.5263 94.5789 30.5263C96.2649 30.5263 97.6316 31.893 97.6316 33.579Z" fill="#FFA551"/>
<path d="M128.158 33.579C128.158 35.2649 126.791 36.6316 125.105 36.6316C123.419 36.6316 122.053 35.2649 122.053 33.579C122.053 31.893 123.419 30.5263 125.105 30.5263C126.791 30.5263 128.158 31.893 128.158 33.579Z" fill="#FFA551"/>
<path d="M158.684 33.579C158.684 35.2649 157.318 36.6316 155.632 36.6316C153.946 36.6316 152.579 35.2649 152.579 33.579C152.579 31.893 153.946 30.5263 155.632 30.5263C157.318 30.5263 158.684 31.893 158.684 33.579Z" fill="#FFA551"/>
<path d="M67.1053 3.05266C67.1053 4.73858 65.7386 6.10529 64.0526 6.10529C62.3667 6.10529 61 4.73858 61 3.05266C61 1.36673 62.3667 2.46951e-05 64.0526 2.46951e-05C65.7386 2.46951e-05 67.1053 1.36673 67.1053 3.05266Z" fill="#FFA551"/>
<path d="M97.6316 3.05266C97.6316 4.73858 96.2649 6.10529 94.5789 6.10529C92.893 6.10529 91.5263 4.73858 91.5263 3.05266C91.5263 1.36673 92.893 2.46951e-05 94.5789 2.46951e-05C96.2649 2.46951e-05 97.6316 1.36673 97.6316 3.05266Z" fill="#FFA551"/>
<path d="M128.158 3.05266C128.158 4.73858 126.791 6.10529 125.105 6.10529C123.419 6.10529 122.053 4.73858 122.053 3.05266C122.053 1.36673 123.419 2.46951e-05 125.105 2.46951e-05C126.791 2.46951e-05 128.158 1.36673 128.158 3.05266Z" fill="#FFA551"/>
<path d="M158.684 3.05266C158.684 4.73858 157.318 6.10529 155.632 6.10529C153.946 6.10529 152.579 4.73858 152.579 3.05266C152.579 1.36673 153.946 2.46951e-05 155.632 2.46951e-05C157.318 2.46951e-05 158.684 1.36673 158.684 3.05266Z" fill="#FFA551"/>
<path d="M67.1053 33.579C67.1053 35.2649 65.7386 36.6316 64.0526 36.6316C62.3667 36.6316 61 35.2649 61 33.579C61 31.893 62.3667 30.5263 64.0526 30.5263C65.7386 30.5263 67.1053 31.893 67.1053 33.579Z" fill="#FFA551"/>
<path d="M97.6316 33.579C97.6316 35.2649 96.2649 36.6316 94.5789 36.6316C92.893 36.6316 91.5263 35.2649 91.5263 33.579C91.5263 31.893 92.893 30.5263 94.5789 30.5263C96.2649 30.5263 97.6316 31.893 97.6316 33.579Z" fill="#FFA551"/>
<path d="M128.158 33.579C128.158 35.2649 126.791 36.6316 125.105 36.6316C123.419 36.6316 122.053 35.2649 122.053 33.579C122.053 31.893 123.419 30.5263 125.105 30.5263C126.791 30.5263 128.158 31.893 128.158 33.579Z" fill="#FFA551"/>
<path d="M158.684 33.579C158.684 35.2649 157.318 36.6316 155.632 36.6316C153.946 36.6316 152.579 35.2649 152.579 33.579C152.579 31.893 153.946 30.5263 155.632 30.5263C157.318 30.5263 158.684 31.893 158.684 33.579Z" fill="#FFA551"/>
<path d="M3.05263 91.5789C4.73855 91.5789 6.10526 92.9457 6.10526 94.6316C6.10526 96.3175 4.73855 97.6842 3.05263 97.6842C1.36671 97.6842 0 96.3175 0 94.6316C0 92.9457 1.36671 91.5789 3.05263 91.5789Z" fill="#FFA551"/>
<path d="M3.05263 61.0526C4.73855 61.0526 6.10526 62.4194 6.10526 64.1053C6.10526 65.7912 4.73855 67.1579 3.05263 67.1579C1.36671 67.1579 0 65.7912 0 64.1053C0 62.4194 1.36671 61.0526 3.05263 61.0526Z" fill="#FFA551"/>
<path d="M3.05263 30.5263C4.73855 30.5263 6.10526 31.893 6.10526 33.5789C6.10526 35.2649 4.73855 36.6316 3.05263 36.6316C1.36671 36.6316 0 35.2649 0 33.5789C0 31.893 1.36671 30.5263 3.05263 30.5263Z" fill="#FFA551"/>
<path d="M3.05263 0C4.73855 0 6.10526 1.36672 6.10526 3.05264C6.10526 4.73856 4.73855 6.10529 3.05263 6.10529C1.36671 6.10529 0 4.73856 0 3.05264C0 1.36672 1.36671 0 3.05263 0Z" fill="#FFA551"/>
<path d="M33.5789 91.5789C35.2649 91.5789 36.6316 92.9457 36.6316 94.6316C36.6316 96.3175 35.2649 97.6842 33.5789 97.6842C31.893 97.6842 30.5263 96.3175 30.5263 94.6316C30.5263 92.9457 31.893 91.5789 33.5789 91.5789Z" fill="#FFA551"/>
<path d="M33.5789 61.0526C35.2649 61.0526 36.6316 62.4194 36.6316 64.1053C36.6316 65.7912 35.2649 67.1579 33.5789 67.1579C31.893 67.1579 30.5263 65.7912 30.5263 64.1053C30.5263 62.4194 31.893 61.0526 33.5789 61.0526Z" fill="#FFA551"/>
<path d="M33.5789 30.5263C35.2649 30.5263 36.6316 31.893 36.6316 33.5789C36.6316 35.2649 35.2649 36.6316 33.5789 36.6316C31.893 36.6316 30.5263 35.2649 30.5263 33.5789C30.5263 31.893 31.893 30.5263 33.5789 30.5263Z" fill="#FFA551"/>
<path d="M33.5789 0C35.2649 0 36.6316 1.36672 36.6316 3.05264C36.6316 4.73856 35.2649 6.10529 33.5789 6.10529C31.893 6.10529 30.5263 4.73856 30.5263 3.05264C30.5263 1.36672 31.893 0 33.5789 0Z" fill="#FFA551"/>
<path d="M3.05263 91.5789C4.73855 91.5789 6.10526 92.9457 6.10526 94.6316C6.10526 96.3175 4.73855 97.6842 3.05263 97.6842C1.36671 97.6842 0 96.3175 0 94.6316C0 92.9457 1.36671 91.5789 3.05263 91.5789Z" fill="#FFA551"/>
<path d="M3.05263 61.0526C4.73855 61.0526 6.10526 62.4194 6.10526 64.1053C6.10526 65.7912 4.73855 67.1579 3.05263 67.1579C1.36671 67.1579 0 65.7912 0 64.1053C0 62.4194 1.36671 61.0526 3.05263 61.0526Z" fill="#FFA551"/>
<path d="M3.05263 30.5263C4.73855 30.5263 6.10526 31.893 6.10526 33.5789C6.10526 35.2649 4.73855 36.6316 3.05263 36.6316C1.36671 36.6316 0 35.2649 0 33.5789C0 31.893 1.36671 30.5263 3.05263 30.5263Z" fill="#FFA551"/>
<path d="M3.05263 0C4.73855 0 6.10526 1.36672 6.10526 3.05264C6.10526 4.73856 4.73855 6.10529 3.05263 6.10529C1.36671 6.10529 0 4.73856 0 3.05264C0 1.36672 1.36671 0 3.05263 0Z" fill="#FFA551"/>
<path d="M33.5789 91.5789C35.2649 91.5789 36.6316 92.9457 36.6316 94.6316C36.6316 96.3175 35.2649 97.6842 33.5789 97.6842C31.893 97.6842 30.5263 96.3175 30.5263 94.6316C30.5263 92.9457 31.893 91.5789 33.5789 91.5789Z" fill="#FFA551"/>
<path d="M33.5789 61.0526C35.2649 61.0526 36.6316 62.4194 36.6316 64.1053C36.6316 65.7912 35.2649 67.1579 33.5789 67.1579C31.893 67.1579 30.5263 65.7912 30.5263 64.1053C30.5263 62.4194 31.893 61.0526 33.5789 61.0526Z" fill="#FFA551"/>
<path d="M33.5789 30.5263C35.2649 30.5263 36.6316 31.893 36.6316 33.5789C36.6316 35.2649 35.2649 36.6316 33.5789 36.6316C31.893 36.6316 30.5263 35.2649 30.5263 33.5789C30.5263 31.893 31.893 30.5263 33.5789 30.5263Z" fill="#FFA551"/>
<path d="M33.5789 0C35.2649 0 36.6316 1.36672 36.6316 3.05264C36.6316 4.73856 35.2649 6.10529 33.5789 6.10529C31.893 6.10529 30.5263 4.73856 30.5263 3.05264C30.5263 1.36672 31.893 0 33.5789 0Z" fill="#FFA551"/>
</svg>
