<svg width="140" height="136" viewBox="0 0 140 136" fill="none" xmlns="http://www.w3.org/2000/svg">
<mask id="path-1-inside-1_151_71" fill="white">
<path d="M65.625 0.503906C56.7657 1.89844 48.9454 7.66797 44.9805 15.8164C42.9297 19.9727 42.3555 22.3242 42.1914 27.082L42.0547 30.9375L39.1016 32.8789C30.8985 38.293 24.3633 45.6758 19.9063 54.5352C14.3008 65.7734 12.6602 78.2422 15.2032 90.8203C18.1563 105.586 27.5625 119.121 40.4414 127.078C49.4922 132.656 59.1993 135.418 69.8633 135.445C76.5899 135.445 81.6485 134.652 87.6368 132.656C102.102 127.844 113.613 117.727 120.34 103.863C123.594 97.1641 125.207 91.0938 125.836 83.3281C127.395 63.5312 117.441 43.6523 100.488 32.6055L97.8907 30.9102V27.9297C97.8907 18.332 93.0235 9.63672 84.6563 4.33203C81.5664 2.36328 78.0664 1.10547 74.1016 0.503906C70.9844 0.0117188 68.7422 0.0117188 65.625 0.503906ZM75.168 5.45312C79.3243 6.41016 82.7969 8.26953 85.9414 11.2773C91.1094 16.1992 93.4883 22.0781 93.1602 29.1875C92.9961 33.1523 92.3399 35.5859 90.6172 38.9219C87.7188 44.5547 82.7149 48.6562 76.4258 50.5703C74.2383 51.2266 73.5274 51.3086 70 51.3086C66.4727 51.3086 65.7618 51.2266 63.5743 50.5703C59.0352 49.2031 54.9063 46.4961 52.0352 43.0508C50.3672 41.0273 48.0704 36.625 47.4141 34.1367C46.7305 31.5938 46.5938 26.3438 47.168 23.582C49.7383 10.8125 62.5078 2.55469 75.168 5.45312ZM43.4219 36.9258C43.586 37.5 44.2149 38.9492 44.7891 40.1523L45.8282 42.3125L43.6407 43.9531C34.8633 50.4336 28.875 59.8398 26.4961 70.9141C25.9493 73.375 25.8672 74.6055 25.8672 79.5273C25.8672 84.4219 25.9493 85.6797 26.4688 88.0586C27.7813 94.1562 29.8868 99.1328 33.1954 104.137C39.8125 114.062 50.0664 120.762 62.3985 123.168C66.3633 123.961 73.1719 124.016 77.0274 123.305C94.8282 120.051 108.938 107.035 113.012 90.0547C114.078 85.6797 114.406 82.3164 114.215 77.7773C113.914 71.1055 112.547 65.8008 109.621 59.8398C106.668 53.8516 102.02 48.2188 96.7969 44.2812L94.1446 42.2852L95.0469 40.5078C95.5391 39.5508 96.1407 38.1016 96.3868 37.3359C96.6602 36.543 96.961 35.9141 97.0977 35.9688C98.0821 36.2969 102.922 40.125 105.383 42.4766C110.359 47.2891 113.504 51.6094 116.375 57.6523C122.91 71.4609 122.91 87.6211 116.375 101.402C113.723 106.98 111.07 110.781 106.668 115.32C99.0938 123.113 89.4961 128.145 78.4766 130.168C74.7852 130.852 65.1602 130.852 61.5235 130.168C44.6524 127.051 31.1172 116.852 23.7891 101.785C18.8399 91.5586 17.4454 80.0195 19.7969 68.8359C20.7539 64.4336 21.9024 61.207 24.1993 56.5586C27.2344 50.4609 30.9532 45.5938 36.0391 41.082C38.0625 39.2773 42.5196 35.9414 42.9571 35.9141C43.0391 35.9141 43.2579 36.3789 43.4219 36.9258ZM49.8204 47.5625C51.4063 49.2852 54.9336 51.8828 57.2579 53.0586C66.9922 57.9531 78.2032 56.9688 86.8711 50.4336C88.0469 49.5312 89.5508 48.2461 90.1797 47.5625C90.8086 46.8789 91.4102 46.3047 91.4922 46.3047C91.875 46.3047 95.1563 48.8203 97.0157 50.543C99.5586 52.9219 102.211 56.2031 104.043 59.293C105.301 61.4258 106.914 64.6797 106.914 65.0898C106.914 65.3633 103.223 64.8438 97.4805 63.8047C85.668 61.6445 79.1329 60.9883 69.7266 60.9883C60.7032 60.9883 56.5743 61.3984 43.4766 63.668C39.6485 64.3242 35.7383 64.9805 34.7813 65.1172C32.7579 65.418 32.7579 65.5547 34.6719 61.7539C36.4493 58.1445 38.9102 54.7266 41.6993 51.8828C43.9141 49.668 47.9336 46.332 48.4532 46.3047C48.5625 46.3047 49.1914 46.8789 49.8204 47.5625ZM79.4336 66.0195C84.4375 66.4297 90.3985 67.25 96.8789 68.4258C100.078 69.0273 103.961 69.6562 105.52 69.8477C107.516 70.0938 108.391 70.3398 108.555 70.6406C108.828 71.1875 109.348 74.4961 109.43 76.3281L109.512 77.7773L107.734 78.4883C105.492 79.3906 102.539 81.1406 99.9961 83.0547C93.8711 87.6758 86.5977 95.7148 82.961 101.922L81.6211 104.219L78.8868 104.574C75.2774 105.066 64.6954 105.066 61.1133 104.602L58.3789 104.219L57.1485 102.141C53.7579 96.3164 45.336 86.9922 39.7852 82.8633C37.461 81.1406 32.375 78.3242 30.9258 77.9414C30.3243 77.8047 30.2969 77.7227 30.4883 76.0547C30.7344 73.5664 31.1719 71.1328 31.4454 70.6133C31.6368 70.3125 32.2383 70.1211 33.5508 69.9844C34.5625 69.875 37.1329 69.4922 39.2383 69.1367C52.8008 66.7578 56.6016 66.2383 64.1211 65.7188C67.9493 65.4727 74.211 65.582 79.4336 66.0195ZM32.4844 83.7383C38.1993 86.6367 46.9766 95.0859 51.8164 102.359C54.0313 105.695 55.8907 109.578 56.6016 112.312C57.1758 114.582 57.3125 116.852 56.9024 116.852C56.3555 116.852 52.0352 114.883 50.2032 113.816C41.8086 108.84 35.793 101.539 32.5664 92.4336C31.336 88.9062 30.1875 82.9453 30.7618 82.9453C30.8438 82.9453 31.6094 83.3008 32.4844 83.7383ZM109.375 83.793C109.375 84.2578 109.129 85.8438 108.828 87.3203C106.258 99.8984 97.5352 110.699 85.8321 115.785C84.4922 116.359 83.2344 116.852 83.0704 116.852C82.5782 116.852 83.0157 113.133 83.7539 110.973C85.668 105.367 89.6875 99.4062 95.7032 93.2266C98.9024 89.918 101.883 87.3203 104.316 85.6523C105.793 84.668 108.828 82.9727 109.184 82.9453C109.293 82.9453 109.375 83.3281 109.375 83.793ZM67.8125 109.633C71.0391 109.715 74.9219 109.66 76.4258 109.523C77.9297 109.387 79.1875 109.277 79.2422 109.332C79.2969 109.387 79.1055 110.125 78.8594 111C78.5313 112.066 78.3672 113.57 78.3672 115.43C78.3399 117.672 78.2579 118.246 77.9297 118.355C75.1133 119.23 64.8868 119.23 62.0704 118.355C61.7422 118.246 61.6602 117.672 61.6329 115.43C61.6329 113.625 61.4688 112.066 61.168 111.055C60.5664 109.113 60.5938 109.086 61.3321 109.305C61.6602 109.414 64.586 109.551 67.8125 109.633Z"/>
<path d="M82.0586 17.5391C81.5118 18.1133 77.4649 22.6523 73.0352 27.6289L64.9961 36.6797L61.2774 33.8906C59.2266 32.332 57.2578 30.9375 56.9297 30.7461C55.0703 29.7617 52.8282 32.1133 53.9766 33.8633C54.6328 34.8477 64.1211 41.9297 65.0235 42.0937C65.4883 42.1758 66.0352 42.0391 66.5 41.7383C67.4844 41.082 85.8594 20.3828 86.1602 19.5625C86.7071 18.1406 85.4766 16.5 83.8633 16.5C83.2618 16.5 82.7696 16.7734 82.0586 17.5391Z"/>
<path d="M42.793 73.2383C42.1368 73.8672 42.1094 74.0586 42.1094 77.1484C42.1094 80.8945 42.3555 81.4688 44.0508 81.7422C44.8438 81.8789 45.1719 81.7695 45.8282 81.2227L46.6211 80.5391V77.2031C46.6211 73.8945 46.6211 73.8672 45.8555 73.2109C44.8438 72.3633 43.6407 72.3633 42.793 73.2383Z"/>
<path d="M52.0899 73.2383C51.4336 73.8672 51.4063 74.0586 51.4063 77.2031C51.4063 80.1016 51.461 80.5391 51.9532 81.0312C53.1289 82.207 54.961 81.9609 55.6993 80.4844C55.918 80.0742 56.0547 78.707 56.0547 77.0117C56.0547 74.4141 56 74.168 55.3438 73.4023C54.4414 72.3086 53.0743 72.2266 52.0899 73.2383Z"/>
<path d="M84.6563 73.4023C83.9727 74.1953 83.9454 74.4141 83.9454 77.2578C83.9454 80.2109 83.9454 80.2656 84.7383 81.0586C85.1758 81.4961 85.8047 81.8516 86.1329 81.8516C86.9258 81.8516 88.211 81.1406 88.4297 80.6211C88.5118 80.375 88.5938 78.7617 88.5938 77.0391C88.5938 74.0586 88.5664 73.8672 87.9102 73.2383C86.9258 72.2266 85.5586 72.3086 84.6563 73.4023Z"/>
<path d="M94.1446 73.2109C93.3789 73.8672 93.3789 73.8945 93.3789 77.2031V80.5391L94.1719 81.2227C94.8282 81.7695 95.1563 81.8789 95.9493 81.7422C97.6446 81.4688 97.8907 80.8945 97.8907 77.1484C97.8907 74.0586 97.8633 73.8672 97.2071 73.2383C96.3594 72.3633 95.1563 72.3633 94.1446 73.2109Z"/>
<path d="M8.33988 30.7734C6.91801 31.5391 6.64457 33.2891 7.79301 34.4102C8.42191 35.0664 8.58597 35.0938 12.0586 35.0938H15.6407L14.6563 36.3789C10.6368 41.6562 6.42582 49.2578 4.23832 55.1914C-2.37887 73.2383 -1.12106 93.8281 7.71097 111.082C11.1836 117.891 18.8125 127.953 20.8633 128.473C22.3672 128.855 24.0078 127.242 23.625 125.738C23.543 125.355 22.586 124.098 21.5196 122.922C12.168 112.668 6.20707 99.0781 4.92191 84.9961C3.60941 70.5586 7.41019 55.5195 15.3946 43.543C16.543 41.8203 17.7188 40.125 18.0196 39.7422L18.5938 39.0586V41.9297C18.5938 43.6523 18.7305 45.0742 18.9493 45.4844C19.6875 46.9609 21.5196 47.207 22.6953 46.0312C23.2149 45.5117 23.2422 45.1016 23.2422 38.7031C23.2149 31.6211 23.1875 31.4297 21.9571 30.7734C21.1641 30.3359 9.10551 30.3359 8.33988 30.7734Z"/>
<path d="M118.262 30.7461C116.512 31.7305 116.566 33.1524 118.481 35.3945C127.777 46.3594 132.754 57.0781 134.723 70.3399C135.352 74.6875 135.352 84.0938 134.723 88.4414C133.082 99.4609 129.117 109.223 122.527 118.355L121.543 119.723L121.406 116.605C121.27 113.652 121.242 113.488 120.504 112.859C119.492 112.012 118.289 112.012 117.441 112.887L116.758 113.543V127.16L118.18 128.473H131.469L132.18 127.816C133.109 126.941 133.164 125.41 132.262 124.562C131.688 124.016 131.332 123.961 128.023 123.961C126.027 123.961 124.414 123.906 124.414 123.797C124.414 123.715 125.453 122.211 126.711 120.461C133.629 110.809 137.758 100.363 139.508 88.0039C139.945 84.832 139.945 74.3047 139.508 70.9141C137.84 58.3906 133.164 46.8242 125.863 37.1719C121.242 31.1016 119.793 29.8711 118.262 30.7461Z"/>
</mask>
<path d="M65.625 0.503906C56.7657 1.89844 48.9454 7.66797 44.9805 15.8164C42.9297 19.9727 42.3555 22.3242 42.1914 27.082L42.0547 30.9375L39.1016 32.8789C30.8985 38.293 24.3633 45.6758 19.9063 54.5352C14.3008 65.7734 12.6602 78.2422 15.2032 90.8203C18.1563 105.586 27.5625 119.121 40.4414 127.078C49.4922 132.656 59.1993 135.418 69.8633 135.445C76.5899 135.445 81.6485 134.652 87.6368 132.656C102.102 127.844 113.613 117.727 120.34 103.863C123.594 97.1641 125.207 91.0938 125.836 83.3281C127.395 63.5312 117.441 43.6523 100.488 32.6055L97.8907 30.9102V27.9297C97.8907 18.332 93.0235 9.63672 84.6563 4.33203C81.5664 2.36328 78.0664 1.10547 74.1016 0.503906C70.9844 0.0117188 68.7422 0.0117188 65.625 0.503906ZM75.168 5.45312C79.3243 6.41016 82.7969 8.26953 85.9414 11.2773C91.1094 16.1992 93.4883 22.0781 93.1602 29.1875C92.9961 33.1523 92.3399 35.5859 90.6172 38.9219C87.7188 44.5547 82.7149 48.6562 76.4258 50.5703C74.2383 51.2266 73.5274 51.3086 70 51.3086C66.4727 51.3086 65.7618 51.2266 63.5743 50.5703C59.0352 49.2031 54.9063 46.4961 52.0352 43.0508C50.3672 41.0273 48.0704 36.625 47.4141 34.1367C46.7305 31.5938 46.5938 26.3438 47.168 23.582C49.7383 10.8125 62.5078 2.55469 75.168 5.45312ZM43.4219 36.9258C43.586 37.5 44.2149 38.9492 44.7891 40.1523L45.8282 42.3125L43.6407 43.9531C34.8633 50.4336 28.875 59.8398 26.4961 70.9141C25.9493 73.375 25.8672 74.6055 25.8672 79.5273C25.8672 84.4219 25.9493 85.6797 26.4688 88.0586C27.7813 94.1562 29.8868 99.1328 33.1954 104.137C39.8125 114.062 50.0664 120.762 62.3985 123.168C66.3633 123.961 73.1719 124.016 77.0274 123.305C94.8282 120.051 108.938 107.035 113.012 90.0547C114.078 85.6797 114.406 82.3164 114.215 77.7773C113.914 71.1055 112.547 65.8008 109.621 59.8398C106.668 53.8516 102.02 48.2188 96.7969 44.2812L94.1446 42.2852L95.0469 40.5078C95.5391 39.5508 96.1407 38.1016 96.3868 37.3359C96.6602 36.543 96.961 35.9141 97.0977 35.9688C98.0821 36.2969 102.922 40.125 105.383 42.4766C110.359 47.2891 113.504 51.6094 116.375 57.6523C122.91 71.4609 122.91 87.6211 116.375 101.402C113.723 106.98 111.07 110.781 106.668 115.32C99.0938 123.113 89.4961 128.145 78.4766 130.168C74.7852 130.852 65.1602 130.852 61.5235 130.168C44.6524 127.051 31.1172 116.852 23.7891 101.785C18.8399 91.5586 17.4454 80.0195 19.7969 68.8359C20.7539 64.4336 21.9024 61.207 24.1993 56.5586C27.2344 50.4609 30.9532 45.5938 36.0391 41.082C38.0625 39.2773 42.5196 35.9414 42.9571 35.9141C43.0391 35.9141 43.2579 36.3789 43.4219 36.9258ZM49.8204 47.5625C51.4063 49.2852 54.9336 51.8828 57.2579 53.0586C66.9922 57.9531 78.2032 56.9688 86.8711 50.4336C88.0469 49.5312 89.5508 48.2461 90.1797 47.5625C90.8086 46.8789 91.4102 46.3047 91.4922 46.3047C91.875 46.3047 95.1563 48.8203 97.0157 50.543C99.5586 52.9219 102.211 56.2031 104.043 59.293C105.301 61.4258 106.914 64.6797 106.914 65.0898C106.914 65.3633 103.223 64.8438 97.4805 63.8047C85.668 61.6445 79.1329 60.9883 69.7266 60.9883C60.7032 60.9883 56.5743 61.3984 43.4766 63.668C39.6485 64.3242 35.7383 64.9805 34.7813 65.1172C32.7579 65.418 32.7579 65.5547 34.6719 61.7539C36.4493 58.1445 38.9102 54.7266 41.6993 51.8828C43.9141 49.668 47.9336 46.332 48.4532 46.3047C48.5625 46.3047 49.1914 46.8789 49.8204 47.5625ZM79.4336 66.0195C84.4375 66.4297 90.3985 67.25 96.8789 68.4258C100.078 69.0273 103.961 69.6562 105.52 69.8477C107.516 70.0938 108.391 70.3398 108.555 70.6406C108.828 71.1875 109.348 74.4961 109.43 76.3281L109.512 77.7773L107.734 78.4883C105.492 79.3906 102.539 81.1406 99.9961 83.0547C93.8711 87.6758 86.5977 95.7148 82.961 101.922L81.6211 104.219L78.8868 104.574C75.2774 105.066 64.6954 105.066 61.1133 104.602L58.3789 104.219L57.1485 102.141C53.7579 96.3164 45.336 86.9922 39.7852 82.8633C37.461 81.1406 32.375 78.3242 30.9258 77.9414C30.3243 77.8047 30.2969 77.7227 30.4883 76.0547C30.7344 73.5664 31.1719 71.1328 31.4454 70.6133C31.6368 70.3125 32.2383 70.1211 33.5508 69.9844C34.5625 69.875 37.1329 69.4922 39.2383 69.1367C52.8008 66.7578 56.6016 66.2383 64.1211 65.7188C67.9493 65.4727 74.211 65.582 79.4336 66.0195ZM32.4844 83.7383C38.1993 86.6367 46.9766 95.0859 51.8164 102.359C54.0313 105.695 55.8907 109.578 56.6016 112.312C57.1758 114.582 57.3125 116.852 56.9024 116.852C56.3555 116.852 52.0352 114.883 50.2032 113.816C41.8086 108.84 35.793 101.539 32.5664 92.4336C31.336 88.9062 30.1875 82.9453 30.7618 82.9453C30.8438 82.9453 31.6094 83.3008 32.4844 83.7383ZM109.375 83.793C109.375 84.2578 109.129 85.8438 108.828 87.3203C106.258 99.8984 97.5352 110.699 85.8321 115.785C84.4922 116.359 83.2344 116.852 83.0704 116.852C82.5782 116.852 83.0157 113.133 83.7539 110.973C85.668 105.367 89.6875 99.4062 95.7032 93.2266C98.9024 89.918 101.883 87.3203 104.316 85.6523C105.793 84.668 108.828 82.9727 109.184 82.9453C109.293 82.9453 109.375 83.3281 109.375 83.793ZM67.8125 109.633C71.0391 109.715 74.9219 109.66 76.4258 109.523C77.9297 109.387 79.1875 109.277 79.2422 109.332C79.2969 109.387 79.1055 110.125 78.8594 111C78.5313 112.066 78.3672 113.57 78.3672 115.43C78.3399 117.672 78.2579 118.246 77.9297 118.355C75.1133 119.23 64.8868 119.23 62.0704 118.355C61.7422 118.246 61.6602 117.672 61.6329 115.43C61.6329 113.625 61.4688 112.066 61.168 111.055C60.5664 109.113 60.5938 109.086 61.3321 109.305C61.6602 109.414 64.586 109.551 67.8125 109.633Z" fill="#FF8B1F"/>
<path d="M82.0586 17.5391C81.5118 18.1133 77.4649 22.6523 73.0352 27.6289L64.9961 36.6797L61.2774 33.8906C59.2266 32.332 57.2578 30.9375 56.9297 30.7461C55.0703 29.7617 52.8282 32.1133 53.9766 33.8633C54.6328 34.8477 64.1211 41.9297 65.0235 42.0937C65.4883 42.1758 66.0352 42.0391 66.5 41.7383C67.4844 41.082 85.8594 20.3828 86.1602 19.5625C86.7071 18.1406 85.4766 16.5 83.8633 16.5C83.2618 16.5 82.7696 16.7734 82.0586 17.5391Z" fill="#FF8B1F"/>
<path d="M42.793 73.2383C42.1368 73.8672 42.1094 74.0586 42.1094 77.1484C42.1094 80.8945 42.3555 81.4688 44.0508 81.7422C44.8438 81.8789 45.1719 81.7695 45.8282 81.2227L46.6211 80.5391V77.2031C46.6211 73.8945 46.6211 73.8672 45.8555 73.2109C44.8438 72.3633 43.6407 72.3633 42.793 73.2383Z" fill="#FF8B1F"/>
<path d="M52.0899 73.2383C51.4336 73.8672 51.4063 74.0586 51.4063 77.2031C51.4063 80.1016 51.461 80.5391 51.9532 81.0312C53.1289 82.207 54.961 81.9609 55.6993 80.4844C55.918 80.0742 56.0547 78.707 56.0547 77.0117C56.0547 74.4141 56 74.168 55.3438 73.4023C54.4414 72.3086 53.0743 72.2266 52.0899 73.2383Z" fill="#FF8B1F"/>
<path d="M84.6563 73.4023C83.9727 74.1953 83.9454 74.4141 83.9454 77.2578C83.9454 80.2109 83.9454 80.2656 84.7383 81.0586C85.1758 81.4961 85.8047 81.8516 86.1329 81.8516C86.9258 81.8516 88.211 81.1406 88.4297 80.6211C88.5118 80.375 88.5938 78.7617 88.5938 77.0391C88.5938 74.0586 88.5664 73.8672 87.9102 73.2383C86.9258 72.2266 85.5586 72.3086 84.6563 73.4023Z" fill="#FF8B1F"/>
<path d="M94.1446 73.2109C93.3789 73.8672 93.3789 73.8945 93.3789 77.2031V80.5391L94.1719 81.2227C94.8282 81.7695 95.1563 81.8789 95.9493 81.7422C97.6446 81.4688 97.8907 80.8945 97.8907 77.1484C97.8907 74.0586 97.8633 73.8672 97.2071 73.2383C96.3594 72.3633 95.1563 72.3633 94.1446 73.2109Z" fill="#FF8B1F"/>
<path d="M8.33988 30.7734C6.91801 31.5391 6.64457 33.2891 7.79301 34.4102C8.42191 35.0664 8.58597 35.0938 12.0586 35.0938H15.6407L14.6563 36.3789C10.6368 41.6562 6.42582 49.2578 4.23832 55.1914C-2.37887 73.2383 -1.12106 93.8281 7.71097 111.082C11.1836 117.891 18.8125 127.953 20.8633 128.473C22.3672 128.855 24.0078 127.242 23.625 125.738C23.543 125.355 22.586 124.098 21.5196 122.922C12.168 112.668 6.20707 99.0781 4.92191 84.9961C3.60941 70.5586 7.41019 55.5195 15.3946 43.543C16.543 41.8203 17.7188 40.125 18.0196 39.7422L18.5938 39.0586V41.9297C18.5938 43.6523 18.7305 45.0742 18.9493 45.4844C19.6875 46.9609 21.5196 47.207 22.6953 46.0312C23.2149 45.5117 23.2422 45.1016 23.2422 38.7031C23.2149 31.6211 23.1875 31.4297 21.9571 30.7734C21.1641 30.3359 9.10551 30.3359 8.33988 30.7734Z" fill="#FF8B1F"/>
<path d="M118.262 30.7461C116.512 31.7305 116.566 33.1524 118.481 35.3945C127.777 46.3594 132.754 57.0781 134.723 70.3399C135.352 74.6875 135.352 84.0938 134.723 88.4414C133.082 99.4609 129.117 109.223 122.527 118.355L121.543 119.723L121.406 116.605C121.27 113.652 121.242 113.488 120.504 112.859C119.492 112.012 118.289 112.012 117.441 112.887L116.758 113.543V127.16L118.18 128.473H131.469L132.18 127.816C133.109 126.941 133.164 125.41 132.262 124.562C131.688 124.016 131.332 123.961 128.023 123.961C126.027 123.961 124.414 123.906 124.414 123.797C124.414 123.715 125.453 122.211 126.711 120.461C133.629 110.809 137.758 100.363 139.508 88.0039C139.945 84.832 139.945 74.3047 139.508 70.9141C137.84 58.3906 133.164 46.8242 125.863 37.1719C121.242 31.1016 119.793 29.8711 118.262 30.7461Z" fill="#FF8B1F"/>
<path d="M65.625 0.503906C56.7657 1.89844 48.9454 7.66797 44.9805 15.8164C42.9297 19.9727 42.3555 22.3242 42.1914 27.082L42.0547 30.9375L39.1016 32.8789C30.8985 38.293 24.3633 45.6758 19.9063 54.5352C14.3008 65.7734 12.6602 78.2422 15.2032 90.8203C18.1563 105.586 27.5625 119.121 40.4414 127.078C49.4922 132.656 59.1993 135.418 69.8633 135.445C76.5899 135.445 81.6485 134.652 87.6368 132.656C102.102 127.844 113.613 117.727 120.34 103.863C123.594 97.1641 125.207 91.0938 125.836 83.3281C127.395 63.5312 117.441 43.6523 100.488 32.6055L97.8907 30.9102V27.9297C97.8907 18.332 93.0235 9.63672 84.6563 4.33203C81.5664 2.36328 78.0664 1.10547 74.1016 0.503906C70.9844 0.0117188 68.7422 0.0117188 65.625 0.503906ZM75.168 5.45312C79.3243 6.41016 82.7969 8.26953 85.9414 11.2773C91.1094 16.1992 93.4883 22.0781 93.1602 29.1875C92.9961 33.1523 92.3399 35.5859 90.6172 38.9219C87.7188 44.5547 82.7149 48.6562 76.4258 50.5703C74.2383 51.2266 73.5274 51.3086 70 51.3086C66.4727 51.3086 65.7618 51.2266 63.5743 50.5703C59.0352 49.2031 54.9063 46.4961 52.0352 43.0508C50.3672 41.0273 48.0704 36.625 47.4141 34.1367C46.7305 31.5938 46.5938 26.3438 47.168 23.582C49.7383 10.8125 62.5078 2.55469 75.168 5.45312ZM43.4219 36.9258C43.586 37.5 44.2149 38.9492 44.7891 40.1523L45.8282 42.3125L43.6407 43.9531C34.8633 50.4336 28.875 59.8398 26.4961 70.9141C25.9493 73.375 25.8672 74.6055 25.8672 79.5273C25.8672 84.4219 25.9493 85.6797 26.4688 88.0586C27.7813 94.1562 29.8868 99.1328 33.1954 104.137C39.8125 114.062 50.0664 120.762 62.3985 123.168C66.3633 123.961 73.1719 124.016 77.0274 123.305C94.8282 120.051 108.938 107.035 113.012 90.0547C114.078 85.6797 114.406 82.3164 114.215 77.7773C113.914 71.1055 112.547 65.8008 109.621 59.8398C106.668 53.8516 102.02 48.2188 96.7969 44.2812L94.1446 42.2852L95.0469 40.5078C95.5391 39.5508 96.1407 38.1016 96.3868 37.3359C96.6602 36.543 96.961 35.9141 97.0977 35.9688C98.0821 36.2969 102.922 40.125 105.383 42.4766C110.359 47.2891 113.504 51.6094 116.375 57.6523C122.91 71.4609 122.91 87.6211 116.375 101.402C113.723 106.98 111.07 110.781 106.668 115.32C99.0938 123.113 89.4961 128.145 78.4766 130.168C74.7852 130.852 65.1602 130.852 61.5235 130.168C44.6524 127.051 31.1172 116.852 23.7891 101.785C18.8399 91.5586 17.4454 80.0195 19.7969 68.8359C20.7539 64.4336 21.9024 61.207 24.1993 56.5586C27.2344 50.4609 30.9532 45.5938 36.0391 41.082C38.0625 39.2773 42.5196 35.9414 42.9571 35.9141C43.0391 35.9141 43.2579 36.3789 43.4219 36.9258ZM49.8204 47.5625C51.4063 49.2852 54.9336 51.8828 57.2579 53.0586C66.9922 57.9531 78.2032 56.9688 86.8711 50.4336C88.0469 49.5312 89.5508 48.2461 90.1797 47.5625C90.8086 46.8789 91.4102 46.3047 91.4922 46.3047C91.875 46.3047 95.1563 48.8203 97.0157 50.543C99.5586 52.9219 102.211 56.2031 104.043 59.293C105.301 61.4258 106.914 64.6797 106.914 65.0898C106.914 65.3633 103.223 64.8438 97.4805 63.8047C85.668 61.6445 79.1329 60.9883 69.7266 60.9883C60.7032 60.9883 56.5743 61.3984 43.4766 63.668C39.6485 64.3242 35.7383 64.9805 34.7813 65.1172C32.7579 65.418 32.7579 65.5547 34.6719 61.7539C36.4493 58.1445 38.9102 54.7266 41.6993 51.8828C43.9141 49.668 47.9336 46.332 48.4532 46.3047C48.5625 46.3047 49.1914 46.8789 49.8204 47.5625ZM79.4336 66.0195C84.4375 66.4297 90.3985 67.25 96.8789 68.4258C100.078 69.0273 103.961 69.6562 105.52 69.8477C107.516 70.0938 108.391 70.3398 108.555 70.6406C108.828 71.1875 109.348 74.4961 109.43 76.3281L109.512 77.7773L107.734 78.4883C105.492 79.3906 102.539 81.1406 99.9961 83.0547C93.8711 87.6758 86.5977 95.7148 82.961 101.922L81.6211 104.219L78.8868 104.574C75.2774 105.066 64.6954 105.066 61.1133 104.602L58.3789 104.219L57.1485 102.141C53.7579 96.3164 45.336 86.9922 39.7852 82.8633C37.461 81.1406 32.375 78.3242 30.9258 77.9414C30.3243 77.8047 30.2969 77.7227 30.4883 76.0547C30.7344 73.5664 31.1719 71.1328 31.4454 70.6133C31.6368 70.3125 32.2383 70.1211 33.5508 69.9844C34.5625 69.875 37.1329 69.4922 39.2383 69.1367C52.8008 66.7578 56.6016 66.2383 64.1211 65.7188C67.9493 65.4727 74.211 65.582 79.4336 66.0195ZM32.4844 83.7383C38.1993 86.6367 46.9766 95.0859 51.8164 102.359C54.0313 105.695 55.8907 109.578 56.6016 112.312C57.1758 114.582 57.3125 116.852 56.9024 116.852C56.3555 116.852 52.0352 114.883 50.2032 113.816C41.8086 108.84 35.793 101.539 32.5664 92.4336C31.336 88.9062 30.1875 82.9453 30.7618 82.9453C30.8438 82.9453 31.6094 83.3008 32.4844 83.7383ZM109.375 83.793C109.375 84.2578 109.129 85.8438 108.828 87.3203C106.258 99.8984 97.5352 110.699 85.8321 115.785C84.4922 116.359 83.2344 116.852 83.0704 116.852C82.5782 116.852 83.0157 113.133 83.7539 110.973C85.668 105.367 89.6875 99.4062 95.7032 93.2266C98.9024 89.918 101.883 87.3203 104.316 85.6523C105.793 84.668 108.828 82.9727 109.184 82.9453C109.293 82.9453 109.375 83.3281 109.375 83.793ZM67.8125 109.633C71.0391 109.715 74.9219 109.66 76.4258 109.523C77.9297 109.387 79.1875 109.277 79.2422 109.332C79.2969 109.387 79.1055 110.125 78.8594 111C78.5313 112.066 78.3672 113.57 78.3672 115.43C78.3399 117.672 78.2579 118.246 77.9297 118.355C75.1133 119.23 64.8868 119.23 62.0704 118.355C61.7422 118.246 61.6602 117.672 61.6329 115.43C61.6329 113.625 61.4688 112.066 61.168 111.055C60.5664 109.113 60.5938 109.086 61.3321 109.305C61.6602 109.414 64.586 109.551 67.8125 109.633Z" stroke="#FBFBFB" stroke-width="2" mask="url(#path-1-inside-1_151_71)"/>
<path d="M82.0586 17.5391C81.5118 18.1133 77.4649 22.6523 73.0352 27.6289L64.9961 36.6797L61.2774 33.8906C59.2266 32.332 57.2578 30.9375 56.9297 30.7461C55.0703 29.7617 52.8282 32.1133 53.9766 33.8633C54.6328 34.8477 64.1211 41.9297 65.0235 42.0937C65.4883 42.1758 66.0352 42.0391 66.5 41.7383C67.4844 41.082 85.8594 20.3828 86.1602 19.5625C86.7071 18.1406 85.4766 16.5 83.8633 16.5C83.2618 16.5 82.7696 16.7734 82.0586 17.5391Z" stroke="#FBFBFB" stroke-width="2" mask="url(#path-1-inside-1_151_71)"/>
<path d="M42.793 73.2383C42.1368 73.8672 42.1094 74.0586 42.1094 77.1484C42.1094 80.8945 42.3555 81.4688 44.0508 81.7422C44.8438 81.8789 45.1719 81.7695 45.8282 81.2227L46.6211 80.5391V77.2031C46.6211 73.8945 46.6211 73.8672 45.8555 73.2109C44.8438 72.3633 43.6407 72.3633 42.793 73.2383Z" stroke="#FBFBFB" stroke-width="2" mask="url(#path-1-inside-1_151_71)"/>
<path d="M52.0899 73.2383C51.4336 73.8672 51.4063 74.0586 51.4063 77.2031C51.4063 80.1016 51.461 80.5391 51.9532 81.0312C53.1289 82.207 54.961 81.9609 55.6993 80.4844C55.918 80.0742 56.0547 78.707 56.0547 77.0117C56.0547 74.4141 56 74.168 55.3438 73.4023C54.4414 72.3086 53.0743 72.2266 52.0899 73.2383Z" stroke="#FBFBFB" stroke-width="2" mask="url(#path-1-inside-1_151_71)"/>
<path d="M84.6563 73.4023C83.9727 74.1953 83.9454 74.4141 83.9454 77.2578C83.9454 80.2109 83.9454 80.2656 84.7383 81.0586C85.1758 81.4961 85.8047 81.8516 86.1329 81.8516C86.9258 81.8516 88.211 81.1406 88.4297 80.6211C88.5118 80.375 88.5938 78.7617 88.5938 77.0391C88.5938 74.0586 88.5664 73.8672 87.9102 73.2383C86.9258 72.2266 85.5586 72.3086 84.6563 73.4023Z" stroke="#FBFBFB" stroke-width="2" mask="url(#path-1-inside-1_151_71)"/>
<path d="M94.1446 73.2109C93.3789 73.8672 93.3789 73.8945 93.3789 77.2031V80.5391L94.1719 81.2227C94.8282 81.7695 95.1563 81.8789 95.9493 81.7422C97.6446 81.4688 97.8907 80.8945 97.8907 77.1484C97.8907 74.0586 97.8633 73.8672 97.2071 73.2383C96.3594 72.3633 95.1563 72.3633 94.1446 73.2109Z" stroke="#FBFBFB" stroke-width="2" mask="url(#path-1-inside-1_151_71)"/>
<path d="M8.33988 30.7734C6.91801 31.5391 6.64457 33.2891 7.79301 34.4102C8.42191 35.0664 8.58597 35.0938 12.0586 35.0938H15.6407L14.6563 36.3789C10.6368 41.6562 6.42582 49.2578 4.23832 55.1914C-2.37887 73.2383 -1.12106 93.8281 7.71097 111.082C11.1836 117.891 18.8125 127.953 20.8633 128.473C22.3672 128.855 24.0078 127.242 23.625 125.738C23.543 125.355 22.586 124.098 21.5196 122.922C12.168 112.668 6.20707 99.0781 4.92191 84.9961C3.60941 70.5586 7.41019 55.5195 15.3946 43.543C16.543 41.8203 17.7188 40.125 18.0196 39.7422L18.5938 39.0586V41.9297C18.5938 43.6523 18.7305 45.0742 18.9493 45.4844C19.6875 46.9609 21.5196 47.207 22.6953 46.0312C23.2149 45.5117 23.2422 45.1016 23.2422 38.7031C23.2149 31.6211 23.1875 31.4297 21.9571 30.7734C21.1641 30.3359 9.10551 30.3359 8.33988 30.7734Z" stroke="#FBFBFB" stroke-width="2" mask="url(#path-1-inside-1_151_71)"/>
<path d="M118.262 30.7461C116.512 31.7305 116.566 33.1524 118.481 35.3945C127.777 46.3594 132.754 57.0781 134.723 70.3399C135.352 74.6875 135.352 84.0938 134.723 88.4414C133.082 99.4609 129.117 109.223 122.527 118.355L121.543 119.723L121.406 116.605C121.27 113.652 121.242 113.488 120.504 112.859C119.492 112.012 118.289 112.012 117.441 112.887L116.758 113.543V127.16L118.18 128.473H131.469L132.18 127.816C133.109 126.941 133.164 125.41 132.262 124.562C131.688 124.016 131.332 123.961 128.023 123.961C126.027 123.961 124.414 123.906 124.414 123.797C124.414 123.715 125.453 122.211 126.711 120.461C133.629 110.809 137.758 100.363 139.508 88.0039C139.945 84.832 139.945 74.3047 139.508 70.9141C137.84 58.3906 133.164 46.8242 125.863 37.1719C121.242 31.1016 119.793 29.8711 118.262 30.7461Z" stroke="#FBFBFB" stroke-width="2" mask="url(#path-1-inside-1_151_71)"/>
</svg>
