<svg width="190" height="135" viewBox="0 0 190 135" fill="none" xmlns="http://www.w3.org/2000/svg">
<mask id="path-1-inside-1_62_3787" fill="white">
<path d="M82.482 1.44739C73.9549 2.78961 66.4279 8.34273 62.6118 16.1855C60.638 20.1859 60.0853 22.4492 59.9274 27.0286L59.7958 30.7394L56.9534 32.608C49.058 37.819 42.768 44.9249 38.4781 53.4519C33.0829 64.2687 31.5038 76.2697 33.9514 88.376C36.7938 102.588 45.8472 115.615 58.243 123.274C66.9543 128.643 76.2972 131.301 86.5613 131.327C93.0355 131.327 97.9044 130.564 103.668 128.643C117.59 124.011 128.67 114.273 135.144 100.93C138.276 94.4818 139.829 88.6392 140.434 81.1649C141.935 62.1106 132.355 42.9773 116.038 32.3448L113.537 30.7131V27.8444C113.537 18.6068 108.853 10.2376 100.799 5.13193C97.8254 3.23701 94.4567 2.0264 90.6406 1.44739C87.6403 0.973663 85.4822 0.973663 82.482 1.44739ZM91.667 6.21097C95.6673 7.1321 99.0097 8.92173 102.036 11.8167C107.01 16.554 109.3 22.2124 108.984 29.0551C108.826 32.8712 108.195 35.2135 106.537 38.4243C103.747 43.8458 98.9308 47.7935 92.8776 49.6358C90.7722 50.2674 90.0879 50.3464 86.6929 50.3464C83.2978 50.3464 82.6136 50.2674 80.5081 49.6358C76.1393 48.3199 72.1653 45.7144 69.4019 42.3983C67.7965 40.4508 65.5858 36.2136 64.9541 33.8186C64.2962 31.3711 64.1646 26.318 64.7173 23.6599C67.1912 11.3693 79.4817 3.42125 91.667 6.21097ZM61.1117 36.5031C61.2696 37.0558 61.8749 38.4506 62.4276 39.6086L63.4277 41.6877L61.3222 43.2668C52.8741 49.5042 47.1105 58.5576 44.8208 69.2165C44.2944 71.5851 44.2155 72.7694 44.2155 77.5067C44.2155 82.2176 44.2944 83.4282 44.7945 85.7179C46.0577 91.5868 48.0842 96.3767 51.2687 101.193C57.6377 110.746 67.507 117.194 79.3764 119.51C83.1926 120.274 89.7458 120.326 93.4566 119.642C110.59 116.51 124.17 103.983 128.091 87.6391C129.118 83.4282 129.433 80.1911 129.249 75.8223C128.96 69.4007 127.644 64.295 124.828 58.5576C121.985 52.794 117.511 47.3725 112.485 43.5826L109.932 41.6614L110.8 39.9508C111.274 39.0296 111.853 37.6348 112.09 36.8979C112.353 36.1346 112.642 35.5293 112.774 35.5819C113.722 35.8978 118.38 39.5823 120.748 41.8457C125.538 46.4776 128.565 50.6359 131.328 56.4522C137.618 69.7428 137.618 85.2968 131.328 98.5611C128.775 103.93 126.223 107.588 121.985 111.957C114.695 119.458 105.458 124.3 94.8515 126.248C91.2985 126.906 82.0346 126.906 78.5343 126.248C62.296 123.247 49.2685 113.431 42.2153 98.9296C37.4517 89.0866 36.1095 77.9804 38.3729 67.2163C39.294 62.9791 40.3993 59.8735 42.6101 55.3995C45.5314 49.5305 49.1106 44.8459 54.0058 40.5034C55.9533 38.7664 60.2432 35.5556 60.6643 35.5293C60.7432 35.5293 60.9538 35.9767 61.1117 36.5031ZM67.2701 46.7408C68.7966 48.3989 72.1916 50.8991 74.4286 52.0308C83.7979 56.7417 94.5883 55.7942 102.931 49.5042C104.063 48.6357 105.51 47.3988 106.116 46.7408C106.721 46.0829 107.3 45.5302 107.379 45.5302C107.747 45.5302 110.906 47.9515 112.695 49.6095C115.143 51.8992 117.696 55.0573 119.459 58.0313C120.67 60.0841 122.222 63.2159 122.222 63.6107C122.222 63.8739 118.669 63.3738 113.143 62.3738C101.773 60.2946 95.4831 59.663 86.4297 59.663C77.7447 59.663 73.7707 60.0578 61.1643 62.2422C57.4798 62.8738 53.7163 63.5054 52.7952 63.637C50.8476 63.9265 50.8476 64.0581 52.6899 60.3999C54.4006 56.9259 56.7692 53.6362 59.4536 50.8991C61.5854 48.7673 65.4542 45.5565 65.9542 45.5302C66.0595 45.5302 66.6648 46.0829 67.2701 46.7408ZM95.7726 64.5055C100.589 64.9003 106.326 65.6898 112.564 66.8215C115.643 67.4005 119.38 68.0058 120.88 68.1901C122.801 68.4269 123.643 68.6638 123.801 68.9533C124.065 69.4796 124.565 72.6641 124.644 74.4274L124.722 75.8223L123.012 76.5066C120.854 77.3751 118.011 79.0594 115.564 80.9017C109.669 85.3495 102.668 93.087 99.1676 99.0612L97.878 101.272L95.2462 101.614C91.7723 102.088 81.5872 102.088 78.1395 101.64L75.5077 101.272L74.3234 99.2717C71.0599 93.666 62.9539 84.6915 57.6114 80.7175C55.3743 79.0594 50.4792 76.3487 49.0843 75.9802C48.5053 75.8486 48.479 75.7697 48.6632 74.1643C48.9001 71.7693 49.3212 69.427 49.5844 68.927C49.7686 68.6375 50.3476 68.4532 51.6108 68.3217C52.5846 68.2164 55.0585 67.8479 57.085 67.5058C70.1388 65.2161 73.797 64.7161 81.0345 64.216C84.719 63.9792 90.7458 64.0844 95.7726 64.5055ZM50.5844 81.5596C56.0849 84.3494 64.533 92.4817 69.1913 99.4823C71.3231 102.693 73.1127 106.43 73.797 109.062C74.3497 111.246 74.4813 113.431 74.0865 113.431C73.5601 113.431 69.4019 111.536 67.6386 110.51C59.5589 105.72 53.7689 98.6927 50.6634 89.9288C49.4791 86.5338 48.3737 80.7964 48.9264 80.7964C49.0054 80.7964 49.7423 81.1386 50.5844 81.5596ZM124.591 81.6123C124.591 82.0597 124.354 83.5861 124.065 85.0073C121.591 97.1136 113.195 107.509 101.931 112.404C100.641 112.957 99.4308 113.431 99.2729 113.431C98.7992 113.431 99.2203 109.852 99.9309 107.772C101.773 102.377 105.642 96.6399 111.432 90.692C114.511 87.5075 117.38 85.0073 119.722 83.4019C121.143 82.4545 124.065 80.8227 124.407 80.7964C124.512 80.7964 124.591 81.1649 124.591 81.6123ZM84.5874 106.483C87.6929 106.562 91.4301 106.509 92.8776 106.378C94.3251 106.246 95.5357 106.141 95.5884 106.193C95.641 106.246 95.4568 106.957 95.2199 107.799C94.9041 108.825 94.7462 110.273 94.7462 112.062C94.7199 114.22 94.6409 114.773 94.3251 114.878C91.6143 115.721 81.7714 115.721 79.0606 114.878C78.7448 114.773 78.6658 114.22 78.6395 112.062C78.6395 110.325 78.4816 108.825 78.1921 107.851C77.6131 105.983 77.6394 105.957 78.35 106.167C78.6658 106.272 81.4819 106.404 84.5874 106.483Z"/>
</mask>
<path d="M82.482 1.44739C73.9549 2.78961 66.4279 8.34273 62.6118 16.1855C60.638 20.1859 60.0853 22.4492 59.9274 27.0286L59.7958 30.7394L56.9534 32.608C49.058 37.819 42.768 44.9249 38.4781 53.4519C33.0829 64.2687 31.5038 76.2697 33.9514 88.376C36.7938 102.588 45.8472 115.615 58.243 123.274C66.9543 128.643 76.2972 131.301 86.5613 131.327C93.0355 131.327 97.9044 130.564 103.668 128.643C117.59 124.011 128.67 114.273 135.144 100.93C138.276 94.4818 139.829 88.6392 140.434 81.1649C141.935 62.1106 132.355 42.9773 116.038 32.3448L113.537 30.7131V27.8444C113.537 18.6068 108.853 10.2376 100.799 5.13193C97.8254 3.23701 94.4567 2.0264 90.6406 1.44739C87.6403 0.973663 85.4822 0.973663 82.482 1.44739ZM91.667 6.21097C95.6673 7.1321 99.0097 8.92173 102.036 11.8167C107.01 16.554 109.3 22.2124 108.984 29.0551C108.826 32.8712 108.195 35.2135 106.537 38.4243C103.747 43.8458 98.9308 47.7935 92.8776 49.6358C90.7722 50.2674 90.0879 50.3464 86.6929 50.3464C83.2978 50.3464 82.6136 50.2674 80.5081 49.6358C76.1393 48.3199 72.1653 45.7144 69.4019 42.3983C67.7965 40.4508 65.5858 36.2136 64.9541 33.8186C64.2962 31.3711 64.1646 26.318 64.7173 23.6599C67.1912 11.3693 79.4817 3.42125 91.667 6.21097ZM61.1117 36.5031C61.2696 37.0558 61.8749 38.4506 62.4276 39.6086L63.4277 41.6877L61.3222 43.2668C52.8741 49.5042 47.1105 58.5576 44.8208 69.2165C44.2944 71.5851 44.2155 72.7694 44.2155 77.5067C44.2155 82.2176 44.2944 83.4282 44.7945 85.7179C46.0577 91.5868 48.0842 96.3767 51.2687 101.193C57.6377 110.746 67.507 117.194 79.3764 119.51C83.1926 120.274 89.7458 120.326 93.4566 119.642C110.59 116.51 124.17 103.983 128.091 87.6391C129.118 83.4282 129.433 80.1911 129.249 75.8223C128.96 69.4007 127.644 64.295 124.828 58.5576C121.985 52.794 117.511 47.3725 112.485 43.5826L109.932 41.6614L110.8 39.9508C111.274 39.0296 111.853 37.6348 112.09 36.8979C112.353 36.1346 112.642 35.5293 112.774 35.5819C113.722 35.8978 118.38 39.5823 120.748 41.8457C125.538 46.4776 128.565 50.6359 131.328 56.4522C137.618 69.7428 137.618 85.2968 131.328 98.5611C128.775 103.93 126.223 107.588 121.985 111.957C114.695 119.458 105.458 124.3 94.8515 126.248C91.2985 126.906 82.0346 126.906 78.5343 126.248C62.296 123.247 49.2685 113.431 42.2153 98.9296C37.4517 89.0866 36.1095 77.9804 38.3729 67.2163C39.294 62.9791 40.3993 59.8735 42.6101 55.3995C45.5314 49.5305 49.1106 44.8459 54.0058 40.5034C55.9533 38.7664 60.2432 35.5556 60.6643 35.5293C60.7432 35.5293 60.9538 35.9767 61.1117 36.5031ZM67.2701 46.7408C68.7966 48.3989 72.1916 50.8991 74.4286 52.0308C83.7979 56.7417 94.5883 55.7942 102.931 49.5042C104.063 48.6357 105.51 47.3988 106.116 46.7408C106.721 46.0829 107.3 45.5302 107.379 45.5302C107.747 45.5302 110.906 47.9515 112.695 49.6095C115.143 51.8992 117.696 55.0573 119.459 58.0313C120.67 60.0841 122.222 63.2159 122.222 63.6107C122.222 63.8739 118.669 63.3738 113.143 62.3738C101.773 60.2946 95.4831 59.663 86.4297 59.663C77.7447 59.663 73.7707 60.0578 61.1643 62.2422C57.4798 62.8738 53.7163 63.5054 52.7952 63.637C50.8476 63.9265 50.8476 64.0581 52.6899 60.3999C54.4006 56.9259 56.7692 53.6362 59.4536 50.8991C61.5854 48.7673 65.4542 45.5565 65.9542 45.5302C66.0595 45.5302 66.6648 46.0829 67.2701 46.7408ZM95.7726 64.5055C100.589 64.9003 106.326 65.6898 112.564 66.8215C115.643 67.4005 119.38 68.0058 120.88 68.1901C122.801 68.4269 123.643 68.6638 123.801 68.9533C124.065 69.4796 124.565 72.6641 124.644 74.4274L124.722 75.8223L123.012 76.5066C120.854 77.3751 118.011 79.0594 115.564 80.9017C109.669 85.3495 102.668 93.087 99.1676 99.0612L97.878 101.272L95.2462 101.614C91.7723 102.088 81.5872 102.088 78.1395 101.64L75.5077 101.272L74.3234 99.2717C71.0599 93.666 62.9539 84.6915 57.6114 80.7175C55.3743 79.0594 50.4792 76.3487 49.0843 75.9802C48.5053 75.8486 48.479 75.7697 48.6632 74.1643C48.9001 71.7693 49.3212 69.427 49.5844 68.927C49.7686 68.6375 50.3476 68.4532 51.6108 68.3217C52.5846 68.2164 55.0585 67.8479 57.085 67.5058C70.1388 65.2161 73.797 64.7161 81.0345 64.216C84.719 63.9792 90.7458 64.0844 95.7726 64.5055ZM50.5844 81.5596C56.0849 84.3494 64.533 92.4817 69.1913 99.4823C71.3231 102.693 73.1127 106.43 73.797 109.062C74.3497 111.246 74.4813 113.431 74.0865 113.431C73.5601 113.431 69.4019 111.536 67.6386 110.51C59.5589 105.72 53.7689 98.6927 50.6634 89.9288C49.4791 86.5338 48.3737 80.7964 48.9264 80.7964C49.0054 80.7964 49.7423 81.1386 50.5844 81.5596ZM124.591 81.6123C124.591 82.0597 124.354 83.5861 124.065 85.0073C121.591 97.1136 113.195 107.509 101.931 112.404C100.641 112.957 99.4308 113.431 99.2729 113.431C98.7992 113.431 99.2203 109.852 99.9309 107.772C101.773 102.377 105.642 96.6399 111.432 90.692C114.511 87.5075 117.38 85.0073 119.722 83.4019C121.143 82.4545 124.065 80.8227 124.407 80.7964C124.512 80.7964 124.591 81.1649 124.591 81.6123ZM84.5874 106.483C87.6929 106.562 91.4301 106.509 92.8776 106.378C94.3251 106.246 95.5357 106.141 95.5884 106.193C95.641 106.246 95.4568 106.957 95.2199 107.799C94.9041 108.825 94.7462 110.273 94.7462 112.062C94.7199 114.22 94.6409 114.773 94.3251 114.878C91.6143 115.721 81.7714 115.721 79.0606 114.878C78.7448 114.773 78.6658 114.22 78.6395 112.062C78.6395 110.325 78.4816 108.825 78.1921 107.851C77.6131 105.983 77.6394 105.957 78.35 106.167C78.6658 106.272 81.4819 106.404 84.5874 106.483Z" fill="#FF8B1F" stroke="#FBFBFB" stroke-width="2" mask="url(#path-1-inside-1_62_3787)"/>
<path d="M98.6655 18.1838L98.6656 18.1838L98.6612 18.1884C98.1426 18.733 94.257 23.0909 89.9877 27.8874L82.2505 36.5983L81.9449 36.9424L81.5767 36.6662L77.9974 33.9818L77.9974 33.9818L77.9949 33.9798C76.0328 32.4887 74.1805 31.1779 73.8694 30.9921C73.2272 30.6581 72.4816 30.8727 71.9685 31.4128C71.454 31.9544 71.2994 32.6862 71.6873 33.2792C71.7252 33.3352 71.8841 33.5021 72.2054 33.7878C72.5089 34.0577 72.914 34.3968 73.3904 34.7819C74.3425 35.5513 75.5649 36.493 76.7968 37.4116C78.0288 38.3302 79.2657 39.2224 80.2464 39.8934C80.7374 40.2293 81.1596 40.5066 81.4826 40.7032C81.6447 40.8018 81.776 40.8767 81.8755 40.9277C81.9655 40.9738 82.0022 40.9859 82.0019 40.9868C82.0019 40.9868 82.0019 40.9868 82.0019 40.9868C82.2958 41.0346 82.6868 40.9499 83.0459 40.7195C83.0462 40.7193 83.047 40.7186 83.0482 40.7176C83.0554 40.7118 83.0785 40.6929 83.1228 40.6522C83.1771 40.6023 83.2484 40.5336 83.3369 40.4456C83.5135 40.2698 83.7483 40.0271 84.0344 39.7251C84.606 39.1217 85.3733 38.2913 86.2704 37.3077C88.0642 35.341 90.3711 32.7686 92.6582 30.1905C94.9453 27.6123 97.2111 25.0302 98.9225 23.044C99.7785 22.0505 100.494 21.2082 101.004 20.5907C101.259 20.2815 101.46 20.0318 101.601 19.8492C101.671 19.7575 101.723 19.6868 101.758 19.6361C101.774 19.6133 101.783 19.5989 101.788 19.5914C102.151 18.5986 101.279 17.3435 100.036 17.3435C99.6648 17.3435 99.3151 17.4842 98.6655 18.1838Z" fill="#FF8B1F" stroke="#FBFBFB"/>
<path d="M60.8655 71.8015L60.859 71.8082L60.8523 71.8146C60.6974 71.9631 60.6184 72.0504 60.5633 72.1402C60.5133 72.2218 60.4682 72.3307 60.4332 72.5325C60.3569 72.9724 60.3484 73.7068 60.3484 75.2171C60.3484 76.1166 60.3633 76.8093 60.4091 77.3498C60.4553 77.895 60.5305 78.2482 60.6313 78.4863C60.7241 78.7055 60.8368 78.8242 60.9865 78.9106C61.1568 79.0088 61.4035 79.0815 61.7966 79.1449L61.7966 79.1449L61.802 79.1458C62.1553 79.2067 62.3348 79.1991 62.4786 79.1562C62.6296 79.1111 62.8011 79.0095 63.1044 78.757L63.6909 78.2514V75.2697C63.6909 73.6457 63.6884 72.9087 63.6076 72.4847C63.5722 72.299 63.5273 72.2107 63.4771 72.1424C63.4139 72.0564 63.3233 71.9738 63.1308 71.8088C62.7189 71.4644 62.2983 71.3163 61.9242 71.3187C61.5547 71.321 61.1868 71.4698 60.8655 71.8015Z" fill="#FF8B1F" stroke="#FBFBFB"/>
<path d="M69.8129 71.8022L69.8068 71.8085L69.8005 71.8146C69.6455 71.9631 69.567 72.05 69.5121 72.1399C69.4621 72.222 69.4167 72.3322 69.3815 72.538C69.305 72.9851 69.2966 73.7332 69.2966 75.2697C69.2966 76.6776 69.3108 77.44 69.3772 77.9106C69.4092 78.1376 69.45 78.2675 69.4919 78.3553C69.5314 78.438 69.5835 78.5077 69.6765 78.6007C70.5828 79.507 71.9333 79.3003 72.4813 78.2043L72.4811 78.2042L72.4873 78.1926C72.5049 78.1596 72.5413 78.0613 72.581 77.868C72.6185 77.6855 72.6525 77.4508 72.6811 77.1699C72.7382 76.6089 72.7706 75.8896 72.7706 75.0855C72.7706 73.816 72.7553 73.1891 72.6749 72.7846C72.6072 72.4433 72.4992 72.2781 72.2067 71.9369L72.2067 71.9369L72.2007 71.9297C71.8426 71.4956 71.4206 71.293 71.0235 71.2719C70.6282 71.2508 70.1983 71.4061 69.8129 71.8022Z" fill="#FF8B1F" stroke="#FBFBFB"/>
<path d="M101.185 71.9296L101.185 71.9296L101.178 71.9378C101.016 72.1255 100.92 72.2496 100.851 72.3723C100.787 72.4867 100.739 72.6162 100.703 72.8157C100.624 73.2504 100.615 73.9311 100.615 75.3222C100.615 76.7757 100.618 77.4302 100.7 77.8303C100.736 78.0041 100.784 78.1078 100.85 78.204C100.926 78.3159 101.035 78.4302 101.232 78.6269C101.409 78.8037 101.629 78.9677 101.836 79.0851C101.939 79.1435 102.031 79.1861 102.106 79.213C102.18 79.2395 102.216 79.2432 102.22 79.2436C102.221 79.2436 102.221 79.2437 102.221 79.2437C102.483 79.2437 102.897 79.115 103.295 78.8994C103.486 78.7957 103.654 78.6823 103.78 78.5751C103.885 78.4854 103.937 78.4199 103.959 78.3863C103.96 78.3757 103.963 78.3607 103.966 78.3409C103.974 78.2841 103.982 78.2067 103.991 78.1089C104.009 77.9138 104.026 77.6534 104.04 77.3448C104.07 76.7283 104.089 75.9335 104.089 75.1117C104.089 73.6536 104.081 72.9469 104.005 72.5215C103.97 72.3274 103.926 72.2214 103.876 72.1405C103.82 72.051 103.74 71.963 103.585 71.8144L103.579 71.8084L103.573 71.8021C103.187 71.406 102.758 71.2507 102.362 71.2718C101.965 71.2929 101.543 71.4955 101.185 71.9296Z" fill="#FF8B1F" stroke="#FBFBFB"/>
<path d="M111.584 79.1458L111.584 79.1458L111.589 79.1449C111.982 79.0815 112.229 79.0088 112.399 78.9106C112.549 78.8242 112.662 78.7055 112.754 78.4863C112.855 78.2482 112.93 77.895 112.977 77.3498C113.022 76.8093 113.037 76.1166 113.037 75.2171C113.037 73.7068 113.029 72.9724 112.953 72.5325C112.918 72.3307 112.872 72.2218 112.822 72.1402C112.767 72.0504 112.688 71.9631 112.533 71.8146L112.527 71.8082L112.52 71.8015C112.199 71.4698 111.831 71.321 111.462 71.3187C111.087 71.3163 110.667 71.4644 110.255 71.8088C110.062 71.9738 109.972 72.0564 109.909 72.1424C109.858 72.2107 109.813 72.299 109.778 72.4847C109.697 72.9087 109.695 73.6457 109.695 75.2697V78.2514L110.281 78.757C110.585 79.0095 110.756 79.1111 110.907 79.1562C111.051 79.1991 111.23 79.2067 111.584 79.1458Z" fill="#FF8B1F" stroke="#FBFBFB"/>
<path d="M27.6959 30.9992C27.6076 31.0154 27.575 31.0269 27.5747 31.026C26.4989 31.6111 26.3158 32.8916 27.1685 33.724L27.1744 33.7298L27.1802 33.7358C27.3306 33.8927 27.4139 33.9686 27.5033 34.0223C27.585 34.0713 27.7002 34.1178 27.9248 34.1539C28.4079 34.2314 29.2311 34.2397 30.9248 34.2397H34.3725H35.3853L34.7694 35.0437L33.8228 36.2796C29.9828 41.3213 25.9547 48.5939 23.8672 54.2559C17.5465 71.4942 18.7478 91.1667 27.1853 107.65L27.1857 107.65C28.8394 110.893 31.4927 114.927 33.9816 118.215C35.2254 119.858 36.4209 121.305 37.4225 122.368C37.9239 122.9 38.3695 123.329 38.7431 123.636C39.1338 123.957 39.391 124.098 39.522 124.131L39.5226 124.131C40.0346 124.262 40.6188 124.059 41.058 123.625C41.497 123.192 41.7022 122.616 41.5728 122.107L41.5705 122.098L41.5685 122.089C41.5685 122.089 41.5683 122.089 41.5677 122.087C41.5627 122.075 41.5305 121.995 41.4269 121.828C41.3241 121.662 41.179 121.454 40.9997 121.215C40.6421 120.74 40.1656 120.166 39.661 119.61C30.5858 109.659 24.8046 96.4761 23.5579 82.8156L23.5579 82.8155C22.2843 68.8066 25.9709 54.2177 33.7196 42.5946C34.8218 40.9414 35.965 39.2918 36.269 38.9049L36.2741 38.8984L36.2793 38.8922L36.832 38.2342L37.7148 37.1832V38.5558V41.3192C37.7148 42.1367 37.7474 42.8762 37.8045 43.4544C37.8332 43.7439 37.8673 43.9863 37.905 44.1745C37.945 44.3747 37.9816 44.4742 37.9982 44.5053L37.9983 44.5052L38.0042 44.517C38.5522 45.613 39.9027 45.8197 40.809 44.9134C40.9015 44.8209 40.945 44.7633 40.985 44.6516C41.0343 44.5135 41.0809 44.2799 41.1146 43.8252C41.182 42.9178 41.1889 41.304 41.1889 38.2146C41.1757 34.7812 41.161 33.0854 41.0111 32.1581C40.9383 31.7075 40.8427 31.5096 40.7502 31.3935C40.6539 31.2727 40.5205 31.1849 40.2249 31.027C40.2251 31.0272 40.2252 31.0272 40.2252 31.0273C40.2249 31.0282 40.1907 31.0162 40.098 30.9994C39.9891 30.9797 39.8395 30.9599 39.6498 30.9408C39.2716 30.9026 38.7635 30.8702 38.164 30.8441C36.9666 30.7919 35.4289 30.7656 33.8889 30.7656C32.3489 30.7656 30.8129 30.7919 29.6188 30.8441C29.0209 30.8702 28.515 30.9026 28.1394 30.9407C27.951 30.9598 27.803 30.9796 27.6959 30.9992Z" fill="#FF8B1F" stroke="#FBFBFB"/>
<path d="M133.389 30.9909L133.392 30.9893C133.678 30.826 133.918 30.7798 134.183 30.8343C134.472 30.8938 134.847 31.0852 135.364 31.5224C136.404 32.4019 137.832 34.1121 140.062 37.0422C147.034 46.26 151.503 57.3098 153.098 69.281C153.304 70.8773 153.409 74.1961 153.409 77.5198C153.409 80.8448 153.303 84.1075 153.098 85.5957C151.425 97.4151 147.479 107.392 140.87 116.613L133.389 30.9909ZM133.389 30.9909C132.641 31.4118 132.405 31.843 132.427 32.3157C132.451 32.8684 132.826 33.6396 133.735 34.7046L133.736 34.7058C142.74 45.3253 147.573 55.7273 149.482 68.5903L149.483 68.5921C150.095 72.8242 150.095 81.9258 149.483 86.1579L149.482 86.1599C147.891 96.8454 144.045 106.316 137.655 115.171L136.708 116.486L135.866 117.656L135.803 116.216L135.671 113.217M133.389 30.9909L135.671 113.217M135.671 113.217C135.671 113.217 135.671 113.217 135.671 113.216C135.604 111.769 135.565 111.08 135.467 110.668C135.423 110.483 135.373 110.381 135.314 110.3C135.249 110.21 135.156 110.12 134.98 109.97C134.568 109.626 134.147 109.477 133.773 109.48C133.403 109.482 133.035 109.631 132.714 109.963L132.708 109.969M135.671 113.217L132.708 109.969M132.708 109.969L132.701 109.975M132.708 109.969L132.701 109.975M132.701 109.975L132.197 110.459V116.799V123.134L132.72 123.617L133.261 124.116H139.461H145.66L146.199 123.619C146.903 122.954 146.914 121.816 146.277 121.217L146.277 121.217M132.701 109.975L146.277 121.217M146.277 121.217L146.274 121.215M146.277 121.217L146.274 121.215M146.274 121.215C146.152 121.098 146.069 121.035 145.975 120.988M146.274 121.215L145.975 120.988M145.975 120.988C145.878 120.94 145.74 120.895 145.496 120.861M145.975 120.988L145.496 120.861M145.496 120.861C144.987 120.788 144.147 120.773 142.54 120.773M145.496 120.861L142.54 120.773M142.54 120.773C141.576 120.773 140.7 120.76 140.061 120.734M142.54 120.773L140.061 120.734M140.061 120.734C139.744 120.72 139.476 120.703 139.283 120.682M140.061 120.734L139.283 120.682M139.283 120.682C139.189 120.671 139.095 120.657 139.015 120.638M139.283 120.682L139.015 120.638M139.015 120.638C138.98 120.629 138.917 120.612 138.853 120.578M139.015 120.638L138.853 120.578M138.853 120.578C138.821 120.562 138.763 120.528 138.706 120.468M138.853 120.578L138.706 120.468M138.706 120.468C138.647 120.405 138.566 120.285 138.566 120.116M138.706 120.468L138.566 120.116M138.566 120.116C138.566 120.019 138.595 119.943 138.6 119.929M138.566 120.116L138.6 119.929M138.6 119.929C138.601 119.928 138.601 119.928 138.601 119.927M138.6 119.929L138.601 119.927M138.601 119.927C138.611 119.901 138.622 119.878 138.63 119.863M138.601 119.927L138.63 119.863M138.63 119.863C138.645 119.832 138.663 119.799 138.68 119.77M138.63 119.863L138.68 119.77M138.68 119.77C138.716 119.71 138.764 119.633 138.822 119.545M138.68 119.77L138.822 119.545M138.822 119.545C138.938 119.366 139.104 119.121 139.306 118.828M138.822 119.545L139.306 118.828M139.306 118.828C139.709 118.243 140.264 117.457 140.87 116.613L139.306 118.828ZM139.257 119.667C139.257 119.667 139.258 119.668 139.258 119.668L139.255 119.667C139.255 119.667 139.256 119.667 139.257 119.667Z" fill="#FF8B1F" stroke="#FBFBFB"/>
<path d="M22.9948 30.9909L22.9919 30.9893C22.7062 30.826 22.4661 30.7798 22.2013 30.8343C21.9121 30.8938 21.5367 31.0852 21.0199 31.5224C19.9803 32.4019 18.5523 34.1121 16.3218 37.0422C9.34985 46.26 4.88124 57.3098 3.28659 69.281C3.08072 70.8773 2.97497 74.1961 2.97497 77.5198C2.97497 80.8448 3.08085 84.1075 3.28594 85.5957C4.95957 97.4151 8.90473 107.392 15.5139 116.613L22.9948 30.9909ZM22.9948 30.9909C23.743 31.4118 23.979 31.843 23.9577 32.3157C23.9328 32.8684 23.5583 33.6396 22.6491 34.7046L22.648 34.7058C13.644 45.3253 8.81144 55.7273 6.90187 68.5903L6.90161 68.5921C6.28942 72.8242 6.28942 81.9258 6.9016 86.1579L6.90191 86.1599C8.4928 96.8454 12.3396 106.316 18.7289 115.171L19.676 116.486L20.5181 117.656L20.5813 116.216L20.7128 113.217M22.9948 30.9909L20.7128 113.217M20.7128 113.217C20.7128 113.217 20.7128 113.217 20.7129 113.216C20.7799 111.769 20.8189 111.08 20.9169 110.668C20.961 110.483 21.0117 110.381 21.0699 110.3C21.1357 110.21 21.2286 110.12 21.4045 109.97C21.8166 109.626 22.2374 109.477 22.6117 109.48C22.9812 109.482 23.3491 109.631 23.6704 109.963L23.6767 109.969M20.7128 113.217L23.6767 109.969M23.6767 109.969L23.6832 109.975M23.6767 109.969L23.6832 109.975M23.6832 109.975L24.1874 110.459V116.799V123.134L23.664 123.617L23.1234 124.116H16.9236H10.7238L10.1851 123.619C9.48093 122.954 9.46981 121.816 10.1074 121.217L10.1074 121.217M23.6832 109.975L10.1074 121.217M10.1074 121.217L10.1099 121.215M10.1074 121.217L10.1099 121.215M10.1099 121.215C10.2322 121.098 10.315 121.035 10.4096 120.988M10.1099 121.215L10.4096 120.988M10.4096 120.988C10.506 120.94 10.6442 120.895 10.8885 120.861M10.4096 120.988L10.8885 120.861M10.8885 120.861C11.3977 120.788 12.2373 120.773 13.8444 120.773M10.8885 120.861L13.8444 120.773M13.8444 120.773C14.8082 120.773 15.6845 120.76 16.3228 120.734M13.8444 120.773L16.3228 120.734M16.3228 120.734C16.6401 120.72 16.9082 120.703 17.1016 120.682M16.3228 120.734L17.1016 120.682M17.1016 120.682C17.195 120.671 17.2897 120.657 17.3688 120.638M17.1016 120.682L17.3688 120.638M17.3688 120.638C17.4043 120.629 17.4671 120.612 17.5315 120.578M17.3688 120.638L17.5315 120.578M17.5315 120.578C17.5631 120.562 17.6217 120.528 17.6781 120.468M17.5315 120.578L17.6781 120.468M17.6781 120.468C17.7376 120.405 17.8184 120.285 17.8184 120.116M17.6781 120.468L17.8184 120.116M17.8184 120.116C17.8184 120.019 17.7891 119.943 17.7837 119.929M17.8184 120.116L17.7837 119.929M17.7837 119.929C17.7835 119.928 17.7833 119.928 17.7832 119.927M17.7837 119.929L17.7832 119.927M17.7832 119.927C17.773 119.901 17.7621 119.878 17.7547 119.863M17.7832 119.927L17.7547 119.863M17.7547 119.863C17.7393 119.832 17.721 119.799 17.7038 119.77M17.7547 119.863L17.7038 119.77M17.7038 119.77C17.6685 119.71 17.6199 119.633 17.5623 119.545M17.7038 119.77L17.5623 119.545M17.5623 119.545C17.446 119.366 17.2802 119.121 17.0787 118.828M17.5623 119.545L17.0787 118.828M17.0787 118.828C16.675 118.243 16.1205 117.457 15.5141 116.613L17.0787 118.828ZM17.127 119.667C17.1267 119.667 17.1264 119.668 17.1261 119.668L17.1293 119.667C17.1293 119.667 17.1285 119.667 17.127 119.667Z" fill="#FF8B1F" stroke="#FBFBFB"/>
<path d="M162.868 30.9992C162.957 31.0154 162.989 31.0269 162.99 31.026C164.065 31.6111 164.248 32.8916 163.396 33.724L163.39 33.7298L163.384 33.7358C163.234 33.8927 163.15 33.9686 163.061 34.0223C162.979 34.0713 162.864 34.1178 162.639 34.1539C162.156 34.2314 161.333 34.2397 159.639 34.2397H156.192H155.179L155.795 35.0437L156.741 36.2796C160.581 41.3213 164.61 48.5939 166.697 54.2559C173.018 71.4942 171.816 91.1667 163.379 107.65L163.379 107.65C161.725 110.893 159.072 114.927 156.583 118.215C155.339 119.858 154.143 121.305 153.142 122.368C152.64 122.9 152.195 123.329 151.821 123.636C151.43 123.957 151.173 124.098 151.042 124.131L151.042 124.131C150.53 124.262 149.945 124.059 149.506 123.625C149.067 123.192 148.862 122.616 148.991 122.107L148.994 122.098L148.996 122.089C148.996 122.089 148.996 122.089 148.997 122.087C149.002 122.075 149.034 121.995 149.137 121.828C149.24 121.662 149.385 121.454 149.564 121.215C149.922 120.74 150.399 120.166 150.903 119.61C159.978 109.659 165.76 96.4761 167.006 82.8156L167.006 82.8155C168.28 68.8066 164.593 54.2177 156.845 42.5946C155.742 40.9414 154.599 39.2918 154.295 38.9049L154.29 38.8984L154.285 38.8922L153.732 38.2342L152.849 37.1832V38.5558V41.3192C152.849 42.1367 152.817 42.8762 152.76 43.4544C152.731 43.7439 152.697 43.9863 152.659 44.1745C152.619 44.3747 152.583 44.4742 152.566 44.5053L152.566 44.5052L152.56 44.517C152.012 45.613 150.662 45.8197 149.755 44.9134C149.663 44.8209 149.619 44.7633 149.579 44.6516C149.53 44.5135 149.483 44.2799 149.45 43.8252C149.382 42.9178 149.375 41.304 149.375 38.2146C149.389 34.7812 149.403 33.0854 149.553 32.1581C149.626 31.7075 149.722 31.5096 149.814 31.3935C149.91 31.2727 150.044 31.1849 150.339 31.027C150.339 31.0272 150.339 31.0272 150.339 31.0273C150.339 31.0282 150.374 31.0162 150.466 30.9994C150.575 30.9797 150.725 30.9599 150.914 30.9408C151.293 30.9026 151.801 30.8702 152.4 30.8441C153.598 30.7919 155.135 30.7656 156.675 30.7656C158.215 30.7656 159.751 30.7919 160.945 30.8441C161.543 30.8702 162.049 30.9026 162.425 30.9407C162.613 30.9598 162.761 30.9796 162.868 30.9992Z" fill="#FF8B1F" stroke="#FBFBFB"/>
</svg>
