<svg width="118" height="134" viewBox="0 0 118 134" fill="none" xmlns="http://www.w3.org/2000/svg">
<path d="M12.0211 2.49995C8.59349 4.69995 7.0813 6.79995 7.0813 9.09995C7.0813 9.59995 9.90406 9.99995 13.4325 9.99995C20.3886 9.99995 22.2033 10.9999 22.2033 14.9999C22.2033 18.9999 20.3886 19.9999 13.4325 19.9999C6.57723 19.9999 5.77073 20.7999 8.69431 24.7999C11.013 28.0999 15.4488 29.9999 20.6911 29.9999C26.0341 29.9999 30.2683 28.0999 33.0911 24.4999L35.1073 21.9999H59H82.8927L84.909 24.4999C90.7561 31.8999 104.265 31.9999 109.306 24.7999C112.229 20.7999 111.423 19.9999 104.567 19.9999C97.5106 19.9999 95.7968 18.9999 95.7968 14.7999C95.7968 11.1999 98.2163 9.99995 105.273 9.99995C111.322 9.99995 112.128 9.09995 109.407 5.39995C107.289 2.39995 101.745 -5.23288e-05 96.8049 -5.23288e-05C92.1675 -5.23288e-05 86.4211 2.89995 84.7073 6.09995C83.6992 7.89995 82.187 7.99995 59.1008 7.99995H34.5024L32.9902 5.59995C29.1594 -0.100051 18.2715 -1.80005 12.0211 2.49995ZM24.4211 3.09995C26.7398 3.69995 29.361 5.49995 30.974 7.49995L33.7968 10.9999H59H84.2033L87.026 7.49995C90.4537 3.19995 96.3008 1.39995 101.341 2.99995C103.156 3.59995 105.172 4.69995 105.878 5.49995C106.785 6.49995 105.979 6.89995 101.846 7.49995C93.8813 8.59995 90.0504 15.2999 94.7886 19.9999C96.8049 21.9999 98.922 22.6999 104.366 23.1999L107.39 23.4999L103.862 25.7999C101.946 26.9999 99.0228 27.9999 97.309 27.9999C93.5789 27.9999 88.4374 24.9999 86.1187 21.4999L84.5057 18.9999H59.1008H33.6959L31.4781 21.9999C26.7398 28.2999 17.465 29.7999 12.7268 25.0999L10.7106 22.9999H14.3398C20.7919 22.9999 25.2276 19.5999 25.2276 14.5999C25.2276 11.2999 21.0943 8.09995 16.1545 7.39995C10.7106 6.69995 10.5089 5.59995 15.5496 3.39995C19.3805 1.79995 19.7837 1.79995 24.4211 3.09995Z" fill="#FF8B1F"/>
<path d="M37.4261 50.1C32.1838 50.6 26.9415 51.6 25.7318 52.4C24.4212 53.3 21.8001 58 19.1789 64.2C15.8521 71.8 13.4326 76 9.40006 80.4C6.17404 83.9 3.25047 88.5 1.9399 91.9C-0.0763643 97.1 -0.0763643 98.6 0.528514 115.8C1.03258 128.8 1.63746 134 2.44396 133.7C3.04884 133.5 3.45209 131.9 3.35128 130.2C2.94803 126.4 4.35941 125.4 7.28299 127.4C8.79518 128.4 11.7188 129 15.7513 129C23.4131 129 25.2277 129.6 25.2277 132.2C25.2277 134.8 27.6472 134 28.0505 131.2L28.3529 129H59.1009H89.748V131.5C89.748 133.1 90.3529 134 91.2602 134C92.0667 134 92.7724 133.1 92.7724 132.1C92.7724 129.6 94.6879 129 102.249 129C106.382 129 109.205 128.5 110.818 127.4C113.54 125.4 114.951 126.7 114.951 131.2C114.951 132.8 115.355 134 115.859 134C117.27 134 118.379 99.2 117.068 94.4C115.859 90.1 111.826 83.9 106.382 78C104.668 76.1 102.148 71.8 100.837 68.5C97.1074 59 93.9822 53.2 91.8651 52C87.0261 49.5 56.6814 48.4 37.4261 50.1ZM83.0944 53C91.361 54 92.47 55 96.3009 64.5C97.8131 68.3 99.2245 72.1 99.5269 72.7C99.9301 73.7 91.4619 74 59.1009 74C36.6196 74 18.1708 73.8 18.1708 73.5C18.1708 71.7 24.7236 57.1 26.2358 55.6C27.3448 54.5 30.2684 53.5 33.8976 53C42.3659 51.9 74.8277 51.9 83.0944 53ZM105.576 81.2C107.995 83.6 111.12 87.7 112.431 90.4C114.649 94.8 114.951 96.7 114.951 106.7C114.951 119.5 113.842 123 108.802 125.5C106.181 126.9 99.8293 127.1 58.1936 126.8C21.9009 126.6 10.1058 126.2 8.39193 125.2C4.15778 122.8 3.04884 119 3.04884 106.8C3.04884 93.5 4.35941 89.8 11.6179 82.1L16.3562 77.1L26.135 76.7C31.4781 76.4 50.5318 76.4 68.5773 76.6L101.241 77L105.576 81.2Z" fill="#FF8B1F"/>
<path d="M9.8033 96.8C8.69436 98 8.08948 100.4 8.08948 103.3C8.08948 109.3 9.50086 110 20.5903 110C28.7561 110 29.2602 109.9 30.974 107.4C32.4862 105 32.4862 104.5 31.1757 102.1C30.0667 100.1 28.0505 99 22.2033 97.3C12.8277 94.6 11.8196 94.6 9.8033 96.8ZM22.1025 99.8C32.1838 102.9 31.5789 108 21.0944 108C12.5252 108 10.1057 106.8 10.1057 102.7C10.1057 100.8 10.4082 99 10.8114 98.7C11.9204 97.6 16.3561 98 22.1025 99.8Z" fill="#FF8B1F"/>
<path d="M96.3009 97C86.522 99.6 83.3968 103.7 87.7317 108C89.4456 109.7 91.0586 110 98.8212 110C109.003 110 109.911 109.4 109.911 102.1C109.911 99.1 109.306 97.7 107.693 96.6C104.971 94.7 105.072 94.7 96.3009 97ZM107.289 99.6C109.608 105.7 106.785 108 96.9057 108C86.4212 108 85.8163 102.9 95.8976 99.8C102.854 97.6 106.483 97.6 107.289 99.6Z" fill="#FF8B1F"/>
<path d="M37.1237 110.5C35.6115 113.8 37.3253 117.7 41.0554 119.1C42.7692 119.7 50.6326 120 60.7139 119.8C78.8602 119.5 79.8684 119.2 81.1789 113.9C81.5822 112.1 81.2798 110.8 80.1708 109.6C78.7594 108.2 75.735 108 58.3952 108H38.3334L37.1237 110.5ZM78.3562 111.6C78.6586 112.5 78.5578 114 77.9529 114.9C77.0456 116.3 74.2228 116.5 59.5041 116.8C47.5074 117 41.6602 116.7 40.7529 115.9C39.0391 114.5 38.9383 111.3 40.6521 110.7C41.257 110.4 49.9269 110.1 59.8066 110.1C75.5334 110 77.7513 110.2 78.3562 111.6Z" fill="#FF8B1F"/>
<path d="M15.1464 118C15.1464 118.5 16.4569 119 18.0699 119C19.7838 119 21.3968 118.5 21.6992 118C22.1025 117.4 20.8927 117 18.7756 117C16.7594 117 15.1464 117.4 15.1464 118Z" fill="#FF8B1F"/>
<path d="M96.8049 118C96.8049 118.5 98.2163 119 99.8293 119C101.543 119 102.854 118.5 102.854 118C102.854 117.4 101.543 117 99.8293 117C98.2163 117 96.8049 117.4 96.8049 118Z" fill="#FF8B1F"/>
</svg>
