<svg width="85" height="118" viewBox="0 0 85 118" fill="none" xmlns="http://www.w3.org/2000/svg">
<g clip-path="url(#clip0_62_3528)">
<path d="M32.8302 4.3319C31.7473 8.33049 31.2475 8.99693 27.6654 10.9129C9.83832 20.5762 5.00669 43.4848 17.5023 59.3126C19.5849 61.9783 21.6675 64.1442 22.084 64.1442C22.5838 64.1442 22.9171 64.4774 22.9171 64.9772C22.9171 65.3938 22.084 65.8103 21.0844 65.8103C18.0021 65.8103 10.9213 69.559 7.67242 72.8078C3.0907 77.3896 1.0914 81.9713 0.591574 88.8022C0.00844571 97.3825 1.92444 102.381 7.83903 108.379C15.0032 115.46 16.4193 115.793 42.4935 115.793C68.2345 115.793 70.0671 115.46 76.7315 108.712C84.7287 100.715 86.728 89.2187 81.813 79.4722C78.2309 72.3913 69.484 65.8936 63.4028 65.8103C61.0703 65.8103 61.0703 65.8103 65.652 60.812C73.2327 52.6483 76.065 42.0686 73.3993 31.6556C71.0668 22.5755 64.6524 14.5783 56.7385 10.663C53.4896 9.08023 52.9898 8.4138 51.9069 4.66512C51.0738 1.33295 50.4074 0.333305 48.9079 0.166695C47.6584 9.15527e-05 47.0752 0.333305 47.0752 1.16634C47.0752 2.2493 46.0756 2.49921 42.077 2.49921C38.1617 2.49921 37.0787 2.2493 37.0787 1.24965C37.0787 0.583214 36.4123 9.15527e-05 35.496 9.15527e-05C34.413 9.15527e-05 33.6633 1.08304 32.8302 4.3319ZM50.9072 8.16389C49.9076 9.16354 48.7413 7.08093 48.8246 4.3319V1.24965L50.0742 4.4985C50.7406 6.3312 51.0738 7.91397 50.9072 8.16389ZM35.0794 8.16389C34.0798 9.08023 33.6633 7.58076 34.3297 5.33155L34.9961 2.91573L35.2461 5.24825C35.4127 6.58111 35.3294 7.83067 35.0794 8.16389ZM47.0752 6.24789C47.0752 7.24754 45.9923 7.49745 42.077 7.49745C38.1617 7.49745 37.0787 7.24754 37.0787 6.24789C37.0787 5.24825 38.1617 4.99833 42.077 4.99833C45.9923 4.99833 47.0752 5.24825 47.0752 6.24789ZM55.6555 12.3291C66.4851 17.6605 72.2331 27.1572 72.3164 39.6528C72.3997 45.6507 72.0664 47.0669 69.7339 51.8152C67.2348 56.8968 62.2366 62.4781 57.0717 65.9769C54.9891 67.3931 54.9891 67.3931 59.9874 67.4764C81.1466 67.643 90.6432 94.7168 74.4823 108.629C68.3178 113.877 65.9019 114.293 40.6608 113.96C15.8362 113.71 15.7529 113.627 9.3385 107.546C4.67347 103.131 2.75748 98.882 2.25766 91.9678C1.92444 86.8862 2.17435 85.3034 3.92374 81.5548C7.83903 73.0577 15.9195 67.4764 24.4165 67.4764C26.749 67.4764 28.7483 67.2265 28.665 66.8099C28.665 66.4767 26.9157 65.0606 24.7497 63.6444C19.5849 60.3122 14.1701 52.315 12.9206 46.0672C9.67171 30.7393 18.0854 15.9112 32.9968 10.4964C35.5793 9.58006 38.7448 9.24684 43.4932 9.41344C49.0745 9.66336 51.1571 10.1632 55.6555 12.3291Z" fill="#FF8B1F"/>
<path d="M35.7459 11.9959C22.6671 15.2447 14.2534 26.4075 14.3367 40.1526C14.3367 50.5656 20.2513 59.3126 30.4144 64.0609C34.2464 65.8936 36.1624 66.2268 42.4935 66.2268C48.8246 66.2268 50.6573 65.8936 54.7392 63.9776C64.2359 59.5625 69.6506 51.482 70.2338 40.9024C70.7336 31.7389 68.4844 26.1576 61.7367 19.4932C54.3227 12.2458 45.2425 9.58005 35.7459 11.9959ZM54.406 15.0781C59.9874 17.8272 64.3192 22.3256 67.2348 28.2402C69.9005 33.5716 69.9005 44.4844 67.4014 50.0658C64.819 55.5639 60.4039 60.1456 54.8225 62.8946C50.574 65.0605 49.0745 65.3105 42.4935 65.3105C36.5789 65.3105 34.1631 64.9772 31.0808 63.5611C25.916 61.2286 20.4179 55.9804 17.9188 51.0655C16.1694 47.65 15.8362 45.9006 15.8362 39.153C15.8362 32.2388 16.1694 30.7393 18.0854 27.0739C20.9178 21.6591 25.5828 17.244 31.2475 14.6616C34.9961 12.9122 37.0787 12.4957 42.5768 12.4957C48.4081 12.4957 49.9909 12.8289 54.406 15.0781Z" fill="#FF8B1F"/>
<path d="M37.0787 19.0768C30.0812 21.2427 24.4998 26.824 22.5005 33.655C20.7511 39.5696 21.5009 44.4845 24.9163 50.1492C31.7473 61.5618 47.575 63.3945 56.9051 53.8979C61.2369 49.4827 62.903 45.4841 62.903 39.4029C62.903 30.0729 57.0717 22.159 48.4081 19.5766C43.993 18.2437 40.4109 18.0771 37.0787 19.0768ZM50.3241 21.2427C52.3234 22.2423 52.3234 22.2423 49.3244 22.8254C47.575 23.1587 45.5757 24.3249 44.3262 25.8244L42.3269 28.1569L40.7441 26.1576C39.8278 24.9913 37.6619 23.5752 35.8292 22.9087C33.0801 21.9924 32.7469 21.6592 34.0798 21.1594C39.4112 19.0768 46.2422 19.0768 50.3241 21.2427ZM39.3279 25.9077C44.4095 30.7393 40.7441 39.9861 33.7466 39.9861C27.0822 39.9861 23.167 32.2388 27.1655 27.1573C30.4977 22.9087 35.5793 22.4922 39.3279 25.9077ZM56.4053 25.7411C58.6545 27.7404 59.1543 28.74 59.1543 31.6557C59.1543 39.9861 47.9083 42.985 44.0763 35.7376C41.9104 31.4891 43.2432 26.6574 47.1585 24.4915C50.4074 22.6588 53.4896 23.0754 56.4053 25.7411ZM26.6657 37.487C27.9153 38.8198 27.832 39.153 25.4162 41.4855L22.917 43.9847V39.153C22.917 36.4873 23.1669 33.655 23.5002 32.8219C24 31.5724 24.1666 31.6557 24.6664 33.655C24.9996 34.9045 25.916 36.6539 26.6657 37.487ZM61.9866 39.3196L62.0699 43.9847L59.6541 41.6522L57.2383 39.2363L59.071 35.571C61.1536 31.2392 61.9033 32.2388 61.9866 39.3196ZM48.658 40.4026C50.9905 40.9024 51.0738 40.9857 49.8242 43.3182C48.9912 45.1509 48.9079 46.1506 49.491 47.4001C51.1571 50.4824 50.574 54.1478 47.9916 56.7302C44.7427 59.8957 40.7441 59.979 37.162 56.9801C34.9961 55.2307 34.5796 54.2311 34.5796 51.3154C34.5796 46.9836 36.2457 44.5678 39.9944 43.3182C42.4102 42.5685 43.4098 42.5685 45.5757 43.6515C48.5747 45.1509 49.491 44.9843 47.4084 43.2349C45.4091 41.5689 39.2446 41.7355 37.3286 43.5681C35.7459 44.901 35.6626 44.901 34.7462 42.985C33.9132 41.1523 34.0798 40.9857 36.2457 40.5692C37.4952 40.236 39.4112 38.9864 40.4942 37.7369L42.4935 35.3211L44.4095 37.5703C45.4091 38.8198 47.3251 40.0694 48.658 40.4026ZM32.497 42.0687C34.9128 44.4012 35.0794 45.5674 33.2467 48.1499C31.7473 50.3158 27.832 50.649 25.8327 48.6497C23.8334 46.5671 24.4998 42.3186 27.0822 41.069C29.9146 39.6529 30.1645 39.6529 32.497 42.0687ZM57.3216 40.9024C59.5708 42.152 60.4039 43.2349 60.4039 45.3175C60.4039 49.3161 55.0724 51.3987 51.9068 48.5664C48.8246 45.8174 50.6573 41.2356 55.239 40.0694C55.4056 39.9861 56.322 40.4026 57.3216 40.9024ZM56.6552 51.1488C57.3216 50.8156 57.9047 51.0655 57.9047 51.482C57.9047 52.4817 53.7395 55.8138 50.4074 57.4799L48.4081 58.5629L49.8242 56.397C50.574 55.1474 51.2404 53.2314 51.2404 52.1485C51.2404 50.2325 51.407 50.0659 53.323 50.8156C54.4893 51.2321 55.9887 51.3987 56.6552 51.1488ZM34.2464 54.6476L35.9125 58.1464L32.9135 56.6469C31.3307 55.8138 29.1648 54.2311 28.0819 53.0648L26.1659 51.0655H29.4148C32.3304 51.0655 32.7469 51.3154 34.2464 54.6476Z" fill="#FF8B1F"/>
<path d="M31.7473 29.6565C30.1645 31.2392 30.0812 32.6554 31.4141 33.9883C32.9136 35.4877 35.2461 35.1545 36.2457 33.2385C36.9955 31.9057 36.9122 31.1559 35.7459 29.9064C33.9965 27.9904 33.4134 27.9071 31.7473 29.6565ZM35.4127 31.5725C35.4127 33.8217 33.8299 34.5714 32.3304 33.0719C30.831 31.5725 31.5807 29.9897 33.8299 29.9897C34.8296 29.9897 35.4127 30.5728 35.4127 31.5725Z" fill="#FF8B1F"/>
<path d="M49.4078 29.2398C47.4085 30.3228 47.4918 33.0718 49.4911 34.1548C50.4074 34.5713 51.3237 34.9878 51.5737 34.9878C52.2401 34.9878 54.5726 32.4054 54.5726 31.6556C54.5726 30.8226 52.1568 28.3235 51.407 28.3235C51.0738 28.3235 50.1575 28.74 49.4078 29.2398ZM52.9065 31.6556C52.9065 33.9048 51.3237 34.5713 49.741 33.0718C48.7413 31.9888 48.658 31.489 49.4911 30.4894C50.8239 28.9066 52.9065 29.6563 52.9065 31.6556Z" fill="#FF8B1F"/>
<path d="M40.994 48.3997C39.1613 49.4827 39.1613 53.2314 40.9107 53.8978C44.1596 55.1474 46.9919 50.0658 43.9929 48.483C42.9933 47.8999 41.9103 47.8999 40.994 48.3997ZM44.1596 51.2321C44.1596 53.7312 40.9107 53.4813 40.5775 50.9822C40.3276 49.3161 40.5775 49.0662 42.2436 49.3161C43.4931 49.4827 44.1596 50.1491 44.1596 51.2321Z" fill="#FF8B1F"/>
<path d="M27.6654 44.4011C27.4155 45.0675 27.4988 46.0671 27.9153 46.6503C28.8317 48.1497 31.4141 46.9835 31.0809 45.2341C30.7477 43.4014 28.2485 42.8183 27.6654 44.4011ZM30.4145 44.9009C30.4145 45.4007 30.0812 45.9838 29.5814 46.2337C29.1649 46.4837 28.7484 46.1504 28.7484 45.484C28.7484 44.7343 29.1649 44.1511 29.5814 44.1511C30.0812 44.1511 30.4145 44.4844 30.4145 44.9009Z" fill="#FF8B1F"/>
<path d="M53.4897 44.4844C52.8232 46.1505 55.1558 48.0665 56.4053 46.8169C57.5716 45.6507 56.6552 43.3181 55.0725 43.3181C54.4893 43.3181 53.7396 43.818 53.4897 44.4844ZM56.2387 45.4007C56.2387 46.0672 55.9055 46.6503 55.4057 46.6503C54.9891 46.6503 54.5726 46.0672 54.5726 45.4007C54.5726 44.7343 54.9891 44.1512 55.4057 44.1512C55.9055 44.1512 56.2387 44.7343 56.2387 45.4007Z" fill="#FF8B1F"/>
<path d="M19.0018 72.9744C11.2545 75.8067 5.33995 85.47 6.58951 93.4672C7.75577 100.548 12.9206 106.962 19.335 109.212C24.0001 110.878 62.1533 110.878 66.2352 109.212C71.2335 107.129 74.399 104.13 76.7315 99.465C80.98 90.8014 78.3143 80.4717 70.4837 75.2236C65.8187 72.058 62.4032 71.6415 42.077 71.7248C26.999 71.7248 21.6675 72.058 19.0018 72.9744ZM67.9013 75.8067C69.9006 76.973 72.7329 79.5554 74.1491 81.4714C76.315 84.6369 76.6482 85.8032 76.6482 90.7181C76.6482 95.5498 76.315 96.9659 74.1491 100.381C72.483 103.047 70.4004 105.046 67.9846 106.379C64.4025 108.212 63.7361 108.295 42.7435 108.295C24.4999 108.295 20.7512 108.045 18.502 106.962C8.67211 101.964 5.33995 90.0517 11.3378 81.3048C13.4204 78.2225 17.419 75.2236 20.9178 74.1406C22.2507 73.7241 32.4971 73.4742 43.7431 73.5575C63.8194 73.7241 64.2359 73.7241 67.9013 75.8067Z" fill="#FF8B1F"/>
<path d="M22.9171 76.8065C17.2524 78.3893 12.9206 84.1373 12.9206 89.9686C12.9206 104.297 32.497 109.129 38.6615 96.2997C39.6612 94.3837 40.4109 91.6347 40.4109 90.1352C40.4109 81.2217 31.4974 74.3074 22.9171 76.8065ZM33.9132 79.5556C37.5786 82.0547 39.9944 87.7194 39.328 92.0512C38.3283 98.2157 32.9969 102.714 26.5825 102.714C14.0869 102.714 9.17191 86.4698 19.5849 79.3057C23.5002 76.7232 29.8313 76.7232 33.9132 79.5556Z" fill="#FF8B1F"/>
<path d="M23.3336 87.4694C21.0011 90.0518 22.5006 93.6339 25.9993 93.9671C28.0819 94.217 28.915 93.8005 30.0812 92.1344C31.3308 90.1351 31.3308 89.8019 30.0812 87.8859C28.4151 85.3035 25.4162 85.1369 23.3336 87.4694ZM28.4151 87.3028C31.0809 89.0521 29.9146 93.3007 26.7491 93.3007C23.8334 93.3007 22.4172 91.2181 23.5835 88.7189C24.4998 86.6363 26.5824 86.0532 28.4151 87.3028Z" fill="#FF8B1F"/>
<path d="M54.5725 76.8064C47.6583 78.8057 44.1595 83.8872 44.7427 91.218C45.7423 102.797 58.5711 107.962 67.0681 100.298C70.9834 96.716 72.3996 92.8007 71.6499 87.8025C70.4836 79.9719 62.1532 74.5571 54.5725 76.8064ZM64.569 79.0556C67.7346 80.7216 71.2333 86.3863 71.2333 89.8851C71.2333 93.4672 67.7346 99.3818 64.6523 101.131C56.3219 105.963 45.4091 99.6317 45.4091 90.0517C45.4091 80.3051 55.8221 74.3072 64.569 79.0556Z" fill="#FF8B1F"/>
<path d="M55.0724 87.1362C54.3227 87.8027 53.7396 88.9689 53.7396 89.6354C53.7396 94.2171 59.2376 95.8832 61.7368 92.0512C62.9863 90.1352 62.9863 89.802 61.7368 87.886C60.154 85.4701 57.0717 85.1369 55.0724 87.1362ZM60.4039 87.8027C60.9037 88.4691 61.2369 89.8853 61.0703 90.9682C60.5705 94.467 54.5726 93.6339 54.5726 90.0519C54.5726 86.9696 58.4046 85.4701 60.4039 87.8027Z" fill="#FF8B1F"/>
</g>
<defs>
<clipPath id="clip0_62_3528">
<rect width="84.3632" height="117.447" fill="white" transform="translate(0.425446)"/>
</clipPath>
</defs>
</svg>
