<svg width="153" height="120" viewBox="0 0 153 120" fill="none" xmlns="http://www.w3.org/2000/svg">
<g clip-path="url(#clip0_62_3545)">
<path d="M150.911 29.2737L150.911 29.2737L150.911 29.2697C150.316 21.6714 147.06 15.4477 141.152 10.6128C139.274 9.05702 137.374 8.23735 135.455 8.18814C133.535 8.13891 131.632 8.86192 129.75 10.324L129.681 10.3779L129.66 10.4632C128.852 13.8317 128.566 17.2693 128.801 20.7751L128.828 21.1883L129.181 20.9714C130.682 20.0481 132.2 19.0996 133.734 18.1259L133.809 18.0783L133.837 17.9941C134.242 16.7817 134.952 15.7944 135.972 15.0265C138.609 14.6942 141.158 15.0531 143.623 16.1046C144.363 19.1298 145.298 22.1156 146.427 25.0618C146.34 26.264 145.982 27.1183 145.39 27.6678C144.791 28.2247 143.91 28.5059 142.707 28.4706L142.43 28.4625L142.45 28.7384C142.713 32.4066 143.284 36.0225 144.163 39.5861L144.203 39.7496L144.37 39.7736C146.421 40.0699 148.284 39.6795 149.945 38.5983L150.026 38.5451L150.051 38.4507C150.819 35.4472 151.105 32.3878 150.911 29.2737Z" fill="#FBFBFB" stroke="#FF8B1F" stroke-width="0.5"/>
<path d="M152.049 30.9952H152.049L152.049 30.9893C151.923 25.6745 150.667 21.0712 148.27 17.1886C145.873 13.3057 142.345 10.1575 137.696 7.74021L137.673 7.72806L137.647 7.72104C135.85 7.22448 134.187 7.18999 132.666 7.63176C131.144 8.07365 129.781 8.98679 128.578 10.3562L128.528 10.4131L128.518 10.4882C127.908 15.0529 127.623 19.6144 127.663 24.1727L127.665 24.4205H127.913H127.916H127.919H127.923H127.926H127.929H127.933H127.936H127.939H127.943H127.946H127.949H127.953H127.956H127.959H127.963H127.966H127.969H127.973H127.976H127.979H127.983H127.986H127.989H127.993H127.996H127.999H128.003H128.006H128.009H128.013H128.016H128.019H128.023H128.026H128.029H128.033H128.036H128.039H128.043H128.046H128.049H128.053H128.056H128.059H128.063H128.066H128.069H128.073H128.076H128.079H128.083H128.086H128.089H128.093H128.096H128.099H128.103H128.106H128.109H128.113H128.116H128.119H128.123H128.126H128.129H128.133H128.136H128.139H128.143H128.146H128.149H128.153H128.156H128.159H128.163H128.166H128.169H128.173H128.176H128.179H128.183H128.186H128.189H128.193H128.196H128.199H128.203H128.206H128.209H128.213H128.216H128.219H128.223H128.226H128.229H128.233H128.236H128.239H128.243H128.246H128.249H128.253H128.256H128.259H128.263H128.266H128.269H128.273H128.276H128.279H128.283H128.286H128.289H128.293H128.296H128.299H128.303H128.306H128.309H128.313H128.316H128.319H128.323H128.326H128.329H128.333H128.336H128.339H128.342H128.346H128.349H128.352H128.356H128.359H128.362H128.366H128.369H128.372H128.376H128.379H128.382H128.386H128.389H128.392H128.396H128.399H128.402H128.406H128.409H128.412H128.416H128.419H128.422H128.426H128.429H128.432H128.436H128.439H128.442H128.446H128.449H128.452H128.456H128.459H128.462H128.466H128.469H128.472H128.476H128.479H128.482H128.486H128.489H128.492H128.496H128.499H128.502H128.506H128.509H128.512H128.516H128.519H128.522H128.526H128.529H128.532H128.536H128.539H128.542H128.546H128.549H128.552H128.556H128.559H128.562H128.566H128.569H128.572H128.576H128.579H128.582H128.586H128.589H128.592H128.596H128.599H128.602H128.606H128.609H128.612H128.616H128.619H128.622H128.626H128.629H128.632H128.636H128.639H128.642H128.646H128.649H128.652H128.656H128.659H128.662H128.666H128.669H128.672H128.676H128.679H128.682H128.686H128.689H128.692H128.696H128.699H128.702H128.706H128.709H128.712H128.716H128.719H128.722H128.726H128.729H128.732H128.736H128.739H128.742H128.746H128.749H128.752H128.756H128.759H128.762H128.766H128.769H128.772H128.776H128.779H128.782H128.786H128.789H128.792H128.796H128.799H128.802H128.806H128.809H128.812H128.816H128.819H128.822H128.826H128.829H128.832H128.836H128.839H128.842H128.846H128.849H128.852H128.856H128.859H128.862H128.866H128.869H128.872H128.876H128.879H128.882H128.886H128.889H128.892H128.896H128.899H128.902H128.906H128.909H128.912H128.916H128.919H128.922H128.926H128.929H128.932H128.936H128.939H128.942H128.946H128.949H128.952H128.956H128.959H128.962H128.966H128.969H128.972H128.976H128.979H128.982H128.986H128.989H128.992H128.996H128.999H129.002H129.006H129.009H129.012H129.016H129.019H129.022H129.026H129.029H129.032H129.036H129.039H129.042H129.046H129.049H129.052H129.056H129.059H129.062H129.066H129.069H129.072H129.076H129.079H129.082H129.086H129.089H129.092H129.096H129.099H129.102H129.106H129.109H129.112H129.116H129.119H129.122H129.126H129.129H129.132H129.136H129.139H129.142H129.146H129.149H129.152H129.156H129.159H129.162H129.166H129.169H129.172H129.176H129.179H129.182H129.186H129.189H129.192H129.196H129.199H129.202H129.206H129.209H129.212H129.216H129.219H129.222H129.226H129.229H129.232H129.236H129.239H129.242H129.246H129.249H129.252H129.256H129.259H129.262H129.266H129.269H129.272H129.276H129.279H129.282H129.286H129.289H129.292H129.296H129.299H129.302H129.306H129.309H129.312H129.316H129.319H129.322H129.326H129.329H129.332H129.336H129.339H129.342H129.346H129.349H129.352H129.356H129.359H129.362H129.366H129.369H129.372H129.376H129.379H129.382H129.386H129.389H129.392H129.396H129.399H129.402H129.406H129.409H129.412H129.416H129.419H129.422H129.426H129.429H129.432H129.436H129.439H129.442H129.446H129.449H129.452H129.456H129.459H129.462H129.465H129.469H129.472H129.475H129.479H129.482H129.485H129.489H129.492H129.495H129.499H129.502H129.505H129.509H129.512H129.515H129.519H129.522H129.525H129.529H129.532H129.535H129.539H129.542H129.545H129.549H129.552H129.555H129.559H129.562H129.565H129.569H129.572H129.575H129.579H129.582H129.585H129.589H129.592H129.595H129.599H129.602H129.605H129.609H129.612H129.615H129.619H129.828L129.865 24.2148C129.915 23.9345 130.063 23.7063 130.329 23.5234L130.621 23.3224L130.334 23.1148C129.533 22.5365 129.193 21.7712 129.299 20.7849L129.301 20.7633L129.3 20.7415C129.07 17.315 129.346 13.9565 130.126 10.6652C131.918 9.2913 133.688 8.6428 135.442 8.68777C137.22 8.73335 139.016 9.49203 140.834 10.9981L140.835 10.9991C146.638 15.7478 149.828 21.8462 150.412 29.3085L150.413 29.3234L150.416 29.3381L150.985 32.1816L151.554 35.0253L152.049 34.9762V34.9685V34.9607V34.9529V34.9451V34.9374V34.9296V34.9218V34.914V34.9063V34.8985V34.8907V34.8829V34.8752V34.8674V34.8596V34.8518V34.844V34.8363V34.8285V34.8207V34.8129V34.8052V34.7974V34.7896V34.7818V34.7741V34.7663V34.7585V34.7507V34.743V34.7352V34.7274V34.7196V34.7119V34.7041V34.6963V34.6885V34.6808V34.673V34.6652V34.6574V34.6497V34.6419V34.6341V34.6263V34.6186V34.6108V34.603V34.5952V34.5875V34.5797V34.5719V34.5641V34.5564V34.5486V34.5408V34.533V34.5253V34.5175V34.5097V34.5019V34.4942V34.4864V34.4786V34.4708V34.4631V34.4553V34.4475V34.4397V34.432V34.4242V34.4164V34.4086V34.4009V34.3931V34.3853V34.3775V34.3697V34.362V34.3542V34.3464V34.3386V34.3309V34.3231V34.3153V34.3075V34.2998V34.292V34.2842V34.2764V34.2687V34.2609V34.2531V34.2453V34.2376V34.2298V34.222V34.2142V34.2065V34.1987V34.1909V34.1831V34.1754V34.1676V34.1598V34.152V34.1443V34.1365V34.1287V34.1209V34.1132V34.1054V34.0976V34.0898V34.0821V34.0743V34.0665V34.0587V34.051V34.0432V34.0354V34.0276V34.0199V34.0121V34.0043V33.9965V33.9888V33.981V33.9732V33.9654V33.9576V33.9499V33.9421V33.9343V33.9265V33.9188V33.911V33.9032V33.8954V33.8877V33.8799V33.8721V33.8643V33.8566V33.8488V33.841V33.8332V33.8255V33.8177V33.8099V33.8021V33.7944V33.7866V33.7788V33.771V33.7633V33.7555V33.7477V33.7399V33.7322V33.7244V33.7166V33.7088V33.7011V33.6933V33.6855V33.6777V33.67V33.6622V33.6544V33.6466V33.6389V33.6311V33.6233V33.6155V33.6078V33.6V33.5922V33.5844V33.5766V33.5689V33.5611V33.5533V33.5455V33.5378V33.53V33.5222V33.5144V33.5067V33.4989V33.4911V33.4833V33.4756V33.4678V33.46V33.4522V33.4445V33.4367V33.4289V33.4211V33.4134V33.4056V33.3978V33.39V33.3823V33.3745V33.3667V33.3589V33.3512V33.3434V33.3356V33.3278V33.3201V33.3123V33.3045V33.2967V33.289V33.2812V33.2734V33.2656V33.2579V33.2501V33.2423V33.2345V33.2268V33.219V33.2112V33.2034V33.1956V33.1879V33.1801V33.1723V33.1645V33.1568V33.149V33.1412V33.1334V33.1257V33.1179V33.1101V33.1023V33.0946V33.0868V33.079V33.0712V33.0635V33.0557V33.0479V33.0401V33.0324V33.0246V33.0168V33.009V33.0013V32.9935V32.9857V32.9779V32.9702V32.9624V32.9546V32.9468V32.9391V32.9313V32.9235V32.9157V32.908V32.9002V32.8924V32.8846V32.8769V32.8691V32.8613V32.8535V32.8457V32.838V32.8302V32.8224V32.8146V32.8069V32.7991V32.7913V32.7835V32.7758V32.768V32.7602V32.7524V32.7447V32.7369V32.7291V32.7213V32.7136V32.7058V32.698V32.6902V32.6825V32.6747V32.6669V32.6591V32.6514V32.6436V32.6358V32.628V32.6203V32.6125V32.6047V32.5969V32.5892V32.5814V32.5736V32.5658V32.5581V32.5503V32.5425V32.5347V32.527V32.5192V32.5114V32.5036V32.4959V32.4881V32.4803V32.4725V32.4647V32.457V32.4492V32.4414V32.4336V32.4259V32.4181V32.4103V32.4025V32.3948V32.387V32.3792V32.3714V32.3637V32.3559V32.3481V32.3403V32.3326V32.3248V32.317V32.3092V32.3015V32.2937V32.2859V32.2781V32.2704V32.2626V32.2548V32.247V32.2393V32.2315V32.2237V32.2159V32.2082V32.2004V32.1926V32.1848V32.1771V32.1693V32.1615V32.1537V32.146V32.1382V32.1304V32.1226V32.1149V32.1071V32.0993V32.0915V32.0837V32.076V32.0682V32.0604V32.0526V32.0449V32.0371V32.0293V32.0215V32.0138V32.006V31.9982V31.9904V31.9827V31.9749V31.9671V31.9593V31.9516V31.9438V31.936V31.9282V31.9205V31.9127V31.9049V31.8971V31.8894V31.8816V31.8738V31.866V31.8583V31.8505V31.8427V31.8349V31.8272V31.8194V31.8116V31.8038V31.7961V31.7883V31.7805V31.7727V31.765V31.7572V31.7494V31.7416V31.7339V31.7261V31.7183V31.7105V31.7028V31.695V31.6872V31.6794V31.6716V31.6639V31.6561V31.6483V31.6405V31.6328V31.625V31.6172V31.6094V31.6017V31.5939V31.5861V31.5783V31.5706V31.5628V31.555V31.5472V31.5395V31.5317V31.5239V31.5161V31.5084V31.5006V31.4928V31.485V31.4773V31.4695V31.4617V31.4539V31.4462V31.4384V31.4306V31.4228V31.4151V31.4073V31.3995V31.3917V31.384V31.3762V31.3684V31.3606V31.3529V31.3451V31.3373V31.3295V31.3218V31.314V31.3062V31.2984V31.2907V31.2829V31.2751V31.2673V31.2596V31.2518V31.244V31.2362V31.2284V31.2207V31.2129V31.2051V31.1973V31.1896V31.1818V31.174V31.1662V31.1585V31.1507V31.1429V31.1351V31.1274V31.1196V31.1118V31.104V31.0963V31.0885V31.0807V31.0729V31.0652V31.0574V31.0496V31.0418V31.0341V31.0263V31.0185V31.0107V31.003V30.9952Z" fill="#FF8B1F" stroke="#FF8B1F" stroke-width="0.5"/>
<path d="M127.913 23.9207H127.851L127.796 23.9495C123.889 26.0072 119.74 27.5161 115.347 28.4762L115.293 28.4882L115.248 28.5224C113.985 29.496 112.516 30.0484 110.832 30.1773L110.768 30.1822L110.715 30.2169C108.871 31.4139 106.821 32.1597 104.563 32.4536L104.508 32.4607L104.461 32.4905C101.731 34.2264 98.7302 35.3519 95.4568 35.8668L95.3795 35.879L95.323 35.9329C94.1314 37.0704 92.6801 37.6166 90.9526 37.57L90.8769 37.568L90.8129 37.6082C89.1156 38.6743 87.2479 39.4218 85.2073 39.8502L85.0243 39.8886L85.0094 40.0749C84.9151 41.255 85.0124 42.4197 85.3005 43.568L85.3699 43.8446L85.635 43.7396C90.1701 41.9441 94.8052 40.4307 99.5396 39.1993L99.5647 39.1928L99.588 39.1812C102.286 37.8389 105.117 36.7064 108.082 35.7838L108.092 35.7807L108.101 35.7769C115.747 32.6886 123.517 29.7515 131.408 26.9656L131.55 26.9155L131.572 26.7666C131.663 26.1551 131.553 25.5996 131.231 25.1163C130.912 24.6385 130.4 24.2514 129.722 23.9431L129.673 23.9207H129.619H129.615H129.612H129.609H129.606H129.602H129.599H129.596H129.592H129.589H129.586H129.582H129.579H129.576H129.572H129.569H129.566H129.562H129.559H129.556H129.552H129.549H129.546H129.542H129.539H129.536H129.532H129.529H129.526H129.522H129.519H129.516H129.512H129.509H129.506H129.502H129.499H129.496H129.492H129.489H129.486H129.482H129.479H129.476H129.472H129.469H129.466H129.462H129.459H129.456H129.452H129.449H129.446H129.442H129.439H129.436H129.432H129.429H129.426H129.422H129.419H129.416H129.412H129.409H129.406H129.402H129.399H129.396H129.392H129.389H129.386H129.382H129.379H129.376H129.372H129.369H129.366H129.362H129.359H129.356H129.352H129.349H129.346H129.342H129.339H129.336H129.332H129.329H129.326H129.322H129.319H129.316H129.312H129.309H129.306H129.302H129.299H129.296H129.292H129.289H129.286H129.282H129.279H129.276H129.272H129.269H129.266H129.262H129.259H129.256H129.252H129.249H129.246H129.242H129.239H129.236H129.232H129.229H129.226H129.222H129.219H129.216H129.212H129.209H129.206H129.202H129.199H129.196H129.192H129.189H129.186H129.182H129.179H129.176H129.172H129.169H129.166H129.162H129.159H129.156H129.152H129.149H129.146H129.142H129.139H129.136H129.132H129.129H129.126H129.122H129.119H129.116H129.112H129.109H129.106H129.102H129.099H129.096H129.092H129.089H129.086H129.082H129.079H129.076H129.072H129.069H129.066H129.062H129.059H129.056H129.052H129.049H129.046H129.042H129.039H129.036H129.032H129.029H129.026H129.022H129.019H129.016H129.012H129.009H129.006H129.002H128.999H128.996H128.992H128.989H128.986H128.982H128.979H128.976H128.972H128.969H128.966H128.962H128.959H128.956H128.952H128.949H128.946H128.942H128.939H128.936H128.932H128.929H128.926H128.922H128.919H128.916H128.912H128.909H128.906H128.902H128.899H128.896H128.892H128.889H128.886H128.882H128.879H128.876H128.872H128.869H128.866H128.862H128.859H128.856H128.852H128.849H128.846H128.842H128.839H128.836H128.832H128.829H128.826H128.822H128.819H128.816H128.812H128.809H128.806H128.802H128.799H128.796H128.792H128.789H128.786H128.782H128.779H128.776H128.772H128.769H128.766H128.762H128.759H128.756H128.752H128.749H128.746H128.742H128.739H128.736H128.732H128.729H128.726H128.722H128.719H128.716H128.712H128.709H128.706H128.702H128.699H128.696H128.692H128.689H128.686H128.682H128.679H128.676H128.672H128.669H128.666H128.662H128.659H128.656H128.652H128.649H128.646H128.642H128.639H128.636H128.632H128.629H128.626H128.622H128.619H128.616H128.612H128.609H128.606H128.602H128.599H128.596H128.592H128.589H128.586H128.582H128.579H128.576H128.572H128.569H128.566H128.562H128.559H128.556H128.552H128.549H128.546H128.542H128.539H128.536H128.532H128.529H128.526H128.522H128.519H128.516H128.512H128.509H128.506H128.502H128.499H128.496H128.493H128.489H128.486H128.483H128.479H128.476H128.473H128.469H128.466H128.463H128.459H128.456H128.453H128.449H128.446H128.443H128.439H128.436H128.433H128.429H128.426H128.423H128.419H128.416H128.413H128.409H128.406H128.403H128.399H128.396H128.393H128.389H128.386H128.383H128.379H128.376H128.373H128.369H128.366H128.363H128.359H128.356H128.353H128.349H128.346H128.343H128.339H128.336H128.333H128.329H128.326H128.323H128.319H128.316H128.313H128.309H128.306H128.303H128.299H128.296H128.293H128.289H128.286H128.283H128.279H128.276H128.273H128.269H128.266H128.263H128.259H128.256H128.253H128.249H128.246H128.243H128.239H128.236H128.233H128.229H128.226H128.223H128.219H128.216H128.213H128.209H128.206H128.203H128.199H128.196H128.193H128.189H128.186H128.183H128.179H128.176H128.173H128.169H128.166H128.163H128.159H128.156H128.153H128.149H128.146H128.143H128.139H128.136H128.133H128.129H128.126H128.123H128.119H128.116H128.113H128.109H128.106H128.103H128.099H128.096H128.093H128.089H128.086H128.083H128.079H128.076H128.073H128.069H128.066H128.063H128.059H128.056H128.053H128.049H128.046H128.043H128.039H128.036H128.033H128.029H128.026H128.023H128.019H128.016H128.013H128.009H128.006H128.003H127.999H127.996H127.993H127.989H127.986H127.983H127.979H127.976H127.973H127.969H127.966H127.963H127.959H127.956H127.953H127.949H127.946H127.943H127.939H127.936H127.933H127.929H127.926H127.923H127.919H127.916H127.913Z" fill="#FBFBFB" stroke="#FF8B1F" stroke-width="0.5"/>
<path d="M128.029 24.3918L127.859 23.9264C123.414 24.8989 119.221 26.4231 115.284 28.4993L115.454 28.9647C119.89 27.9952 124.082 26.4709 128.029 24.3918Z" fill="#FF8B1F" stroke="#FF8B1F" stroke-width="0.5"/>
<path d="M137.262 36.6824V36.6482L137.253 36.6152C136.393 33.5329 135.827 30.3259 135.555 26.9938L135.536 26.7636L135.305 26.7642C133.556 26.7687 131.831 26.9603 130.133 27.3389L129.938 27.3825V27.5829V27.5862V27.5895V27.5929V27.5962V27.5995V27.6029V27.6062V27.6095V27.6129V27.6162V27.6195V27.6229V27.6262V27.6295V27.6329V27.6362V27.6395V27.6429V27.6462V27.6495V27.6529V27.6562V27.6595V27.6629V27.6662V27.6695V27.6729V27.6762V27.6795V27.6829V27.6862V27.6895V27.6928V27.6962V27.6995V27.7028V27.7062V27.7095V27.7128V27.7162V27.7195V27.7228V27.7262V27.7295V27.7328V27.7362V27.7395V27.7428V27.7462V27.7495V27.7528V27.7562V27.7595V27.7628V27.7662V27.7695V27.7728V27.7762V27.7795V27.7828V27.7862V27.7895V27.7928V27.7962V27.7995V27.8028V27.8061V27.8095V27.8128V27.8161V27.8195V27.8228V27.8261V27.8295V27.8328V27.8361V27.8395V27.8428V27.8461V27.8495V27.8528V27.8561V27.8595V27.8628V27.8661V27.8695V27.8728V27.8761V27.8795V27.8828V27.8861V27.8895V27.8928V27.8961V27.8995V27.9028V27.9061V27.9095V27.9128V27.9161V27.9194V27.9228V27.9261V27.9294V27.9328V27.9361V27.9394V27.9428V27.9461V27.9494V27.9528V27.9561V27.9594V27.9628V27.9661V27.9694V27.9728V27.9761V27.9794V27.9828V27.9861V27.9894V27.9928V27.9961V27.9994V28.0028V28.0061V28.0094V28.0128V28.0161V28.0194V28.0228V28.0261V28.0294V28.0327V28.0361V28.0394V28.0427V28.0461V28.0494V28.0527V28.0561V28.0594V28.0627V28.0661V28.0694V28.0727V28.0761V28.0794V28.0827V28.0861V28.0894V28.0927V28.0961V28.0994V28.1027V28.1061V28.1094V28.1127V28.1161V28.1194V28.1227V28.1261V28.1294V28.1327V28.136V28.1394V28.1427V28.146V28.1494V28.1527V28.156V28.1594V28.1627V28.166V28.1694V28.1727V28.176V28.1794V28.1827V28.186V28.1894V28.1927V28.196V28.1994V28.2027V28.206V28.2094V28.2127V28.216V28.2194V28.2227V28.226V28.2294V28.2327V28.236V28.2394V28.2427V28.246V28.2493V28.2527V28.256V28.2593V28.2627V28.266V28.2693V28.2727V28.276V28.2793V28.2827V28.286V28.2893V28.2927V28.296V28.2993V28.3027V28.306V28.3093V28.3127V28.316V28.3193V28.3227V28.326V28.3293V28.3327V28.336V28.3393V28.3427V28.346V28.3493V28.3527V28.356V28.3593V28.3626V28.366V28.3693V28.3726V28.376V28.3793V28.3826V28.386V28.3893V28.3926V28.396V28.3993V28.4026V28.406V28.4093V28.4126V28.416V28.4193V28.4226V28.426V28.4293V28.4326V28.436V28.4393V28.4426V28.446V28.4493V28.4526V28.456V28.4593V28.4626V28.466V28.4693V28.4726V28.4759V28.4793V28.4826V28.4859V28.4893V28.4926V28.4959V28.4993V28.5026V28.5059V28.5093V28.5126V28.5159V28.5193V28.5226V28.5259V28.5293V28.5326V28.5359V28.5393V28.5426V28.5459V28.5493V28.5526V28.5559V28.5593V28.5626V28.5659V28.5693V28.5726V28.5759V28.5793V28.5826V28.5859V28.5892V28.5926V28.5959V28.5992V28.6026V28.6059V28.6092V28.6126V28.6159V28.6192V28.6226V28.6259V28.6292V28.6326V28.6359V28.6392V28.6426V28.6459V28.6492V28.6526V28.6559V28.6592V28.6626V28.6659V28.6692V28.6726V28.6759V28.6792V28.6826V28.6859V28.6892V28.6926V28.6959V28.6992V28.7025V28.7059V28.7092V28.7125V28.7159V28.7192V28.7225V28.7259V28.7292V28.7325V28.7359V28.7392V28.7425V28.7459V28.7492V28.7525V28.7559V28.7592V28.7625V28.7659V28.7692V28.7725V28.7759V28.7792V28.7825V28.7859V28.7892V28.7925V28.7959V28.7992V28.8025V28.8059V28.8092V28.8125V28.8158V28.8192V28.8225V28.8258V28.8292V28.8325V28.8358V28.8392V28.8425V28.8458V28.8492V28.8525V28.8558V28.8592V28.8625V28.8658V28.8692V28.8725V28.8758V28.8792V28.8825V28.8858V28.8892V28.8925V28.8958V28.8992V28.9025V28.9058V28.9092V28.9125V28.9158V28.9192V28.9225V28.9258V28.9291V28.9325V28.9358V28.9391V28.9425V28.9458V28.9491V28.9525V28.9558V28.9591V28.9625V28.9658V28.9691V28.9725V28.9758V28.9791V28.9825V28.9858V28.9891V28.9925V28.9958V28.9991V29.0025V29.0058V29.0091V29.0125V29.0158V29.0191V29.0225V29.0258V29.0291V29.0325V29.0358V29.0391V29.0424V29.0458V29.0491V29.0524V29.0558V29.0591V29.0624V29.0658V29.0691V29.0724V29.0758V29.0791V29.0824V29.0858V29.0891V29.0924V29.0958V29.0991V29.1024V29.1058V29.1091V29.1124V29.1158V29.1191V29.1224V29.1258V29.1291V29.1324V29.1358V29.1391V29.1424V29.1458V29.1491V29.1524V29.1557V29.1591V29.1624V29.1657V29.1691V29.1724V29.1757V29.1791V29.1824V29.1857V29.1891V29.1924V29.1957V29.1991V29.2024V29.2057V29.2091V29.2124V29.2157V29.2191V29.2224V29.2257V29.2291V29.2324V29.2357V29.2391V29.2424V29.2457V29.2491V29.2524V29.2557V29.2591V29.2624V29.2657V29.269V29.2724V29.2745C129.621 32.0049 130.034 34.2237 131.216 35.8988C132.402 37.5779 134.332 38.6703 136.963 39.2023L137.262 39.2629V38.9573V38.9528V38.9484V38.944V38.9395V38.9351V38.9306V38.9262V38.9217V38.9173V38.9129V38.9084V38.904V38.8995V38.8951V38.8906V38.8862V38.8818V38.8773V38.8729V38.8684V38.864V38.8595V38.8551V38.8507V38.8462V38.8418V38.8373V38.8329V38.8284V38.824V38.8196V38.8151V38.8107V38.8062V38.8018V38.7973V38.7929V38.7885V38.784V38.7796V38.7751V38.7707V38.7662V38.7618V38.7573V38.7529V38.7485V38.744V38.7396V38.7351V38.7307V38.7262V38.7218V38.7174V38.7129V38.7085V38.704V38.6996V38.6951V38.6907V38.6863V38.6818V38.6774V38.6729V38.6685V38.664V38.6596V38.6552V38.6507V38.6463V38.6418V38.6374V38.6329V38.6285V38.6241V38.6196V38.6152V38.6107V38.6063V38.6018V38.5974V38.593V38.5885V38.5841V38.5796V38.5752V38.5707V38.5663V38.5619V38.5574V38.553V38.5485V38.5441V38.5396V38.5352V38.5308V38.5263V38.5219V38.5174V38.513V38.5085V38.5041V38.4997V38.4952V38.4908V38.4863V38.4819V38.4774V38.473V38.4685V38.4641V38.4597V38.4552V38.4508V38.4463V38.4419V38.4374V38.433V38.4286V38.4241V38.4197V38.4152V38.4108V38.4063V38.4019V38.3975V38.393V38.3886V38.3841V38.3797V38.3752V38.3708V38.3664V38.3619V38.3575V38.353V38.3486V38.3441V38.3397V38.3353V38.3308V38.3264V38.3219V38.3175V38.313V38.3086V38.3042V38.2997V38.2953V38.2908V38.2864V38.2819V38.2775V38.2731V38.2686V38.2642V38.2597V38.2553V38.2508V38.2464V38.2419V38.2375V38.2331V38.2286V38.2242V38.2197V38.2153V38.2108V38.2064V38.202V38.1975V38.1931V38.1886V38.1842V38.1797V38.1753V38.1709V38.1664V38.162V38.1575V38.1531V38.1486V38.1442V38.1398V38.1353V38.1309V38.1264V38.122V38.1175V38.1131V38.1087V38.1042V38.0998V38.0953V38.0909V38.0864V38.082V38.0776V38.0731V38.0687V38.0642V38.0598V38.0553V38.0509V38.0464V38.042V38.0376V38.0331V38.0287V38.0242V38.0198V38.0153V38.0109V38.0065V38.002V37.9976V37.9931V37.9887V37.9842V37.9798V37.9754V37.9709V37.9665V37.962V37.9576V37.9531V37.9487V37.9443V37.9398V37.9354V37.9309V37.9265V37.922V37.9176V37.9132V37.9087V37.9043V37.8998V37.8954V37.8909V37.8865V37.8821V37.8776V37.8732V37.8687V37.8643V37.8598V37.8554V37.8509V37.8465V37.8421V37.8376V37.8332V37.8287V37.8243V37.8198V37.8154V37.811V37.8065V37.8021V37.7976V37.7932V37.7887V37.7843V37.7799V37.7754V37.771V37.7665V37.7621V37.7576V37.7532V37.7488V37.7443V37.7399V37.7354V37.731V37.7265V37.7221V37.7177V37.7132V37.7088V37.7043V37.6999V37.6954V37.691V37.6866V37.6821V37.6777V37.6732V37.6688V37.6643V37.6599V37.6554V37.651V37.6466V37.6421V37.6377V37.6332V37.6288V37.6243V37.6199V37.6155V37.611V37.6066V37.6021V37.5977V37.5932V37.5888V37.5844V37.5799V37.5755V37.571V37.5666V37.5621V37.5577V37.5533V37.5488V37.5444V37.5399V37.5355V37.531V37.5266V37.5222V37.5177V37.5133V37.5088V37.5044V37.4999V37.4955V37.4911V37.4866V37.4822V37.4777V37.4733V37.4688V37.4644V37.4599V37.4555V37.4511V37.4466V37.4422V37.4377V37.4333V37.4288V37.4244V37.42V37.4155V37.4111V37.4066V37.4022V37.3977V37.3933V37.3889V37.3844V37.38V37.3755V37.3711V37.3666V37.3622V37.3578V37.3533V37.3489V37.3444V37.34V37.3355V37.3311V37.3267V37.3222V37.3178V37.3133V37.3089V37.3044V37.3V37.2956V37.2911V37.2867V37.2822V37.2778V37.2733V37.2689V37.2645V37.26V37.2556V37.2511V37.2467V37.2422V37.2378V37.2333V37.2289V37.2245V37.22V37.2156V37.2111V37.2067V37.2022V37.1978V37.1934V37.1889V37.1845V37.18V37.1756V37.1711V37.1667V37.1623V37.1578V37.1534V37.1489V37.1445V37.14V37.1356V37.1312V37.1267V37.1223V37.1178V37.1134V37.1089V37.1045V37.1001V37.0956V37.0912V37.0867V37.0823V37.0778V37.0734V37.069V37.0645V37.0601V37.0556V37.0512V37.0467V37.0423V37.0379V37.0334V37.029V37.0245V37.0201V37.0156V37.0112V37.0067V37.0023V36.9979V36.9934V36.989V36.9845V36.9801V36.9756V36.9712V36.9668V36.9623V36.9579V36.9534V36.949V36.9445V36.9401V36.9357V36.9312V36.9268V36.9223V36.9179V36.9134V36.909V36.9046V36.9001V36.8957V36.8912V36.8868V36.8823V36.8779V36.8735V36.869V36.8646V36.8601V36.8557V36.8512V36.8468V36.8424V36.8379V36.8335V36.829V36.8246V36.8201V36.8157V36.8113V36.8068V36.8024V36.7979V36.7935V36.789V36.7846V36.7802V36.7757V36.7713V36.7668V36.7624V36.7579V36.7535V36.7491V36.7446V36.7402V36.7357V36.7313V36.7268V36.7224V36.7179V36.7135V36.7091V36.7046V36.7002V36.6957V36.6913V36.6868V36.6824Z" fill="#FBFBFB" stroke="#FF8B1F" stroke-width="0.5"/>
<path d="M150.907 29.24L150.412 29.3046C150.601 32.3341 150.327 35.3095 149.59 38.2315C148.102 39.1747 146.445 39.5325 144.608 39.3011C143.78 35.9063 143.233 32.4637 142.969 28.9731C144.124 28.9624 145.056 28.6602 145.731 28.034C146.457 27.3596 146.844 26.3465 146.93 25.04L146.933 24.9852L146.914 24.934C145.768 21.9514 144.823 18.9285 144.08 15.8652L144.051 15.7445L143.937 15.6949C141.333 14.5611 138.634 14.1753 135.842 14.5388L135.778 14.5471L135.726 14.5856C134.62 15.4021 133.841 16.4589 133.392 17.7507C131.885 18.7067 130.394 19.6382 128.919 20.5453L128.815 20.6096L128.802 20.7315C128.688 21.7874 129.021 22.6596 129.791 23.3229C129.571 23.5438 129.429 23.8125 129.373 24.1263L129.338 24.3176L129.515 24.3981C130.14 24.6825 130.564 25.0183 130.815 25.3935C131.037 25.7266 131.133 26.1068 131.095 26.5459C123.247 29.3188 115.52 32.2413 107.914 35.3132L107.563 35.4547L107.831 35.7218C108.026 35.9173 108.214 36.1047 108.401 36.2922C108.587 36.4785 108.774 36.6649 108.968 36.8592L109.194 37.0852L109.359 36.8114C109.931 35.8608 110.819 35.2335 112.048 34.9348L112.063 34.9311L112.078 34.9254C117.596 32.8144 123.16 30.8633 128.77 29.072C128.65 30.7915 128.853 32.4089 129.383 33.9215L129.867 33.8124C129.697 32.2076 129.883 30.7322 130.42 29.3814L130.438 29.3369V29.289V29.2857V29.2824V29.279V29.2757V29.2724V29.2691V29.2657V29.2624V29.2591V29.2557V29.2524V29.2491V29.2457V29.2424V29.2391V29.2357V29.2324V29.2291V29.2257V29.2224V29.2191V29.2157V29.2124V29.2091V29.2057V29.2024V29.1991V29.1957V29.1924V29.1891V29.1857V29.1824V29.1791V29.1757V29.1724V29.1691V29.1657V29.1624V29.1591V29.1558V29.1524V29.1491V29.1458V29.1424V29.1391V29.1358V29.1324V29.1291V29.1258V29.1224V29.1191V29.1158V29.1124V29.1091V29.1058V29.1024V29.0991V29.0958V29.0924V29.0891V29.0858V29.0824V29.0791V29.0758V29.0724V29.0691V29.0658V29.0624V29.0591V29.0558V29.0524V29.0491V29.0458V29.0425V29.0391V29.0358V29.0325V29.0291V29.0258V29.0225V29.0191V29.0158V29.0125V29.0091V29.0058V29.0025V28.9991V28.9958V28.9925V28.9891V28.9858V28.9825V28.9791V28.9758V28.9725V28.9691V28.9658V28.9625V28.9591V28.9558V28.9525V28.9491V28.9458V28.9425V28.9391V28.9358V28.9325V28.9292V28.9258V28.9225V28.9192V28.9158V28.9125V28.9092V28.9058V28.9025V28.8992V28.8958V28.8925V28.8892V28.8858V28.8825V28.8792V28.8758V28.8725V28.8692V28.8658V28.8625V28.8592V28.8558V28.8525V28.8492V28.8458V28.8425V28.8392V28.8358V28.8325V28.8292V28.8259V28.8225V28.8192V28.8159V28.8125V28.8092V28.8059V28.8025V28.7992V28.7959V28.7925V28.7892V28.7859V28.7825V28.7792V28.7759V28.7725V28.7692V28.7659V28.7625V28.7592V28.7559V28.7525V28.7492V28.7459V28.7425V28.7392V28.7359V28.7325V28.7292V28.7259V28.7225V28.7192V28.7159V28.7126V28.7092V28.7059V28.7026V28.6992V28.6959V28.6926V28.6892V28.6859V28.6826V28.6792V28.6759V28.6726V28.6692V28.6659V28.6626V28.6592V28.6559V28.6526V28.6492V28.6459V28.6426V28.6392V28.6359V28.6326V28.6292V28.6259V28.6226V28.6192V28.6159V28.6126V28.6092V28.6059V28.6026V28.5993V28.5959V28.5926V28.5893V28.5859V28.5826V28.5793V28.5759V28.5726V28.5693V28.5659V28.5626V28.5593V28.5559V28.5526V28.5493V28.5459V28.5426V28.5393V28.5359V28.5326V28.5293V28.5259V28.5226V28.5193V28.5159V28.5126V28.5093V28.5059V28.5026V28.4993V28.4959V28.4926V28.4893V28.486V28.4826V28.4793V28.476V28.4726V28.4693V28.466V28.4626V28.4593V28.456V28.4526V28.4493V28.446V28.4426V28.4393V28.436V28.4326V28.4293V28.426V28.4226V28.4193V28.416V28.4126V28.4093V28.406V28.4026V28.3993V28.396V28.3926V28.3893V28.386V28.3826V28.3793V28.376V28.3727V28.3693V28.366V28.3627V28.3593V28.356V28.3527V28.3493V28.346V28.3427V28.3393V28.336V28.3327V28.3293V28.326V28.3227V28.3193V28.316V28.3127V28.3093V28.306V28.3027V28.2993V28.296V28.2927V28.2893V28.286V28.2827V28.2793V28.276V28.2727V28.2693V28.266V28.2627V28.2594V28.256V28.2527V28.2494V28.246V28.2427V28.2394V28.236V28.2327V28.2294V28.226V28.2227V28.2194V28.216V28.2127V28.2094V28.206V28.2027V28.1994V28.196V28.1927V28.1894V28.186V28.1827V28.1794V28.176V28.1727V28.1694V28.166V28.1627V28.1594V28.156V28.1527V28.1494V28.1461V28.1427V28.1394V28.1361V28.1327V28.1294V28.1261V28.1227V28.1194V28.1161V28.1127V28.1094V28.1061V28.1027V28.0994V28.0961V28.0927V28.0894V28.0861V28.0827V28.0794V28.0761V28.0727V28.0694V28.0661V28.0627V28.0594V28.0561V28.0527V28.0494V28.0461V28.0427V28.0394V28.0361V28.0328V28.0294V28.0261V28.0228V28.0194V28.0161V28.0128V28.0094V28.0061V28.0028V27.9994V27.9961V27.9928V27.9894V27.9861V27.9828V27.9794V27.9761V27.9728V27.9694V27.9661V27.9628V27.9594V27.9561V27.9528V27.9494V27.9461V27.9428V27.9394V27.9361V27.9328V27.9294V27.9261V27.9228V27.9195V27.9161V27.9128V27.9095V27.9061V27.9028V27.8995V27.8961V27.8928V27.8895V27.8861V27.8828V27.8795V27.8761V27.8728V27.8695V27.8661V27.8628V27.8595V27.8561V27.8528V27.8495V27.8461V27.8428V27.8395V27.8361V27.8328V27.8295V27.8261V27.8228V27.8195V27.8161V27.8128V27.8095V27.8062V27.8028V27.7995V27.7962V27.7928V27.7895V27.7862V27.7842C131.962 27.4578 133.509 27.285 135.076 27.2659C135.357 30.5455 135.922 33.7068 136.771 36.7496L137.262 36.6824C137.262 36.5313 137.3 36.464 137.331 36.4326C137.362 36.4013 137.43 36.3637 137.581 36.3637H137.873L137.828 36.0749C137.232 32.2819 136.48 28.5175 135.574 24.7817C135.672 24.6347 135.781 24.5385 135.897 24.4805C136.033 24.4128 136.198 24.3867 136.407 24.4178L136.593 23.9703C135.886 23.4419 134.844 22.9095 133.479 22.37L133.492 22.3569L133.668 22.1814C136.727 23.1874 139.844 23.9227 143.018 24.3871V24.3872V24.3905V24.3938V24.3972V24.4005V24.4038V24.4072V24.4105V24.4138V24.4172V24.4205V24.4238V24.4272V24.4305V24.4338V24.4372V24.4405V24.4438V24.4471V24.4505V24.4538V24.4571V24.4605V24.4638V24.4671V24.4705V24.4738V24.4771V24.4805V24.4838V24.4871V24.4905V24.4938V24.4971V24.5005V24.5038V24.5071V24.5105V24.5138V24.5171V24.5205V24.5238V24.5271V24.5305V24.5338V24.5371V24.5405V24.5438V24.5471V24.5505V24.5538V24.5571V24.5604V24.5638V24.5671V24.5704V24.5738V24.5771V24.5804V24.5838V24.5871V24.5904V24.5938V24.5971V24.6004V24.6038V24.6071V24.6104V24.6138V24.6171V24.6204V24.6238V24.6271V24.6304V24.6338V24.6371V24.6404V24.6438V24.6471V24.6504V24.6538V24.6571V24.6604V24.6637V24.6671V24.6704V24.6737V24.6771V24.6804V24.6837V24.6871V24.6904V24.6937V24.6971V24.7004V24.7037V24.7071V24.7104V24.7137V24.7171V24.7204V24.7237V24.7271V24.7304V24.7337V24.7371V24.7404V24.7437V24.7471V24.7504V24.7537V24.7571V24.7604V24.7637V24.7671V24.7704V24.7737V24.777V24.7804V24.7837V24.787V24.7904V24.7937V24.797V24.8004V24.8037V24.807V24.8104V24.8137V24.817V24.8204V24.8237V24.827V24.8304V24.8337V24.837V24.8404V24.8437V24.847V24.8504V24.8537V24.857V24.8604V24.8637V24.867V24.8704V24.8737V24.877V24.8804V24.8837V24.887V24.8903V24.8937V24.897V24.9003V24.9037V24.907V24.9103V24.9137V24.917V24.9203V24.9237V24.927V24.9303V24.9337V24.937V24.9403V24.9437V24.947V24.9503V24.9537V24.957V24.9603V24.9637V24.967V24.9703V24.9737V24.977V24.9803V24.9837V24.987V24.9903V24.9937V24.997V25.0003V25.0036V25.007V25.0103V25.0136V25.017V25.0203V25.0236V25.027V25.0303V25.0336V25.037V25.0403V25.0436V25.047V25.0503V25.0536V25.057V25.0603V25.0636V25.067V25.0703V25.0736V25.077V25.0803V25.0836V25.087V25.0903V25.0936V25.097V25.1003V25.1036V25.107V25.1103V25.1136V25.1169V25.1203V25.1236V25.1269V25.1303V25.1336V25.1369V25.1403V25.1436V25.1469V25.1503V25.1536V25.1569V25.1603V25.1636V25.1669V25.1703V25.1736V25.1769V25.1803V25.1836V25.1869V25.1903V25.1936V25.1969V25.2003V25.2036V25.2069V25.2103V25.2136V25.2169V25.2203V25.2236V25.2269V25.2302V25.2336V25.2369V25.2402V25.2436V25.2469V25.2502V25.2536V25.2569V25.2602V25.2636V25.2669V25.2702V25.2736V25.2769V25.2802V25.2836V25.2869V25.2902V25.2936V25.2969V25.3002V25.3036V25.3069V25.3102V25.3136V25.3169V25.3202V25.3236V25.3269V25.3302V25.3336V25.3369V25.3402V25.3435V25.3469V25.3502V25.3535V25.3569V25.3602V25.3635V25.3669V25.3702V25.3735V25.3769V25.3802V25.3835V25.3869V25.3902V25.3935V25.3969V25.4002V25.4035V25.4069V25.4102V25.4135V25.4169V25.4202V25.4235V25.4269V25.4302V25.4335V25.4369V25.4402V25.4435V25.4469V25.4502V25.4535V25.4568V25.4602V25.4635V25.4668V25.4702V25.4735V25.4768V25.4802V25.4835V25.4868V25.4902V25.4935V25.4968V25.5002V25.5035V25.5068V25.5102V25.5135V25.5168V25.5202V25.5229C141.634 25.0298 140.231 24.5016 138.81 23.9382L138.76 23.9183L138.707 23.9208C138.126 23.9479 137.664 24.1647 137.373 24.6004L137.107 24.9979L137.585 24.9892C138.418 24.9741 139.112 25.1478 139.68 25.4972C140.239 25.8413 140.693 26.3664 141.036 27.0879C142.499 36.619 144.204 46.09 146.151 55.5008L146.646 55.4449C146.543 50.5334 145.901 45.6819 144.72 40.891C145.879 40.8389 146.847 41.2033 147.643 41.9798L148.068 42.3941V41.8009C148.068 41.6498 148.105 41.5824 148.137 41.5511C148.168 41.5198 148.235 41.4822 148.387 41.4822H148.481L148.552 41.4192C150.471 39.7172 151.637 37.5794 152.046 35.0156L152.053 34.9713L152.044 34.9272L151.475 32.0836L150.907 29.24Z" fill="#FF8B1F" stroke="#FF8B1F" stroke-width="0.5"/>
<path d="M137.624 24.9857L137.729 24.9674L137.789 24.8783C137.965 24.6148 138.246 24.4545 138.678 24.4235C140.201 25.0266 141.703 25.5897 143.185 26.1126L143.518 26.2301V25.8768V25.8735V25.8701V25.8668V25.8635V25.8601V25.8568V25.8535V25.8501V25.8468V25.8435V25.8401V25.8368V25.8335V25.8301V25.8268V25.8235V25.8201V25.8168V25.8135V25.8101V25.8068V25.8035V25.8002V25.7968V25.7935V25.7902V25.7868V25.7835V25.7802V25.7768V25.7735V25.7702V25.7668V25.7635V25.7602V25.7568V25.7535V25.7502V25.7468V25.7435V25.7402V25.7368V25.7335V25.7302V25.7268V25.7235V25.7202V25.7168V25.7135V25.7102V25.7068V25.7035V25.7002V25.6968V25.6935V25.6902V25.6869V25.6835V25.6802V25.6769V25.6735V25.6702V25.6669V25.6635V25.6602V25.6569V25.6535V25.6502V25.6469V25.6435V25.6402V25.6369V25.6335V25.6302V25.6269V25.6235V25.6202V25.6169V25.6135V25.6102V25.6069V25.6035V25.6002V25.5969V25.5935V25.5902V25.5869V25.5835V25.5802V25.5769V25.5736V25.5702V25.5669V25.5636V25.5602V25.5569V25.5536V25.5502V25.5469V25.5436V25.5402V25.5369V25.5336V25.5302V25.5269V25.5236V25.5202V25.5169V25.5136V25.5102V25.5069V25.5036V25.5002V25.4969V25.4936V25.4902V25.4869V25.4836V25.4802V25.4769V25.4736V25.4702V25.4669V25.4636V25.4603V25.4569V25.4536V25.4503V25.4469V25.4436V25.4403V25.4369V25.4336V25.4303V25.4269V25.4236V25.4203V25.4169V25.4136V25.4103V25.4069V25.4036V25.4003V25.3969V25.3936V25.3903V25.3869V25.3836V25.3803V25.3769V25.3736V25.3703V25.3669V25.3636V25.3603V25.3569V25.3536V25.3503V25.347V25.3436V25.3403V25.337V25.3336V25.3303V25.327V25.3236V25.3203V25.317V25.3136V25.3103V25.307V25.3036V25.3003V25.297V25.2936V25.2903V25.287V25.2836V25.2803V25.277V25.2736V25.2703V25.267V25.2636V25.2603V25.257V25.2536V25.2503V25.247V25.2436V25.2403V25.237V25.2337V25.2303V25.227V25.2237V25.2203V25.217V25.2137V25.2103V25.207V25.2037V25.2003V25.197V25.1937V25.1903V25.187V25.1837V25.1803V25.177V25.1737V25.1703V25.167V25.1637V25.1603V25.157V25.1537V25.1503V25.147V25.1437V25.1403V25.137V25.1337V25.1303V25.127V25.1237V25.1204V25.117V25.1137V25.1104V25.107V25.1037V25.1004V25.097V25.0937V25.0904V25.087V25.0837V25.0804V25.077V25.0737V25.0704V25.067V25.0637V25.0604V25.057V25.0537V25.0504V25.047V25.0437V25.0404V25.037V25.0337V25.0304V25.027V25.0237V25.0204V25.017V25.0137V25.0104V25.0071V25.0037V25.0004V24.9971V24.9937V24.9904V24.9871V24.9837V24.9804V24.9771V24.9737V24.9704V24.9671V24.9637V24.9604V24.9571V24.9537V24.9504V24.9471V24.9437V24.9404V24.9371V24.9337V24.9304V24.9271V24.9237V24.9204V24.9171V24.9137V24.9104V24.9071V24.9037V24.9004V24.8971V24.8938V24.8904V24.8871V24.8838V24.8804V24.8771V24.8738V24.8704V24.8671V24.8638V24.8604V24.8571V24.8538V24.8504V24.8471V24.8438V24.8404V24.8371V24.8338V24.8304V24.8271V24.8238V24.8204V24.8171V24.8138V24.8104V24.8071V24.8038V24.8004V24.7971V24.7938V24.7904V24.7871V24.7838V24.7805V24.7771V24.7738V24.7705V24.7671V24.7638V24.7605V24.7571V24.7538V24.7505V24.7471V24.7438V24.7405V24.7371V24.7338V24.7305V24.7271V24.7238V24.7205V24.7171V24.7138V24.7105V24.7071V24.7038V24.7005V24.6971V24.6938V24.6905V24.6871V24.6838V24.6805V24.6772V24.6738V24.6705V24.6672V24.6638V24.6605V24.6572V24.6538V24.6505V24.6472V24.6438V24.6405V24.6372V24.6338V24.6305V24.6272V24.6238V24.6205V24.6172V24.6138V24.6105V24.6072V24.6038V24.6005V24.5972V24.5938V24.5905V24.5872V24.5838V24.5805V24.5772V24.5738V24.5705V24.5672V24.5639V24.5605V24.5572V24.5539V24.5505V24.5472V24.5439V24.5405V24.5372V24.5339V24.5305V24.5272V24.5239V24.5205V24.5172V24.5139V24.5105V24.5072V24.5039V24.5005V24.4972V24.4939V24.4905V24.4872V24.4839V24.4805V24.4772V24.4739V24.4705V24.4672V24.4639V24.4605V24.4572V24.4539V24.4506V24.4472V24.4439V24.4406V24.4372V24.4339V24.4306V24.4272V24.4239V24.4206V24.4172V24.4139V24.4106V24.4072V24.4039V24.4006V24.3972V24.3939V24.3906V24.3872V24.3839V24.3806V24.3772V24.3739V24.3706V24.3672V24.3639V24.3606V24.3572V24.3539V24.3506V24.3472V24.3439V24.3406V24.3373V24.3339V24.3306V24.3273V24.3239V24.3206V24.3173V24.3139V24.3106V24.3073V24.3039V24.3006V24.2973V24.2939V24.2906V24.2873V24.2839V24.2806V24.2773V24.2739V24.2706V24.2673V24.2639V24.2606V24.2573V24.2539V24.2506V24.2473V24.2439V24.2406V24.2373V24.2339V24.2306V24.2273V24.224V24.2206V24.2173V24.214V24.2106V24.2073V24.204V24.2006V24.1973V24.194V24.1906V24.1873V24.184V24.1806V24.1773V24.174V24.1706V23.9537L143.303 23.9231C140.034 23.4578 136.826 22.7029 133.679 21.6585L133.532 21.6099L133.423 21.7191L133.139 22.0033L132.854 22.2878L132.582 22.5608L132.942 22.6981C134.432 23.2653 135.527 23.8112 136.241 24.332C136.356 24.5817 136.527 24.7768 136.762 24.8939C137.013 25.0197 137.307 25.0404 137.624 24.9857Z" fill="#FBFBFB" stroke="#FF8B1F" stroke-width="0.5"/>
<path d="M144.45 22.2183L144.234 22.1795L144.167 22.3887C143.775 23.6223 143.581 24.8915 143.584 26.1954H143.584H143.58H143.577H143.574H143.57H143.567H143.564H143.56H143.557H143.554H143.55H143.547H143.544H143.54H143.537H143.534H143.53H143.527H143.524H143.52H143.517H143.514H143.51H143.507H143.504H143.5H143.497H143.494H143.49H143.487H143.484H143.48H143.477H143.474H143.47H143.467H143.464H143.46H143.457H143.454H143.45H143.447H143.444H143.44H143.437H143.434H143.43H143.427H143.424H143.42H143.417H143.414H143.41H143.407H143.404H143.4H143.397H143.394H143.39H143.387H143.384H143.38H143.377H143.374H143.37H143.367H143.364H143.36H143.357H143.354H143.35H143.347H143.344H143.34H143.337H143.334H143.33H143.327H143.324H143.32H143.317H143.314H143.31H143.307H143.304H143.3H143.297H143.294H143.29H143.287H143.284H143.28H143.277H143.274H143.27H143.267H143.264H143.26H143.257H143.254H143.25H143.247H143.244H143.24H143.237H143.234H143.23H143.227H143.224H143.22H143.217H143.214H143.21H143.207H143.204H143.2H143.197H143.194H143.19H143.187H143.184H143.18H143.177H143.174H143.17H143.167H143.164H143.16H143.157H143.154H143.15H143.147H143.144H143.14H143.137H143.134H143.13H143.127H143.124H143.12H143.117H143.114H143.11H143.107H143.104H143.1H143.097H143.094H143.09H143.087H143.084H143.08H143.077H143.074H143.07H143.067H143.064H143.06H143.057H143.054H143.05H143.047H143.044H143.04H143.037H143.034H143.03H143.027H143.024H143.02H143.017H143.014H143.01H143.007H143.004H143H142.997H142.994H142.99H142.987H142.984H142.98H142.977H142.974H142.97H142.967H142.964H142.96H142.957H142.954H142.95H142.947H142.944H142.94H142.937H142.934H142.93H142.927H142.924H142.92H142.917H142.914H142.91H142.907H142.904H142.9H142.897H142.894H142.89H142.887H142.884H142.88H142.877H142.874H142.87H142.867H142.864H142.86H142.857H142.854H142.85H142.847H142.844H142.84H142.837H142.834H142.83H142.827H142.824H142.82H142.817H142.814H142.81H142.807H142.804H142.8H142.797H142.794H142.79H142.787H142.784H142.78H142.777H142.774H142.77H142.767H142.764H142.76H142.757H142.754H142.75H142.747H142.744H142.74H142.737H142.734H142.73H142.727H142.724H142.72H142.717H142.714H142.71H142.707H142.704H142.7H142.697H142.694H142.69H142.687H142.684H142.68H142.677H142.674H142.67H142.667H142.664H142.66H142.657H142.654H142.65H142.647H142.644H142.64H142.637H142.634H142.63H142.627H142.624H142.62H142.617H142.614H142.61H142.607H142.604H142.6H142.597H142.594H142.59H142.587H142.584H142.58H142.577H142.574H142.57H142.567H142.564H142.56H142.557H142.554H142.55H142.547H142.544H142.54H142.537H142.534H142.53H142.527H142.524H142.52H142.517H142.514H142.511H142.507H142.504H142.501H142.497H142.494H142.491H142.487H142.484H142.481H142.477H142.474H142.471H142.467H142.464H142.461H142.457H142.454H142.451H142.447H142.444H142.441H142.437H142.434H142.431H142.427H142.424H142.421H142.417H142.414H142.411H142.407H142.404H142.401H142.397H142.394H142.391H142.387H142.384H142.381H142.377H142.374H142.371H142.367H142.364H142.361H142.357H142.354H142.351H142.347H142.344H142.341H142.337H142.334H142.331H142.327H142.324H142.321H142.317H142.314H142.311H142.307H142.304H142.301H142.297H142.294H142.291H142.287H142.284H142.281H142.277H142.274H142.271H142.267H142.264H142.261H142.257H142.254H142.251H142.247H142.244H142.241H142.237H142.234H142.231H142.227H142.224H142.221H142.217H142.214H142.211H142.207H142.204H142.201H142.197H142.194H142.191H142.187H142.184H142.181H142.177H142.174H142.171H142.167H142.164H142.161H142.157H142.154H142.151H142.147H142.144H142.141H142.137H142.134H142.131H141.881V26.4454V26.4487V26.4521V26.4554V26.4587V26.4621V26.4654V26.4687V26.4721V26.4754V26.4787V26.4821V26.4854V26.4887V26.4921V26.4954V26.4987V26.502V26.5054V26.5087V26.512V26.5154V26.5187V26.522V26.5254V26.5287V26.532V26.5354V26.5387V26.542V26.5454V26.5487V26.552V26.5554V26.5587V26.562V26.5654V26.5687V26.572V26.5754V26.5787V26.582V26.5854V26.5887V26.592V26.5954V26.5987V26.602V26.6054V26.6087V26.612V26.6153V26.6187V26.622V26.6253V26.6287V26.632V26.6353V26.6387V26.642V26.6453V26.6487V26.652V26.6553V26.6587V26.662V26.6653V26.6687V26.672V26.6753V26.6787V26.682V26.6853V26.6887V26.692V26.6953V26.6987V26.702V26.7053V26.7087V26.712V26.7153V26.7187V26.722V26.7253V26.7286V26.732V26.7353V26.7386V26.742V26.7453V26.7486V26.752V26.7553V26.7586V26.762V26.7653V26.7686V26.772V26.7753V26.7786V26.782V26.7853V26.7886V26.792V26.7953V26.7986V26.802V26.8053V26.8086V26.812V26.8153V26.8186V26.822V26.8253V26.8286V26.832V26.8353V26.8386V26.8419V26.8453V26.8486V26.8519V26.8553V26.8586V26.8619V26.8653V26.8686V26.8719V26.8753V26.8786V26.8819V26.8853V26.8886V26.8919V26.8953V26.8986V26.9019V26.9053V26.9086V26.9119V26.9153V26.9186V26.9219V26.9253V26.9286V26.9319V26.9353V26.9386V26.9419V26.9453V26.9486V26.9519V26.9552V26.9586V26.9619V26.9652V26.9686V26.9719V26.9752V26.9786V26.9819V26.9852V26.9886V26.9919V26.9952V26.9986V27.0019V27.0052V27.0086V27.0119V27.0152V27.0186V27.0219V27.0252V27.0286V27.0319V27.0352V27.0386V27.0419V27.0452V27.0486V27.0519V27.0552V27.0585V27.0619V27.0652V27.0685V27.0719V27.0752V27.0785V27.0819V27.0852V27.0885V27.0919V27.0952V27.0985V27.1019V27.1052V27.1085V27.1119V27.1152V27.1185V27.1219V27.1252V27.1285V27.1319V27.1352V27.1385V27.1419V27.1452V27.1485V27.1519V27.1552V27.1585V27.1619V27.1652V27.1685V27.1718V27.1752V27.1785V27.1818V27.1852V27.1885V27.1918V27.1952V27.1985V27.2018V27.2052V27.2085V27.2118V27.2152V27.2185V27.2218V27.2252V27.2285V27.2318V27.2352V27.2385V27.2418V27.2452V27.2485V27.2518V27.2552V27.2585V27.2618V27.2652V27.2685V27.2718V27.2752V27.2785V27.2818V27.2851V27.2885V27.2918V27.2951V27.2985V27.3018V27.3051V27.3085V27.3118V27.3151V27.3185V27.3218V27.3251V27.3285V27.3318V27.3351V27.3385V27.3418V27.3451V27.3485V27.3518V27.3551V27.3585V27.3618V27.3651V27.3685V27.3718V27.3751V27.3785V27.3818V27.3851V27.3885V27.3918V27.3951V27.3984V27.4018V27.4051V27.4084V27.4118V27.4151V27.4184V27.4218V27.4251V27.4284V27.4318V27.4351V27.4384V27.4418V27.4451V27.4484V27.4518V27.4551V27.4584V27.4618V27.4651V27.4684V27.4718V27.4751V27.4784V27.4818V27.4851V27.4884V27.4918V27.4951V27.4984V27.5018V27.5051V27.5084V27.5117V27.5151V27.5184V27.5217V27.5251V27.5284V27.5317V27.5351V27.5384V27.5417V27.5451V27.5484V27.5517V27.5551V27.5584V27.5617V27.5651V27.5684V27.5717V27.5751V27.5784V27.5817V27.5851V27.5884V27.5917V27.5951V27.5984V27.6017V27.6051V27.6084V27.6117V27.6151V27.6184V27.6217V27.625V27.6284V27.6317V27.635V27.6384V27.6417V27.645V27.6484V27.6517V27.655V27.6584V27.6617V27.665V27.6684V27.6717V27.675V27.6784V27.6817V27.685V27.6884V27.6917V27.695V27.6984V27.7017V27.705V27.7084V27.7117V27.715V27.7184V27.7217V27.725V27.7284V27.7317V27.735V27.7383V27.7417V27.745V27.7483V27.7517V27.755V27.7583V27.7617V27.765V27.7683V27.7717V27.775V27.7783V27.7817V27.785V27.7883V27.7917V27.795V27.7983V27.8017V27.805V27.8083V27.8117V27.815V27.8183V27.8217V27.825V27.8283V27.8317V27.835V27.8383V27.8417V27.845V27.8483V27.8516V27.855V27.8583V27.8616V27.865V27.8683V27.8716V27.875V27.8783V27.8816V27.885V27.8883V27.8916V27.895V27.8983V27.9016V27.905V27.9083V27.9116V27.915V27.9183V27.9216V27.925V27.9283V27.9316V27.935V27.9383V27.9416V27.945V27.9483V27.9516V27.955V27.9583V27.9616V27.9649V27.9683V27.9716V27.9749V27.9783V27.9816V27.9849V27.9883V27.9916V27.9949V27.9983V28.0016V28.0049V28.0083V28.0116V28.0149V28.0183V28.0216V28.0249V28.0283V28.0316V28.0349V28.0383V28.0416V28.0449V28.0483V28.0516V28.0549V28.0583V28.0616V28.0649V28.0683V28.0716V28.0749V28.0782V28.0816V28.0849V28.0882V28.0916V28.0949V28.0982V28.1016V28.1049V28.1082V28.1116V28.1149V28.1182V28.1216V28.1249V28.1282V28.1316V28.1349V28.1382V28.1416V28.1449V28.1482V28.1516V28.4183L142.147 28.401C143.786 28.2946 144.954 27.8022 145.538 26.8456C146.119 25.8948 146.068 24.5744 145.494 22.9498L145.483 22.9186L145.464 22.8913C145.212 22.5248 144.872 22.294 144.45 22.2183Z" fill="#FBFBFB" stroke="#FF8B1F" stroke-width="0.5"/>
<path d="M131.886 19.3709L131.772 19.3744L131.699 19.4635C130.57 20.859 130.272 22.4619 130.801 24.2418L130.809 24.2696L130.824 24.2948C131.333 25.1839 131.935 25.7565 132.649 25.9214C133.369 26.0875 134.123 25.8222 134.891 25.2205L135.181 24.9938L134.864 24.808C133.865 24.2232 132.976 23.5221 132.195 22.7045L132.686 21.7231L133.255 20.5858L133.301 20.494L133.269 20.3964C133.162 20.0692 132.995 19.8024 132.753 19.6213C132.51 19.4388 132.215 19.3611 131.886 19.3709Z" fill="#FBFBFB" stroke="#FF8B1F" stroke-width="0.5"/>
<path d="M136.477 14.8232L136.37 14.809L136.286 14.8768C135.219 15.7418 134.522 16.725 134.221 17.829C133.92 18.9331 134.021 20.1318 134.503 21.4149L134.542 21.5177L134.644 21.5588C137.443 22.6893 140.312 23.359 143.25 23.5669L143.404 23.5778L143.483 23.4449C144.614 21.5355 144.908 19.4774 144.364 17.2857L144.335 17.171L144.229 17.1202C141.772 15.9506 139.188 15.1849 136.477 14.8232Z" fill="#FBFBFB" stroke="#FF8B1F" stroke-width="0.5"/>
<path d="M129.86 33.7733L129.858 33.7647L129.855 33.7562C129.312 32.2086 129.126 30.5392 129.299 28.7445L129.335 28.3674L128.974 28.4822C123.239 30.3058 117.552 32.296 111.914 34.4529C110.58 34.7807 109.578 35.4791 108.931 36.5536L108.849 36.6899L108.937 36.822C111.883 41.2043 114.24 45.9166 116.01 50.9597C116.962 57.8124 118.099 64.6332 119.421 71.4223L119.904 71.4505C123.475 60.2654 127.548 49.2771 132.124 38.4863L132.181 38.3512L132.091 38.2353C131.047 36.8907 130.303 35.4039 129.86 33.7733Z" fill="#FBFBFB" stroke="#FF8B1F" stroke-width="0.5"/>
<path d="M104.657 32.9437L104.921 32.8766L104.831 32.6191C104.301 31.0996 103.314 29.916 101.878 29.0735L101.691 28.9635L101.556 29.1337C98.1035 33.4862 93.6097 36.1081 88.0624 37.0043L87.9164 37.0279L87.8668 37.1672C87.7617 37.4618 87.5949 37.7113 87.3657 37.919L86.9432 38.3017L87.5109 38.3532C88.671 38.4585 89.837 38.3611 91.0077 38.0621L91.0711 38.0459L91.1185 38.0007C92.3101 36.8632 93.7613 36.3171 95.4889 36.3636L95.5525 36.3653L95.6092 36.3364C98.4568 34.8829 101.473 33.7519 104.657 32.9437Z" fill="#FBFBFB" stroke="#FF8B1F" stroke-width="0.5"/>
<path d="M115.553 28.9184L116.216 28.4073L115.382 28.4712C113.606 28.6072 112.043 29.1923 110.698 30.2286L110.035 30.7398L110.87 30.6759C112.646 30.5399 114.209 29.9548 115.553 28.9184Z" fill="#FF8B1F" stroke="#FF8B1F" stroke-width="0.5"/>
<path d="M104.729 32.9124L104.534 32.4591C101.315 33.2763 98.2636 34.4202 95.3819 35.8911L95.5345 36.3607C98.8741 35.8353 101.94 34.686 104.729 32.9124Z" fill="#FF8B1F" stroke="#FF8B1F" stroke-width="0.5"/>
<path d="M95.6682 36.2947L96.1025 35.8802L95.5023 35.864C93.648 35.8141 92.0657 36.4054 90.7732 37.6392L90.3389 38.0538L90.9391 38.07C92.7933 38.1199 94.3756 37.5286 95.6682 36.2947Z" fill="#FF8B1F" stroke="#FF8B1F" stroke-width="0.5"/>
<path d="M110.987 30.6363L110.789 30.1843C108.953 30.651 107.113 30.9309 105.27 31.0243C103.665 29.2628 101.902 27.6865 99.9801 26.2954C98.8349 21.9089 98.0868 17.4029 97.7354 12.7773L97.7339 12.7586L97.7297 12.7404C96.8411 8.86748 95.1704 5.85662 92.7045 3.72914C90.2388 1.60183 86.9991 0.376067 83.005 0.0353286L82.978 0.0330294L82.9512 0.036548C74.6833 1.12126 68.7336 5.43944 65.1279 12.9727L65.0435 13.1489L65.1941 13.2733C65.4562 13.49 65.7506 13.6211 66.0531 13.5454C66.3478 13.4717 66.558 13.2239 66.7122 12.9125C69.1869 8.47795 72.2454 5.45895 75.8798 3.82811C79.5078 2.20017 83.7374 1.94302 88.5836 3.07995C90.4949 4.0692 92.2557 5.27256 93.8658 6.69024C96.1805 12.156 97.3977 17.8386 97.5176 23.7396C95.7777 24.6692 94.0067 24.736 92.1831 23.9415L91.8086 23.7783L91.8337 24.1861C91.8582 24.5837 91.9782 24.9316 92.2053 25.2154C92.4316 25.4982 92.75 25.6997 93.1419 25.8298L93.1929 25.8467L93.2463 25.8412C94.9187 25.6688 96.5654 25.755 98.1873 26.0998L99.2686 27.7217L100.303 29.273C97.3066 32.8571 93.4678 35.0459 88.7757 35.8429C88.182 35.0836 87.6513 34.2805 87.1836 33.4337L87.1234 33.3247L87.0001 33.3071C85.9784 33.1611 85.1661 33.2935 84.6553 33.8043C84.1445 34.3151 84.0121 35.1275 84.158 36.1492L84.2598 36.8618L84.6216 36.2395C84.9211 35.7243 85.236 35.405 85.5556 35.2452C85.8287 35.1087 86.1247 35.0787 86.4567 35.168C86.658 36.5584 86.5721 37.936 86.1991 39.3027C85.6962 39.3574 85.2704 39.1986 84.9013 38.8171C80.835 29.5392 74.941 21.654 67.2204 15.1641L67.2206 15.164L67.2118 15.1573C60.031 9.64089 52.0008 7.53725 43.1366 8.8523L43.0828 8.86027L43.0372 8.88984C36.447 13.1642 33.0862 19.2127 32.9707 27.0106L32.97 27.0592L32.9875 27.1045C34.0852 29.942 34.9123 32.8425 35.4691 35.806C34.5488 35.6736 33.8067 35.794 33.3064 36.2443C32.7413 36.7529 32.5693 37.6057 32.6878 38.7L32.6907 38.7269L32.6993 38.7525C33.7298 41.8272 34.8344 44.8715 36.0129 47.8854C33.1175 48.6624 30.714 50.2608 28.8079 52.674C25.4755 53.6646 22.227 54.8689 19.0624 56.2868C16.3225 53.3467 15.4338 49.886 16.3939 45.8747C18.8064 41.6201 21.6341 37.6635 24.877 34.0048L24.9251 33.9505L24.9367 33.8789C25.1028 32.8528 24.9687 31.9815 24.4945 31.2966C24.0217 30.6136 23.2387 30.1566 22.1902 29.8994L22.1694 29.8944L22.1481 29.8929C9.8934 29.0334 -1.71491 31.3169 -12.6722 36.7429L-12.5332 37.2153C-9.34735 36.8547 -6.29198 35.9013 -3.36826 34.3566C0.911226 33.1464 5.25113 32.2035 9.65162 31.5276C14.1924 31.0217 18.6886 31.2053 23.1408 32.0782C23.3684 32.3292 23.4899 32.5794 23.5255 32.829C23.5628 33.0899 23.5102 33.3764 23.3455 33.6953C20.057 37.367 17.2096 41.3554 14.8034 45.6601L14.7831 45.6964L14.7757 45.7373C14.3911 47.8522 14.3911 49.9678 14.7757 52.0827L14.7829 52.1227L14.8025 52.1583C17.6787 57.3991 19.6573 62.9507 20.7386 68.8131C20.3286 70.8376 19.6755 72.7914 18.7792 74.6747C14.1344 83.4777 8.1862 91.3158 0.933695 98.1905C-0.765114 99.2641 -2.61941 100.005 -4.63073 100.415C-10.1131 100.698 -15.5988 100.792 -21.0878 100.698L-21.1612 101.188C-18.5133 101.949 -15.6511 102.331 -12.5761 102.335C-4.15269 103.319 2.65848 100.439 7.82594 93.7076C11.3331 89.2381 14.6335 84.6208 17.7272 79.8548C19.7089 79.6034 21.5935 79.0312 23.3799 78.1384L23.2681 77.9148L23.3799 78.1384C26.5463 76.5553 29.692 74.9824 32.8169 73.4199C34.3878 72.6344 35.9535 71.8516 37.5139 71.0714C41.7885 72.1853 46.0829 73.2128 50.3967 74.1526C51.3838 76.1149 52.51 77.9859 53.7752 79.7658L53.8231 79.8331L53.9017 79.8587C54.9212 80.19 55.8681 80.2385 56.7323 79.9844C57.5097 79.7558 58.2011 79.2879 58.8078 78.5959C59.4537 79.414 60.0992 80.2317 60.7448 81.0493C61.4572 81.9517 62.1695 82.854 62.8823 83.7569L62.906 83.787L62.9377 83.8086C67.8225 87.1365 73.1906 88.4785 79.0302 87.8315L79.0534 87.8289L79.0758 87.8221C81.2794 87.1484 83.1982 86.0025 84.8279 84.386C85.4419 84.1609 86.0717 84.0705 86.7187 84.1148C86.7842 87.163 87.3406 90.1056 88.3878 92.9418C87.1045 94.5703 85.6624 96.0113 84.0618 97.2649C74.5038 95.0203 64.8667 93.2275 55.1506 91.8851L55.1506 91.885L55.144 91.8843C51.7134 91.5029 48.2825 91.5029 44.8518 91.8843L44.8146 91.8885L44.7802 91.9033C40.5229 93.7459 36.5257 96.03 32.789 98.7554L32.7863 98.7574L5.48775 119.231L5.05374 119.557L5.58316 119.675C6.4651 119.873 7.29856 119.659 8.0664 119.06L8.06743 119.059C19.7049 109.882 31.8132 101.367 44.3926 93.5138C48.5248 93.1415 52.6576 93.143 56.7899 93.5183C66.6485 95.2265 76.4817 97.1169 86.2883 99.1902C95.0734 105.989 103.777 112.895 112.399 119.91L112.525 120.012L112.669 119.939C112.723 119.912 112.777 119.885 112.831 119.858L112.953 119.797C113.048 119.75 113.143 119.702 113.238 119.655L113.584 119.481L113.284 119.237L86.1919 97.2254C87.1389 96.2128 88.1541 95.2848 89.2377 94.4408C99.6903 102.726 110.061 111.118 120.351 119.617C120.566 119.829 120.812 119.966 121.088 119.966C121.367 119.966 121.617 119.825 121.833 119.608L122.024 119.417L121.82 119.242C111.793 110.629 101.557 102.289 91.1126 94.2206C90.2729 93.3569 89.6351 92.3562 89.1991 91.2174C88.8771 88.8748 88.4177 86.5613 87.8201 84.2775C91.33 81.8576 94.0559 78.7352 95.9961 74.9132C99.0345 70.3551 101.786 65.611 104.25 60.6805L104.331 60.5194L104.203 60.392L103.919 60.1077L103.634 59.8233L103.401 59.5895L103.239 59.8782C99.642 66.3184 95.7595 72.5677 91.5929 78.6262C90.1379 80.7412 88.2224 82.0247 85.8384 82.4921C76.0756 79.7148 67.5258 74.8316 60.1863 67.8415C60.0198 66.5898 60.1107 65.3449 60.4593 64.1059C61.4555 63.0067 62.3784 61.8088 63.2278 60.513L63.9726 60.3889L64.7594 60.2577C69.3657 61.997 73.8841 64.0698 78.3146 66.4757L78.4229 66.5345L78.5354 66.4845C79.5824 66.0194 80.6774 65.8365 81.8246 65.9363L82.0569 65.9566L82.0932 65.7262C83.1916 58.7533 84.3207 51.7885 85.4807 44.8323C90.3138 43.1567 95.0136 41.2742 99.5806 39.1848L99.4137 38.7155C94.753 39.9276 90.1882 41.412 85.7197 43.1687C85.5096 42.2235 85.4344 41.2674 85.4946 40.2998C87.5193 39.8539 89.3811 39.098 91.0788 38.0317L90.8839 37.5777C89.9349 37.8201 88.9923 37.9231 88.0554 37.8875C88.1445 37.759 88.2204 37.6214 88.283 37.4749C93.8142 36.5497 98.3267 33.9288 101.81 29.6167C103.046 30.3923 103.893 31.4465 104.359 32.7838L104.426 32.9756L104.627 32.9494C106.957 32.6462 109.078 31.8754 110.987 30.6363Z" fill="#FF8B1F" stroke="#FF8B1F" stroke-width="0.5"/>
<path d="M34.6499 36.4325L34.5459 36.4294L34.4704 36.5011C33.9447 37.0001 33.5965 37.5607 33.441 38.1828C33.2855 38.8047 33.3271 39.4697 33.5513 40.1708L33.5572 40.1892L33.5659 40.2065L36.6938 46.4624L39.8218 52.7184L39.8296 52.7339L39.8394 52.7482C40.2958 53.4116 40.9199 53.8283 41.7012 53.9889L41.7368 53.9962L41.7731 53.9931C42.7429 53.9093 43.483 53.6183 43.9236 53.0676C44.3676 52.5126 44.4598 51.7547 44.2712 50.8494L44.2636 50.8132L44.2459 50.7807L37.4249 38.2755C37.1513 37.694 36.7826 37.2399 36.3133 36.9271C35.8419 36.6128 35.2839 36.4511 34.6499 36.4325Z" fill="#FBFBFB" stroke="#FF8B1F" stroke-width="0.5"/>
<path d="M91.9909 24.4029L92.737 24.6996L92.2912 24.0318C91.3423 22.6105 90.1177 21.4671 88.6191 20.603L88.3503 18.4524L88.0659 16.1776L88.053 16.0741L87.9703 16.0104C87.0316 15.2879 86.1921 14.7933 85.4546 14.5422C84.7158 14.2906 84.0539 14.2755 83.4996 14.5526C82.9464 14.8292 82.5531 15.3707 82.2941 16.1188C82.0836 16.7265 81.9553 17.4875 81.904 18.3961C80.7752 17.1216 79.4647 16.1268 77.973 15.4142L77.1719 15.0316L77.6556 15.776C79.1027 18.0032 81.0416 19.5557 83.4681 20.4249L83.8251 20.5528L83.802 20.1744C83.7114 18.6908 83.8007 17.2186 84.0692 15.7574C84.2399 15.5819 84.4373 15.4463 84.6634 15.3498C86.0685 16.2454 86.8709 17.2573 87.1288 18.3747C87.3932 19.5206 87.0982 20.8347 86.1827 22.3342L86.0802 22.502L86.2192 22.6412L86.5037 22.9256L86.7879 23.2099L86.9328 23.3549L87.1034 23.2412L88.64 22.2168C89.6305 23.1791 90.7477 23.9086 91.9909 24.4029Z" fill="#FF8B1F" stroke="#FF8B1F" stroke-width="0.5"/>
<path d="M77.9672 15.868L78.1854 15.7705L78.0978 15.5482C78.0136 15.3344 77.878 15.1601 77.6904 15.035C77.5053 14.9116 77.2826 14.8447 77.0349 14.8221L76.9491 14.8142L76.8767 14.8609C75.9517 15.4573 74.9775 15.9934 73.9548 16.4694C73.4159 15.8369 72.8503 15.4798 72.2692 15.596C71.96 15.6579 71.6891 15.8483 71.4528 16.1266C71.2171 16.4043 71.0042 16.7824 70.8098 17.2499L70.5785 17.8059L71.1355 17.5772C71.4282 17.4571 71.6598 17.4812 71.865 17.618C72.0879 17.7666 72.3113 18.0695 72.5147 18.5764L72.6298 18.8632L72.8862 18.6909C74.5199 17.5927 76.2136 16.6518 77.9672 15.868Z" fill="#FF8B1F" stroke="#FF8B1F" stroke-width="0.5"/>
<path d="M44.8695 9.13411L44.8096 9.1365L44.7572 9.16584C38.6647 12.5811 35.018 17.7644 33.8274 24.697L33.8186 24.7484L33.831 24.799C34.8092 28.7808 35.8524 32.7643 36.9609 36.7495L36.9687 36.7775L36.9827 36.803L40.1107 42.4902L43.2386 48.1774L43.2907 48.2721L43.3955 48.299C46.0255 48.9749 48.5455 49.9985 50.9558 51.3702C52.7628 54.3086 55.2581 56.4117 58.4365 57.6732L58.4574 57.6814L58.4793 57.6859C64.8294 58.9664 70.8705 61.2318 76.6045 64.4829L76.6251 64.4946L76.6476 64.5022C78.0774 64.9867 79.4738 64.8867 80.8218 64.2041L80.9012 64.1639L80.9374 64.0825C81.6724 62.4261 82.1528 60.6962 82.3787 58.8937L82.379 58.8937L82.38 58.881C82.7878 53.3481 83.4505 47.8582 84.3677 42.4112L84.3774 42.3536L84.3606 42.2977C81.4209 32.5241 76.0872 24.2377 68.3621 17.4426L68.3621 17.4426C61.6585 11.5477 53.8231 8.77691 44.8695 9.13411Z" fill="#FBFBFB" stroke="#FF8B1F" stroke-width="0.5"/>
<path d="M50.1886 26.8525L49.7624 27.0977C50.6951 29.7276 51.9367 32.2104 53.4864 34.5458L53.9386 34.3528C53.3126 31.562 52.0616 29.0609 50.1886 26.8525Z" fill="#FF8B1F" stroke="#FF8B1F" stroke-width="0.5"/>
<path d="M71.6535 22.7871L71.3371 22.7304L71.3599 23.051L71.6443 27.0321L71.9287 31.0131L71.9466 31.2646L72.198 31.2445C73.3024 31.1562 74.3919 31.2435 75.4675 31.5068C77.1126 33.0357 78.7042 34.6281 80.2413 36.2839L80.8971 36.9904L80.6673 36.0542C80.1943 34.1276 79.3243 32.3879 78.0589 30.8372L78.0216 30.7915L77.9678 30.7673C76.4001 30.0622 74.7459 29.6782 73.007 29.6149C73.0831 27.5914 72.9844 25.5757 72.7101 23.5681L72.702 23.5091L72.6683 23.4601C72.4158 23.0936 72.0754 22.8628 71.6535 22.7871Z" fill="#FF8B1F" stroke="#FF8B1F" stroke-width="0.5"/>
<path d="M71.426 23.2032L71.8334 22.9224C70.6958 20.6222 68.9499 18.8773 66.6036 17.6917L66.5078 17.6433L66.4068 17.6794C66.1738 17.7625 65.9615 17.8771 65.7707 18.0226C65.6014 17.5058 65.3357 17.0359 64.9745 16.6146L64.6458 16.2312L64.5402 16.7251C64.1079 18.7471 64.7122 20.5392 66.318 22.0764L66.5088 22.2591L66.6807 22.0585C67.0712 21.603 67.3501 21.0906 67.5162 20.5235C69.0216 21.122 70.3241 22.0149 71.426 23.2032Z" fill="#FF8B1F" stroke="#FF8B1F" stroke-width="0.5"/>
<path d="M138.393 40.6056L137.903 40.7063C137.946 40.9538 137.921 41.1314 137.857 41.2591C137.795 41.3833 137.681 41.4901 137.487 41.5695L137.306 41.6432L137.333 41.8364C137.909 45.8577 138.668 49.8463 139.613 53.8022L139.796 54.5686L140.088 53.8369L140.372 53.1261L140.657 52.4151L140.682 52.3517L140.672 52.2842C140.055 48.2855 139.295 44.3927 138.393 40.6056Z" fill="#FF8B1F" stroke="#FF8B1F" stroke-width="0.5"/>
<path d="M57.0133 39.933L56.587 40.1783C57.5198 42.8081 58.7614 45.291 60.311 47.6263L60.7633 47.4334C60.1372 44.6425 58.8863 42.1415 57.0133 39.933Z" fill="#FF8B1F" stroke="#FF8B1F" stroke-width="0.5"/>
<path d="M148.601 41.1031L148.528 40.9822H148.387C148.158 40.9822 147.941 41.0394 147.783 41.1976C147.625 41.3558 147.568 41.5728 147.568 41.8009V41.8569L147.592 41.9075C149.017 44.9315 149.484 48.1028 148.993 51.4279C144.586 75.0292 139.753 98.5316 134.493 121.936L134.474 122.022L134.514 122.102C134.606 122.288 134.699 122.473 134.792 122.658L134.798 122.671L134.801 122.677C134.895 122.865 134.989 123.052 135.082 123.24L135.392 123.859L135.549 123.185C141.105 99.4405 146.13 75.5506 150.623 51.5151L150.623 51.5151L150.624 51.5082C151.213 47.7886 150.538 44.3168 148.601 41.1031Z" fill="#FF8B1F" stroke="#FF8B1F" stroke-width="0.5"/>
<path d="M32.696 61.2061L32.7048 61.2368L32.721 61.2643C34.2914 63.928 35.8056 66.6725 37.264 69.4984L37.3077 69.5831L37.3967 69.6172C41.4913 71.1868 45.6852 72.1403 49.9785 72.4766L50.4448 72.5132L50.2161 72.1051C48.9054 69.7671 47.6754 67.4019 46.5267 65.0101L46.4937 64.9414L46.428 64.9028C43.2581 63.0402 40.6414 60.6152 38.5746 57.626C38.2171 55.7674 38.3132 53.93 38.8629 52.1101L38.8796 52.0547L38.8703 51.9975C38.6296 50.5247 37.9341 49.3309 36.7876 48.429L36.681 48.3451L36.5526 48.3888C33.6236 49.3849 31.3946 51.226 29.8753 53.905L29.8082 54.0233L29.8711 54.1439C31.0585 56.4209 32 58.7748 32.696 61.2061Z" fill="#FBFBFB" stroke="#FF8B1F" stroke-width="0.5"/>
<path d="M44.8506 49.5147L44.6088 49.5428L44.6305 49.7853C44.8203 51.9054 44.4518 53.1746 43.6668 53.753C42.8812 54.3319 41.5526 54.312 39.5702 53.5122L39.3236 53.4128L39.2395 53.665C38.843 54.8538 38.843 56.0467 39.2395 57.2355L39.2602 57.2977L39.3088 57.3417C40.3183 58.2557 41.0538 59.3582 41.5161 60.6528L41.5443 60.7318L41.6145 60.7778C43.7474 62.1756 45.7249 63.7763 47.5472 65.5805L47.601 65.6338L47.6753 65.6483C50.2535 66.1499 52.7639 65.9572 55.202 65.069L55.3154 65.0277L55.3536 64.9132C56.0755 62.7488 57.0163 60.6792 58.1756 58.7048L58.2973 58.4975L58.095 58.3678C54.9356 56.3412 52.1101 53.8925 49.6181 51.021L49.6076 51.0089L49.5956 50.9982C48.251 49.7995 46.6629 49.304 44.8506 49.5147Z" fill="#FBFBFB" stroke="#FF8B1F" stroke-width="0.5"/>
<path d="M33.1747 61.0621L33.1645 61.0298L33.1461 61.0015C31.8956 59.0713 30.7639 56.9972 29.7515 54.7777L29.7099 54.6866L29.6168 54.6493L28.195 54.0806L28.1014 54.0432L28.0081 54.0811C25.1454 55.2448 22.2188 56.1888 19.2282 56.9134L18.9731 56.9752L19.0472 57.227C20.135 60.9197 20.89 64.6923 21.3121 68.5459C21.353 72.0443 20.2369 75.1091 17.9602 77.7515L17.4534 78.3397L18.2082 78.1577C24.838 76.559 30.9349 73.7009 36.4974 69.5848L36.6687 69.458L36.5706 69.2688C35.1984 66.6204 34.0665 63.8851 33.1747 61.0621Z" fill="#FBFBFB" stroke="#FF8B1F" stroke-width="0.5"/>
<path d="M60.4016 64.1673L60.4586 64.1163L60.4773 64.0421C60.8076 62.7328 61.3632 61.5288 62.1448 60.4291L62.2444 60.2891L62.1493 60.146C61.7107 59.4856 61.1772 59.0353 60.5434 58.8241C59.9101 58.613 59.2071 58.6509 58.4479 58.9103L58.3752 58.9351L58.329 58.9966C56.8171 61.0062 56.1353 63.2453 56.2887 65.7027L56.2932 65.7749L56.3356 65.8335C57.0196 66.7807 57.9604 67.1982 59.1242 67.0732L59.3584 67.048L59.3472 66.8127C59.2947 65.7143 59.6482 64.8412 60.4016 64.1673Z" fill="#FBFBFB" stroke="#FF8B1F" stroke-width="0.5"/>
<path d="M53.4532 66.0096L52.9786 65.9269L53.1842 66.3626C54.8151 69.8181 56.6197 73.2369 58.5973 76.619C62.3087 82.9837 67.8803 86.4415 75.2879 86.9791L75.2901 86.9793C78.6217 87.1914 81.442 86.1229 83.7314 83.7764L83.9963 83.5049L83.6424 83.3686C75.3851 80.1863 67.8314 75.8441 60.9799 70.3422C59.0243 67.988 56.5121 66.5425 53.4532 66.0096Z" fill="#FBFBFB" stroke="#FF8B1F" stroke-width="0.5"/>
<path d="M48.1645 67.1781L47.9554 67.3018L48.0731 67.5144C50.0476 71.0807 52.0381 74.6829 54.0445 78.3198L54.0789 78.3822L54.1411 78.4171C54.9781 78.8864 55.7607 79.0463 56.4661 78.8294C57.1705 78.6127 57.7364 78.0389 58.1821 77.1763L58.2421 77.0603L58.1811 76.9448C56.4253 73.6218 54.5253 70.3923 52.4823 67.2568L52.4467 67.2022L52.389 67.1719C50.9146 66.3987 49.4945 66.3915 48.1645 67.1781Z" fill="#FBFBFB" stroke="#FF8B1F" stroke-width="0.5"/>
<path d="M130.436 29.3181L129.955 29.1967C129.385 30.6303 129.192 32.1881 129.37 33.8652L129.372 33.8851L129.378 33.9044C129.826 35.552 130.569 37.0595 131.607 38.4253C127.174 48.8878 123.214 59.5357 119.726 70.3683C118.483 63.8964 117.408 57.3957 116.501 50.8661L116.498 50.8413L116.49 50.8177C114.705 45.7262 112.326 40.9678 109.352 36.543L109.339 36.5228L109.322 36.5056L108.753 35.937L108.184 35.3682L108.077 35.2614L107.933 35.3063C104.944 36.2366 102.088 37.3789 99.3653 38.7335L99.5312 39.2013C102.109 38.6243 104.648 37.8745 107.147 36.9518C108.36 37.492 109.231 38.3796 109.768 39.6251L109.773 39.6359L109.779 39.6462C114.419 48.1073 117.063 57.1717 117.711 66.8413L117.712 66.8594L117.716 66.8771C118.274 69.4739 118.463 72.0833 118.284 74.7054C111.923 84.6187 109.362 95.4634 110.602 107.23L111.101 107.219C111.541 99.9433 112.581 92.7591 114.219 85.6649C115.663 81.8365 117.547 78.2584 119.871 74.9298L119.893 74.899L119.904 74.8633C123.469 63.7906 127.258 52.803 131.27 41.9003C131.824 40.7967 132.61 39.909 133.633 39.2338C134.686 39.5995 135.768 39.8691 136.878 40.0427C137.266 40.5459 137.417 41.1162 137.333 41.769L137.278 42.1943L137.675 42.0324C137.957 41.9175 138.177 41.7375 138.304 41.4826C138.43 41.2311 138.451 40.9372 138.396 40.6207L138.396 40.6207L138.393 40.6085C138.06 39.1303 137.873 37.6298 137.831 36.1068L137.824 35.8637H137.581C137.353 35.8637 137.136 35.9209 136.977 36.0791C136.819 36.2374 136.762 36.4544 136.762 36.6824V36.6869V36.6913V36.6958V36.7002V36.7046V36.7091V36.7135V36.718V36.7224V36.7269V36.7313V36.7357V36.7402V36.7446V36.7491V36.7535V36.758V36.7624V36.7668V36.7713V36.7757V36.7802V36.7846V36.7891V36.7935V36.7979V36.8024V36.8068V36.8113V36.8157V36.8202V36.8246V36.829V36.8335V36.8379V36.8424V36.8468V36.8513V36.8557V36.8601V36.8646V36.869V36.8735V36.8779V36.8824V36.8868V36.8913V36.8957V36.9001V36.9046V36.909V36.9135V36.9179V36.9224V36.9268V36.9312V36.9357V36.9401V36.9446V36.949V36.9535V36.9579V36.9623V36.9668V36.9712V36.9757V36.9801V36.9846V36.989V36.9934V36.9979V37.0023V37.0068V37.0112V37.0157V37.0201V37.0245V37.029V37.0334V37.0379V37.0423V37.0468V37.0512V37.0556V37.0601V37.0645V37.069V37.0734V37.0779V37.0823V37.0867V37.0912V37.0956V37.1001V37.1045V37.109V37.1134V37.1178V37.1223V37.1267V37.1312V37.1356V37.1401V37.1445V37.149V37.1534V37.1578V37.1623V37.1667V37.1712V37.1756V37.1801V37.1845V37.1889V37.1934V37.1978V37.2023V37.2067V37.2112V37.2156V37.22V37.2245V37.2289V37.2334V37.2378V37.2423V37.2467V37.2511V37.2556V37.26V37.2645V37.2689V37.2734V37.2778V37.2822V37.2867V37.2911V37.2956V37.3V37.3045V37.3089V37.3133V37.3178V37.3222V37.3267V37.3311V37.3356V37.34V37.3444V37.3489V37.3533V37.3578V37.3622V37.3667V37.3711V37.3756V37.38V37.3844V37.3889V37.3933V37.3978V37.4022V37.4067V37.4111V37.4155V37.42V37.4244V37.4289V37.4333V37.4378V37.4422V37.4466V37.4511V37.4555V37.46V37.4644V37.4689V37.4733V37.4777V37.4822V37.4866V37.4911V37.4955V37.5V37.5044V37.5088V37.5133V37.5177V37.5222V37.5266V37.5311V37.5355V37.5399V37.5444V37.5488V37.5533V37.5577V37.5622V37.5666V37.5711V37.5755V37.5799V37.5844V37.5888V37.5933V37.5977V37.6022V37.6066V37.611V37.6155V37.6199V37.6244V37.6288V37.6333V37.6377V37.6421V37.6466V37.651V37.6555V37.6599V37.6644V37.6688V37.6732V37.6777V37.6821V37.6866V37.691V37.6955V37.6999V37.7043V37.7088V37.7132V37.7177V37.7221V37.7266V37.731V37.7354V37.7399V37.7443V37.7488V37.7532V37.7577V37.7621V37.7666V37.771V37.7754V37.7799V37.7843V37.7888V37.7932V37.7977V37.8021V37.8065V37.811V37.8154V37.8199V37.8243V37.8288V37.8332V37.8376V37.8421V37.8465V37.851V37.8554V37.8599V37.8643V37.8687V37.8732V37.8776V37.8821V37.8865V37.891V37.8954V37.8998V37.9043V37.9087V37.9132V37.9176V37.9221V37.9265V37.9309V37.9354V37.9398V37.9443V37.9487V37.9532V37.9576V37.9621V37.9665V37.9709V37.9754V37.9798V37.9843V37.9887V37.9932V37.9976V38.002V38.0065V38.0109V38.0154V38.0198V38.0243V38.0287V38.0331V38.0376V38.042V38.0465V38.0509V38.0554V38.0598V38.0642V38.0687V38.0731V38.0776V38.082V38.0865V38.0909V38.0953V38.0998V38.1042V38.1087V38.1131V38.1176V38.122V38.1264V38.1309V38.1353V38.1398V38.1442V38.1487V38.1531V38.1575V38.162V38.1664V38.1709V38.1753V38.1798V38.1842V38.1887V38.1931V38.1975V38.202V38.2064V38.2109V38.2153V38.2198V38.2242V38.2286V38.2331V38.2375V38.242V38.2464V38.2509V38.2553V38.2597V38.2642V38.2686V38.2731V38.2775V38.282V38.2864V38.2908V38.2953V38.2997V38.3042V38.3086V38.3131V38.3175V38.3219V38.3264V38.3308V38.3353V38.3397V38.3442V38.3486V38.353V38.3575V38.3619V38.3664V38.3708V38.3753V38.3797V38.3842V38.3886V38.393V38.3975V38.4019V38.4064V38.4108V38.4153V38.4197V38.4241V38.4286V38.433V38.4375V38.4419V38.4464V38.4508V38.4552V38.4597V38.4641V38.4686V38.473V38.4775V38.4819V38.4863V38.4908V38.4952V38.4997V38.5041V38.5086V38.513V38.5174V38.5219V38.5263V38.5308V38.5352V38.5397V38.5441V38.5485V38.553V38.5574V38.5619V38.5663V38.5708V38.5752V38.5796V38.5841V38.5885V38.593V38.5974V38.6019V38.6063V38.6108V38.6152V38.6196V38.6241V38.6285V38.633V38.6374V38.6419V38.6463V38.6485C134.371 38.1133 132.671 37.0929 131.625 35.6104C130.534 34.0657 130.125 31.9791 130.436 29.3181Z" fill="#FF8B1F" stroke="#FF8B1F" stroke-width="0.5"/>
<path d="M48.2932 109.229L48.2769 109.229L48.2607 109.231C45.4056 109.589 42.5454 110.256 39.6803 111.233L39.6477 111.244L39.6193 111.263C37.6993 112.584 36.8042 114.429 36.9441 116.767C35.763 117.824 34.8812 118.646 34.3012 119.232C34.0047 119.532 33.7815 119.775 33.637 119.959C33.5657 120.049 33.5062 120.135 33.4672 120.212C33.4479 120.25 33.4284 120.295 33.4182 120.345C33.4084 120.393 33.4014 120.473 33.4423 120.555C33.4883 120.647 33.5689 120.692 33.6371 120.709C33.6983 120.724 33.7562 120.72 33.7975 120.714C33.8815 120.702 33.9768 120.669 34.0735 120.627C34.2724 120.543 34.5465 120.396 34.8906 120.192C35.5379 119.808 36.4625 119.206 37.6621 118.387C38.0556 119.276 38.4936 120.139 38.9755 120.978L39.1766 121.328L39.4003 120.992L39.6846 120.565L39.9691 120.139L40.0626 119.998L39.9673 119.859C38.7673 118.105 38.3041 116.211 38.5729 114.164C40.9247 112.373 43.5987 111.368 46.6015 111.15C65.8743 110.091 84.9024 111.701 103.687 115.978L103.791 116.002L103.881 115.943C104.019 115.851 104.164 115.754 104.309 115.657C104.453 115.561 104.597 115.465 104.734 115.374L105.188 115.071L104.662 114.925C97.559 112.95 90.3431 111.526 83.0133 110.652L83.0133 110.652L83.0028 110.651C71.4507 109.769 59.8811 109.295 48.2932 109.229ZM33.7217 120.22C33.7218 120.22 33.7224 120.22 33.7235 120.22L33.7217 120.22Z" fill="#FF8B1F" stroke="#FF8B1F" stroke-width="0.5"/>
</g>
<defs>
<clipPath id="clip0_62_3545">
<rect width="151.848" height="120" fill="white" transform="translate(0.80365)"/>
</clipPath>
</defs>
</svg>
