<svg width="169" height="129" viewBox="0 0 169 129" fill="none" xmlns="http://www.w3.org/2000/svg">
<path d="M77.8421 0.921393C67.2316 4.1451 58.7432 14.8236 58.6421 24.8977C58.6421 28.7258 58.2379 29.3303 53.5895 32.7555C26.6084 52.5007 23.6779 90.4799 47.4253 113.852C58.1368 124.329 69.4547 128.963 85.0168 128.963C99.3663 128.963 111.897 123.926 121.8 114.255C139.989 96.3229 143.223 67.914 129.278 47.0607C125.741 41.7214 118.061 33.8636 114.12 31.5466C111.897 30.237 111.291 28.9273 110.785 24.797C109.876 17.8458 105.834 9.78658 101.286 6.05917C95.2232 1.12287 84.8147 -1.19416 77.8421 0.921393ZM94.7179 5.15251C108.663 11.9021 112.503 29.5318 102.398 41.3184C97.5474 46.9599 92.1916 49.3777 84.3095 49.3777C60.0568 49.4784 52.1747 16.4355 73.901 5.65621C80.6716 2.33176 88.4526 2.13028 94.7179 5.15251ZM60.5621 36.7851L61.7747 40.311L56.3179 45.3481C34.3895 65.2947 39.5431 100.353 66.4232 113.55C87.341 123.825 111.998 115.161 122.507 93.9051C125.64 87.5584 125.842 86.6518 125.842 76.074C125.842 65.597 125.64 64.5895 122.608 58.3436C119.375 51.8962 113.918 45.2473 109.269 42.0236C106.743 40.4118 106.743 40.311 108.461 36.7851C109.371 34.871 110.583 33.2592 110.987 33.2592C112.604 33.2592 120.789 40.0088 123.922 44.0384C144.335 69.5258 136.149 107.001 107.046 121.307C86.7347 131.179 65.1095 127.553 48.941 111.434C27.9221 90.4799 28.7305 59.2503 50.861 38.4977C53.9937 35.677 57.1263 33.2592 57.8337 33.2592C58.6421 33.2592 59.8547 34.871 60.5621 36.7851ZM68.7474 46.8592C79.8632 54.314 91.4842 54.1125 101.286 46.3555C103.307 44.6429 105.429 43.3333 105.935 43.3333C109.775 43.3333 122.811 60.3584 120.688 62.474C120.183 62.9777 114.827 62.474 108.663 61.3658C93.9095 58.8473 75.821 58.8473 60.7642 61.4666C54.3979 62.5747 48.84 63.1792 48.4358 62.877C46.92 61.9703 51.5684 54.1125 56.9242 48.5718C59.7537 45.751 62.381 43.3333 62.7853 43.3333C63.1895 43.3333 65.8168 44.9451 68.7474 46.8592ZM111.493 64.3881C117.455 65.3955 122.507 66.4029 122.709 66.6044C122.912 66.8058 123.316 68.6192 123.72 70.634C124.326 74.2607 124.225 74.3614 119.072 77.3836C113.413 80.5066 101.792 91.991 98.5579 97.431C96.2337 101.36 94.8189 101.763 83.6021 101.763C73.5979 101.763 74.2042 102.065 65.7158 91.1851C60.7642 84.7377 53.5895 78.6933 48.6379 76.6784C45.9095 75.4696 45.5053 74.8651 45.5053 71.5407C45.5053 69.4251 46.1116 67.3095 46.8189 66.8058C47.4253 66.3021 53.6905 64.9925 60.6632 64.0858C67.6358 63.0784 74.0021 62.1718 74.8105 61.9703C78.1453 61.0636 101.286 62.6755 111.493 64.3881ZM52.0737 81.6147C61.7747 88.2636 72.7895 103.375 72.7895 110.024C72.7895 113.751 70.4653 113.751 64.6042 109.923C54.9032 103.677 47.1221 92.394 45.8084 82.5214C45.101 77.6858 46.1116 77.4844 52.0737 81.6147ZM123.518 79.197C124.427 80.1036 121.8 89.7747 119.375 94.6103C115.232 102.569 103.004 112.844 97.5474 112.844C92.8989 112.844 99.4674 98.6399 108.461 89.3718C111.897 85.7451 116.343 81.917 118.263 80.7081C122.002 78.4918 122.608 78.2903 123.518 79.197ZM94.1116 108.915C94.0105 111.333 93.6063 113.65 93.3032 114.053C93.101 114.557 89.0589 114.859 84.3095 114.859C76.0232 114.859 75.821 114.758 75.821 112.441C75.821 111.132 75.5179 108.714 75.2147 107.102L74.6084 104.08L84.5116 104.281L94.5158 104.382L94.1116 108.915Z" fill="#FF8B1F"/>
<path d="M88.8568 25.7035C84.2084 30.9421 80.1663 35.2739 79.8631 35.2739C79.56 35.2739 77.3368 33.8635 75.1137 32.2517C72.7894 30.5391 70.6673 29.6324 70.3642 30.1361C69.6568 31.2443 77.9431 38.2961 79.9642 38.2961C81.581 38.2961 99.0631 18.9539 99.0631 17.2413C99.0631 14.7228 96.84 16.6369 88.8568 25.7035Z" fill="#FF8B1F"/>
<path d="M58.6421 74.0593C58.6421 75.9734 59.1474 77.5852 59.6526 77.5852C60.2589 77.5852 60.6631 75.9734 60.6631 74.0593C60.6631 72.1452 60.2589 70.5334 59.6526 70.5334C59.1474 70.5334 58.6421 72.1452 58.6421 74.0593Z" fill="#FF8B1F"/>
<path d="M67.7368 74.16C67.7368 76.2755 68.141 77.4844 68.7473 77.0815C69.3537 76.7792 69.7579 75.1674 69.7579 73.4548C69.7579 71.8429 69.3537 70.5333 68.7473 70.5333C68.2421 70.5333 67.7368 72.1452 67.7368 74.16Z" fill="#FF8B1F"/>
<path d="M99.2652 73.6562C99.4673 75.5703 100.074 76.9807 100.579 76.7792C102.095 76.4769 101.792 71.2384 100.276 70.7347C99.2652 70.4325 98.9621 71.2384 99.2652 73.6562Z" fill="#FF8B1F"/>
<path d="M108.158 73.4546C108.158 75.1672 108.562 76.7791 109.168 77.0813C110.28 77.7865 111.695 73.1524 110.684 71.6413C109.472 69.5257 108.158 70.5332 108.158 73.4546Z" fill="#FF8B1F"/>
<path d="M15.7958 33.36C-2.49475 54.6163 -4.61686 86.8533 10.7431 111.434C13.1684 115.464 15.1895 118.889 15.1895 119.191C15.1895 119.493 13.5726 119.896 11.6526 120.098C5.58946 120.601 7.71156 122.415 14.4821 122.415H20.7474V116.068C20.7474 109.218 19.0295 107.505 18.221 113.55L17.7158 117.378L13.8758 111.535C3.5684 95.92 0.536825 77.8874 4.98314 60.157C7.30735 51.1911 9.73262 46.1541 15.8968 37.4903C21.2526 29.9348 21.2526 27.114 15.7958 33.36Z" fill="#FF8B1F"/>
<path d="M24.9916 29.834C23.6779 31.2443 25.4968 32.2517 29.3368 32.2517H33.1768L28.8316 38.9006C20.04 52.1984 15.9979 69.0221 18.12 83.6295C20.141 97.1288 23.6779 105.692 31.8632 116.773C35.1979 121.206 36.9158 122.818 37.6232 122.112C38.4316 121.307 37.6232 119.795 35.0968 116.874C26.9116 107.304 21.3537 93.3006 20.5453 79.9021C19.6358 65.194 22.7684 53.0043 30.6505 41.2177L34.7937 34.7703L35.4 38.5984C36.2084 44.6429 37.9263 42.9303 37.9263 35.9792V29.7332L31.8632 29.431C28.4274 29.2295 25.3958 29.431 24.9916 29.834Z" fill="#FF8B1F"/>
<path d="M149.286 29.9347C148.175 30.9421 148.478 43.3332 149.589 43.3332C150.196 43.3332 150.6 41.5199 150.6 39.3036C150.6 37.0873 151.004 35.274 151.509 35.274C152.722 35.274 158.078 43.7362 161.008 50.3851C164.848 59.2503 166.263 66.3021 166.162 77.0814C165.96 92.1925 161.109 105.188 150.903 117.579C146.154 123.321 148.478 124.027 153.429 118.385C162.827 107.807 168.789 91.0843 168.789 75.5703C168.789 61.4666 164.949 49.4784 156.764 37.2888L153.632 32.7554L157.674 32.4532C160.402 32.2517 161.716 31.6473 161.716 30.6399C161.716 29.6325 160.301 29.2295 155.855 29.2295C152.621 29.2295 149.589 29.5317 149.286 29.9347Z" fill="#FF8B1F"/>
<path d="M131.4 30.7408C131.4 31.043 133.219 33.5615 135.442 36.3822C140.394 42.6282 145.042 52.0978 147.164 60.4593C149.488 69.6267 148.781 87.8608 145.648 96.726C143.324 103.274 135.644 116.874 134.229 116.874C133.724 116.874 133.421 115.061 133.421 112.844C133.421 110.628 133.017 108.815 132.411 108.815C131.804 108.815 131.4 111.837 131.4 115.867V123.019L137.665 122.717C141.505 122.516 144.032 121.911 144.335 121.105C144.537 120.299 143.425 119.896 140.596 119.896C138.272 119.896 136.453 119.594 136.453 119.292C136.453 118.99 137.867 116.773 139.585 114.255C156.057 90.2785 155.35 58.1422 137.766 35.1734C134.634 31.043 131.4 28.8267 131.4 30.7408Z" fill="#FF8B1F"/>
</svg>
