<svg width="129" height="129" viewBox="0 0 129 129" fill="none" xmlns="http://www.w3.org/2000/svg">
<path d="M6.10526 3.05263C6.10526 4.73855 4.73855 6.10526 3.05263 6.10526C1.36671 6.10526 0 4.73855 0 3.05263C0 1.36671 1.36671 0 3.05263 0C4.73855 0 6.10526 1.36671 6.10526 3.05263Z" fill="#FFA551"/>
<path d="M36.6316 3.05263C36.6316 4.73855 35.2649 6.10526 33.5789 6.10526C31.893 6.10526 30.5263 4.73855 30.5263 3.05263C30.5263 1.36671 31.893 0 33.5789 0C35.2649 0 36.6316 1.36671 36.6316 3.05263Z" fill="#FFA551"/>
<path d="M67.1579 3.05263C67.1579 4.73855 65.7912 6.10526 64.1053 6.10526C62.4193 6.10526 61.0526 4.73855 61.0526 3.05263C61.0526 1.36671 62.4193 0 64.1053 0C65.7912 0 67.1579 1.36671 67.1579 3.05263Z" fill="#FFA551"/>
<path d="M97.6842 3.05263C97.6842 4.73855 96.3175 6.10526 94.6316 6.10526C92.9457 6.10526 91.5789 4.73855 91.5789 3.05263C91.5789 1.36671 92.9457 0 94.6316 0C96.3175 0 97.6842 1.36671 97.6842 3.05263Z" fill="#FFA551"/>
<path d="M128.211 3.05263C128.211 4.73855 126.844 6.10526 125.158 6.10526C123.472 6.10526 122.105 4.73855 122.105 3.05263C122.105 1.36671 123.472 0 125.158 0C126.844 0 128.211 1.36671 128.211 3.05263Z" fill="#FFA551"/>
<path d="M6.10526 33.5789C6.10526 35.2649 4.73855 36.6316 3.05263 36.6316C1.36671 36.6316 0 35.2649 0 33.5789C0 31.893 1.36671 30.5263 3.05263 30.5263C4.73855 30.5263 6.10526 31.893 6.10526 33.5789Z" fill="#FFA551"/>
<path d="M36.6316 33.5789C36.6316 35.2649 35.2649 36.6316 33.5789 36.6316C31.893 36.6316 30.5263 35.2649 30.5263 33.5789C30.5263 31.893 31.893 30.5263 33.5789 30.5263C35.2649 30.5263 36.6316 31.893 36.6316 33.5789Z" fill="#FFA551"/>
<path d="M67.1579 33.5789C67.1579 35.2649 65.7912 36.6316 64.1053 36.6316C62.4193 36.6316 61.0526 35.2649 61.0526 33.5789C61.0526 31.893 62.4193 30.5263 64.1053 30.5263C65.7912 30.5263 67.1579 31.893 67.1579 33.5789Z" fill="#FFA551"/>
<path d="M97.6842 33.5789C97.6842 35.2649 96.3175 36.6316 94.6316 36.6316C92.9457 36.6316 91.5789 35.2649 91.5789 33.5789C91.5789 31.893 92.9457 30.5263 94.6316 30.5263C96.3175 30.5263 97.6842 31.893 97.6842 33.5789Z" fill="#FFA551"/>
<path d="M128.211 33.5789C128.211 35.2649 126.844 36.6316 125.158 36.6316C123.472 36.6316 122.105 35.2649 122.105 33.5789C122.105 31.893 123.472 30.5263 125.158 30.5263C126.844 30.5263 128.211 31.893 128.211 33.5789Z" fill="#FFA551"/>
<path d="M6.10526 64.1053C6.10526 65.7912 4.73855 67.1579 3.05263 67.1579C1.36671 67.1579 0 65.7912 0 64.1053C0 62.4193 1.36671 61.0526 3.05263 61.0526C4.73855 61.0526 6.10526 62.4193 6.10526 64.1053Z" fill="#FFA551"/>
<path d="M36.6316 64.1053C36.6316 65.7912 35.2649 67.1579 33.5789 67.1579C31.893 67.1579 30.5263 65.7912 30.5263 64.1053C30.5263 62.4193 31.893 61.0526 33.5789 61.0526C35.2649 61.0526 36.6316 62.4193 36.6316 64.1053Z" fill="#FFA551"/>
<path d="M67.1579 64.1053C67.1579 65.7912 65.7912 67.1579 64.1053 67.1579C62.4193 67.1579 61.0526 65.7912 61.0526 64.1053C61.0526 62.4193 62.4193 61.0526 64.1053 61.0526C65.7912 61.0526 67.1579 62.4193 67.1579 64.1053Z" fill="#FFA551"/>
<path d="M97.6842 64.1053C97.6842 65.7912 96.3175 67.1579 94.6316 67.1579C92.9457 67.1579 91.5789 65.7912 91.5789 64.1053C91.5789 62.4193 92.9457 61.0526 94.6316 61.0526C96.3175 61.0526 97.6842 62.4193 97.6842 64.1053Z" fill="#FFA551"/>
<path d="M128.211 64.1053C128.211 65.7912 126.844 67.1579 125.158 67.1579C123.472 67.1579 122.105 65.7912 122.105 64.1053C122.105 62.4193 123.472 61.0526 125.158 61.0526C126.844 61.0526 128.211 62.4193 128.211 64.1053Z" fill="#FFA551"/>
<path d="M6.10526 94.6316C6.10526 96.3175 4.73855 97.6842 3.05263 97.6842C1.36671 97.6842 0 96.3175 0 94.6316C0 92.9457 1.36671 91.5789 3.05263 91.5789C4.73855 91.5789 6.10526 92.9457 6.10526 94.6316Z" fill="#FFA551"/>
<path d="M36.6316 94.6316C36.6316 96.3175 35.2649 97.6842 33.5789 97.6842C31.893 97.6842 30.5263 96.3175 30.5263 94.6316C30.5263 92.9457 31.893 91.5789 33.5789 91.5789C35.2649 91.5789 36.6316 92.9457 36.6316 94.6316Z" fill="#FFA551"/>
<path d="M67.1579 94.6316C67.1579 96.3175 65.7912 97.6842 64.1053 97.6842C62.4193 97.6842 61.0526 96.3175 61.0526 94.6316C61.0526 92.9457 62.4193 91.5789 64.1053 91.5789C65.7912 91.5789 67.1579 92.9457 67.1579 94.6316Z" fill="#FFA551"/>
<path d="M97.6842 94.6316C97.6842 96.3175 96.3175 97.6842 94.6316 97.6842C92.9457 97.6842 91.5789 96.3175 91.5789 94.6316C91.5789 92.9457 92.9457 91.5789 94.6316 91.5789C96.3175 91.5789 97.6842 92.9457 97.6842 94.6316Z" fill="#FFA551"/>
<path d="M128.211 94.6316C128.211 96.3175 126.844 97.6842 125.158 97.6842C123.472 97.6842 122.105 96.3175 122.105 94.6316C122.105 92.9457 123.472 91.5789 125.158 91.5789C126.844 91.5789 128.211 92.9457 128.211 94.6316Z" fill="#FFA551"/>
<path d="M6.10526 125.158C6.10526 126.844 4.73855 128.211 3.05263 128.211C1.36671 128.211 0 126.844 0 125.158C0 123.472 1.36671 122.105 3.05263 122.105C4.73855 122.105 6.10526 123.472 6.10526 125.158Z" fill="#FFA551"/>
<path d="M36.6316 125.158C36.6316 126.844 35.2649 128.211 33.5789 128.211C31.893 128.211 30.5263 126.844 30.5263 125.158C30.5263 123.472 31.893 122.105 33.5789 122.105C35.2649 122.105 36.6316 123.472 36.6316 125.158Z" fill="#FFA551"/>
<path d="M67.1579 125.158C67.1579 126.844 65.7912 128.211 64.1053 128.211C62.4193 128.211 61.0526 126.844 61.0526 125.158C61.0526 123.472 62.4193 122.105 64.1053 122.105C65.7912 122.105 67.1579 123.472 67.1579 125.158Z" fill="#FFA551"/>
<path d="M97.6842 125.158C97.6842 126.844 96.3175 128.211 94.6316 128.211C92.9457 128.211 91.5789 126.844 91.5789 125.158C91.5789 123.472 92.9457 122.105 94.6316 122.105C96.3175 122.105 97.6842 123.472 97.6842 125.158Z" fill="#FFA551"/>
<path d="M128.211 125.158C128.211 126.844 126.844 128.211 125.158 128.211C123.472 128.211 122.105 126.844 122.105 125.158C122.105 123.472 123.472 122.105 125.158 122.105C126.844 122.105 128.211 123.472 128.211 125.158Z" fill="#FFA551"/>
<path d="M6.10526 3.05263C6.10526 4.73855 4.73855 6.10526 3.05263 6.10526C1.36671 6.10526 0 4.73855 0 3.05263C0 1.36671 1.36671 0 3.05263 0C4.73855 0 6.10526 1.36671 6.10526 3.05263Z" fill="#FFA551"/>
<path d="M36.6316 3.05263C36.6316 4.73855 35.2649 6.10526 33.5789 6.10526C31.893 6.10526 30.5263 4.73855 30.5263 3.05263C30.5263 1.36671 31.893 0 33.5789 0C35.2649 0 36.6316 1.36671 36.6316 3.05263Z" fill="#FFA551"/>
<path d="M67.1579 3.05263C67.1579 4.73855 65.7912 6.10526 64.1053 6.10526C62.4193 6.10526 61.0526 4.73855 61.0526 3.05263C61.0526 1.36671 62.4193 0 64.1053 0C65.7912 0 67.1579 1.36671 67.1579 3.05263Z" fill="#FFA551"/>
<path d="M97.6842 3.05263C97.6842 4.73855 96.3175 6.10526 94.6316 6.10526C92.9457 6.10526 91.5789 4.73855 91.5789 3.05263C91.5789 1.36671 92.9457 0 94.6316 0C96.3175 0 97.6842 1.36671 97.6842 3.05263Z" fill="#FFA551"/>
<path d="M128.211 3.05263C128.211 4.73855 126.844 6.10526 125.158 6.10526C123.472 6.10526 122.105 4.73855 122.105 3.05263C122.105 1.36671 123.472 0 125.158 0C126.844 0 128.211 1.36671 128.211 3.05263Z" fill="#FFA551"/>
<path d="M6.10526 33.5789C6.10526 35.2649 4.73855 36.6316 3.05263 36.6316C1.36671 36.6316 0 35.2649 0 33.5789C0 31.893 1.36671 30.5263 3.05263 30.5263C4.73855 30.5263 6.10526 31.893 6.10526 33.5789Z" fill="#FFA551"/>
<path d="M36.6316 33.5789C36.6316 35.2649 35.2649 36.6316 33.5789 36.6316C31.893 36.6316 30.5263 35.2649 30.5263 33.5789C30.5263 31.893 31.893 30.5263 33.5789 30.5263C35.2649 30.5263 36.6316 31.893 36.6316 33.5789Z" fill="#FFA551"/>
<path d="M67.1579 33.5789C67.1579 35.2649 65.7912 36.6316 64.1053 36.6316C62.4193 36.6316 61.0526 35.2649 61.0526 33.5789C61.0526 31.893 62.4193 30.5263 64.1053 30.5263C65.7912 30.5263 67.1579 31.893 67.1579 33.5789Z" fill="#FFA551"/>
<path d="M97.6842 33.5789C97.6842 35.2649 96.3175 36.6316 94.6316 36.6316C92.9457 36.6316 91.5789 35.2649 91.5789 33.5789C91.5789 31.893 92.9457 30.5263 94.6316 30.5263C96.3175 30.5263 97.6842 31.893 97.6842 33.5789Z" fill="#FFA551"/>
<path d="M128.211 33.5789C128.211 35.2649 126.844 36.6316 125.158 36.6316C123.472 36.6316 122.105 35.2649 122.105 33.5789C122.105 31.893 123.472 30.5263 125.158 30.5263C126.844 30.5263 128.211 31.893 128.211 33.5789Z" fill="#FFA551"/>
<path d="M6.10526 64.1053C6.10526 65.7912 4.73855 67.1579 3.05263 67.1579C1.36671 67.1579 0 65.7912 0 64.1053C0 62.4193 1.36671 61.0526 3.05263 61.0526C4.73855 61.0526 6.10526 62.4193 6.10526 64.1053Z" fill="#FFA551"/>
<path d="M36.6316 64.1053C36.6316 65.7912 35.2649 67.1579 33.5789 67.1579C31.893 67.1579 30.5263 65.7912 30.5263 64.1053C30.5263 62.4193 31.893 61.0526 33.5789 61.0526C35.2649 61.0526 36.6316 62.4193 36.6316 64.1053Z" fill="#FFA551"/>
<path d="M67.1579 64.1053C67.1579 65.7912 65.7912 67.1579 64.1053 67.1579C62.4193 67.1579 61.0526 65.7912 61.0526 64.1053C61.0526 62.4193 62.4193 61.0526 64.1053 61.0526C65.7912 61.0526 67.1579 62.4193 67.1579 64.1053Z" fill="#FFA551"/>
<path d="M97.6842 64.1053C97.6842 65.7912 96.3175 67.1579 94.6316 67.1579C92.9457 67.1579 91.5789 65.7912 91.5789 64.1053C91.5789 62.4193 92.9457 61.0526 94.6316 61.0526C96.3175 61.0526 97.6842 62.4193 97.6842 64.1053Z" fill="#FFA551"/>
<path d="M128.211 64.1053C128.211 65.7912 126.844 67.1579 125.158 67.1579C123.472 67.1579 122.105 65.7912 122.105 64.1053C122.105 62.4193 123.472 61.0526 125.158 61.0526C126.844 61.0526 128.211 62.4193 128.211 64.1053Z" fill="#FFA551"/>
<path d="M6.10526 94.6316C6.10526 96.3175 4.73855 97.6842 3.05263 97.6842C1.36671 97.6842 0 96.3175 0 94.6316C0 92.9457 1.36671 91.5789 3.05263 91.5789C4.73855 91.5789 6.10526 92.9457 6.10526 94.6316Z" fill="#FFA551"/>
<path d="M36.6316 94.6316C36.6316 96.3175 35.2649 97.6842 33.5789 97.6842C31.893 97.6842 30.5263 96.3175 30.5263 94.6316C30.5263 92.9457 31.893 91.5789 33.5789 91.5789C35.2649 91.5789 36.6316 92.9457 36.6316 94.6316Z" fill="#FFA551"/>
<path d="M67.1579 94.6316C67.1579 96.3175 65.7912 97.6842 64.1053 97.6842C62.4193 97.6842 61.0526 96.3175 61.0526 94.6316C61.0526 92.9457 62.4193 91.5789 64.1053 91.5789C65.7912 91.5789 67.1579 92.9457 67.1579 94.6316Z" fill="#FFA551"/>
<path d="M97.6842 94.6316C97.6842 96.3175 96.3175 97.6842 94.6316 97.6842C92.9457 97.6842 91.5789 96.3175 91.5789 94.6316C91.5789 92.9457 92.9457 91.5789 94.6316 91.5789C96.3175 91.5789 97.6842 92.9457 97.6842 94.6316Z" fill="#FFA551"/>
<path d="M128.211 94.6316C128.211 96.3175 126.844 97.6842 125.158 97.6842C123.472 97.6842 122.105 96.3175 122.105 94.6316C122.105 92.9457 123.472 91.5789 125.158 91.5789C126.844 91.5789 128.211 92.9457 128.211 94.6316Z" fill="#FFA551"/>
<path d="M6.10526 125.158C6.10526 126.844 4.73855 128.211 3.05263 128.211C1.36671 128.211 0 126.844 0 125.158C0 123.472 1.36671 122.105 3.05263 122.105C4.73855 122.105 6.10526 123.472 6.10526 125.158Z" fill="#FFA551"/>
<path d="M36.6316 125.158C36.6316 126.844 35.2649 128.211 33.5789 128.211C31.893 128.211 30.5263 126.844 30.5263 125.158C30.5263 123.472 31.893 122.105 33.5789 122.105C35.2649 122.105 36.6316 123.472 36.6316 125.158Z" fill="#FFA551"/>
<path d="M67.1579 125.158C67.1579 126.844 65.7912 128.211 64.1053 128.211C62.4193 128.211 61.0526 126.844 61.0526 125.158C61.0526 123.472 62.4193 122.105 64.1053 122.105C65.7912 122.105 67.1579 123.472 67.1579 125.158Z" fill="#FFA551"/>
<path d="M97.6842 125.158C97.6842 126.844 96.3175 128.211 94.6316 128.211C92.9457 128.211 91.5789 126.844 91.5789 125.158C91.5789 123.472 92.9457 122.105 94.6316 122.105C96.3175 122.105 97.6842 123.472 97.6842 125.158Z" fill="#FFA551"/>
<path d="M128.211 125.158C128.211 126.844 126.844 128.211 125.158 128.211C123.472 128.211 122.105 126.844 122.105 125.158C122.105 123.472 123.472 122.105 125.158 122.105C126.844 122.105 128.211 123.472 128.211 125.158Z" fill="#FFA551"/>
</svg>
