<svg width="28" height="28" viewBox="0 0 28 28" fill="none" xmlns="http://www.w3.org/2000/svg">
<path d="M8.33114 0.400002C3.95761 0.400002 0.400024 3.96088 0.400024 8.33555V19.6689C0.400024 24.0424 3.9609 27.6 8.33557 27.6H19.6689C24.0424 27.6 27.6 24.0391 27.6 19.6645V8.33112C27.6 3.95759 24.0391 0.400002 19.6645 0.400002H8.33114ZM21.9334 4.93333C22.559 4.93333 23.0667 5.44107 23.0667 6.06667C23.0667 6.69227 22.559 7.2 21.9334 7.2C21.3078 7.2 20.8 6.69227 20.8 6.06667C20.8 5.44107 21.3078 4.93333 21.9334 4.93333ZM14 7.2C17.7502 7.2 20.8 10.2498 20.8 14C20.8 17.7502 17.7502 20.8 14 20.8C10.2498 20.8 7.20002 17.7502 7.20002 14C7.20002 10.2498 10.2498 7.2 14 7.2ZM14 9.46667C12.7977 9.46667 11.6446 9.94429 10.7945 10.7945C9.94431 11.6446 9.46669 12.7977 9.46669 14C9.46669 15.2023 9.94431 16.3554 10.7945 17.2056C11.6446 18.0557 12.7977 18.5333 14 18.5333C15.2023 18.5333 16.3554 18.0557 17.2056 17.2056C18.0557 16.3554 18.5334 15.2023 18.5334 14C18.5334 12.7977 18.0557 11.6446 17.2056 10.7945C16.3554 9.94429 15.2023 9.46667 14 9.46667Z" fill="url(#paint0_linear_23_410)"/>
<defs>
<linearGradient id="paint0_linear_23_410" x1="0.400024" y1="14" x2="27.6" y2="14" gradientUnits="userSpaceOnUse">
<stop stop-color="#FF8B1F"/>
<stop offset="1" stop-color="#FFA24C"/>
</linearGradient>
</defs>
</svg>
