<svg width="130" height="86" viewBox="0 0 130 86" fill="none" xmlns="http://www.w3.org/2000/svg">
<g clip-path="url(#clip0_62_3628)">
<path fill-rule="evenodd" clip-rule="evenodd" d="M125.385 15.7187L126.505 18.6635L127.417 22.721V26.6301L126.957 28.8776L126.289 30.9175L125.155 32.9425L123.508 35.1307L121.906 36.9184L119.087 39.5145L116.928 41.1984L113.331 43.9132L98.9034 52.9702L91.011 58.1626L81.2791 64.9052L72.0144 70.7726L63.9885 74.9339L55.117 78.7021L46.3196 81.6395L37.3517 83.9612L31.4101 84.792H26.7444L24.2521 84.3469L20.877 83.212L17.0569 80.9348L14.802 79.1323L14.6314 78.843L15.0097 78.9172L16.6119 79.8889L16.3448 79.1545L16.3745 78.435L17.0569 79.8073L18.8298 80.5194L22.3902 80.512L30.2901 78.4795L39.3099 75.0822L47.7364 71.3215L57.1197 66.4852L65.9245 61.2928L73.8243 56.1004L82.184 50.2405L85.0102 47.6517L85.8855 46.2646L86.1376 45.063L85.6703 44.3731L83.8753 43.7204H81.8057L80.8414 43.2456L84.2981 38.5873L87.6138 33.3208L88.9934 31.0955L96.0402 26.4001L103.191 22.491L108.828 19.7613L109.592 20.0135L109.6 20.7627L107.931 23.841L104.971 28.3361L102.59 32.2749L102.13 33.6175L102.108 34.7079L102.293 34.9824L104.103 34.9156L107.13 33.2021L112.426 29.4636L119.636 23.8188L122.247 21.6825L123.96 19.791L124.939 17.8327L124.917 14.8137L125.385 15.7187ZM13.7338 78.168L13.1627 77.9974L13.133 77.7674L13.4075 77.7526L13.7338 78.168ZM14.6314 78.843L14.1047 78.7021L13.7338 78.168L14.1121 78.2348L14.6314 78.843Z" fill="#FBFBFB"/>
<path d="M1.86554 61.4039L1.85071 60.9737L1.9323 60.41L2.12516 59.824L2.42187 59.2454L3.16363 58.1847L3.88315 57.302L5.40377 55.6033L6.47933 54.4758L7.71808 53.2371L8.97166 52.0206L11.7755 49.417L14.6907 46.806L22.1899 40.1894L25.157 37.519L26.1658 39.7073L27.5974 41.9251L29.4593 44.1208L31.7216 46.2571L22.5905 53.1629L19.2748 55.7591L16.1075 58.3775L13.2146 60.944L10.6926 63.4067L8.80106 65.4911L7.9777 66.5073L7.21368 67.6496L6.95406 68.2208L6.78346 68.7697L6.70928 69.3037L6.72411 69.734" stroke="#FF8B1F" stroke-linecap="round" stroke-linejoin="round"/>
<path d="M18.7185 73.5243L18.533 73.3686L18.177 73.0051L15.514 71.299L12.992 69.4298L10.7519 67.4863L8.80104 65.491L7.13949 63.4511L5.7598 61.3816L4.66199 59.2898L3.88313 57.3019L3.82379 57.2129" stroke="#FF8B1F" stroke-linecap="round" stroke-linejoin="round"/>
<path d="M25.743 36.9776L26.0175 36.718L25.157 37.5191L25.0235 37.5043L14.6536 46.6874L11.872 49.1723L9.06813 51.7685L7.4585 53.3558" stroke="#FF8B1F" stroke-linecap="round" stroke-linejoin="round"/>
<path d="M15.8033 77.3445L15.8108 76.9365L15.922 76.3357L16.152 75.6978L16.4932 75.0747L17.3536 73.9101L18.177 73.0052L19.4973 71.6997L21.1366 70.2235L22.7018 68.918L24.5339 67.4864L26.1732 66.2774L28.0128 64.9644L29.6818 63.8221L33.0865 61.582L36.5951 59.4012L45.1995 54.2607L45.5259 54.7874" stroke="#FF8B1F" stroke-linecap="round" stroke-linejoin="round"/>
<path d="M16.33 77.4484L16.3669 77.4263" stroke="#FF8B1F" stroke-linecap="round" stroke-linejoin="round"/>
<path d="M25.0235 37.5043L26.5293 36.1024L28.7323 33.9735L30.8909 31.8298" stroke="#FF8B1F" stroke-linecap="round" stroke-linejoin="round"/>
<path d="M26.0175 36.7181L26.5441 36.2285" stroke="#FF8B1F" stroke-linecap="round" stroke-linejoin="round"/>
<path d="M26.5441 36.2284L28.8806 33.966L36.2835 26.5038L37.9599 24.8348L40.7118 22.1867L43.0558 20.043L44.3465 18.9155L45.7336 17.7435L47.855 16.0449L49.9987 14.4427L52.1721 12.9443L54.3084 11.5869L57.2606 9.90307L58.581 9.22806L59.9161 8.57531L61.6667 7.79645L63.4692 7.06952L65.1753 6.44644L67.3635 5.73434L68.2017 5.50439L67.2077 5.76401" stroke="#FF8B1F" stroke-linecap="round" stroke-linejoin="round"/>
<path d="M89.9354 8.25635L85.8557 9.36158L81.5609 10.8006L79.3282 11.6685L77.051 12.6328L74.7144 13.7157L72.3407 14.91L69.9226 16.2303L67.4748 17.6619L64.9898 19.2197L62.4827 20.8886L59.9681 22.6763L57.4312 24.5678L52.3279 28.6401L47.1949 33.0313L41.9802 37.6155L36.6024 42.2886L33.806 44.6029L31.7216 46.257L34.4291 48.3562L37.5964 50.4184L41.2014 52.3989L45.1995 54.2607L47.321 52.9552L48.7229 52.0502L50.2955 51.0044L52.6468 49.3947L56.4373 46.6724L66.3769 39.3141L69.3292 37.163L72.6226 34.8264L75.2633 33.0017L77.8743 31.2585L80.4557 29.5821L82.9183 28.0467L85.7222 26.3629L89.1269 24.4194L90.9146 23.4477L94.4083 21.6304L96.4927 20.5993L98.3026 19.7389L101.878 18.1218L105.142 16.7347L107.931 15.6073L107.449 15.8001" stroke="#FF8B1F" stroke-linecap="round" stroke-linejoin="round"/>
<path d="M68.8619 5.31906L68.2017 5.5045L69.9004 5.03718L72.1924 4.51053L74.2916 4.10998L76.2128 3.79102L74.9666 3.98388" stroke="#FF8B1F" stroke-linecap="round" stroke-linejoin="round"/>
<path d="M79.2541 3.383L79.4172 3.36816L75.5749 3.87998" stroke="#FF8B1F" stroke-linecap="round" stroke-linejoin="round"/>
<path d="M79.4172 3.3681L79.5804 3.35327L78.7793 3.4497" stroke="#FF8B1F" stroke-linecap="round" stroke-linejoin="round"/>
<path d="M79.5804 3.35323L80.2183 3.27905L79.5582 3.34581" stroke="#FF8B1F" stroke-linecap="round" stroke-linejoin="round"/>
<path fill-rule="evenodd" clip-rule="evenodd" d="M80.4483 3.25694L80.2183 3.2792L81.012 3.19019L80.4483 3.25694Z" stroke="#FF8B1F" stroke-linecap="round" stroke-linejoin="round"/>
<path d="M81.012 3.19023L86.9313 2.60424L88.8673 2.38171L90.5066 2.15918L91.7973 2.34462L93.5405 2.66358L95.4023 3.06414" stroke="#FF8B1F" stroke-linecap="round" stroke-linejoin="round"/>
<path d="M81.8206 3.10846L81.8722 3.10107" stroke="#FF8B1F" stroke-linecap="round" stroke-linejoin="round"/>
<path d="M90.4028 2.15167L90.5067 2.15909L94.0226 1.65469L96.923 1.22446L96.8117 1.21704" stroke="#FF8B1F" stroke-linecap="round" stroke-linejoin="round"/>
<path d="M91.0926 7.99675L93.8 7.40334L97.4569 6.74317L103.666 5.77145L102.041 5.10387L100.387 4.49562L98.7031 3.94671L96.7078 3.39038" stroke="#FF8B1F" stroke-linecap="round" stroke-linejoin="round"/>
<path d="M91.4338 2.02551L91.4708 2.01074" stroke="#FF8B1F" stroke-linecap="round" stroke-linejoin="round"/>
<path d="M97.7834 1.10571L96.9229 1.22439L97.5237 1.31341" stroke="#FF8B1F" stroke-linecap="round" stroke-linejoin="round"/>
<path d="M98.9406 1.55078L100.135 1.77331L103.376 2.52991L106.507 3.48679L107.931 3.99861L109.392 4.5846L112.203 5.87528L114.94 7.40332L117.514 9.13905L119.903 11.0825L120.022 11.2605L120.066 11.4014" stroke="#FF8B1F" stroke-linecap="round" stroke-linejoin="round"/>
<path d="M115.044 13.3004L114.963 13.1002L114.807 12.9296L113.843 12.0839L112.53 11.0084L111.165 9.99217L109.755 9.02788L108.302 8.12292L106.796 7.28472L105.253 6.49103L103.666 5.77152L106.566 5.25228L109.392 4.58469L109.058 4.45117" stroke="#FF8B1F" stroke-linecap="round" stroke-linejoin="round"/>
<path d="M107.456 3.85027L106.655 3.54614" stroke="#FF8B1F" stroke-linecap="round" stroke-linejoin="round"/>
<path d="M107.931 15.6074L108.702 15.2959L108.583 15.3478" stroke="#FF8B1F" stroke-linecap="round" stroke-linejoin="round"/>
<path d="M108.702 15.2956L114.124 13.1741L117.262 11.8835L118.671 11.3717L120.073 10.8969L120.467 10.7857L120.741 10.7412L121.06 10.7263L121.394 10.8079" stroke="#FF8B1F" stroke-linecap="round" stroke-linejoin="round"/>
<path d="M108.257 4.15454L108.91 4.39932" stroke="#FF8B1F" stroke-linecap="round" stroke-linejoin="round"/>
<path d="M109.392 4.58453L110.282 4.36942L110.72 4.34717L111.091 4.45101" stroke="#FF8B1F" stroke-linecap="round" stroke-linejoin="round"/>
<path d="M121.765 11.1424L121.468 10.8748" stroke="#FF8B1F" stroke-linecap="round" stroke-linejoin="round"/>
<path d="M16.3671 77.4411L16.33 77.4485L15.8033 77.3447L13.1033 75.5199L10.6926 73.6358L8.5637 71.6998L6.72412 69.7342L5.13674 67.724L3.80156 65.6544L2.70374 63.5478L1.86554 61.4041L1.83588 60.922L1.91747 60.3508L2.10291 59.7648L2.40703 59.1121L3.11913 58.0736L3.82381 57.2131L4.92904 55.9521L6.28648 54.5131L7.45847 53.356" stroke="#FF8B1F" stroke-linecap="round" stroke-linejoin="round"/>
<path d="M81.8724 3.10128L82.6216 3.0271L79.5655 3.33864L75.5155 3.88755L71.369 4.6664L67.1484 5.76422L64.9602 6.47631L62.8165 7.27L60.6653 8.17496L58.5068 9.19118L56.3408 10.3261L54.1823 11.5797L52.0312 12.9445L49.8801 14.4281L47.7438 16.0228L45.6149 17.7289L41.372 21.4526L37.1958 25.4581L30.8983 31.8151" stroke="#FF8B1F" stroke-linecap="round" stroke-linejoin="round"/>
<path d="M72.8155 4.39185L72.2072 4.51053L72.4668 4.4586" stroke="#FF8B1F" stroke-linecap="round" stroke-linejoin="round"/>
<path fill-rule="evenodd" clip-rule="evenodd" d="M82.948 2.99006L82.6216 3.02715L83.4228 2.94556L82.948 2.99006Z" stroke="#FF8B1F" stroke-linecap="round" stroke-linejoin="round"/>
<path d="M83.5043 2.93065L83.4227 2.94548L87.3096 2.55235L91.4709 2.01085L96.8116 1.21716L97.7907 1.09106" stroke="#FF8B1F" stroke-linecap="round" stroke-linejoin="round"/>
<path d="M121.809 11.2013L121.446 10.8453L120.4 9.95517L119.198 9.03537L117.952 8.15268L116.654 7.31448L115.326 6.52079L113.954 5.77902L112.545 5.0966L111.091 4.45126L109.718 3.90977L108.19 3.3757L106.655 2.89355L104.667 2.33722L103.057 1.95151L101.433 1.6103L99.3114 1.24683" stroke="#FF8B1F" stroke-linecap="round" stroke-linejoin="round"/>
<path d="M16.7527 79.2287L18.1102 79.837L19.527 80.3636L21.0031 80.7716L22.5385 81.0238L24.1185 81.1276L25.743 81.0831L27.3897 80.9125L29.0512 80.6307L28.9029 79.2584L28.851 78.5018L28.8287 77.7155L28.8658 76.8996L28.9474 76.0614L29.2293 74.474L26.4328 74.8968L25.0457 74.9339L23.6883 74.8523L22.3828 74.6372L21.1366 74.296L19.9572 73.8732L18.8445 73.3984" stroke="#FF8B1F" stroke-linecap="round" stroke-linejoin="round"/>
<path d="M32.5227 84.7252L31.7438 84.614L31.1059 84.3172L29.1254 84.4508L26.7518 84.4285L24.66 84.1986L22.7759 83.7609L20.9882 83.1452L19.3786 82.448" stroke="#FF8B1F" stroke-linecap="round" stroke-linejoin="round"/>
<path d="M19.8978 82.7742L19.8756 82.7668" stroke="#FF8B1F" stroke-linecap="round" stroke-linejoin="round"/>
<path d="M29.0513 80.6305L31.5436 80.0519L34.0285 79.3398L36.4912 78.5164L38.939 77.6115L43.7457 75.631L48.4485 73.4873L53.0103 71.2323L57.4387 68.9031L61.7038 66.5369L65.7539 64.2078L66.0951 65.8397L66.3399 67.338L66.4956 68.6658L66.5401 69.2666L66.5624 70.3793L66.5105 71.3658L66.4511 71.8183L66.2805 72.6565L66.0654 73.3241L65.828 73.8804L65.6649 74.0955L65.4646 74.2364" stroke="#FF8B1F" stroke-linecap="round" stroke-linejoin="round"/>
<path d="M29.2292 74.474L31.3878 73.9103L33.895 73.0498L36.3576 72.0262L41.2904 69.6155L46.1341 66.9451L50.7998 64.2228L59.1818 59.2382L55.3839 58.0143L52.5578 57.0648L49.0418 55.7964L45.9116 54.5576" stroke="#FF8B1F" stroke-linecap="round" stroke-linejoin="round"/>
<path d="M31.106 84.3172L31.8255 84.243L34.8593 83.8128L38.1898 83.1674L41.7577 82.3218L45.474 81.2982L49.2421 80.1336L52.9807 78.8578L56.6005 77.5077L60.0571 76.091L63.3357 74.6371L66.0654 73.3242L70.0784 71.2324L74.2248 68.8439L78.1562 66.359L81.9021 63.837L88.9415 58.8672L92.2349 56.5677L95.1649 54.5872L95.0166 54.9729L94.8385 55.3215L94.616 55.6331L94.349 55.8852" stroke="#FF8B1F" stroke-linecap="round" stroke-linejoin="round"/>
<path d="M33.895 84.4877L34.4439 84.3987" stroke="#FF8B1F" stroke-linecap="round" stroke-linejoin="round"/>
<path d="M47.3729 53.6897L48.0182 53.304L46.5718 54.1644" stroke="#FF8B1F" stroke-linecap="round" stroke-linejoin="round"/>
<path d="M48.0182 53.3039L50.5773 51.813L49.8356 52.2358" stroke="#FF8B1F" stroke-linecap="round" stroke-linejoin="round"/>
<path fill-rule="evenodd" clip-rule="evenodd" d="M51.2449 51.4272L50.5773 51.8129L53.9449 49.9585L52.7655 50.5667L51.2449 51.4272Z" stroke="#FF8B1F" stroke-linecap="round" stroke-linejoin="round"/>
<path d="M53.9449 49.9586L54.5829 49.6174L54.1972 49.8251" stroke="#FF8B1F" stroke-linecap="round" stroke-linejoin="round"/>
<path d="M55.384 58.014L57.9208 56.7456L60.7173 55.7813L63.5582 55.0915L66.2731 54.6019L65.7094 52.4953L65.4497 51.4123L65.205 50.3145L64.3148 45.9306L63.128 44.8031L61.7409 43.5496" stroke="#FF8B1F" stroke-linecap="round" stroke-linejoin="round"/>
<path fill-rule="evenodd" clip-rule="evenodd" d="M54.8573 49.4763L54.5828 49.6173L55.1243 49.3577L54.8573 49.4763Z" stroke="#FF8B1F" stroke-linecap="round" stroke-linejoin="round"/>
<path d="M56.9862 48.475L57.4683 48.2673L57.2087 48.3712L55.1243 49.3577" stroke="#FF8B1F" stroke-linecap="round" stroke-linejoin="round"/>
<path d="M57.4683 48.2672L59.8049 47.3252L59.5601 47.4142" stroke="#FF8B1F" stroke-linecap="round" stroke-linejoin="round"/>
<path d="M66.2731 54.6021L67.4674 54.4018L59.1818 59.2381L60.3538 59.609L61.6742 60.0763L62.8907 60.6104L63.9217 61.2261L64.7154 61.9233L65.2495 62.6873L65.5684 63.4959L65.7539 64.2079L69.9523 61.7156L71.9773 60.462L73.9356 59.2233L77.6666 56.7532L81.1529 54.3202M81.1529 54.3202L80.7746 52.7699L80.4705 51.9243L80.2331 51.3976L82.4733 50.4927L84.617 49.5284L86.6791 48.5047L88.6819 47.444L91.9679 45.597L95.202 43.5794L97.5312 41.9995L99.8158 40.2786L101.744 38.7283L103.621 37.0964L105.446 35.3903L107.204 33.6323L108.086 32.6829L108.932 31.7186L109.748 30.7469L110.527 29.7751L110.779 30.2721L111.091 31.0732L111.462 32.6013V32.668L109.681 33.8474L102.167 39.0472L95.2984 44.0764L92.1163 46.3536L81.1529 54.3202Z" stroke="#FF8B1F" stroke-linecap="round" stroke-linejoin="round"/>
<path d="M59.8049 47.3251L62.0598 46.5537L61.8818 46.6131" stroke="#FF8B1F" stroke-linecap="round" stroke-linejoin="round"/>
<path d="M62.0599 46.5538L64.3149 45.9307L65.294 45.7082L66.6959 45.4412L67.8827 45.2706L68.9138 45.1445M68.9138 45.1445L68.4316 47.5181L68.0237 49.8695L67.7196 52.1616L67.4674 54.4017L70.9537 53.8528L74.2768 53.2L75.8567 52.8143L77.3699 52.3767L78.8312 51.9019L80.2332 51.3976L80.0255 50.5L79.2169 47.57L78.9944 46.5686L78.8238 45.5895L78.6161 43.7574L76.4205 44.1431L74.0468 44.4991L71.8289 44.7958L68.9138 45.1445ZM68.9138 45.1445L74.7589 40.7754L77.6889 38.6392L80.5669 36.6067L83.3931 34.6781L86.145 32.8682L88.8228 31.177L91.4116 29.6119L93.9113 28.1654L96.3072 26.8302L98.5919 25.6063L100.78 24.4863L102.857 23.4626L104.823 22.528L108.405 20.8813L109.303 19.3458L109.125 19.0046L108.836 18.5225L108.472 18.0329L108.042 17.5285L107.545 17.0167L107.026 16.5271" stroke="#FF8B1F" stroke-linecap="round" stroke-linejoin="round"/>
<path d="M78.6161 43.7574L80.9007 43.2827L83.1038 42.7338L85.2252 42.0736L87.2725 41.3096L87.5989 42.7857L88.3926 45.9827L88.9489 48.6456" stroke="#FF8B1F" stroke-linecap="round" stroke-linejoin="round"/>
<path d="M87.2725 41.3096L89.0304 40.5159L91.4338 39.203L93.6962 37.7417L94.2154 37.3708L96.0253 35.954L97.7239 34.4482L99.3929 38.8914L99.8157 40.2785" stroke="#FF8B1F" stroke-linecap="round" stroke-linejoin="round"/>
<path d="M120.133 38.6317L120.467 38.3053L120.734 37.9419L121.164 37.1111L118.597 39.2845L115.756 41.4208L112.671 43.5348L109.392 45.634L102.412 49.9362L98.8069 52.2135L95.1649 54.5871L95.4245 53.8157L95.6767 52.7698L95.8473 51.6349L95.9289 50.3887L95.914 49.0239L95.8028 47.4958L95.5877 45.812L95.202 43.5793L94.8904 42.1996L94.5195 40.6938L94.1041 39.1658L93.6962 37.7416" stroke="#FF8B1F" stroke-linecap="round" stroke-linejoin="round"/>
<path d="M97.7611 53.6751L97.9693 53.5413L97.947 53.5561" stroke="#FF8B1F" stroke-linecap="round" stroke-linejoin="round"/>
<path d="M97.724 34.4481L98.6957 33.5283L100.713 31.4513L102.568 29.3299L103.406 28.2988L103.747 28.9516L104.155 29.6118L104.645 30.3016L106.343 32.3711L106.818 33.0165L107.204 33.6321" stroke="#FF8B1F" stroke-linecap="round" stroke-linejoin="round"/>
<path d="M103.406 28.299L104.615 26.7191L105.839 24.9833M105.839 24.9833L106.685 26.2814L107.219 26.8897L107.827 27.4831L109.904 29.1891L110.527 29.7751L111.424 28.5883L112.233 27.3941L112.96 26.2147L113.598 25.0427L112.033 24.2193L111.269 23.7668L110.549 23.2773L109.904 22.7283L109.34 22.1424L108.405 20.8813L106.996 23.2105L105.839 24.9833Z" stroke="#FF8B1F" stroke-linecap="round" stroke-linejoin="round"/>
<path d="M109.34 22.1423L109.822 21.3337L109.778 21.4079" stroke="#FF8B1F" stroke-linecap="round" stroke-linejoin="round"/>
<path d="M109.822 21.3337L110.304 20.503M110.304 20.503L109.303 19.3458L109.978 18.2332L111.016 19.331L111.588 19.8947L112.226 20.451L112.908 20.9629L113.627 21.4228L115.081 22.2313L114.51 23.292L112.967 22.5354L111.521 21.6156L110.876 21.0741L110.304 20.503Z" stroke="#FF8B1F" stroke-linecap="round" stroke-linejoin="round"/>
<path d="M115.141 13.2559L115.178 13.2929L114.837 13.4413L114.34 13.6861L113.672 14.0941L112.938 14.6578L112.174 15.3699L111.417 16.2229L110.675 17.1872L109.978 18.2331" stroke="#FF8B1F" stroke-linecap="round" stroke-linejoin="round"/>
<path d="M110.705 45.6043L111.714 44.959" stroke="#FF8B1F" stroke-linecap="round" stroke-linejoin="round"/>
<path d="M111.461 32.6679L116.29 29.4783L119.361 27.394L120.793 26.3703L122.024 25.4431L122.262 27.3198L122.395 29.1742L122.417 30.0347L122.41 30.858L122.38 31.6294L122.328 32.3786L122.247 33.0833L122.024 34.4037L121.876 35.0342L121.52 36.1913L121.164 37.1111L123.307 34.9897L124.287 33.8325L125.154 32.6605L125.889 31.4588L126.497 30.2349L126.942 29.0036L127.142 28.1431L127.024 28.6698" stroke="#FF8B1F" stroke-linecap="round" stroke-linejoin="round"/>
<path d="M113.598 25.0426L114.51 23.292" stroke="#FF8B1F" stroke-linecap="round" stroke-linejoin="round"/>
<path d="M118.976 17.5952L119.895 18.9675M118.976 17.5952L118.145 18.1886L117.648 18.6189L117.143 19.1381L116.12 20.4881L115.081 22.2313L117.485 20.6513L118.753 19.7834L119.895 18.9675M118.976 17.5952L118.145 16.5122L117.18 15.3625L115.178 13.293M119.895 18.9675L121.053 17.929L121.972 16.7422L122.262 16.0746L122.395 15.3625L122.403 15.1771L122.351 14.6801L123.767 15.2438L124.457 15.6221L125.043 16.082L125.503 16.6235L125.852 17.2095L126.119 17.8252L126.319 18.3592L126.356 19.3977L126.193 20.3917L125.837 21.3337L125.325 22.2313L124.657 23.0769L123.871 23.8928L122.981 24.6865L122.024 25.4431L121.772 23.7964L121.601 22.9137L121.371 22.0384L121.06 21.1854L120.689 20.3843L120.281 19.6276L119.895 18.9675Z" stroke="#FF8B1F" stroke-linecap="round" stroke-linejoin="round"/>
<path d="M120.2 11.3718L120.8 11.9875L121.305 12.5883L121.705 13.1521L122.002 13.6713L122.225 14.198L122.351 14.6801" stroke="#FF8B1F" stroke-linecap="round" stroke-linejoin="round"/>
<path d="M126.319 18.3593L126.156 17.5656L125.881 16.8313" stroke="#FF8B1F" stroke-linecap="round" stroke-linejoin="round"/>
<path d="M127.142 28.1431L127.231 27.7351" stroke="#FF8B1F" stroke-linecap="round" stroke-linejoin="round"/>
<path d="M47.0762 53.838L49.7762 52.0949L53.7966 49.3355L57.1716 46.9173L67.0149 39.6555L71.2949 36.5771L75.4859 33.6546L77.5554 32.2675L79.5878 30.9249L81.5906 29.649L83.5489 28.4251L85.47 27.268L87.3467 26.1627L90.9517 24.1377L94.3416 22.35L97.5237 20.7627L100.476 19.3756L103.213 18.1442L107.026 16.5272L116.431 12.7368L119.005 11.7725L120.185 11.3571L120.934 11.1345L121.483 11.0752L121.943 11.2532L123.3 12.6181L123.886 13.3005L124.391 13.9829L125.14 15.1697L125.741 16.4456L126.097 17.4025L126.608 18.9528L126.809 19.6352L126.979 20.3102L127.113 20.9704L127.365 22.5503L127.439 23.1957L127.484 23.8187L127.506 24.4344L127.491 25.0352L127.454 25.9995L127.41 26.5855L127.335 27.1567L127.239 27.713L126.964 28.9295L126.683 29.8567L126.416 30.5391L126.045 31.3848L125.444 32.4974L125.117 33.0018L124.242 34.2776L123.092 35.687L122.707 36.1024L121.475 37.3857L120.148 38.6244L118.909 39.7L117.589 40.7607L116.209 41.8214L114.77 42.8747L112.908 44.1654L111.358 45.2039L108.457 47.0435L101.218 51.5163L97.7611 53.6748L94.349 55.8853L87.8956 60.2691L81.153 64.9497L77.5702 67.3456L73.7798 69.7118L71.7919 70.8764L69.752 72.0261L67.638 73.1462L65.4646 74.2366L61.7706 75.9649L57.9505 77.582L53.9969 79.1026L49.9172 80.5194L45.7262 81.8323L41.4239 83.0043L39.2431 83.5235L37.0327 83.9983L34.8 84.4062L33.895 84.4878L32.5227 84.7252L31.106 84.8587L29.4963 84.9477L27.9015 84.9329L26.3512 84.8068L24.8603 84.5323L23.9702 84.3024L22.546 83.8796L21.196 83.3677L19.8756 82.7669L19.3786 82.448L18.8446 82.0252L17.8135 80.9718L16.9531 79.6589L16.7528 79.2287L16.4116 78.1457L16.3671 77.4262L16.5303 76.6103L16.9086 75.7721L17.45 74.9784L18.674 73.5764L19.9721 72.2932L22.3383 70.2014L24.7713 68.2654L27.1301 66.5148L29.6966 64.7197L33.1236 62.4425L35.8904 60.6771L39.5695 58.4073L46.5718 54.1644L47.0762 53.838ZM47.0762 53.838L45.9932 54.5056" stroke="#FF8B1F" stroke-linecap="round" stroke-linejoin="round"/>
<path d="M47.3729 53.6524L48.174 53.1406" stroke="#FF8B1F" stroke-linecap="round" stroke-linejoin="round"/>
<path d="M48.9751 52.6216L49.5611 52.2358" stroke="#FF8B1F" stroke-linecap="round" stroke-linejoin="round"/>
<path d="M49.7762 52.095L50.5774 51.5535" stroke="#FF8B1F" stroke-linecap="round" stroke-linejoin="round"/>
<path d="M51.3784 51.0193L50.7628 51.4273" stroke="#FF8B1F" stroke-linecap="round" stroke-linejoin="round"/>
<path d="M54.2416 49.0239L52.6617 50.1366" stroke="#FF8B1F" stroke-linecap="round" stroke-linejoin="round"/>
<path d="M54.5829 48.7792L57.587 46.6133" stroke="#FF8B1F" stroke-linecap="round" stroke-linejoin="round"/>
<path d="M57.7873 46.4649L58.5884 45.8789" stroke="#FF8B1F" stroke-linecap="round" stroke-linejoin="round"/>
<path d="M60.1906 44.692L60.8508 44.2024" stroke="#FF8B1F" stroke-linecap="round" stroke-linejoin="round"/>
<path d="M1.80621 61.441L1.86527 61.3967" stroke="#FF8B1F" stroke-linecap="round" stroke-linejoin="round"/>
<path d="M1.70978 60.7216L1.80621 59.9205L2.10291 59.1193L2.55539 58.3553L3.7348 56.8347L3.62354 56.0484L3.58645 55.2325L3.63837 54.3943L3.81639 53.5338L4.10568 52.6511L4.4914 51.7536L5.51504 49.9363L5.0774 50.2107L4.60267 50.5594L4.23178 50.9747" stroke="#FF8B1F" stroke-linecap="round" stroke-linejoin="round"/>
<path d="M3.7348 56.8348L4.80295 55.6258L6.64994 53.6897L8.6453 51.7315L10.5665 49.929L12.636 48.0523L14.4459 46.4427L22.1232 39.7371L25.0309 37.1558L24.6155 35.5906L24.4078 34.0255L24.393 33.2763L24.4004 32.898L26.1436 31.4219L29.3925 28.5216L30.4161 27.6686L31.0021 27.2087L32.8195 26.5411L34.5552 25.7177L35.2154 25.2949" stroke="#FF8B1F" stroke-linecap="round" stroke-linejoin="round"/>
<path d="M4.08344 51.227L4.09082 51.2048" stroke="#FF8B1F" stroke-linecap="round" stroke-linejoin="round"/>
<path d="M5.51508 49.9364L6.43486 48.5789L7.44367 47.2438L9.65413 44.6476L12.0204 42.1701L14.483 39.8261L17.005 37.586L19.5419 35.4571L22.0936 33.4247L24.6007 31.5183L24.5265 31.8744L24.4301 32.5568L24.4004 32.898" stroke="#FF8B1F" stroke-linecap="round" stroke-linejoin="round"/>
<path d="M15.9221 37.6305L16.5377 37.0593" stroke="#FF8B1F" stroke-linecap="round" stroke-linejoin="round"/>
<path d="M24.304 30.9546L22.1306 32.5197" stroke="#FF8B1F" stroke-linecap="round" stroke-linejoin="round"/>
<path d="M24.9419 30.502L24.8232 30.7542L24.6007 31.5183L26.4996 30.1386L28.4282 28.8108L30.3865 27.5795L31.0022 27.2086L32.2557 26.2888L34.0137 25.2058L35.8533 24.2935" stroke="#FF8B1F" stroke-linecap="round" stroke-linejoin="round"/>
<path d="M25.0309 37.1562L25.2167 36.9778L25.0978 37.0967" stroke="#FF8B1F" stroke-linecap="round" stroke-linejoin="round"/>
<path d="M25.2164 36.9778L25.5502 36.6663M25.2164 36.9778L25.565 36.6663H25.5502M25.2164 36.9778L25.5947 36.644L25.5502 36.6663" stroke="#FF8B1F" stroke-linecap="round" stroke-linejoin="round"/>
<path d="M25.4612 36.7624L25.4833 36.7329" stroke="#FF8B1F" stroke-linecap="round" stroke-linejoin="round"/>
<path d="M27.679 34.5669L28.1463 34.0847L26.5218 35.7463L25.7282 36.5103L25.5724 36.6512" stroke="#FF8B1F" stroke-linecap="round" stroke-linejoin="round"/>
<path d="M25.5947 36.6442L25.7433 36.5029L25.7136 36.5327" stroke="#FF8B1F" stroke-linecap="round" stroke-linejoin="round"/>
<path d="M25.743 36.5031L26.9521 35.3682L26.559 35.7465" stroke="#FF8B1F" stroke-linecap="round" stroke-linejoin="round"/>
<path d="M27.3452 34.9971L27.7903 34.5669L26.9521 35.368" stroke="#FF8B1F" stroke-linecap="round" stroke-linejoin="round"/>
<path d="M28.0499 34.3223L28.1463 34.2258L27.7903 34.567" stroke="#FF8B1F" stroke-linecap="round" stroke-linejoin="round"/>
<path fill-rule="evenodd" clip-rule="evenodd" d="M28.1464 34.0849L29.6596 32.4307L30.5497 31.3997L28.1464 34.0849Z" stroke="#FF8B1F" stroke-linecap="round" stroke-linejoin="round"/>
<path d="M28.9475 33.4396L30.1491 32.2454L28.1464 34.2259" stroke="#FF8B1F" stroke-linecap="round" stroke-linejoin="round"/>
<path d="M30.1491 32.2453L30.5497 31.8447L30.2307 32.1563" stroke="#FF8B1F" stroke-linecap="round" stroke-linejoin="round"/>
<path d="M30.5496 31.8448L31.0318 31.3552" stroke="#FF8B1F" stroke-linecap="round" stroke-linejoin="round"/>
<path d="M30.2678 32.1193L30.29 32.1045" stroke="#FF8B1F" stroke-linecap="round" stroke-linejoin="round"/>
<path d="M30.5496 31.3996L30.876 31.0139L30.5867 31.3551" stroke="#FF8B1F" stroke-linecap="round" stroke-linejoin="round"/>
<path d="M30.4161 27.6685L31.8032 27.3273L33.1236 26.808L33.7318 26.4594L34.8742 25.6583L35.4602 25.28L35.9646 24.7014L36.4615 24.1673L36.8027 23.8484" stroke="#FF8B1F" stroke-linecap="round" stroke-linejoin="round"/>
<path d="M31.0318 31.3553L31.7068 30.6729L31.5065 30.8731" stroke="#FF8B1F" stroke-linecap="round" stroke-linejoin="round"/>
<path d="M30.876 31.0139L32.1519 29.4636L31.9145 29.7529" stroke="#FF8B1F" stroke-linecap="round" stroke-linejoin="round"/>
<path d="M31.7068 30.6727L32.6118 29.7529L32.2335 30.1312" stroke="#FF8B1F" stroke-linecap="round" stroke-linejoin="round"/>
<path d="M32.6118 29.7528L33.309 29.0481L33.0642 29.2929" stroke="#FF8B1F" stroke-linecap="round" stroke-linejoin="round"/>
<path d="M32.1519 29.4637L33.3536 27.9431L33.1904 28.1434" stroke="#FF8B1F" stroke-linecap="round" stroke-linejoin="round"/>
<path d="M33.7541 28.5883L34.0953 28.2471L33.309 29.0482" stroke="#FF8B1F" stroke-linecap="round" stroke-linejoin="round"/>
<path d="M33.3536 27.9432L34.4736 26.5042L35.4602 25.2802L35.7495 25.3247L36.0165 25.4063L36.6544 25.666L38.8946 23.4555L41.5575 20.9409L44.2353 18.5598L46.9353 16.3271L49.6576 14.2724L52.3947 12.4032L55.1467 10.7268L57.8986 9.23584L60.6506 7.93774L63.3951 6.82509L66.1248 5.88305L68.8323 5.1042L71.5175 4.47369L74.1804 3.96929L76.7988 3.56874L78.9796 3.29428L78.5346 3.28687L78.0228 3.31654" stroke="#FF8B1F" stroke-linecap="round" stroke-linejoin="round"/>
<path d="M34.0953 28.2471L36.6544 25.6658" stroke="#FF8B1F" stroke-linecap="round" stroke-linejoin="round"/>
<path d="M34.5181 25.829L35.1857 25.3172L36.4616 24.1675" stroke="#FF8B1F" stroke-linecap="round" stroke-linejoin="round"/>
<path d="M34.9632 25.5024L34.9927 25.4729" stroke="#FF8B1F" stroke-linecap="round" stroke-linejoin="round"/>
<path d="M90.3805 0.660889L90.6327 0.824078L89.4311 0.861169L88.0662 0.942764L86.7607 1.07628L84.4093 1.40266L82.3769 1.7958L80.7747 2.18893L79.1724 2.68591L77.6073 3.29416L77.3551 3.40543L75.9309 3.59087" stroke="#FF8B1F" stroke-linecap="round" stroke-linejoin="round"/>
<path d="M77.3551 3.4054L77.8818 3.33864L79.2169 2.91583L80.9304 2.43368L82.6142 2.02571L84.0236 1.729L82.3769 1.79577L81.6277 1.86252L80.7524 1.99604" stroke="#FF8B1F" stroke-linecap="round" stroke-linejoin="round"/>
<path d="M77.8818 3.33864L83.8975 2.68588L88.1552 2.30758L88.9564 2.21857L89.9206 2.07764L88.0662 1.88477L86.0783 1.75868L84.0236 1.729" stroke="#FF8B1F" stroke-linecap="round" stroke-linejoin="round"/>
<path d="M78.9796 3.29413L80.4631 3.13094L86.464 2.53753L87.8808 2.37434L89.9726 2.08506L89.9207 2.07764" stroke="#FF8B1F" stroke-linecap="round" stroke-linejoin="round"/>
<path d="M80.0774 2.18889L80.1143 2.16675" stroke="#FF8B1F" stroke-linecap="round" stroke-linejoin="round"/>
<path d="M80.2184 2.14422L80.3143 2.12207" stroke="#FF8B1F" stroke-linecap="round" stroke-linejoin="round"/>
<path d="M82.1024 2.87867L83.1631 2.7229" stroke="#FF8B1F" stroke-linecap="round" stroke-linejoin="round"/>
<path d="M83.0222 1.48417L83.4228 1.46191" stroke="#FF8B1F" stroke-linecap="round" stroke-linejoin="round"/>
<path d="M83.4228 1.46193L84.4093 1.40259L84.2239 1.41743" stroke="#FF8B1F" stroke-linecap="round" stroke-linejoin="round"/>
<path d="M90.6327 0.823975L92.1682 0.831394L93.8001 0.89815L95.4023 1.03909L96.2998 1.14293L89.9725 2.08498" stroke="#FF8B1F" stroke-linecap="round" stroke-linejoin="round"/>
<path fill-rule="evenodd" clip-rule="evenodd" d="M96.2998 1.14309L97.8427 1.03925L97.1899 1.02441L96.2998 1.14309Z" stroke="#FF8B1F" stroke-linecap="round" stroke-linejoin="round"/>
<path d="M2.11033 62.2719L1.8062 61.4412L1.70977 60.7217L1.62818 59.609L1.61334 58.578L1.70236 57.5321L1.79878 56.8422L2.0139 55.7963L2.35511 54.7282L2.81501 53.6452L3.06721 53.0963L3.6087 52.043L4.23178 50.9748L5.22575 49.432L6.31614 47.9188L7.4733 46.4352L8.68238 44.9814L11.2044 42.1923L13.8302 39.5516L16.4709 37.1112L19.2896 34.7079L22.1677 32.4678L24.9419 30.5021L26.6851 29.3301L28.4579 28.21L30.2455 27.1567L32.0629 26.1628L33.8876 25.2281L36.8027 23.8484L40.0962 20.8295L42.7888 18.5077L45.4443 16.3714L48.1963 14.339L50.8889 12.5291L53.5889 10.9046L56.5337 9.34692L59.2412 8.07849L61.9486 6.9881L64.6338 6.06831L67.6306 5.20044L70.2861 4.56994L72.9045 4.06554L75.9309 3.59081L77.1474 3.10866L78.631 2.60426L80.7524 1.99601L81.917 1.72156L83.0222 1.48419L84.1571 1.26908L85.3291 1.08364L86.5308 0.927865L87.7769 0.801766L89.0602 0.712752L90.3805 0.660829L91.2113 0.645996L93.177 0.668248L94.1858 0.712752L96.196 0.85369L97.8575 1.03913" stroke="#FF8B1F" stroke-linecap="round" stroke-linejoin="round"/>
<path d="M80.2184 2.14459L80.3671 2.10742" stroke="#FF8B1F" stroke-linecap="round" stroke-linejoin="round"/>
<path d="M2.91882 64.438L4.0018 66.5224L5.33698 68.5993L6.92436 70.6243L6.99854 70.8246L7.16914 71.2326L5.58176 69.2001L4.254 67.1306" stroke="#FF8B1F" stroke-linecap="round" stroke-linejoin="round"/>
<path d="M18.9633 82.1216H18.9336L18.7556 82.0548L17.9767 81.4169L17.183 80.5787L16.5377 79.6515L16.1149 78.8207L13.6596 77.1369L11.2267 75.2305L9.05328 73.25L7.16919 71.2324L7.69585 72.1967L8.37085 73.1165" stroke="#FF8B1F" stroke-linecap="round" stroke-linejoin="round"/>
<path d="M16.6415 78.8727L16.5525 78.9098L16.1149 78.8208L15.8775 78.1903L13.2146 76.373L10.8335 74.4889L8.73428 72.5677L6.92438 70.6243" stroke="#FF8B1F" stroke-linecap="round" stroke-linejoin="round"/>
<path d="M15.8775 78.1904L16.33 78.3017L16.4487 78.2646" stroke="#FF8B1F" stroke-linecap="round" stroke-linejoin="round"/>
<path d="M19.208 82.3071L18.7555 82.0549L16.4264 80.4675L14.0898 78.6279L13.2368 77.9529L11.0931 76.0021L10.2475 75.1268L8.3708 73.1166L6.776 71.0693L6.101 70.1495L4.7584 68.0503L4.254 67.1305L3.17844 65.0536L2.91882 64.4379L2.09546 62.361L2.13997 62.1162" stroke="#FF8B1F" stroke-linecap="round" stroke-linejoin="round"/>
</g>
<defs>
<clipPath id="clip0_62_3628">
<rect width="128.635" height="85.7567" fill="white" transform="translate(0.611328)"/>
</clipPath>
</defs>
</svg>
