<svg width="159" height="98" viewBox="0 0 159 98" fill="none" xmlns="http://www.w3.org/2000/svg">
<path d="M67.1053 94.6317C67.1053 92.9457 65.7386 91.579 64.0526 91.579C62.3667 91.579 61 92.9457 61 94.6317C61 96.3176 62.3667 97.6843 64.0526 97.6843C65.7386 97.6843 67.1053 96.3176 67.1053 94.6317Z" fill="#FFA551"/>
<path d="M97.6316 94.6317C97.6316 92.9457 96.2649 91.579 94.5789 91.579C92.893 91.579 91.5263 92.9457 91.5263 94.6317C91.5263 96.3176 92.893 97.6843 94.5789 97.6843C96.2649 97.6843 97.6316 96.3176 97.6316 94.6317Z" fill="#FFA551"/>
<path d="M128.158 94.6317C128.158 92.9457 126.791 91.579 125.105 91.579C123.419 91.579 122.053 92.9457 122.053 94.6317C122.053 96.3176 123.419 97.6843 125.105 97.6843C126.791 97.6843 128.158 96.3176 128.158 94.6317Z" fill="#FFA551"/>
<path d="M158.684 94.6317C158.684 92.9457 157.318 91.579 155.632 91.579C153.946 91.579 152.579 92.9457 152.579 94.6317C152.579 96.3176 153.946 97.6843 155.632 97.6843C157.318 97.6843 158.684 96.3176 158.684 94.6317Z" fill="#FFA551"/>
<path d="M67.1053 64.1054C67.1053 62.4194 65.7386 61.0527 64.0526 61.0527C62.3667 61.0527 61 62.4194 61 64.1054C61 65.7913 62.3667 67.158 64.0526 67.158C65.7386 67.158 67.1053 65.7913 67.1053 64.1054Z" fill="#FFA551"/>
<path d="M97.6316 64.1054C97.6316 62.4194 96.2649 61.0527 94.5789 61.0527C92.893 61.0527 91.5263 62.4194 91.5263 64.1054C91.5263 65.7913 92.893 67.158 94.5789 67.158C96.2649 67.158 97.6316 65.7913 97.6316 64.1054Z" fill="#FFA551"/>
<path d="M128.158 64.1054C128.158 62.4194 126.791 61.0527 125.105 61.0527C123.419 61.0527 122.053 62.4194 122.053 64.1054C122.053 65.7913 123.419 67.158 125.105 67.158C126.791 67.158 128.158 65.7913 128.158 64.1054Z" fill="#FFA551"/>
<path d="M158.684 64.1054C158.684 62.4194 157.318 61.0527 155.632 61.0527C153.946 61.0527 152.579 62.4194 152.579 64.1054C152.579 65.7913 153.946 67.158 155.632 67.158C157.318 67.158 158.684 65.7913 158.684 64.1054Z" fill="#FFA551"/>
<path d="M67.1053 94.6317C67.1053 92.9457 65.7386 91.579 64.0526 91.579C62.3667 91.579 61 92.9457 61 94.6317C61 96.3176 62.3667 97.6843 64.0526 97.6843C65.7386 97.6843 67.1053 96.3176 67.1053 94.6317Z" fill="#FFA551"/>
<path d="M97.6316 94.6317C97.6316 92.9457 96.2649 91.579 94.5789 91.579C92.893 91.579 91.5263 92.9457 91.5263 94.6317C91.5263 96.3176 92.893 97.6843 94.5789 97.6843C96.2649 97.6843 97.6316 96.3176 97.6316 94.6317Z" fill="#FFA551"/>
<path d="M128.158 94.6317C128.158 92.9457 126.791 91.579 125.105 91.579C123.419 91.579 122.053 92.9457 122.053 94.6317C122.053 96.3176 123.419 97.6843 125.105 97.6843C126.791 97.6843 128.158 96.3176 128.158 94.6317Z" fill="#FFA551"/>
<path d="M158.684 94.6317C158.684 92.9457 157.318 91.579 155.632 91.579C153.946 91.579 152.579 92.9457 152.579 94.6317C152.579 96.3176 153.946 97.6843 155.632 97.6843C157.318 97.6843 158.684 96.3176 158.684 94.6317Z" fill="#FFA551"/>
<path d="M67.1053 64.1054C67.1053 62.4194 65.7386 61.0527 64.0526 61.0527C62.3667 61.0527 61 62.4194 61 64.1054C61 65.7913 62.3667 67.158 64.0526 67.158C65.7386 67.158 67.1053 65.7913 67.1053 64.1054Z" fill="#FFA551"/>
<path d="M97.6316 64.1054C97.6316 62.4194 96.2649 61.0527 94.5789 61.0527C92.893 61.0527 91.5263 62.4194 91.5263 64.1054C91.5263 65.7913 92.893 67.158 94.5789 67.158C96.2649 67.158 97.6316 65.7913 97.6316 64.1054Z" fill="#FFA551"/>
<path d="M128.158 64.1054C128.158 62.4194 126.791 61.0527 125.105 61.0527C123.419 61.0527 122.053 62.4194 122.053 64.1054C122.053 65.7913 123.419 67.158 125.105 67.158C126.791 67.158 128.158 65.7913 128.158 64.1054Z" fill="#FFA551"/>
<path d="M158.684 64.1054C158.684 62.4194 157.318 61.0527 155.632 61.0527C153.946 61.0527 152.579 62.4194 152.579 64.1054C152.579 65.7913 153.946 67.158 155.632 67.158C157.318 67.158 158.684 65.7913 158.684 64.1054Z" fill="#FFA551"/>
<path d="M3.05263 6.10538C4.73855 6.10538 6.10526 4.73866 6.10526 3.05274C6.10526 1.36682 4.73855 9.91821e-05 3.05263 9.91821e-05C1.36671 9.91821e-05 0 1.36682 0 3.05274C0 4.73866 1.36671 6.10538 3.05263 6.10538Z" fill="#FFA551"/>
<path d="M3.05263 36.6317C4.73855 36.6317 6.10526 35.265 6.10526 33.579C6.10526 31.8931 4.73855 30.5264 3.05263 30.5264C1.36671 30.5264 0 31.8931 0 33.579C0 35.265 1.36671 36.6317 3.05263 36.6317Z" fill="#FFA551"/>
<path d="M3.05263 67.158C4.73855 67.158 6.10526 65.7913 6.10526 64.1054C6.10526 62.4195 4.73855 61.0527 3.05263 61.0527C1.36671 61.0527 0 62.4195 0 64.1054C0 65.7913 1.36671 67.158 3.05263 67.158Z" fill="#FFA551"/>
<path d="M3.05263 97.6843C4.73855 97.6843 6.10526 96.3176 6.10526 94.6317C6.10526 92.9458 4.73855 91.579 3.05263 91.579C1.36671 91.579 0 92.9458 0 94.6317C0 96.3176 1.36671 97.6843 3.05263 97.6843Z" fill="#FFA551"/>
<path d="M33.5789 6.10538C35.2649 6.10538 36.6316 4.73866 36.6316 3.05274C36.6316 1.36682 35.2649 9.91821e-05 33.5789 9.91821e-05C31.893 9.91821e-05 30.5263 1.36682 30.5263 3.05274C30.5263 4.73866 31.893 6.10538 33.5789 6.10538Z" fill="#FFA551"/>
<path d="M33.5789 36.6317C35.2649 36.6317 36.6316 35.265 36.6316 33.579C36.6316 31.8931 35.2649 30.5264 33.5789 30.5264C31.893 30.5264 30.5263 31.8931 30.5263 33.579C30.5263 35.265 31.893 36.6317 33.5789 36.6317Z" fill="#FFA551"/>
<path d="M33.5789 67.158C35.2649 67.158 36.6316 65.7913 36.6316 64.1054C36.6316 62.4195 35.2649 61.0527 33.5789 61.0527C31.893 61.0527 30.5263 62.4195 30.5263 64.1054C30.5263 65.7913 31.893 67.158 33.5789 67.158Z" fill="#FFA551"/>
<path d="M33.5789 97.6843C35.2649 97.6843 36.6316 96.3176 36.6316 94.6317C36.6316 92.9458 35.2649 91.579 33.5789 91.579C31.893 91.579 30.5263 92.9458 30.5263 94.6317C30.5263 96.3176 31.893 97.6843 33.5789 97.6843Z" fill="#FFA551"/>
<path d="M3.05263 6.10538C4.73855 6.10538 6.10526 4.73866 6.10526 3.05274C6.10526 1.36682 4.73855 9.91821e-05 3.05263 9.91821e-05C1.36671 9.91821e-05 0 1.36682 0 3.05274C0 4.73866 1.36671 6.10538 3.05263 6.10538Z" fill="#FFA551"/>
<path d="M3.05263 36.6317C4.73855 36.6317 6.10526 35.265 6.10526 33.579C6.10526 31.8931 4.73855 30.5264 3.05263 30.5264C1.36671 30.5264 0 31.8931 0 33.579C0 35.265 1.36671 36.6317 3.05263 36.6317Z" fill="#FFA551"/>
<path d="M3.05263 67.158C4.73855 67.158 6.10526 65.7913 6.10526 64.1054C6.10526 62.4195 4.73855 61.0527 3.05263 61.0527C1.36671 61.0527 0 62.4195 0 64.1054C0 65.7913 1.36671 67.158 3.05263 67.158Z" fill="#FFA551"/>
<path d="M3.05263 97.6843C4.73855 97.6843 6.10526 96.3176 6.10526 94.6317C6.10526 92.9458 4.73855 91.579 3.05263 91.579C1.36671 91.579 0 92.9458 0 94.6317C0 96.3176 1.36671 97.6843 3.05263 97.6843Z" fill="#FFA551"/>
<path d="M33.5789 6.10538C35.2649 6.10538 36.6316 4.73866 36.6316 3.05274C36.6316 1.36682 35.2649 9.91821e-05 33.5789 9.91821e-05C31.893 9.91821e-05 30.5263 1.36682 30.5263 3.05274C30.5263 4.73866 31.893 6.10538 33.5789 6.10538Z" fill="#FFA551"/>
<path d="M33.5789 36.6317C35.2649 36.6317 36.6316 35.265 36.6316 33.579C36.6316 31.8931 35.2649 30.5264 33.5789 30.5264C31.893 30.5264 30.5263 31.8931 30.5263 33.579C30.5263 35.265 31.893 36.6317 33.5789 36.6317Z" fill="#FFA551"/>
<path d="M33.5789 67.158C35.2649 67.158 36.6316 65.7913 36.6316 64.1054C36.6316 62.4195 35.2649 61.0527 33.5789 61.0527C31.893 61.0527 30.5263 62.4195 30.5263 64.1054C30.5263 65.7913 31.893 67.158 33.5789 67.158Z" fill="#FFA551"/>
<path d="M33.5789 97.6843C35.2649 97.6843 36.6316 96.3176 36.6316 94.6317C36.6316 92.9458 35.2649 91.579 33.5789 91.579C31.893 91.579 30.5263 92.9458 30.5263 94.6317C30.5263 96.3176 31.893 97.6843 33.5789 97.6843Z" fill="#FFA551"/>
</svg>
