<svg width="159" height="91" viewBox="0 0 159 91" fill="none" xmlns="http://www.w3.org/2000/svg">
<g clip-path="url(#clip0_62_3616)">
<path d="M-0.274412 -1.79958C-1.36033 -1.45911 -2.14815 -0.767502 -2.63787 0.285873L-2.91467 0.871071V51.1455V101.42L-2.56335 102.133C-2.15879 102.952 -1.5839 103.516 -0.742846 103.91L-0.146658 104.186H79.1144H158.375L158.972 103.91C159.813 103.516 160.388 102.952 160.792 102.133L161.143 101.42V51.1455V0.871071L160.867 0.27523C160.473 -0.565338 159.908 -1.1399 159.089 -1.54423L158.375 -1.89535L79.2741 -1.91663C14.066 -1.92727 0.0982051 -1.90599 -0.274412 -1.79958ZM153.297 1.09451C154.053 1.169 155.203 1.76484 155.767 2.37132C156.012 2.63733 156.363 3.16933 156.544 3.56302L156.885 4.2759V45.3573V86.428L156.491 87.2366C156.012 88.2049 155.395 88.8007 154.404 89.2689L153.691 89.6094H79.487H5.28291L4.56961 89.2689C3.57952 88.8007 2.96204 88.2049 2.48296 87.2366L2.08905 86.428V45.3041V4.1695L2.42973 3.45661C2.61071 3.06293 2.96204 2.53093 3.19625 2.27557C3.66469 1.76484 4.63349 1.20092 5.29356 1.04131C5.73005 0.934914 152.265 0.988113 153.297 1.09451Z" fill="#FF8B1F"/>
<path d="M78.4756 2.9778C78.4756 3.05228 78.7843 3.41405 79.1463 3.77581L79.8276 4.44614L81.4139 4.79726C82.6276 5.06326 83.3941 5.31862 84.6716 5.86127C85.5872 6.24431 86.407 6.56351 86.4922 6.56351C86.5667 6.56351 87.7058 6.25494 89.0153 5.8719C90.3248 5.4995 91.4107 5.20158 91.432 5.22286C91.4639 5.25478 91.1445 7.55304 91.102 7.5956C91.0913 7.60624 90.2183 7.52112 89.175 7.40408L87.2587 7.19128L79.9128 9.73425C72.6308 12.2772 72.5776 12.2879 72.3008 12.107C70.9913 11.1813 64.2522 6.45711 63.869 6.16982L63.3579 5.79742V6.21239C63.3579 6.60607 63.3899 6.63799 64.6248 7.49984L65.8811 8.38297L65.945 9.84065C66.1366 13.969 66.5731 29.4503 66.5092 29.5248C66.4666 29.5674 65.732 29.6099 64.891 29.6312L63.3473 29.6631L63.3792 30.3654L63.4112 31.057L64.7952 31.0676L66.1685 31.0889L66.6689 33.5574C66.9351 34.9193 67.1267 36.0365 67.0735 36.0365C67.0309 36.0365 66.2005 35.6748 65.2317 35.2385C64.2629 34.8023 63.4431 34.4405 63.4112 34.4405C63.3686 34.4405 63.3579 34.5895 63.3792 34.781C63.4112 35.1108 63.4644 35.1428 65.3168 35.9833C66.5624 36.5473 67.2544 36.9197 67.3183 37.058C67.4248 37.3133 69.8734 49.8793 69.8308 49.9325C69.8095 49.9431 68.3404 50.0495 66.5731 50.1453C64.8058 50.2517 63.3579 50.3687 63.3579 50.4219C63.3579 50.539 64.199 50.5283 67.2332 50.3474C68.6917 50.2623 69.8947 50.1985 69.9054 50.2198C69.9586 50.273 75.3562 58.6573 75.4307 58.785C75.484 58.8701 75.2498 59.0404 74.6536 59.317C74.1851 59.5298 73.8019 59.7746 73.7912 59.849C73.7912 59.9342 73.8232 59.9767 73.8764 59.9554C73.919 59.9342 74.3342 59.7426 74.8026 59.5192C75.5904 59.1468 75.665 59.1255 75.7821 59.3064C75.8566 59.4022 75.8885 59.5192 75.8353 59.5724C75.7927 59.615 73.8657 60.53 71.5555 61.6046C69.2453 62.6793 66.456 63.988 65.3594 64.4988L63.3579 65.4351V66.2224C63.3579 66.8183 63.3899 67.0098 63.4963 66.9672C63.5602 66.9353 64.8591 66.3395 66.3708 65.6266C67.8826 64.9137 69.1282 64.3391 69.1495 64.3391C69.2453 64.3391 69.075 65.2542 68.9578 65.3712C68.894 65.4351 67.8187 65.9458 66.5624 66.5097L64.2842 67.5205L63.8157 68.6165L63.3473 69.7124L64.2309 78.6181L65.1146 87.5345H65.402C65.7746 87.5345 65.7746 87.7473 65.3807 83.7786C65.1997 82.023 65.0933 80.5546 65.1359 80.5121C65.221 80.4376 68.0529 80.1929 68.7662 80.1929H69.1069V80.81C69.1069 81.3952 69.1495 81.491 70.1715 83.1615C70.7571 84.1191 71.2361 84.9171 71.2361 84.9277C71.2361 84.9383 70.3631 85.5236 69.2985 86.2152L67.3503 87.4813L67.8932 87.5132L68.4362 87.5452L72.7372 84.7362C75.1007 83.1934 77.8048 81.4271 78.7417 80.8206C79.6786 80.2035 80.4983 79.6715 80.5622 79.6289C80.6367 79.5864 81.0732 80.4802 81.7546 82.0868C82.3508 83.47 82.8405 84.6404 82.8405 84.6723C82.8405 84.7043 82.0953 85.3533 81.1903 86.1088L79.5402 87.4813L80.658 87.5132L81.7759 87.5452L82.585 86.8429C83.0428 86.4599 83.4367 86.1513 83.4899 86.1513C83.5325 86.1513 83.7135 86.4599 83.8945 86.8429C84.0648 87.226 84.2671 87.5345 84.3203 87.5345C84.48 87.5345 84.48 87.5239 84.0648 86.662C83.8625 86.2471 83.7348 85.8747 83.7774 85.8428C83.8306 85.8108 85.1507 84.7043 86.7157 83.3849C88.2914 82.0655 89.6008 80.9802 89.6434 80.959C89.6754 80.9483 90.4525 82.4166 91.3575 84.2361C92.2624 86.0449 93.0609 87.5345 93.1354 87.5345C93.2206 87.5345 92.5286 86.0556 91.5704 84.1403L89.8776 80.7462L91.794 79.1289C92.8586 78.2351 93.7635 77.5541 93.8061 77.6073C93.8913 77.6925 97.1916 85.6193 97.2342 85.8428C97.2555 85.9172 96.5315 86.3109 95.616 86.7259C94.5833 87.2047 94.0616 87.492 94.2 87.5132C94.3171 87.5345 94.892 87.3324 95.4563 87.0664C96.0312 86.8004 96.5209 86.5769 96.5422 86.5769C96.5635 86.5769 96.6699 86.7897 96.787 87.0557C96.9041 87.3217 97.0425 87.5345 97.1064 87.5345C97.2448 87.5345 97.2448 87.5239 97 86.96L96.7977 86.4705L97.0958 86.3109L97.4045 86.1513L97.6707 86.811C97.8091 87.1728 97.9901 87.492 98.0646 87.5132C98.2349 87.5771 98.1817 87.4175 97.3193 85.3639C96.9148 84.417 96.6167 83.619 96.6486 83.5658C96.6699 83.5232 97.149 83.4913 97.7026 83.4913C98.2669 83.4913 98.8205 83.4381 98.9376 83.3743C99.1292 83.2679 99.2037 83.2998 99.4912 83.6403C99.6722 83.8531 100.492 84.8107 101.312 85.7683C102.738 87.4388 102.823 87.5239 103.207 87.5239C103.42 87.5345 103.601 87.5026 103.601 87.4494C103.59 87.4068 102.919 86.6088 102.11 85.6725L100.62 83.9701V83.204V82.4379L101.067 82.1294L101.525 81.8102L102.43 82.5124C102.93 82.8955 103.388 83.2572 103.462 83.2998C103.526 83.353 103.611 83.353 103.643 83.2998C103.675 83.2466 103.249 82.8529 102.696 82.4273C101.588 81.5867 101.652 81.725 101.908 80.7036C101.993 80.3738 102.068 80.2993 102.355 80.2461C102.547 80.2035 102.941 80.1929 103.228 80.2142L103.76 80.2461L105.272 83.8531C106.102 85.8321 106.816 87.4813 106.848 87.5132C106.88 87.5452 106.933 87.5345 106.975 87.5026C107.007 87.46 106.89 87.0983 106.709 86.6833C106.411 86.0024 106.401 85.9279 106.56 85.8428C106.89 85.6725 110.084 84.2361 110.201 84.2148C110.276 84.1935 110.68 84.9277 111.117 85.8321C111.851 87.3856 111.915 87.4813 112.224 87.5132C112.394 87.5345 112.543 87.5026 112.543 87.4388C112.543 87.3856 112.181 86.5769 111.745 85.6619C111.308 84.7468 110.946 83.9595 110.946 83.9169C110.946 83.8318 117.004 81.0973 117.068 81.1611C117.1 81.2037 117.473 83.2147 118.09 86.811C118.165 87.2153 118.26 87.5345 118.314 87.5345C118.463 87.5345 118.409 87.1728 117.877 84.1829C117.59 82.5975 117.377 81.2994 117.387 81.2782C117.409 81.2569 119.889 84.0659 120.166 84.4276C120.262 84.5659 120.432 84.5553 121.39 84.3638C121.997 84.2467 122.508 84.1616 122.53 84.1829C122.583 84.2361 122.263 86.9706 122.189 87.0983C122.146 87.1621 122.008 87.2153 121.88 87.2153C121.752 87.226 121.337 87.2898 120.954 87.3643L120.262 87.5132L121.571 87.5026C122.572 87.5026 122.87 87.46 122.87 87.3536C122.87 87.1834 123.807 78.5862 123.892 77.9797L123.956 77.5222L127.256 75.873L130.546 74.2238L130.951 74.5749C131.174 74.7664 132.441 75.9581 133.761 77.2136C135.369 78.7352 136.178 79.5757 136.178 79.7141C136.178 79.8311 136.082 81.1824 135.976 82.7146L135.773 85.4916L135.05 86.3854C134.656 86.8642 134.283 87.3324 134.23 87.3962C134.155 87.5026 134.23 87.5345 134.538 87.5345C134.89 87.5239 134.996 87.46 135.273 87.1089C135.497 86.8216 135.678 86.694 135.869 86.6833C136.221 86.6833 136.71 87.0557 136.71 87.3324C136.71 87.5984 136.881 87.5984 136.955 87.3324C137.019 87.0664 136.423 86.4705 136.093 86.4705C135.795 86.4705 135.795 86.3535 136.114 86.0556C136.316 85.864 136.38 85.6725 136.434 85.0767C136.465 84.6723 136.529 84.002 136.561 83.5977L136.625 82.8423L137.243 82.9167C137.807 82.9806 137.977 82.938 139.159 82.4911C140.011 82.1719 140.511 82.0336 140.586 82.0974C140.649 82.1506 140.788 82.3422 140.894 82.523L141.086 82.8529H140.767C140.426 82.8529 140.479 82.7465 139.936 84.5872C139.894 84.7575 139.819 84.7787 139.393 84.7149C139.116 84.6723 138.861 84.6085 138.818 84.5659C138.776 84.534 138.808 84.2467 138.882 83.9382C138.978 83.5871 138.999 83.3636 138.925 83.3211C138.786 83.2359 138.786 83.2359 138.637 83.9275L138.51 84.534L138.116 84.4383C137.892 84.3957 137.679 84.3957 137.626 84.4489C137.53 84.5447 137.956 84.683 139.052 84.8851C139.436 84.949 139.755 85.0235 139.776 85.0341C139.787 85.0447 139.723 85.2895 139.638 85.5661C139.553 85.8534 139.51 86.1088 139.532 86.13C139.659 86.2577 139.798 85.9172 140.17 84.5979C140.405 83.7999 140.649 83.1189 140.724 83.0976C141.054 82.9699 141.384 83.204 141.874 83.9169C142.151 84.3212 142.363 84.683 142.342 84.7043C142.321 84.7255 141.97 84.8213 141.554 84.9277C141.15 85.0341 140.756 85.1724 140.692 85.2363C140.628 85.3001 140.468 85.7576 140.341 86.2577C140.213 86.7578 140.075 87.2472 140.043 87.3643C140.011 87.492 140.032 87.5452 140.128 87.5132C140.202 87.492 140.394 86.9919 140.543 86.4173L140.82 85.3639L141.693 85.1299L142.555 84.8958L143.492 86.2152L144.418 87.5345H145.312C146.015 87.5345 146.185 87.5026 146.1 87.3962C146.047 87.3324 144.461 85.0767 142.576 82.3954L139.148 77.5222L138.882 76.3944C138.744 75.7772 138.637 75.2559 138.659 75.2346C138.712 75.1708 142.896 74.6387 142.938 74.6813C142.949 74.7026 143.205 75.7772 143.503 77.086C143.79 78.3947 144.067 79.4906 144.099 79.5225C144.237 79.6715 144.28 79.4481 144.173 79.065C144.109 78.8416 144.077 78.6501 144.099 78.6288C144.12 78.6075 144.535 78.5224 145.025 78.4266C146.377 78.1925 146.441 78.1713 146.334 78.0649C146.271 78.001 145.823 78.0329 145.174 78.1606C144.589 78.2777 144.077 78.3309 144.046 78.2989C144.003 78.2564 143.95 78.0968 143.907 77.9372C143.833 77.6073 143.758 77.6393 145.153 77.3839C145.611 77.3094 146.015 77.203 146.047 77.1711C146.217 77.0115 145.93 77.0115 144.929 77.203C144.322 77.3094 143.822 77.3732 143.801 77.3307C143.779 77.2988 143.726 77.1179 143.694 76.937L143.62 76.6072L144.748 76.4156C145.366 76.3092 145.866 76.1816 145.866 76.1284C145.866 76.0007 145.621 76.022 144.557 76.2135C144.046 76.3092 143.598 76.3731 143.588 76.3518C143.566 76.3305 143.513 76.1603 143.481 75.9794L143.407 75.6389L144.397 75.4687C145.568 75.2559 145.685 75.224 145.611 75.1069C145.579 75.0537 145.227 75.075 144.833 75.1388C143.151 75.4474 143.343 75.4687 143.258 74.9792C143.215 74.7345 143.109 74.5111 143.024 74.4791C142.938 74.4472 141.906 74.543 140.724 74.6919C139.542 74.8409 138.573 74.958 138.563 74.9473C138.52 74.8941 136.71 66.9566 136.742 66.9353C136.795 66.8928 141.597 65.8288 141.746 65.8288C141.884 65.8288 142.459 67.0311 142.459 67.3077C142.459 67.3609 142.182 67.4673 141.852 67.5418C141.512 67.6163 141.214 67.6908 141.203 67.7014C141.107 67.7653 141.448 68.9144 141.554 68.9144C141.65 68.9144 141.661 68.7973 141.576 68.4249C141.48 68.0313 141.49 67.9249 141.618 67.8397C141.852 67.6908 141.959 67.7759 142.055 68.1802C142.204 68.7441 142.236 68.8293 142.342 68.7548C142.406 68.7229 142.395 68.5101 142.31 68.2228C142.172 67.7865 142.182 67.744 142.363 67.6908C142.47 67.6589 142.662 67.6163 142.768 67.5844C142.928 67.5312 143.002 67.6057 143.098 67.9249C143.162 68.1483 143.236 68.393 143.268 68.4675C143.29 68.542 143.354 68.5845 143.407 68.542C143.471 68.5101 143.46 68.2973 143.375 68.01C143.215 67.5099 143.236 67.4248 143.535 67.4248C143.673 67.4248 144.056 66.946 144.706 65.9777C145.259 65.1478 145.717 64.5626 145.792 64.5839C145.866 64.6158 146.856 65.0308 147.995 65.5096L150.071 66.3714L152.445 65.7649C153.744 65.4244 154.873 65.1159 154.937 65.0627C155.192 64.9137 154.926 64.8499 154.543 64.9776C154.33 65.052 154.117 65.0627 154.074 65.0201C154.01 64.9456 152.914 60.7854 151.966 56.9869C151.924 56.8166 152.435 57.2848 153.457 58.3275L155.011 59.9235L155.022 58.8595V57.7955L154.159 56.9337L153.308 56.0718L153.712 55.9548C153.936 55.8909 154.319 55.7845 154.575 55.7207L155.022 55.6036V54.8588V54.1247L154.734 54.1885C154.564 54.2311 153.947 54.3907 153.34 54.5503C152.733 54.7099 152.232 54.8056 152.211 54.7737C152.02 54.4545 146.718 40.4415 146.76 40.3564C146.782 40.2926 148.655 39.5158 150.912 38.6434L155.022 37.0473V36.7069V36.3557L154.468 36.5792C151.956 37.5687 151.242 37.8241 151.179 37.7602C151.136 37.7177 150.604 36.4089 149.986 34.8448L148.858 32.0039L151.53 28.1629C154.149 24.4176 154.213 24.3324 154.617 24.2686C154.979 24.2048 155.022 24.1622 155.022 23.8856V23.577L154.447 23.6408L153.872 23.7153L153.712 23.2046C153.574 22.779 149.763 10.6174 148.187 5.57398C147.953 4.81853 147.782 4.19077 147.804 4.16949C147.825 4.14821 148.687 4.37165 149.731 4.66958L151.615 5.21222L153.286 7.18063C154.202 8.26592 154.979 9.09585 155.001 9.03201C155.022 8.95753 154.468 8.21272 153.766 7.3828C151.54 4.74406 151.966 5.05262 149.656 4.40357L147.644 3.82901L147.495 3.33956C147.367 2.88204 147.325 2.83948 147.027 2.83948C146.622 2.83948 146.515 2.42451 148.144 7.57432C148.868 9.8513 149.443 11.7559 149.422 11.7878C149.401 11.8197 148.719 11.7559 147.889 11.6388L146.388 11.4367L145.674 12.224C144.237 13.7881 144.109 13.9052 143.982 13.82C143.875 13.7562 144.067 12.7773 144.748 9.73425L145.653 5.74422L144.833 4.29717C144.035 2.89268 143.992 2.83948 143.662 2.83948C143.471 2.83948 143.311 2.8714 143.311 2.90332C143.311 2.95652 143.886 3.98861 144.386 4.81853L144.589 5.15902L143.897 5.51014C143.247 5.85062 143.045 6.0315 143.332 6.0315C143.396 6.0315 143.716 5.88255 144.046 5.70166C144.631 5.37182 144.631 5.37182 144.801 5.58463C144.95 5.7655 144.961 5.88255 144.865 6.34007C144.801 6.66991 144.706 6.88271 144.62 6.88271C144.535 6.88271 144.141 7.05296 143.726 7.26575L142.97 7.63816L142.31 7.12743C141.959 6.85079 141.16 6.22303 140.543 5.74422C139.478 4.90366 139.202 4.73341 139.287 4.9675C139.308 5.03133 140.138 5.72295 141.129 6.49967L142.938 7.92544L143.758 7.51048C144.205 7.28703 144.599 7.13808 144.62 7.18063C144.642 7.2232 144.471 8.10632 144.237 9.13841L143.811 11.0111L142.843 11.16C142.31 11.2451 141.842 11.2983 141.799 11.2771C141.767 11.2664 141.192 10.3727 140.532 9.29801L139.329 7.34023L138.318 6.72311C136.945 5.89318 136.923 5.8719 137.04 5.47822C137.083 5.29734 137.413 4.66958 137.775 4.07373C138.126 3.47788 138.414 2.95652 138.414 2.91396C138.414 2.8714 138.254 2.83948 138.073 2.83948C137.754 2.83948 137.69 2.90332 137.37 3.47788C137.179 3.82901 136.987 4.11629 136.945 4.11629C136.902 4.11629 136.753 3.82901 136.625 3.47788C136.402 2.90332 136.348 2.83948 136.061 2.83948C135.891 2.83948 135.752 2.88204 135.752 2.94588C135.752 2.99908 135.923 3.4566 136.125 3.95669C136.423 4.66958 136.487 4.95686 136.434 5.2335C136.402 5.43566 136.348 5.6059 136.338 5.6059C136.316 5.6059 135.018 4.97813 133.453 4.22269C130.748 2.90332 130.11 2.66924 130.11 2.96716C130.099 3.38213 129.492 7.74456 129.439 7.8084C129.396 7.84032 128.758 7.6488 128.023 7.37215C127.278 7.10616 126.65 6.89335 126.628 6.92527C126.554 6.99976 125.851 9.6917 125.904 9.73425C125.926 9.75553 127.256 10.1811 128.853 10.6812C130.45 11.1813 131.77 11.5963 131.781 11.5963C131.792 11.6069 131.707 12.0325 131.611 12.5432C131.387 13.6285 131.217 13.3838 133.016 14.6393C134.379 15.5969 134.347 15.5437 134.113 16.512C134.006 16.9482 133.953 17.0333 133.783 17.0014C133.666 16.9908 132.037 16.6184 130.163 16.1928L126.756 15.4054L125.244 14.618L123.743 13.8413L122.114 13.6072C121.22 13.4796 120.475 13.3519 120.443 13.3306C120.422 13.2987 120.486 12.7986 120.581 12.2134C120.752 11.2558 120.794 11.1387 120.997 11.1387C121.124 11.1387 121.976 11.2558 122.902 11.4047C124.723 11.692 125.212 11.7346 125.053 11.575C124.989 11.5218 124.233 11.3728 123.349 11.2451C122.476 11.1175 121.742 11.0004 121.72 10.9791C121.699 10.9579 122.402 5.9783 122.498 5.54206L122.54 5.32926L124.009 5.51014C124.819 5.61654 125.542 5.70166 125.617 5.7123C125.798 5.7123 125.777 6.01022 125.521 7.35088C125.33 8.3936 125.319 8.73409 125.479 8.56384C125.553 8.48936 126.096 5.59526 126.043 5.5527C125.979 5.4995 122.402 5.08454 122.359 5.1271C122.317 5.15902 121.486 10.628 121.486 10.8515C121.486 10.9047 121.284 10.9259 121.039 10.9047L120.592 10.8727L120.379 12.0644C120.198 13.1497 120.155 13.2668 119.953 13.2668C119.698 13.2668 115.067 12.6177 115.013 12.5752C114.992 12.5539 114.556 10.3727 114.055 7.71264L113.129 2.89268L112.788 2.86076L112.458 2.82884L112.597 3.55237C112.671 3.94605 112.991 5.58463 113.299 7.18063C113.597 8.77665 113.821 10.1067 113.789 10.1492C113.746 10.1811 113.534 10.245 113.321 10.2769L112.916 10.3407V10.9259C112.916 11.5111 112.916 11.5111 112.575 11.5431L112.224 11.575V10.5642V9.56401L111.745 9.29801C111.191 8.98945 110.968 9.11713 111.5 9.43633C111.692 9.55338 111.883 9.64913 111.937 9.64913C111.979 9.64913 112.011 10.0747 112.011 10.6067V11.5643H111.639H111.266V10.9472C111.266 10.2663 111.181 9.86193 111.042 9.86193C110.989 9.86193 110.968 10.2556 110.978 10.7344L111 11.6175H110.627H110.254L110.223 10.7876C110.18 9.70233 109.988 9.72361 109.988 10.8195V11.6707H109.669H109.35V10.2024V8.72344L108.221 6.45711L107.103 4.19077L107.774 3.5098C108.147 3.13741 108.37 2.83948 108.274 2.83948C108.189 2.83948 107.88 3.07356 107.604 3.36085L107.082 3.89285L106.294 3.36085C105.858 3.06292 105.432 2.83948 105.336 2.86076C105.219 2.88204 105.464 3.09484 105.975 3.42468C106.422 3.72261 106.794 4.00989 106.794 4.06309C106.794 4.12693 106.347 4.60574 105.815 5.14838C104.825 6.10599 104.814 6.11662 102.515 7.23383C100.279 8.31912 99.1718 8.77665 99.0547 8.65961C98.9589 8.55321 98.2669 3.85029 98.3094 3.58429C98.3414 3.43533 98.3946 3.21188 98.4372 3.07356C98.5117 2.8714 98.4798 2.83948 98.1923 2.83948C97.8729 2.83948 97.8623 2.85012 97.1064 4.77598C96.6806 5.85062 96.2441 6.98911 96.127 7.30831C96.0099 7.62752 95.8715 7.94672 95.8182 8.01056C95.7544 8.08504 95.0836 8.05312 93.5932 7.89352C92.4221 7.76584 91.4426 7.63816 91.4213 7.61687C91.3894 7.5956 91.5172 6.53159 91.6981 5.25478C91.9856 3.2438 92.0282 2.66924 91.8472 2.85012C91.8153 2.8714 91.7407 3.3502 91.6556 3.90349L91.5172 4.9143L88.994 5.63783L86.4709 6.36135L84.7888 5.64846C83.4899 5.10582 82.734 4.8611 81.5097 4.59509L79.9128 4.24397L79.2634 3.54173C78.582 2.8182 78.4756 2.74372 78.4756 2.9778ZM133.367 4.43549C134.943 5.20158 136.242 5.83998 136.253 5.86127C136.338 5.93575 136.146 6.77631 136.05 6.77631C135.986 6.77631 135.199 6.51031 134.304 6.16982C133.335 5.8187 132.622 5.6059 132.569 5.66974C132.516 5.72295 132.377 6.43583 132.25 7.24448C132.122 8.06376 132.005 8.75536 131.983 8.77665C131.941 8.81921 130.227 8.22337 129.886 8.04248C129.737 7.968 129.748 7.72328 130.014 5.63783C130.184 4.36102 130.312 3.25445 130.323 3.17996C130.323 3.11612 130.365 3.05228 130.418 3.05228C130.472 3.05228 131.792 3.68005 133.367 4.43549ZM107.966 6.45711C108.519 7.56367 108.945 8.48936 108.924 8.51064C108.892 8.54256 108.008 8.51064 106.954 8.46809C105.9 8.41489 104.154 8.32977 103.068 8.2872L101.099 8.20208L103.09 7.21255C104.974 6.26559 105.112 6.16982 105.953 5.32926C106.443 4.83981 106.869 4.43549 106.901 4.43549C106.933 4.43549 107.412 5.3399 107.966 6.45711ZM98.4372 9.11713C98.7566 11.2558 99.0547 13.1497 99.0866 13.3412L99.1505 13.6817L96.2973 12.4581C94.7217 11.7771 93.3909 11.1919 93.3483 11.1494C93.2738 11.0749 93.3696 10.0109 93.5506 8.91497L93.6038 8.55321L94.3703 8.62769C94.7962 8.67024 95.3817 8.72344 95.6798 8.75536L96.2121 8.81921L96.787 7.35088C97.5429 5.38246 97.7771 4.88238 97.8091 5.0739C97.8304 5.15902 98.1178 6.97847 98.4372 9.11713ZM135.976 7.08488C136.05 7.14871 135.507 9.93642 135.411 10.0322C135.348 10.0854 132.441 9.03201 132.313 8.91497C132.25 8.85113 132.59 6.34007 132.718 5.96767C132.739 5.88255 133.314 6.05279 134.336 6.42519C135.199 6.75503 135.944 7.04231 135.976 7.08488ZM139.191 7.60624C139.265 7.71264 139.84 8.60641 140.458 9.60658C141.565 11.3835 141.576 11.426 141.65 12.2347C141.693 12.6816 141.693 13.054 141.65 13.054C141.554 13.054 135.933 11.2451 135.891 11.2026C135.859 11.1707 136.795 6.53159 136.87 6.26559C136.923 6.12727 138.903 7.2764 139.191 7.60624ZM131.078 8.74473C133.378 9.59593 135.284 10.3195 135.316 10.3407C135.369 10.3939 134.507 14.7457 134.379 15.0862C134.326 15.2352 134.102 15.1181 133.037 14.3627C132.335 13.8732 131.749 13.4264 131.728 13.3732C131.707 13.32 131.77 12.8837 131.866 12.4049C131.962 11.9261 132.005 11.5005 131.951 11.4579C131.909 11.4047 130.599 10.9791 129.045 10.5003C127.491 10.0109 126.203 9.60658 126.181 9.58529C126.117 9.53209 126.745 7.20191 126.82 7.20191C126.852 7.20191 128.768 7.89352 131.078 8.74473ZM87.5355 7.9148C87.5355 7.968 87.6206 8.88305 87.7271 9.9577C87.8442 11.2877 87.8762 11.9155 87.791 11.9474C87.5887 12.0219 83.8732 12.8412 83.8519 12.8199C83.8412 12.7986 83.3728 12.107 82.7979 11.2664C82.2337 10.4365 81.7759 9.75553 81.7972 9.75553C81.8185 9.75553 83.0534 9.32993 84.5439 8.79793C87.2693 7.85096 87.5142 7.77648 87.5355 7.9148ZM90.6442 8.20208C91.8578 8.3404 92.8799 8.46809 92.9012 8.48936C92.9757 8.56384 92.667 10.8195 92.5605 10.9579C92.5073 11.0217 91.581 12.1602 90.4951 13.4689L88.5362 15.8523L88.4511 15.2245C88.4085 14.8734 88.2381 13.0965 88.0784 11.2664L87.7803 7.94672H88.1104C88.2807 7.94672 89.4305 8.06376 90.6442 8.20208ZM101.791 10.2343V12.0006L100.652 11.9687L99.5125 11.9368L99.2889 10.4684C99.1292 9.45761 99.0973 8.97881 99.1718 8.94688C100.162 8.58512 100.556 8.48936 101.131 8.47872H101.791V10.2343ZM104.101 8.58512H104.452V9.54273C104.452 10.3407 104.484 10.5003 104.623 10.5003C104.761 10.5003 104.782 10.3514 104.761 9.56401L104.74 8.63833L106.379 8.68089C107.274 8.70216 108.253 8.74473 108.551 8.78728L109.083 8.85113L109.115 10.7025L109.137 12.5539L108.807 12.4794C108.626 12.4475 107.742 12.4156 106.837 12.4156H105.208L105.176 11.8516L105.144 11.2983L103.601 11.1707C102.749 11.1068 102.046 11.043 102.036 11.043C101.961 11.0217 102.014 8.60641 102.089 8.54256C102.131 8.48936 102.515 8.48936 102.951 8.52129C103.388 8.55321 103.899 8.58512 104.101 8.58512ZM68.6491 10.3195L70.6506 11.7239L72.8118 15.3309C73.9935 17.3206 74.9517 18.9805 74.941 19.023C74.8984 19.1294 70.8316 21.9916 70.7251 21.9916C70.6825 21.9916 70.1715 21.2255 69.5966 20.2892C69.0111 19.3529 68.4894 18.5442 68.4255 18.491C68.3617 18.4378 68.0103 18.374 67.6484 18.3527C67.2757 18.3314 66.9564 18.2889 66.9244 18.257C66.9031 18.225 66.8286 16.7248 66.7647 14.9053C66.7115 13.0965 66.637 11.0111 66.605 10.2556C66.5624 9.51081 66.5624 8.90433 66.5944 8.90433C66.6263 8.90433 67.5419 9.54273 68.6491 10.3195ZM82.5637 11.3515C83.1279 12.1602 83.5857 12.8731 83.5857 12.9369C83.5857 13.0327 78.4649 16.6716 78.3265 16.6716C78.2946 16.6716 78.2626 15.7565 78.2626 14.6287V12.5858L77.922 11.9261C77.7303 11.5537 77.6026 11.2345 77.6239 11.2132C77.6877 11.1707 81.3607 9.88322 81.4778 9.87257C81.5204 9.86193 82.0101 10.5323 82.5637 11.3515ZM114.13 11.5537L114.321 12.522H113.267H112.224V12.1496C112.224 11.7771 112.224 11.7771 112.703 11.7771H113.182V11.1494C113.182 10.5323 113.193 10.511 113.48 10.4791C113.64 10.4578 113.81 10.4684 113.853 10.511C113.906 10.5535 114.034 11.0217 114.13 11.5537ZM143.737 11.2983C143.737 11.4792 143.268 13.437 143.215 13.5115C143.173 13.554 142.874 13.5008 142.555 13.3944L141.98 13.1923L141.927 12.4049C141.895 11.9687 141.874 11.5963 141.895 11.575C141.916 11.5537 142.278 11.4686 142.693 11.4047C143.652 11.2451 143.737 11.2345 143.737 11.2983ZM77.709 12.0219L78.0497 12.6922V14.7776V16.8631L77.6558 17.1717C77.4322 17.3419 76.7935 17.7994 76.2292 18.1931L75.2178 18.8954L73.2376 15.5757C72.1411 13.7562 71.2681 12.2453 71.2894 12.224C71.3107 12.2028 71.5555 12.3624 71.8536 12.5645C72.1411 12.7773 72.4498 12.9476 72.5243 12.9476C72.6095 12.9369 73.6848 12.5858 74.9091 12.1496C76.144 11.7239 77.198 11.3622 77.2512 11.3622C77.3151 11.3515 77.5174 11.6495 77.709 12.0219ZM104.921 11.5643C105.006 11.6495 104.921 12.4156 104.825 12.4156C104.718 12.4156 102.461 12.0857 102.249 12.0432C102.057 12.0006 102.004 11.9155 102.004 11.6601V11.3196L103.42 11.4047C104.186 11.4473 104.868 11.5218 104.921 11.5643ZM139.521 12.639C141.522 13.288 143.162 13.82 143.162 13.8307C143.194 13.8626 142.055 18.8209 142.012 18.8528C141.959 18.906 134.805 17.2461 134.719 17.1717C134.656 17.0972 135.763 11.4579 135.848 11.4579C135.869 11.4579 137.519 11.99 139.521 12.639ZM95.9779 13.0114C97.5961 13.703 98.9163 14.3095 98.9163 14.3414C98.9163 14.384 97.4258 15.714 95.616 17.31L92.3156 20.2041L91.3788 19.3529C90.8677 18.8847 90.048 18.0867 89.5583 17.5973L88.6746 16.6929L90.7293 14.1924C91.8685 12.8092 92.8479 11.7027 92.9118 11.7239C92.9757 11.7452 94.3491 12.3198 95.9779 13.0114ZM147.995 11.8836C148.836 12.0006 149.528 12.107 149.55 12.1176C149.56 12.1389 149.816 12.9156 150.103 13.8413C150.518 15.1501 150.625 15.5863 150.54 15.7353C150.476 15.8523 150.359 15.9161 150.274 15.8842C150.188 15.8523 148.847 15.4161 147.293 14.9053C145.738 14.4053 144.482 13.9477 144.503 13.9052C144.525 13.8413 146.377 11.7346 146.462 11.6707C146.462 11.6707 147.154 11.7665 147.995 11.8836ZM111.99 12.1815L112.022 12.5326L110.712 12.5007L109.403 12.4688L109.371 12.1815L109.339 11.8942L110.435 11.8516C112.054 11.7984 111.958 11.7771 111.99 12.1815ZM87.9507 12.3198C87.9507 12.3836 88.0252 13.2668 88.121 14.2989C88.2701 15.9161 88.2701 16.1821 88.1317 16.3311C88.0465 16.4269 87.0351 17.6611 85.8747 19.0656C84.7142 20.4701 83.7561 21.6405 83.7348 21.6618C83.6922 21.7043 78.3691 17.0759 78.3797 16.9908C78.3797 16.9482 79.3273 16.2779 83.3196 13.5115C83.8945 13.1072 84.15 13.022 85.7682 12.6496C87.7803 12.1815 87.9507 12.1496 87.9507 12.3198ZM103.228 12.8305C104.431 13.0008 105.655 13.054 109.541 13.1178C114.311 13.1923 114.375 13.1923 114.46 13.4157C114.513 13.5434 114.726 14.5755 114.939 15.714C115.152 16.8525 115.343 17.8739 115.375 17.9803C115.439 18.1718 115.322 18.1825 112.362 18.108L109.296 18.0335L104.623 16.0225C102.046 14.916 99.9064 13.9796 99.8638 13.9371C99.8212 13.8839 99.7573 13.5753 99.7147 13.2348L99.6402 12.6284H100.694C101.269 12.6284 102.408 12.7241 103.228 12.8305ZM119.41 13.8626L123.562 14.4585L124.872 15.1501C125.585 15.5225 126.171 15.8842 126.171 15.9587C126.171 16.0225 126.064 16.6184 125.936 17.2781L125.702 18.4804H125.106C123.424 18.491 116.206 18.225 116.131 18.1612C116.078 18.1186 115.854 17.1078 115.62 15.9161C115.397 14.7244 115.184 13.6392 115.152 13.5008C115.12 13.3732 115.13 13.2668 115.173 13.2668C115.226 13.2668 117.132 13.5328 119.41 13.8626ZM147.165 15.1181L150.316 16.1396L149.358 18.1399C148.836 19.2358 148.368 20.1722 148.325 20.2147C148.251 20.2892 142.917 19.1507 142.757 19.023C142.693 18.9698 143.62 14.5755 143.79 14.1392C143.822 14.0648 143.875 14.0222 143.918 14.0435C143.971 14.0754 145.43 14.5542 147.165 15.1181ZM100.545 17.2887L101.365 19.9168V22.13V24.3324H100.385C99.8425 24.3324 98.352 24.3644 97.0851 24.4069L94.7643 24.4708V23.577V22.6832L93.7529 21.6724L92.7521 20.6616L96.1802 17.6611C98.0646 16.0119 99.6296 14.6606 99.6615 14.65C99.6935 14.65 100.087 15.831 100.545 17.2887ZM102.217 15.6927C103.303 16.1609 104.314 16.5971 104.484 16.6716L104.772 16.8099L104.75 20.5446L104.718 24.2792H103.196H101.674V22.1832L101.663 20.0764L100.896 17.6611C100.471 16.3205 100.087 15.1181 100.045 14.9798C99.9809 14.7883 99.9915 14.7351 100.098 14.7776C100.183 14.8202 101.131 15.2245 102.217 15.6927ZM130.429 16.895C132.271 17.3206 133.804 17.6718 133.825 17.693C133.9 17.7569 133.357 20.2041 133.25 20.2467C133.165 20.2892 126.905 18.8102 126.426 18.64C126.33 18.6187 126.341 18.4378 126.437 17.9803C126.522 17.6398 126.639 17.0865 126.703 16.7461C126.767 16.4162 126.884 16.1396 126.948 16.1396C127.012 16.1396 128.587 16.4801 130.429 16.895ZM152.083 20.1615C152.712 22.1725 153.201 23.843 153.169 23.8749C153.137 23.9068 152.509 24.0771 151.775 24.2367L150.423 24.5452L148.922 24.1622C148.091 23.96 147.399 23.7685 147.378 23.7579C147.367 23.7366 148.006 22.3853 148.804 20.7574C149.603 19.1294 150.391 17.4802 150.561 17.1078C150.731 16.7354 150.891 16.4481 150.912 16.4694C150.934 16.4907 151.455 18.1506 152.083 20.1615ZM91.9962 20.4063C91.9962 20.4807 87.3438 24.5772 87.2054 24.6304C87.0883 24.6729 84.2139 22.1938 84.2458 22.0874C84.2671 22.0448 85.2359 20.8531 86.3963 19.438L88.5256 16.8737L90.2609 18.6081C91.2191 19.555 91.9962 20.3743 91.9962 20.4063ZM107.146 17.8101L108.817 18.523V21.0021C108.817 22.5875 108.86 23.4812 108.924 23.4812C108.988 23.4812 109.03 22.9705 109.03 22.1512V20.8212H110.68H112.331V22.0448C112.331 23.6408 112.522 23.6621 112.565 22.0661L112.597 20.8744L114.247 20.8425L115.897 20.8212L116.429 22.2683C116.727 23.0663 116.983 23.7685 116.994 23.8111C117.015 23.8643 116.025 23.9068 114.79 23.9068H112.533L111.521 24.5452L110.51 25.1837H108.807C107.753 25.1837 107.114 25.2262 107.114 25.2901C107.114 25.3539 107.774 25.3965 108.87 25.3965H110.627L111.617 24.758L112.618 24.1196H114.864H117.1L117.27 24.6197C117.366 24.8964 117.441 25.1517 117.441 25.2049C117.441 25.2581 116.408 25.2901 115.152 25.2794L112.873 25.2688L111.809 25.9391C111.223 26.3115 110.734 26.6839 110.734 26.7477C110.734 26.8222 110.744 26.8861 110.766 26.8861C110.787 26.8861 111.266 26.5775 111.851 26.1945L112.895 25.5029H115.248H117.6L118.165 27.0669C118.463 27.9182 118.708 28.631 118.686 28.6523C118.601 28.7374 105.485 28.9183 105.4 28.8332C105.336 28.7694 105.304 27.2053 105.325 25.0134L105.357 21.3L106.582 21.2468C108.029 21.183 107.934 21.0447 106.422 21.0127L105.357 20.9808L105.336 19.0337C105.325 17.9697 105.347 17.0972 105.389 17.0972C105.432 17.0972 106.22 17.4164 107.146 17.8101ZM80.871 19.5338C82.4466 20.917 83.4686 21.8746 83.4367 21.9597C83.3728 22.13 81.3181 24.641 81.2436 24.641C81.2116 24.641 80.1364 23.843 78.8482 22.8641L76.5167 21.0872L75.9524 20.1296C75.6437 19.6082 75.3988 19.1401 75.4094 19.0975C75.4627 18.9592 77.9965 17.2142 78.1242 17.2355C78.1988 17.2461 79.4337 18.2782 80.871 19.5338ZM138.116 18.64C140.064 19.0869 141.714 19.4699 141.778 19.4912C141.863 19.5125 141.799 19.97 141.586 20.8957C141.416 21.6405 141.267 22.2683 141.256 22.2789C141.246 22.2789 140.777 22.1725 140.224 22.0342C139.67 21.8959 138.041 21.4915 136.615 21.1404C135.188 20.7893 134.006 20.4914 133.985 20.4701C133.974 20.4595 134.017 20.1403 134.102 19.7572C134.177 19.3742 134.294 18.789 134.368 18.4485C134.432 18.1186 134.507 17.842 134.528 17.842C134.549 17.842 136.167 18.2038 138.116 18.64ZM68.3084 18.7145C68.351 18.7464 68.8514 19.5444 69.4263 20.4701C70.246 21.7788 70.4483 22.1832 70.3525 22.2789C70.0863 22.5343 67.1586 24.5452 67.116 24.5027C67.0522 24.4388 66.8605 18.7783 66.9138 18.64C66.9564 18.523 68.1807 18.5868 68.3084 18.7145ZM110.904 18.6932H112.331V19.6508V20.6084H110.68H109.03V19.6721C109.03 18.6932 109.073 18.5442 109.328 18.64C109.403 18.6719 110.116 18.6932 110.904 18.6932ZM115.62 19.3103C115.673 19.587 115.759 19.9913 115.791 20.2147L115.865 20.6191L114.236 20.5871L112.597 20.5552L112.565 19.7679C112.543 19.3316 112.554 18.9273 112.575 18.8634C112.607 18.789 113.086 18.757 114.066 18.7783L115.514 18.8102L115.62 19.3103ZM121.699 19.0124L125.585 19.1294L127.64 19.6082C128.864 19.8955 129.684 20.1403 129.684 20.2147C129.684 20.2892 129.183 22.1832 128.587 24.4388L127.48 28.5353L123.498 28.6098C121.305 28.6417 119.485 28.6417 119.442 28.6098C119.272 28.4395 118.005 24.7474 118.101 24.6942C118.26 24.5878 118.346 24.7474 118.665 25.8221C118.825 26.3753 118.974 26.8435 118.995 26.8648C119.016 26.8967 120.411 26.5243 121.997 26.0668C122.317 25.9817 122.53 25.8646 122.476 25.8221C122.434 25.7689 121.699 25.9178 120.858 26.1519C119.314 26.5775 119.038 26.5988 119.038 26.3115C119.038 26.2051 119.346 26.0561 119.974 25.8646C122.061 25.2262 122.923 24.9708 122.998 24.9708C123.041 24.9708 123.243 25.1198 123.456 25.3007C123.743 25.5561 123.892 25.6199 124.095 25.5667C124.244 25.5241 124.361 25.4497 124.361 25.3858C124.361 25.322 124.265 25.2901 124.148 25.322C124.009 25.3539 123.786 25.2581 123.498 25.0241L123.062 24.6836L121.55 25.1411C120.73 25.3965 120.017 25.6093 119.974 25.6093C119.868 25.6093 119.453 24.3005 119.538 24.2154C119.591 24.1835 120.028 24.0132 120.528 23.8536C121.028 23.694 121.476 23.5238 121.529 23.4706C121.806 23.2152 121.38 23.311 119.996 23.8004C119.155 24.0877 118.463 24.3218 118.441 24.3112C118.399 24.2473 118.079 23.1195 118.079 22.9918C118.079 22.928 118.207 22.8322 118.367 22.7896C118.889 22.6619 119.378 22.4279 119.314 22.3215C119.261 22.247 117.909 22.6513 117.781 22.7896C117.76 22.8109 117.845 23.1514 117.962 23.5664C118.09 23.9707 118.186 24.3324 118.186 24.375C118.186 24.492 117.888 24.4388 117.835 24.3005C117.153 22.5023 116.514 20.5659 116.376 19.8317L116.195 18.906H117.004C117.451 18.906 119.559 18.9592 121.699 19.0124ZM75.7608 20.2573L76.3676 21.3L78.6991 23.045C79.9873 24.0132 81.0306 24.8219 81.0306 24.8644C81.0306 24.8964 80.7006 25.3326 80.2854 25.8327L79.5402 26.7477L80.8497 28.0352L82.1485 29.3333H80.6367H79.1356L75.6862 26.7797C72.3433 24.2899 72.2262 24.1941 71.5768 23.2897C71.2148 22.779 70.9274 22.3215 70.9487 22.2576C70.9806 22.1832 75.0155 19.2678 75.1433 19.2252C75.1539 19.2252 75.4307 19.6934 75.7608 20.2573ZM145.334 20.2892C146.707 20.5978 147.868 20.8744 147.91 20.917C147.974 20.9702 147.016 23.045 146.739 23.4706C146.654 23.5876 146.228 23.5132 144.365 23.0556C143.109 22.7471 142.044 22.4598 142.001 22.4172C141.916 22.3428 142.395 19.97 142.534 19.7253C142.566 19.6721 142.64 19.6614 142.715 19.6827C142.779 19.704 143.96 19.9807 145.334 20.2892ZM138.265 22.2044C142.576 23.2578 146.143 24.1516 146.185 24.1728C146.228 24.2048 145.472 25.5454 144.503 27.1627L142.747 30.11L142.374 29.1737L142.001 28.2374L139.915 28.3118C136.103 28.4289 128.193 28.514 128.193 28.4289C128.193 28.365 128.577 26.9286 130.131 21.1085C130.259 20.6616 130.376 20.2892 130.386 20.2892C130.408 20.2892 133.953 21.1511 138.265 22.2044ZM93.6145 21.8533L94.5513 22.7896V23.6089V24.4388H93.0396C92.1985 24.4388 90.8252 24.4708 89.9841 24.5133C88.9727 24.5559 88.4723 24.5452 88.4936 24.4708C88.5575 24.3112 92.4434 20.9276 92.5711 20.9276C92.635 20.9276 93.1034 21.3426 93.6145 21.8533ZM85.7469 23.7898C86.375 24.3324 86.8861 24.8112 86.8861 24.8538C86.8861 24.8857 86.3644 25.4071 85.715 26.0136C84.9591 26.7265 84.5013 27.0882 84.4161 27.035C84.3416 26.9925 83.7135 26.5243 83.0215 26.0136C81.7652 25.0666 81.7652 25.0666 81.9569 24.8325C82.0633 24.6942 82.5743 24.0771 83.0854 23.4493L84.0329 22.3108L84.3203 22.5449C84.4694 22.6832 85.1188 23.2365 85.7469 23.7898ZM71.3532 23.3855C72.024 24.3431 72.0665 24.375 75.3349 26.8009C77.1554 28.1522 78.6459 29.2907 78.6672 29.3333C78.6885 29.3758 78.0816 29.4184 77.3364 29.429C76.5912 29.429 73.9935 29.4716 71.5875 29.5035L67.1906 29.578V28.8332C67.1906 28.4289 67.1586 27.3755 67.1267 26.503L67.0522 24.907L68.7981 23.6728C69.7563 22.9918 70.5761 22.4279 70.608 22.4279C70.6399 22.4172 70.9806 22.8535 71.3532 23.3855ZM119.421 24.8857C119.517 25.1943 119.623 25.5029 119.644 25.5667C119.676 25.6625 119.176 25.9285 118.974 25.9285C118.931 25.9285 118.505 24.6197 118.537 24.5878C118.58 24.5452 119.08 24.3431 119.165 24.3431C119.197 24.3324 119.314 24.5878 119.421 24.8857ZM148.847 24.8006L150.497 25.1943L151.828 24.8857C152.563 24.7155 153.169 24.5878 153.191 24.5984C153.233 24.641 145.227 36.0897 145.131 36.1217C145.078 36.1323 144.919 35.8237 144.77 35.43C144.62 35.0364 144.173 33.8447 143.769 32.7913L143.034 30.8761L144.993 27.5989C146.09 25.7689 147.005 24.3431 147.08 24.3644C147.144 24.3856 147.942 24.5878 148.847 24.8006ZM101.365 26.5243C101.365 28.0458 101.397 28.4927 101.493 28.4608C101.578 28.4289 101.631 28.1735 101.631 27.7266L101.642 27.0457H102.6H103.547L103.569 27.9714L103.579 28.8864L102.823 28.9609C102.398 28.9928 101.461 29.0141 100.726 28.9928L99.3954 28.9609L99.3634 26.8861C99.3528 25.7476 99.3634 24.758 99.3847 24.6836C99.4273 24.5878 99.7254 24.5452 100.407 24.5452H101.365V26.5243ZM103.547 25.6625V26.7265H102.6H101.652L101.663 25.6625C101.674 25.0773 101.674 24.5878 101.684 24.5665C101.684 24.5559 102.099 24.5559 102.621 24.5665L103.547 24.5984V25.6625ZM104.75 25.6305L104.718 26.7265L104.271 26.7584L103.814 26.7903V25.6731V24.5452H104.293H104.782L104.75 25.6305ZM94.53 26.8648C94.5513 28.5353 94.53 29.0247 94.4236 29.0673C94.2426 29.1205 83.5431 29.3226 83.4793 29.2588C83.4154 29.2056 85.8747 26.7265 87.0777 25.6518L88.0678 24.758L89.9522 24.7261C90.9849 24.7155 92.4327 24.6942 93.1673 24.7048H94.4981L94.53 26.8648ZM99.1292 26.8329V29.0141H98.4053C98.0007 29.0141 97.0213 29.046 96.2228 29.0886L94.7643 29.1524V26.9073V24.6516H96.9467H99.1292V26.8329ZM83.0321 26.3009C83.7454 26.8222 84.3203 27.301 84.331 27.3542C84.331 27.4074 83.9796 27.8011 83.5644 28.2267L82.7873 29.0034L81.5842 27.865L80.3812 26.7265L80.9881 26.0029C81.3181 25.6093 81.6268 25.2901 81.6694 25.3113C81.712 25.3326 82.3188 25.7689 83.0321 26.3009ZM104.75 27.9714L104.782 28.9077H104.293H103.814V27.9394V26.9818L104.271 27.0137L104.718 27.0457L104.75 27.9714ZM143.045 34.9725C144.141 37.8453 145.025 40.2181 144.993 40.2394C144.908 40.3245 139.542 42.4206 139.425 42.4099C139.372 42.4099 138.201 41.1544 136.838 39.6222C135.475 38.0901 134.07 36.5047 133.697 36.1004L133.037 35.3662L131.664 35.196L130.291 35.0257L129.865 33.7702C129.631 33.068 129.492 32.4721 129.535 32.4189C129.588 32.3657 130.972 31.7911 132.612 31.1315C135.986 29.7695 135.805 29.8121 139.116 29.7802L141.043 29.7589L143.045 34.9725ZM134.996 29.9078C134.975 29.9291 133.697 30.4505 132.164 31.0676L129.375 32.1848L129.002 31.0783L128.64 29.9823L129.875 29.9398C132.079 29.8866 135.039 29.8653 134.996 29.9078ZM124.68 30.0568C124.68 30.1845 119.815 32.238 119.687 32.1529C119.538 32.0678 118.186 30.2909 118.186 30.1845C118.186 30.1419 119.591 30.0994 121.295 30.0887C123.009 30.0781 124.435 30.0462 124.457 30.0142C124.531 29.9398 124.68 29.961 124.68 30.0568ZM128.353 31.1527C128.577 31.8018 128.704 32.3657 128.662 32.4189C128.609 32.4721 126.469 33.3446 123.903 34.366L119.251 36.2281L118.793 35.6322C118.537 35.2917 117.568 33.9936 116.642 32.7381C115.716 31.4826 114.918 30.3867 114.854 30.3122C114.779 30.2164 115.077 30.1845 116.291 30.1845H117.835L118.718 31.3549C119.208 31.9933 119.644 32.5253 119.676 32.5253C119.74 32.5253 123.307 30.9931 124.999 30.2377C125.511 30.0142 125.745 29.9717 126.777 29.9717H127.959L128.353 31.1527ZM116.195 34.5682C117.973 36.9835 119.463 39.0264 119.506 39.1009C119.559 39.1966 119.272 39.3775 118.484 39.7499C109.531 43.9208 107.029 45.0806 106.975 45.0806C106.933 45.0806 106.784 44.8359 106.635 44.5486L106.358 44.006L107.614 43.4101C108.306 43.0909 109.222 42.6653 109.648 42.4631C110.063 42.2716 110.414 42.0588 110.414 42.0056C110.414 41.9418 110.393 41.8886 110.372 41.8886C110.35 41.8886 109.413 42.3142 108.296 42.8355L106.262 43.7932L105.9 43.0271C105.709 42.6015 104.293 39.6329 102.76 36.4302C101.227 33.2169 100.002 30.5569 100.034 30.525C100.077 30.4824 102.962 30.3973 106.454 30.3335C109.946 30.2696 112.842 30.2164 112.884 30.2058C112.927 30.1951 114.407 32.1635 116.195 34.5682ZM101.599 34.5363C102.642 36.7281 103.494 38.5476 103.494 38.5795C103.494 38.654 97 41.6226 96.8616 41.6226C96.7551 41.6226 94.9665 37.8453 95.0198 37.7496C95.0517 37.7177 96.4783 36.9941 98.2136 36.1536C99.949 35.313 101.365 34.5682 101.365 34.4937C101.365 34.4299 101.301 34.3022 101.237 34.2064C101.109 34.0468 100.758 34.1958 97.9581 35.5684C96.2334 36.4089 94.7749 37.0899 94.7217 37.0686C94.5939 37.0261 92.0814 31.7699 92.1559 31.6954C92.1772 31.6635 92.7415 31.3868 93.4015 31.0783L94.6046 30.5143L97.149 30.5356L99.6935 30.5569L101.599 34.5363ZM91.5491 31.0995L91.7833 31.5783L90.7506 32.0678C90.1757 32.3338 89.3666 32.7062 88.9514 32.8977L88.1849 33.2488L87.94 32.7062L87.6845 32.1635L86.0982 31.6635C84.6716 31.2059 84.3416 31.0463 84.331 30.8016C84.331 30.7271 85.172 30.7059 89.718 30.6314L91.3149 30.6101L91.5491 31.0995ZM92.965 31.0357C92.4753 31.2698 92.0601 31.4613 92.0388 31.4613C92.0175 31.4613 91.9004 31.2698 91.7833 31.0357L91.5704 30.6101H92.7095L93.8593 30.6207L92.965 31.0357ZM86.4709 36.4728C88.0465 39.6435 89.324 42.2503 89.2921 42.2823C89.2708 42.3035 89.1324 42.261 88.994 42.1652C88.8663 42.0801 86.7902 40.9097 84.3842 39.569L80.0193 37.1325L78.5075 34.1107C77.6771 32.4508 76.9957 31.0251 76.9957 30.9612C76.9851 30.8548 77.5813 30.8229 79.4657 30.791C80.8177 30.7803 82.3082 30.7591 82.7553 30.7378L83.5857 30.7165L86.4709 36.4728ZM77.5387 33.6425C78.2839 35.164 79.0292 36.6643 79.1889 36.9835C79.4869 37.5581 79.4869 37.5581 81.9356 38.9306C83.2876 39.6861 84.4268 40.3458 84.4694 40.3883C84.512 40.4309 83.7774 42.261 82.8405 44.4528C81.893 46.6447 81.0519 48.5812 80.9774 48.7727L80.839 49.1132L79.3592 48.4429L77.89 47.7832L77.5813 46.8469L77.2832 45.9105L78.3052 42.2823C78.8801 40.2819 79.3805 38.505 79.4337 38.3454L79.5295 38.0475L76.2824 38.122L73.0247 38.1965L73.3547 37.5474C73.5357 37.1857 73.6848 36.8026 73.6848 36.6962C73.6848 36.5898 73.3228 35.2598 72.8863 33.7489C72.4498 32.2274 72.0878 30.9719 72.0878 30.9612C72.0878 30.9399 75.5904 30.8655 76.0269 30.8761C76.1334 30.8761 76.6763 31.8869 77.5387 33.6425ZM72.6627 33.834L73.4931 36.7388L73.1418 37.441C72.8118 38.1114 72.7798 38.1433 72.3433 38.2071C71.9388 38.2603 71.7152 38.1858 70.3738 37.5687C69.5327 37.1963 68.8301 36.8665 68.8194 36.8452C68.7981 36.8239 68.5426 35.6003 68.2552 34.1213C67.9677 32.6423 67.7016 31.3443 67.6697 31.2379C67.5951 31.0251 67.8081 31.0038 70.7145 30.9506L71.8323 30.9293L72.6627 33.834ZM88.6427 34.9193C89.2495 36.3238 89.8031 37.4836 89.867 37.5049C90.0373 37.5687 89.9948 37.4304 89.0792 35.3024C88.6427 34.3022 88.3233 33.4616 88.3659 33.4297C88.4191 33.4084 89.2282 33.0254 90.1757 32.5891L91.9004 31.7911L92.1027 32.238C92.2092 32.4827 92.7734 33.7064 93.3696 34.9619C93.9658 36.2174 94.4342 37.2495 94.4236 37.2601C94.3597 37.324 91.8365 38.5582 90.4206 39.2392L88.9088 39.9627L86.8328 35.8237C85.6937 33.5361 84.7568 31.6315 84.7568 31.5783C84.7568 31.5251 85.3849 31.6847 86.1515 31.9295L87.5461 32.3657L88.6427 34.9193ZM149.539 34.3448C150.22 36.0578 150.295 36.3132 150.146 36.377C150.05 36.4302 149.028 36.8133 147.889 37.2495L145.813 38.0369L145.632 37.6432C145.536 37.4304 145.451 37.175 145.451 37.0793C145.44 36.8877 148.623 32.2593 148.698 32.3444C148.73 32.3657 149.103 33.2701 149.539 34.3448ZM129.332 34.1639L129.801 35.6003L130.248 35.6641C130.493 35.6961 131.153 35.7812 131.717 35.8557L132.739 35.9833L135.539 39.1222C137.083 40.8459 138.435 42.3674 138.541 42.4844L138.744 42.7079L136.689 43.5165C135.561 43.9634 133.91 44.6124 133.027 44.9529L131.409 45.5807L126.373 42.3248L121.327 39.0583L120.4 37.8453C119.889 37.175 119.474 36.5685 119.474 36.5047C119.463 36.3877 128.726 32.6104 128.821 32.6955C128.843 32.7168 129.066 33.3765 129.332 34.1639ZM150.636 37.1218C150.763 37.4304 150.88 37.7496 150.891 37.8241C150.923 37.973 146.665 39.6967 146.462 39.6222C146.398 39.5903 146.239 39.2818 146.111 38.9094L145.866 38.2497L146.196 38.1326C146.377 38.0581 147.357 37.6857 148.357 37.3027C149.358 36.909 150.231 36.5898 150.295 36.5792C150.369 36.5685 150.518 36.8239 150.636 37.1218ZM71.3532 38.7178C71.5875 38.7923 71.6407 38.8987 71.6939 39.2924C71.7365 39.6861 71.6726 39.9414 71.3852 40.6118C71.1829 41.0693 71.0232 41.5481 71.0232 41.6651C71.0232 41.7928 71.119 42.3461 71.2468 42.8994L71.4597 43.9102L71.0126 44.7188C70.7145 45.2721 70.5441 45.4849 70.4909 45.3892C70.4483 45.304 70.3419 44.8359 70.246 44.3358C70.1502 43.8357 69.8308 42.1971 69.5327 40.6862C69.2453 39.186 69.0004 37.8773 69.0004 37.7921C69.0004 37.6857 69.2879 37.7709 70.0438 38.122C70.608 38.388 71.2042 38.654 71.3532 38.7178ZM97.0958 42.8568C98.1497 45.1125 99.0227 47.0065 99.0227 47.0703C99.0227 47.1235 98.2669 47.5278 97.3513 47.9534C96.4251 48.379 95.254 48.943 94.743 49.1877C94.0616 49.5175 93.7848 49.6026 93.7209 49.5175C93.5506 49.3047 89.2176 40.5905 89.2602 40.5479C89.2815 40.5266 90.5164 39.9095 92.0069 39.186L94.711 37.8666L94.9346 38.3029C95.0623 38.5476 96.0312 40.6011 97.0958 42.8568ZM78.4649 39.4094C78.3584 39.8138 77.7729 41.8673 77.1661 43.9847L76.0589 47.8364L76.5699 51.7519C76.8573 53.9012 77.0809 55.7632 77.0809 55.8803C77.0809 56.0292 76.8999 56.2101 76.4954 56.4548C76.176 56.6464 75.8885 56.7847 75.8779 56.7741C75.8566 56.7528 74.8346 55.1568 73.5889 53.2309L71.3319 49.7303L70.9487 47.8577L70.5761 45.985L71.1297 44.9848L71.6833 43.9847L71.4491 42.793L71.2148 41.6013L71.5981 40.6969C71.8962 40.0266 71.9814 39.6861 71.9601 39.3243L71.9281 38.8562L73.6848 38.8242C74.6536 38.8136 75.7288 38.7817 76.0802 38.771C76.4315 38.7498 77.1554 38.7285 77.6984 38.7178L78.6672 38.6966L78.4649 39.4094ZM104.346 40.3138C104.718 41.0906 105.251 42.2078 105.538 42.7823C105.815 43.3675 106.028 43.857 106.007 43.8783C105.932 43.9528 102.611 45.5062 102.589 45.4849C102.483 45.336 100.279 40.3883 100.311 40.3564C100.407 40.2713 103.452 38.9094 103.558 38.9094C103.622 38.9094 103.973 39.5478 104.346 40.3138ZM126.352 44.0379C129.439 46.0382 132.005 47.7087 132.037 47.7619C132.143 47.9215 133.527 59.2638 133.442 59.3383C133.335 59.4234 117.994 60.4555 116.749 60.4555H115.801L112.416 53.2203C110.563 49.2409 109.041 45.9318 109.041 45.868C109.03 45.7616 120.336 40.4202 120.603 40.4096C120.666 40.399 123.254 42.0375 126.352 44.0379ZM86.2473 41.3672L86.5028 41.5375L85.896 42.9632C85.5553 43.7506 85.2359 44.4635 85.1827 44.5486C85.1081 44.6656 84.9697 44.6444 84.3523 44.3996C83.9477 44.24 83.5538 44.0592 83.4793 44.0166C83.3622 43.9421 83.4899 43.5591 84.0542 42.2291L84.7781 40.5266L85.3849 40.8565C85.7256 41.048 86.1089 41.2715 86.2473 41.3672ZM101.216 43.0271C101.833 44.389 102.312 45.5381 102.28 45.5913C102.217 45.7084 99.3528 47.049 99.2995 46.9852C99.2463 46.9213 97.0106 42.1439 96.9787 42.0056C96.9467 41.8886 99.8531 40.4841 100.013 40.5373C100.066 40.5479 100.609 41.6758 101.216 43.0271ZM145.579 41.5907C146.356 43.5591 148.23 48.5067 148.198 48.528C147.974 48.6769 145.366 49.7622 145.217 49.7622C145.1 49.7622 144.45 49.6133 143.779 49.4324C142.598 49.1238 142.544 49.1132 142.001 49.2728C141.703 49.3579 141.416 49.4005 141.384 49.3579C141.309 49.2834 139.862 45.4424 139.361 43.9953C139.223 43.6016 139.138 43.2718 139.159 43.2399C139.287 43.1441 144.982 40.9523 145.131 40.9416C145.259 40.931 145.398 41.1438 145.579 41.5907ZM87.8868 42.2716C88.483 42.6015 88.9727 42.8781 88.9834 42.8887C89.0047 42.91 88.8875 43.2079 88.7385 43.5591L88.4617 44.2081L87.3545 44.7082L86.2473 45.2189L85.8214 45.0274C85.5872 44.921 85.3956 44.804 85.3956 44.772C85.3956 44.6444 86.7051 41.6758 86.7583 41.6758C86.7902 41.6758 87.3013 41.9418 87.8868 42.2716ZM89.6647 43.2612C89.9948 43.4207 91.3575 46.0808 91.1978 46.2297C91.0168 46.3893 87.1842 48.0811 87.1309 48.0279C87.099 47.996 87.5248 46.9533 88.0571 45.6977C89.175 43.1122 89.2176 43.0377 89.3134 43.0803C89.356 43.1015 89.5157 43.176 89.6647 43.2612ZM139.979 46.3681C140.979 49.0494 141.15 49.5494 141.033 49.5494C141.011 49.5494 139.894 49.8367 138.563 50.1985C136.093 50.8582 134.081 51.2838 134.006 51.1561C133.985 51.1242 133.857 50.2517 133.74 49.2302C133.612 48.2088 133.485 47.2618 133.463 47.1341C133.431 46.9958 133.133 46.7085 132.75 46.4532L132.09 46.0063L134.113 45.2189C135.22 44.7827 136.7 44.1975 137.402 43.9208C138.105 43.6336 138.722 43.4101 138.786 43.4207C138.84 43.442 139.383 44.7614 139.979 46.3681ZM106.433 44.6656C106.582 44.9636 106.688 45.2189 106.667 45.2402C106.613 45.2828 94.4768 50.9326 94.4236 50.9326C94.3491 50.9326 93.87 49.8793 93.9232 49.8261C93.9445 49.8048 95.0836 49.2728 96.457 48.6344C97.8304 47.996 100.535 46.7298 102.472 45.8041C104.41 44.8891 106.028 44.1336 106.071 44.1336C106.113 44.123 106.273 44.3677 106.433 44.6656ZM84.1713 44.5592C84.6078 44.7508 84.9697 44.9423 84.9697 45.0061C84.9697 45.0593 84.6078 45.9531 84.1606 46.9852C83.7135 48.0173 83.277 49.0068 83.2025 49.1983L83.0534 49.5282L82.1804 49.1983C81.6907 49.0174 81.2755 48.8578 81.2542 48.8472C81.1797 48.7834 83.1812 44.2294 83.277 44.2294C83.3302 44.2294 83.7348 44.3784 84.1713 44.5592ZM87.461 46.4957L86.6518 48.3577L86.1621 48.5599C85.8853 48.6663 85.6405 48.7621 85.6085 48.7727C85.5766 48.794 85.3211 48.3577 85.0336 47.8045L84.5013 46.8149L84.8633 45.9424C85.0656 45.4743 85.2678 45.0806 85.3317 45.0912C85.3956 45.0912 85.6405 45.1764 85.8747 45.2828L86.2899 45.4743L87.2587 45.0168C87.7803 44.772 88.2275 44.5805 88.2488 44.6018C88.2594 44.6124 87.9081 45.4636 87.461 46.4957ZM109.616 48.6876C110.542 50.6986 110.744 51.1987 110.616 51.2731C109.924 51.6881 101.099 55.8164 101.035 55.7526C100.865 55.5717 98.5969 50.6773 98.6608 50.6241C98.8098 50.4645 108.349 46.0701 108.402 46.134C108.434 46.1659 108.977 47.315 109.616 48.6876ZM92.2624 48.0598L93.0715 49.6665L92.5073 49.9112C92.1985 50.0495 90.3141 50.9326 88.3339 51.8796C86.3431 52.8266 84.7142 53.582 84.7036 53.5607C84.661 53.5182 86.7796 48.6557 86.8861 48.5386C87.0245 48.4109 91.1445 46.4851 91.3255 46.4745C91.4001 46.4638 91.8259 47.1873 92.2624 48.0598ZM85.2891 48.8578C85.2891 48.9749 83.8093 49.6558 83.5431 49.6558C83.2876 49.6558 83.3196 49.4962 83.8732 48.2407L84.3629 47.0809L84.8207 47.9215C85.0762 48.379 85.2891 48.794 85.2891 48.8578ZM77.1874 47.7725L77.3258 48.2407L78.7736 48.8791L80.2322 49.5282L81.5842 51.9647L82.947 54.3907L81.2649 55.21C80.3493 55.6568 79.2847 56.1569 78.912 56.3165L78.2307 56.6145L77.9858 56.3059C77.8474 56.125 77.7303 55.9122 77.7303 55.8271C77.7197 55.742 77.4961 53.9225 77.2193 51.7839C76.8254 48.8366 76.7296 47.8151 76.8041 47.5597C76.9425 47.1341 77.0277 47.1873 77.1874 47.7725ZM86.4602 48.7621C86.4602 48.794 85.9811 49.9431 85.3849 51.305C84.3736 53.6352 84.299 53.7842 83.9371 53.9544C83.4899 54.1672 83.5857 54.263 82.8299 52.8691L82.2869 51.8796L82.7234 50.9007C83.096 50.0602 83.1918 49.9218 83.3941 49.9431C83.5325 49.9431 84.2352 49.6771 84.9697 49.3366C86.3325 48.6982 86.4602 48.6557 86.4602 48.7621ZM148.655 49.6026C148.868 50.1878 148.911 50.4219 148.815 50.4538C148.741 50.4751 147.559 50.7624 146.185 51.0922C144.812 51.4221 143.609 51.72 143.513 51.7413C143.375 51.7839 143.279 51.5711 143.055 50.656C142.896 50.0282 142.789 49.4962 142.821 49.475C142.843 49.443 143.407 49.5707 144.077 49.7516L145.281 50.0708L146.665 49.4537C147.431 49.1026 148.123 48.8259 148.208 48.8153C148.315 48.8046 148.464 49.0706 148.655 49.6026ZM82.9257 49.7197C82.947 49.7303 82.7873 50.1559 82.5637 50.6666C82.3508 51.1667 82.1379 51.5498 82.0953 51.4966C82.042 51.454 81.7652 50.9646 81.4671 50.4219C81.0306 49.6346 80.9455 49.3898 81.0306 49.2409C81.1265 49.0494 81.169 49.0494 82.0101 49.3686C82.4998 49.5494 82.9044 49.709 82.9257 49.7197ZM143.354 52.9223C143.811 54.8482 144.205 56.508 144.227 56.6251C144.28 56.8166 144.109 56.8805 142.31 57.3273L140.33 57.8168L140.234 57.4337C139.798 55.7526 138.605 50.4858 138.659 50.4432C138.722 50.3687 142.129 49.4643 142.363 49.4537C142.491 49.443 142.693 50.1772 143.354 52.9223ZM93.5932 50.7198C93.7103 50.9433 93.8061 51.1667 93.8061 51.1987C93.8061 51.2199 93.508 51.3902 93.146 51.5498C92.7734 51.72 89.6328 53.1883 86.1621 54.8056C82.6808 56.4229 79.8063 57.7423 79.7637 57.7423C79.6253 57.7423 79.2634 56.8592 79.3805 56.8166C79.4444 56.7953 82.5531 55.3164 86.3005 53.5395C90.048 51.7626 93.178 50.3049 93.2418 50.3049C93.3164 50.2942 93.4761 50.4858 93.5932 50.7198ZM139.202 54.0928C139.659 56.0718 140.043 57.7317 140.053 57.7849C140.064 57.8913 136.945 58.7105 136.881 58.6041C136.838 58.5297 135.561 51.8796 135.518 51.4859C135.486 51.2519 135.571 51.2093 136.817 50.8901C137.551 50.6879 138.201 50.5283 138.254 50.5177C138.318 50.5177 138.744 52.1243 139.202 54.0928ZM149.23 51.0922C149.326 51.3582 149.39 51.5923 149.369 51.6136C149.347 51.6349 148.059 51.9647 146.505 52.3371C144.631 52.7947 143.662 52.9862 143.609 52.9117C143.577 52.8479 143.513 52.6244 143.471 52.401C143.407 52.0818 143.428 52.0073 143.598 51.9541C143.705 51.9222 144.919 51.6349 146.292 51.2944C147.665 50.9646 148.815 50.6773 148.836 50.656C148.953 50.539 149.06 50.656 149.23 51.0922ZM100.311 54.8482L100.833 55.9548L99.044 56.806C98.0646 57.2741 96.6699 57.9445 95.946 58.2849L94.6365 58.9127L94.711 55.6888C94.7536 53.9225 94.8175 52.4435 94.8601 52.401C94.892 52.3584 95.6905 51.9647 96.6273 51.5285L98.3307 50.7305L99.0653 52.2414C99.4699 53.0713 100.034 54.2417 100.311 54.8482ZM135.316 51.8051C135.614 53.3054 136.604 58.5722 136.604 58.6573C136.604 58.7957 135.103 59.1574 135.007 59.051C134.9 58.934 134.006 51.5711 134.091 51.4966C134.145 51.4434 134.751 51.2944 135.081 51.2625C135.145 51.2625 135.252 51.4966 135.316 51.8051ZM113.129 56.2314C114.226 58.5935 115.099 60.5406 115.067 60.5726C115.045 60.6045 114.194 60.679 113.182 60.7428L111.34 60.8705L110.318 61.7217C109.754 62.1792 109.222 62.6367 109.126 62.7112C108.966 62.8389 108.902 62.7751 108.487 62.0728L108.019 61.2748L106.06 62.2218C104.985 62.7431 104.069 63.1687 104.037 63.1687C103.888 63.1687 100.79 56.7847 100.886 56.6889C101.077 56.4974 111 51.8158 111.064 51.8796C111.106 51.9115 112.032 53.8693 113.129 56.2314ZM149.731 52.3903C149.826 52.6563 149.901 52.8904 149.89 52.9011C149.741 53.0075 143.992 54.3162 143.928 54.2524C143.886 54.2098 143.843 53.9651 143.822 53.7097L143.79 53.2415L146.505 52.5712C147.995 52.2095 149.294 51.9009 149.379 51.9009C149.486 51.8903 149.614 52.0818 149.731 52.3903ZM94.1255 54.0076C94.1255 54.8908 94.0829 55.2951 93.9977 55.3696C93.8274 55.4866 88.3233 58.0615 88.2168 58.0615C88.0997 58.0615 87.1948 56.008 87.28 55.9228C87.3758 55.8271 93.9126 52.7627 94.051 52.7521C94.0935 52.7415 94.1255 53.3054 94.1255 54.0076ZM150.412 54.1672C150.636 54.7631 150.731 55.1461 150.657 55.1887C150.604 55.2206 149.901 55.4121 149.113 55.6143C148.08 55.8696 147.644 55.9441 147.591 55.859C147.463 55.6568 147.112 53.9119 147.176 53.8374C147.282 53.7416 149.614 53.1777 149.848 53.199C149.997 53.2203 150.135 53.465 150.412 54.1672ZM147.112 54.9652C147.25 55.5185 147.325 55.9973 147.282 56.0399C147.239 56.0824 146.675 56.242 146.026 56.4016C145.387 56.5613 144.78 56.7102 144.684 56.7421C144.557 56.7741 144.471 56.5719 144.269 55.7207C144.131 55.1355 144.046 54.6354 144.077 54.6035C144.163 54.5184 146.537 53.9225 146.707 53.9438C146.814 53.9544 146.952 54.3162 147.112 54.9652ZM94.0403 56.806L94.0084 57.9232L91.6556 59.0297C90.3567 59.6362 89.2708 60.147 89.2389 60.1682C89.1963 60.1789 88.9621 59.7746 88.7172 59.2638C88.4723 58.7531 88.302 58.3169 88.3446 58.2956C88.3978 58.2743 89.6754 57.6785 91.1978 56.9549C92.7202 56.2314 93.9871 55.6568 94.019 55.6781C94.051 55.6888 94.0616 56.1995 94.0403 56.806ZM87.4503 57.1252C87.7271 57.721 87.94 58.2211 87.9187 58.2317C87.8549 58.2956 86.2366 59.0191 86.1515 59.0191C86.0769 59.0191 85.2572 57.3699 85.1614 57.0294C85.1401 56.9337 86.6306 56.0824 86.8967 56.0505C86.9286 56.0399 87.1842 56.5293 87.4503 57.1252ZM151.615 56.54C151.615 56.5932 152.115 58.5403 152.722 60.8811C153.329 63.2219 153.808 65.1584 153.787 65.1797C153.617 65.3606 153.404 64.8392 152.956 63.19L152.435 61.2642L149.677 59.5405C148.166 58.5829 146.899 57.7849 146.877 57.7423C146.856 57.7104 147.878 57.4125 149.145 57.0933C151.839 56.391 151.615 56.4442 151.615 56.54ZM77.8581 57.1145C78.0816 57.3593 78.252 57.5614 78.2413 57.5721C78.22 57.5827 77.9326 57.721 77.5919 57.8806C77.2619 58.0402 76.9319 58.1679 76.8786 58.1679C76.8254 58.1679 76.6657 57.987 76.5273 57.7636L76.2718 57.3699L76.7615 57.0294C77.0277 56.8379 77.2938 56.6889 77.3577 56.6889C77.4109 56.6783 77.6452 56.8805 77.8581 57.1145ZM101.227 58.1253C101.557 58.7957 101.801 59.3596 101.78 59.3702C101.759 59.3915 100.971 59.7533 100.034 60.1789C99.0973 60.6045 98.3201 60.9662 98.2988 60.9769C98.2882 60.9982 98.6608 61.8174 99.1292 62.7963C99.5976 63.7752 99.9703 64.5945 99.949 64.6158C99.9383 64.6264 98.714 64.254 97.2342 63.7752L94.5513 62.9027L94.5726 61.2748L94.6046 59.6362L97.5323 58.2317C99.1398 57.455 100.503 56.8379 100.545 56.8592C100.588 56.8911 100.896 57.455 101.227 58.1253ZM79.3273 57.4231L79.5402 57.8381L79.2208 58.0083L78.912 58.1679L78.6885 57.7317C78.5607 57.4976 78.4756 57.2848 78.4968 57.2741C78.5927 57.189 78.9653 57.0081 79.0292 56.9975C79.0717 56.9975 79.2101 57.189 79.3273 57.4231ZM85.3424 58.0296C85.6085 58.5935 85.8108 59.1042 85.7895 59.1574C85.7789 59.2 85.3743 59.4341 84.8952 59.6575L84.0329 60.0618L83.607 59.1787C82.9363 57.7849 82.9044 57.9125 83.9264 57.4337C84.4161 57.1997 84.8207 57.0081 84.8313 57.0081C84.8526 56.9975 85.0762 57.4657 85.3424 58.0296ZM78.5607 58.0189C78.6885 58.2743 78.6672 58.2956 77.9858 58.6148C77.3151 58.9233 77.2832 58.934 77.1448 58.7425C77.0596 58.6254 76.9851 58.519 76.9851 58.4871C76.9851 58.4339 78.252 57.7636 78.3797 57.7529C78.4117 57.7423 78.4968 57.8593 78.5607 58.0189ZM149.347 59.6043L152.232 61.4131L152.765 63.3283C153.052 64.3817 153.276 65.2542 153.265 65.2755C153.244 65.2968 152.531 65.4989 151.679 65.7224L150.114 66.1373L148.017 65.2755C146.867 64.7967 145.866 64.3604 145.802 64.2966C145.685 64.1795 144.322 58.402 144.397 58.3275C144.439 58.2849 146.334 57.7636 146.409 57.7849C146.441 57.7849 147.761 58.6041 149.347 59.6043ZM83.3089 59.0829C83.5857 59.6469 83.788 60.1257 83.7774 60.1363C83.6816 60.2214 81.9569 61.0514 81.9356 61.0194C81.8504 60.9343 80.9242 58.8701 80.9561 58.8489C81.0413 58.7637 82.585 58.0721 82.6915 58.0615C82.7553 58.0615 83.0321 58.519 83.3089 59.0829ZM93.9445 59.9129L93.8593 60.53L92.0601 61.3706C91.0807 61.8281 90.2396 62.2111 90.197 62.2111C90.1119 62.2111 89.3347 60.6577 89.3347 60.4768C89.3347 60.413 90.378 59.8703 91.6556 59.2745L93.9658 58.1998L93.9977 58.7425C94.0084 59.0404 93.9871 59.5618 93.9445 59.9129ZM144.78 61.2748C145.142 62.8708 145.44 64.2434 145.44 64.3179C145.44 64.3817 145.025 65.0627 144.525 65.8181C143.694 67.063 143.577 67.2013 143.236 67.2652C143.024 67.2971 142.821 67.2971 142.779 67.2439C142.725 67.2013 142.395 66.414 142.023 65.5096C141.661 64.6052 141.309 63.8071 141.246 63.7327C141.182 63.6688 140.83 63.4879 140.468 63.3496L139.808 63.0836L137.913 63.3283C136.87 63.4667 136.008 63.5624 135.976 63.5411C135.954 63.5199 135.784 62.8495 135.592 62.0515L135.252 60.6151L135.688 60.4981C136.444 60.2853 143.886 58.402 144.014 58.3913C144.067 58.3807 144.418 59.6788 144.78 61.2748ZM88.483 59.3064C88.6853 59.7533 88.8769 60.1576 88.8875 60.2108C88.9195 60.2959 87.099 61.2003 87.0564 61.1258C86.6412 60.2959 86.2153 59.3277 86.2579 59.2958C86.3431 59.2106 87.8868 58.4977 88.0039 58.4977C88.0678 58.4871 88.2807 58.8595 88.483 59.3064ZM81.2436 60.1044C81.531 60.7109 82.4147 62.5835 83.2025 64.2859C84.0009 65.9777 84.7036 67.3929 84.7675 67.4354C84.9059 67.5205 84.9485 67.4993 89.9628 65.1478C92.0282 64.1795 93.7529 63.3815 93.7955 63.3815C93.8593 63.3815 93.6358 72.5214 93.5719 72.5959C93.5506 72.6171 91.8898 72.0106 89.8776 71.2552C87.8655 70.4891 86.1834 69.872 86.1302 69.872C86.0769 69.872 86.0344 69.9146 86.0344 69.9678C86.0344 70.021 86.3963 70.1912 86.8328 70.3508C87.28 70.521 87.6632 70.6806 87.6845 70.7232C87.7484 70.8296 87.1735 72.2234 87.067 72.2234C86.9606 72.2341 82.734 70.819 82.734 70.787C82.734 70.7658 82.8831 70.404 83.0534 69.9784C83.3941 69.1485 83.426 69.0208 83.277 69.0208C83.2238 69.0208 83.0321 69.4038 82.8405 69.872C82.5318 70.6381 82.4679 70.7232 82.2656 70.6594C81.0839 70.287 80.9774 70.2231 80.7432 69.8082C80.6048 69.5847 80.4983 69.34 80.4983 69.2868C80.4983 69.2229 80.9987 68.925 81.6162 68.6058C82.2337 68.2866 82.734 67.9993 82.734 67.9568C82.734 67.9142 82.3827 67.1375 81.9462 66.2437C81.5097 65.3393 80.871 63.9987 80.5196 63.2645L79.8915 61.9239L79.1037 61.86C78.6672 61.8174 77.56 61.7855 76.6444 61.7749C75.7182 61.7749 74.9623 61.7323 74.9623 61.6898C74.9623 61.6046 80.3706 59.0404 80.5835 59.0297C80.658 59.0191 80.9561 59.5086 81.2436 60.1044ZM86.3857 60.2427C86.5986 60.6896 86.7796 61.1046 86.7796 61.179C86.7796 61.3067 85.2785 62.0515 85.0443 62.0515C84.991 62.0515 84.7675 61.6578 84.5439 61.1684L84.1287 60.2959L84.9485 59.8703C85.3956 59.6469 85.8214 59.4554 85.8747 59.4447C85.9385 59.4447 86.1621 59.8065 86.3857 60.2427ZM102.802 61.3599C103.303 62.3495 103.707 63.2113 103.707 63.2539C103.707 63.339 100.652 64.8712 100.471 64.8712C100.354 64.8712 98.565 61.1046 98.6608 61.062C98.714 61.0407 99.4486 60.7002 100.3 60.2959C101.152 59.9022 101.855 59.5724 101.865 59.5618C101.887 59.5511 102.302 60.3598 102.802 61.3599ZM84.3523 61.3174C84.5865 61.8174 84.7568 62.2431 84.7355 62.2537C84.6291 62.3282 83.0215 63.0623 82.9576 63.0623C82.8192 63.0623 82.042 61.2216 82.1591 61.179C82.223 61.1578 82.6063 60.9769 83.0108 60.7854C83.4154 60.5832 83.788 60.413 83.8306 60.413C83.8838 60.4023 84.1074 60.8173 84.3523 61.3174ZM89.4412 61.3599C89.6754 61.8281 89.867 62.2431 89.867 62.2963C89.867 62.3388 89.4624 62.5729 88.9621 62.8283L88.0678 63.2645L87.6313 62.3495C87.3971 61.8494 87.2054 61.4131 87.2054 61.3918C87.2054 61.3599 88.8024 60.5726 88.9834 60.5194C89.0047 60.5087 89.2069 60.8918 89.4412 61.3599ZM93.8913 61.9451L93.8593 63.0623L92.486 63.7114C91.7407 64.0625 91.1126 64.3391 91.0913 64.3179C90.9955 64.2115 90.2716 62.5197 90.3035 62.4771C90.378 62.4133 93.7422 60.8386 93.838 60.8279C93.8806 60.8279 93.9019 61.328 93.8913 61.9451ZM133.868 61.062C134.027 61.6791 136.072 70.6168 136.072 70.6594C136.072 70.7232 134.208 71.6808 134.102 71.6808C134.07 71.6808 133.953 71.4786 133.846 71.2233C133.729 70.9786 132.686 68.6271 131.504 65.999C130.323 63.3709 129.386 61.1897 129.428 61.1578C129.482 61.0939 132.164 60.8811 133.261 60.8492C133.751 60.8279 133.815 60.8598 133.868 61.062ZM128.46 61.9664C128.417 62.4239 128.353 62.8708 128.31 62.9666C128.279 63.0517 127.853 63.4986 127.374 63.9455L126.49 64.7648H125.628H124.755L124.829 63.1475C124.872 62.2537 124.936 61.4876 124.978 61.4557C125.021 61.4131 125.745 61.3386 126.596 61.2748C127.448 61.2216 128.225 61.1684 128.332 61.1684C128.513 61.1471 128.523 61.211 128.46 61.9664ZM86.9074 63.7752L85.9811 64.2327L85.5446 63.2964L85.0975 62.3707L86.0237 61.9239L86.9393 61.477L87.3864 62.4027L87.8442 63.3283L86.9074 63.7752ZM124.638 62.1154C124.606 62.4771 124.574 63.2113 124.574 63.7433V64.7116L123.626 66.0096L122.679 67.3184L122.604 69.074C122.562 70.0422 122.508 70.8296 122.487 70.8296C122.434 70.8296 108.902 64.9776 108.839 64.9244C108.817 64.9031 109.499 64.3072 110.361 63.5837L111.926 62.2856L117.1 61.9345C119.953 61.743 122.498 61.5727 122.764 61.5408C123.03 61.5195 123.573 61.4982 123.977 61.4876L124.712 61.4663L124.638 62.1154ZM108.317 62.2431C108.53 62.6155 108.711 62.9666 108.7 63.0198C108.7 63.1049 105.591 65.733 105.4 65.8075C105.272 65.8607 104.101 63.4773 104.207 63.3922C104.25 63.3496 105.038 62.9666 105.943 62.5303C106.848 62.1047 107.636 61.7111 107.699 61.6578C107.87 61.5089 107.912 61.5514 108.317 62.2431ZM130.653 65.6904C131.643 67.8929 132.452 69.7337 132.452 69.7762C132.452 69.8188 132.154 69.6592 131.792 69.4145C131.217 69.0314 131.004 68.9569 130.269 68.8612L129.418 68.7548L129.098 66.8396L128.768 64.9244L127.842 64.8924C127.331 64.8818 126.916 64.8286 126.916 64.7754C126.916 64.7222 127.299 64.3285 127.768 63.8923C128.513 63.2007 128.619 63.0517 128.619 62.7325C128.619 62.2537 128.736 61.5514 128.811 61.6153C128.832 61.6472 129.673 63.4773 130.653 65.6904ZM76.0376 62.0835C76.0908 62.1473 77.5919 65.7011 77.9007 66.4991C77.9539 66.6587 77.89 66.68 77.4003 66.6693C77.0809 66.6587 76.5699 66.6268 76.2611 66.5948L75.6862 66.5204L74.8558 64.5307C73.8019 61.9983 73.8338 62.126 74.1 62.0196C74.3555 61.9345 75.9418 61.9877 76.0376 62.0835ZM78.614 62.0622L79.7318 62.1367L81.0945 64.9988C82.2017 67.3397 82.4253 67.8823 82.2975 67.9674C82.0846 68.1164 81.5842 68.3824 81.531 68.3824C81.4991 68.3824 81.3181 68.0206 81.1265 67.5844C80.9348 67.1481 80.7751 66.7757 80.7751 66.7757C80.7645 66.7651 80.1896 66.7332 79.4869 66.6906L78.2094 66.6268L77.2832 64.3923C76.7615 63.1581 76.3463 62.126 76.3463 62.0728C76.3463 61.9771 77.1235 61.9771 78.614 62.0622ZM75.271 66.148C76.0908 68.1057 76.7296 69.7337 76.7083 69.755C76.687 69.7762 75.4201 69.1804 73.887 68.4249L71.1084 67.0524L70.3951 66.2544L69.6818 65.4564L69.7776 64.7648C69.8202 64.3817 69.8947 64.0412 69.9373 63.9987C69.9799 63.9561 70.8316 63.5411 71.8217 63.0836C73.3654 62.3707 73.6422 62.2643 73.7167 62.4133C73.7593 62.5091 74.4619 64.1902 75.271 66.148ZM85.2998 63.339C85.534 63.8497 85.6937 64.2966 85.6405 64.3498C85.5979 64.3923 85.1827 64.5945 84.7249 64.8073L83.8838 65.1904L83.458 64.2753C83.2238 63.7752 83.0534 63.3496 83.0747 63.3283C83.1173 63.2964 84.7994 62.4346 84.842 62.4239C84.8633 62.4239 85.0656 62.8389 85.2998 63.339ZM90.4312 63.4667C90.6548 63.9242 90.8252 64.3391 90.8252 64.3923C90.8252 64.5413 89.1005 65.318 89.0047 65.2223C88.9621 65.1691 88.7598 64.7648 88.5469 64.3072L88.1743 63.4879L88.994 63.0623C89.4412 62.8389 89.867 62.6474 89.9309 62.6367C89.9948 62.6367 90.2183 63.0091 90.4312 63.4667ZM95.9353 63.5837C96.8083 63.871 97.149 64.0306 97.1277 64.137C97.0958 64.2966 95.2753 69.0421 95.222 69.1165C95.2008 69.1378 94.9985 69.1059 94.7643 69.0314L94.3491 68.9037L94.4023 66.2756C94.4555 63.6156 94.4875 63.1581 94.6365 63.1794C94.6791 63.1794 95.2646 63.3603 95.9353 63.5837ZM140.958 63.8071C141.118 63.8923 141.799 65.4776 141.703 65.5521C141.618 65.6053 136.7 66.7012 136.668 66.6693C136.646 66.648 136.487 65.999 136.316 65.2223L135.997 63.8178L136.434 63.7539C139.595 63.3071 139.713 63.2964 140.266 63.5092C140.554 63.6156 140.862 63.7539 140.958 63.8071ZM88.0997 63.8923C88.1849 64.0625 88.3765 64.4668 88.5256 64.7967L88.7917 65.4032L87.9507 65.8288C87.4822 66.0628 87.067 66.2544 87.0138 66.2544C86.918 66.2544 86.1408 64.6796 86.1408 64.4881C86.1408 64.403 87.6313 63.6369 87.8655 63.605C87.9081 63.5943 88.0146 63.7327 88.0997 63.8923ZM104.506 64.7648C104.825 65.4032 105.091 65.9777 105.091 66.0203C105.091 66.1267 102.28 68.4888 102.163 68.4888C102.057 68.4888 100.492 65.1478 100.588 65.1052C100.63 65.0946 101.344 64.7541 102.163 64.3498C102.983 63.9455 103.718 63.605 103.782 63.605C103.856 63.5943 104.186 64.1157 104.506 64.7648ZM98.8737 64.552L100.162 64.9882L101.035 66.797C101.503 67.7972 101.897 68.6484 101.897 68.6909C101.897 68.8186 99.5976 70.7232 99.4592 70.7232C99.3421 70.7232 95.6798 69.3932 95.5095 69.2868C95.4669 69.2549 95.8289 68.1909 96.3186 66.9247C97.3939 64.1476 97.4045 64.1263 97.5003 64.1263C97.5536 64.1263 98.1604 64.3179 98.8737 64.552ZM86.2792 65.4244C86.4922 65.9139 86.6731 66.3395 86.6731 66.3714C86.6731 66.4459 85.0336 67.212 84.8952 67.212C84.8313 67.2013 84.2245 66.0203 84.0329 65.4883C84.0009 65.4138 85.6085 64.5839 85.8214 64.5626C85.8534 64.552 86.0663 64.9456 86.2792 65.4244ZM128.534 65.1797C128.566 65.2116 128.726 66.0522 128.885 67.0524C129.056 68.0419 129.215 68.8931 129.247 68.9357C129.279 68.9782 129.694 69.0421 130.163 69.0846C130.961 69.1591 131.068 69.2017 131.877 69.7337C132.697 70.2763 132.75 70.3508 133.069 71.0743C133.261 71.4999 133.41 71.8936 133.41 71.9468C133.41 72.0106 132.558 72.4788 131.515 73.0002L129.62 73.9365L126.224 72.4575L122.817 70.9892L122.849 69.2336C122.892 67.2652 122.806 67.5099 123.967 65.9564L124.691 64.9563L126.575 65.0308C127.608 65.0733 128.491 65.1372 128.534 65.1797ZM112.629 67.2758C115.013 68.3079 118.133 69.6592 119.57 70.2763C121.007 70.8934 122.231 71.4467 122.306 71.5106C122.391 71.5957 123.211 76.2135 123.147 76.2667C123.062 76.3305 116.727 77.1711 116.674 77.1179C116.642 77.086 116.578 76.8306 116.536 76.5646L116.461 76.0752L117.27 75.9475C117.717 75.8836 118.207 75.8304 118.356 75.8304C118.495 75.8304 118.644 75.7666 118.665 75.6921C118.74 75.5006 118.111 71.2446 117.994 71.1275C117.941 71.0743 117.473 71.0743 116.802 71.1382C116.206 71.202 115.652 71.2552 115.567 71.2552C115.482 71.2552 115.418 71.3084 115.418 71.3722C115.418 71.4893 116.834 71.4361 117.568 71.2978C117.835 71.2446 117.856 71.2658 117.92 71.734C117.962 72 117.984 72.2341 117.962 72.2554C117.941 72.2766 117.419 72.3511 116.813 72.415C116.195 72.4788 115.673 72.5533 115.652 72.5852C115.503 72.7342 115.812 72.7448 116.855 72.6384C117.483 72.5746 118.016 72.532 118.026 72.5533C118.037 72.5746 118.079 72.8087 118.122 73.0747L118.197 73.5747L116.994 73.6599C116.291 73.7131 115.801 73.7982 115.822 73.862C115.833 73.9259 116.121 73.9471 116.514 73.9152C116.876 73.8939 117.419 73.8727 117.707 73.862H118.239L118.356 74.66C118.42 75.0963 118.441 75.49 118.409 75.5219C118.378 75.5644 117.888 75.6496 117.334 75.7134C116.781 75.7879 116.302 75.8943 116.259 75.9475C116.227 76.0113 116.248 76.2986 116.302 76.5859C116.355 76.8732 116.376 77.1392 116.355 77.1711C116.323 77.203 116.11 77.2562 115.886 77.2881C115.652 77.3307 113.97 78.0649 112.128 78.9373C110.286 79.7992 108.775 80.5121 108.753 80.5121C108.743 80.5121 108.402 80.012 108.008 79.3949C107.391 78.4373 107.263 78.2883 107.071 78.3415C106.944 78.3841 106.177 78.6394 105.357 78.9267C104.537 79.214 103.814 79.4481 103.75 79.4481C103.686 79.4481 103.143 79.0225 102.547 78.5011C101.94 77.9691 101.312 77.5116 101.141 77.4796C100.971 77.4371 100.833 77.3732 100.833 77.3307C100.833 77.2988 100.982 77.086 101.152 76.8732C101.386 76.5965 101.993 76.2028 103.217 75.5538L104.963 74.6175L104.718 74.0855C104.591 73.7875 104.229 72.9789 103.92 72.2873C103.611 71.6063 103.313 71.0424 103.26 71.0424C103.196 71.0424 103.185 71.1594 103.217 71.3084C103.271 71.5212 103.228 71.5957 102.941 71.7446C102.611 71.9149 102.568 71.9149 101.876 71.6702C101.482 71.5318 101.152 71.3935 101.152 71.3616C101.152 71.2871 108.168 65.4032 108.253 65.4032C108.285 65.4032 110.254 66.2437 112.629 67.2758ZM70.0012 66.7864C70.5015 67.3716 70.789 67.595 71.4171 67.8929C71.843 68.1057 72.1943 68.3079 72.1943 68.3611C72.1943 68.4037 71.5023 70.0954 70.6506 72.1064L69.1069 75.7772V77.8201V79.8524L68.8194 79.9162C68.1168 80.0439 65.1465 80.2142 65.072 80.129C65.0294 80.0758 64.7632 77.7457 64.4864 74.9473L63.9967 69.872L64.38 68.9357L64.7632 67.9993L66.9031 67.0311C68.0849 66.4991 69.1282 66.0628 69.2134 66.0628C69.2985 66.0522 69.6605 66.382 70.0012 66.7864ZM78.071 66.9779C78.1562 67.0737 79.1143 69.4038 79.1143 69.5421C79.1143 69.5954 78.7524 69.8188 78.3159 70.0529L77.5174 70.4572L77.3364 70.2018C77.1235 69.9252 75.8246 66.9779 75.8672 66.8928C75.9098 66.8183 77.9858 66.9034 78.071 66.9779ZM80.0618 66.9672L80.6261 67.0311L80.9348 67.7121C81.1052 68.0951 81.2436 68.4356 81.2436 68.4781C81.2436 68.5526 79.4337 69.4783 79.3805 69.4251C79.3273 69.3825 78.3691 67.0205 78.3691 66.9566C78.3691 66.8715 79.3485 66.8821 80.0618 66.9672ZM74.7281 69.5421L76.836 70.5955L77.1767 71.3616C77.3683 71.7872 77.5174 72.1702 77.5174 72.2128C77.5174 72.2554 77.2619 72.3511 76.9425 72.4256C76.6231 72.5001 76.3037 72.5959 76.2292 72.6491C76.1227 72.7129 76.2079 73.0959 76.5912 74.3621L77.0809 75.99L76.8254 77.086C76.687 77.6925 76.5592 78.2138 76.5379 78.2351C76.4634 78.2989 69.4902 79.0969 69.405 79.0544C69.3518 79.0331 69.3198 78.3096 69.3198 77.4477V75.8836L70.3951 73.33C70.9806 71.9255 71.6833 70.2657 71.9494 69.6273C72.2049 68.9995 72.4711 68.4888 72.5243 68.4888C72.5776 68.4888 73.5677 68.9676 74.7281 69.5421ZM94.9027 69.3081C95.1369 69.3825 95.1369 69.3613 94.7536 70.3508C94.4342 71.202 94.1361 71.6808 94.2745 71.1488C94.3065 70.9998 94.3384 70.4785 94.3384 69.989C94.3384 69.191 94.3597 69.1165 94.53 69.1804C94.6259 69.2229 94.7962 69.2868 94.9027 69.3081ZM80.7858 70.4785C82.4253 73.9684 86.0237 81.7676 86.0557 81.8846C86.0982 82.0336 83.458 84.2574 83.3622 84.151C83.2451 84.0233 77.5919 70.7232 77.6345 70.6806C77.7303 70.6062 80.1257 69.34 80.1896 69.34C80.2215 69.34 80.4983 69.8507 80.7858 70.4785ZM97.2874 70.2125C98.2669 70.5636 99.1079 70.8934 99.1611 70.936C99.2037 70.9679 98.533 71.585 97.6813 72.3086L96.127 73.6067L95.1795 73.2555C94.3278 72.947 94.2319 72.8831 94.2319 72.6384C94.2319 72.4895 94.4768 71.7446 94.7643 70.9892C95.0623 70.2338 95.2966 69.5954 95.2966 69.5847C95.2966 69.4996 95.6372 69.606 97.2874 70.2125ZM93.3696 74.66C93.4974 74.7239 93.5293 74.8835 93.508 75.2878L93.4654 75.8304L91.4959 77.4796C90.4206 78.3841 89.4944 79.1289 89.4518 79.1289C89.4092 79.1289 89.3134 79.0012 89.2389 78.8416C89.1324 78.6181 89.1431 78.5437 89.2495 78.4692C89.324 78.4266 89.8564 78.1181 90.4312 77.7882C91.4213 77.2136 91.6449 77.0434 91.5491 76.937C91.5172 76.9157 90.9636 77.203 90.3035 77.5861C89.6434 77.9691 89.0685 78.2777 89.0259 78.2777C88.9408 78.2777 88.6959 77.8095 88.6959 77.6499C88.6959 77.5967 89.1856 77.2775 89.7925 76.9476C91.0487 76.2348 91.1658 76.1603 91.0913 76.0326C91.0594 75.99 90.4951 76.256 89.8457 76.6284C89.1963 77.0115 88.632 77.32 88.5788 77.32C88.5256 77.32 88.4298 77.2136 88.3659 77.086C88.2168 76.8093 88.2275 76.8093 89.6754 75.9794C90.2503 75.6602 90.7187 75.3516 90.7187 75.2878C90.7187 75.1282 90.6335 75.1708 89.3666 75.8943C88.6959 76.288 88.1423 76.5859 88.121 76.5646C88.0997 76.5433 88.0359 76.4156 87.972 76.288C87.8549 76.0752 87.9187 76.022 88.8875 75.4793C90.1119 74.7771 90.3674 74.5962 90.2716 74.5004C90.2396 74.4579 89.6647 74.7451 89.0153 75.1282C88.3659 75.5112 87.8123 75.8304 87.7803 75.8304C87.7591 75.8304 87.6526 75.6708 87.5568 75.4687L87.3651 75.1176L85.7682 76.0007C84.8952 76.4901 84.1393 76.8838 84.0861 76.8625C84.0116 76.8412 81.3287 71.1701 81.1903 70.7338C81.1371 70.5423 81.9569 70.7977 87.1629 72.5427C90.4845 73.6599 93.2844 74.6068 93.3696 74.66ZM88.5895 71.0105C88.8556 71.1062 89.0898 71.202 89.1111 71.2126C89.1537 71.2552 88.6959 72.5427 88.5895 72.6703C88.5043 72.7661 87.4184 72.4469 87.4184 72.3192C87.4184 72.149 87.972 70.8296 88.0359 70.8296C88.0784 70.8296 88.3233 70.9147 88.5895 71.0105ZM89.9948 71.5425C90.2503 71.6382 90.4632 71.7234 90.4738 71.734C90.5058 71.7553 89.9735 73.0959 89.9096 73.1598C89.8564 73.213 88.9088 72.947 88.8556 72.8512C88.7917 72.7448 89.3453 71.3616 89.4518 71.3616C89.505 71.3616 89.7499 71.4361 89.9948 71.5425ZM137.019 74.7345L137.786 78.1074L138.999 79.8311C139.67 80.7887 140.234 81.6186 140.245 81.6931C140.266 81.757 139.808 81.991 139.212 82.2251C138.339 82.555 138.009 82.6294 137.36 82.6401H136.583L136.646 82.0762C136.678 81.7782 136.732 80.9909 136.764 80.3525L136.817 79.1821L134.049 76.5859C132.526 75.1601 131.281 73.9578 131.281 73.9152C131.281 73.8514 136.05 71.3722 136.189 71.3616C136.221 71.3616 136.593 72.8831 137.019 74.7345ZM101.791 71.883L102.589 72.1915L103.015 71.9787C103.239 71.8617 103.441 71.7978 103.462 71.851C103.484 71.9042 103.76 72.5214 104.08 73.213C104.516 74.1599 104.633 74.5111 104.527 74.5749C104.463 74.6175 103.718 75.0218 102.887 75.458C101.727 76.0858 101.269 76.3944 100.918 76.788L100.46 77.2988L98.9695 76.8732C98.1497 76.6391 97.4471 76.4156 97.3939 76.3731C97.3513 76.3305 97.4365 75.8943 97.5855 75.3942C97.7345 74.9047 97.841 74.4153 97.8304 74.3089C97.8091 74.1706 98.2349 73.7343 99.2889 72.8512C100.109 72.1596 100.833 71.585 100.886 71.585C100.95 71.5744 101.354 71.7127 101.791 71.883ZM125.819 72.9789C127.469 73.7024 128.832 74.3089 128.821 74.3408C128.821 74.3727 128.108 74.7451 127.256 75.1708C125.809 75.8836 125.606 75.9475 124.574 76.0964C123.967 76.1816 123.445 76.2241 123.424 76.2028C123.392 76.1816 122.679 71.9574 122.657 71.7021C122.657 71.6276 123.051 71.7872 125.819 72.9789ZM92.2411 72.3937L93.5932 72.9044V73.6067C93.5932 73.9897 93.5612 74.3302 93.5293 74.3621C93.4974 74.394 92.7308 74.1812 91.8259 73.8727C90.3035 73.3726 90.1757 73.3087 90.229 73.0959C90.3354 72.7023 90.708 71.8936 90.7932 71.8936C90.8358 71.8936 91.4852 72.117 92.2411 72.3937ZM79.0611 75.7666C79.7957 77.5116 80.3812 78.9586 80.3599 78.9905C80.328 79.0118 79.7637 79.3842 79.1037 79.8205L77.9007 80.5972L77.3258 79.5332L76.7509 78.4692L77.0383 77.2136L77.3258 75.9581L76.8786 74.4791C76.6338 73.6705 76.4208 72.9683 76.4102 72.9257C76.3995 72.8087 77.5493 72.4363 77.6452 72.5214C77.6771 72.5533 78.3159 74.011 79.0611 75.7666ZM95.222 73.5215C95.5521 73.6492 95.8289 73.7769 95.8289 73.8088C95.8289 73.8833 94.2213 75.224 94.1894 75.1708C94.1681 75.1601 94.1787 74.6919 94.2107 74.1493C94.2532 73.2875 94.2852 73.1704 94.4342 73.2236C94.53 73.2555 94.8814 73.3939 95.222 73.5215ZM97.3619 75.3836C97.2129 75.8624 97.0425 76.256 96.9787 76.256C96.9254 76.256 96.606 76.1816 96.2867 76.0858C95.616 75.8943 95.584 75.9794 96.7338 74.9899C97.149 74.6387 97.511 74.394 97.5536 74.4259C97.5961 74.4685 97.511 74.8941 97.3619 75.3836ZM88.2914 77.4264C88.8024 78.4479 89.2176 79.3204 89.2069 79.3523C89.1643 79.4693 86.3431 81.8208 86.3005 81.7782C86.226 81.6931 84.2245 77.3094 84.2245 77.2136C84.2245 77.0966 87.1096 75.5006 87.248 75.5432C87.3119 75.5644 87.7697 76.4156 88.2914 77.4264ZM98.5117 76.9689C101.365 77.7882 101.365 77.7882 101.982 78.3309C102.323 78.6181 102.76 79.0012 102.951 79.1608C103.153 79.3204 103.281 79.48 103.26 79.5013C103.207 79.5651 97.0958 79.9056 97.0638 79.8524C97.0319 79.8098 94.9878 77.4371 94.7217 77.1285L94.4981 76.8732L94.9239 76.5114C95.1582 76.3199 95.4243 76.1496 95.4988 76.1496C95.584 76.1496 96.9467 76.522 98.5117 76.9689ZM124.893 76.3092C124.893 76.3731 123.605 77.0221 123.562 76.9796C123.552 76.9583 123.498 76.8412 123.466 76.7136C123.403 76.5008 123.445 76.4795 123.903 76.4156C124.18 76.3731 124.467 76.3305 124.52 76.3092C124.691 76.256 124.893 76.256 124.893 76.3092ZM122.966 80.4908L122.604 83.8637L121.497 84.1084C120.89 84.2467 120.39 84.3425 120.379 84.3212C120.358 84.2999 119.708 83.5445 118.931 82.6401C118.143 81.7357 117.451 80.9164 117.377 80.8313C117.249 80.6717 116.664 77.5328 116.749 77.4477C116.77 77.4264 118.218 77.203 119.964 76.9583L123.136 76.5114L123.232 76.8093C123.296 77.0221 123.222 78.1606 122.966 80.4908ZM96.819 80.544C97.9688 81.874 98.9163 83.0125 98.9163 83.0657C98.9163 83.1827 97.7452 83.2998 97.0106 83.2572L96.4251 83.2253L95.2753 80.4589C93.9019 77.1498 93.9019 77.1498 94.3597 77.6925C94.5513 77.9265 95.6585 79.2033 96.819 80.544ZM116.759 79.214C116.919 80.0971 117.025 80.8419 117.004 80.8632C116.983 80.8845 115.918 81.3633 114.63 81.9378C113.353 82.5124 111.958 83.1402 111.532 83.3317L110.755 83.6935L109.829 82.2464C109.328 81.4484 108.945 80.7674 108.998 80.7142C109.041 80.6717 110.521 79.9481 112.277 79.1182C115.184 77.7457 116.184 77.352 116.397 77.5222C116.44 77.5648 116.6 78.3202 116.759 79.214ZM77.0809 79.5438C77.379 80.129 77.6239 80.6504 77.6239 80.7036C77.6239 80.7674 77.4642 80.9058 77.2725 81.0228C77.0703 81.1398 76.7935 81.3101 76.6444 81.4058L76.3676 81.5867L75.6011 80.1929C75.1752 79.4268 74.8558 78.7777 74.8771 78.7458C74.9304 78.7033 75.9418 78.533 76.3676 78.5011C76.4847 78.4905 76.7083 78.8203 77.0809 79.5438ZM75.3243 80.1822C75.7714 81.0015 76.1334 81.6825 76.1334 81.7144C76.1334 81.7782 74.6536 82.7465 74.5471 82.7465C74.4513 82.7465 72.5137 79.214 72.5137 79.0437C72.5137 78.9905 72.9289 78.9054 73.4505 78.8416C73.9616 78.7884 74.4087 78.7245 74.4406 78.7245C74.4832 78.7139 74.8771 79.3736 75.3243 80.1822ZM73.2163 80.9377C73.7699 81.9591 74.2171 82.8423 74.2171 82.9061C74.2171 83.0019 71.8643 84.5979 71.5449 84.7043C71.4384 84.7468 71.0658 84.2042 70.3631 83.0338L69.3198 81.3101V80.3312V79.3523L69.7776 79.2885C70.9487 79.1289 71.7365 79.0437 71.9707 79.065C72.1836 79.0757 72.3753 79.3629 73.2163 80.9377ZM107.497 79.7779C107.763 80.2035 108.008 80.6078 108.04 80.693C108.083 80.7887 107.625 81.0547 106.528 81.5761C105.666 81.991 104.931 82.2996 104.899 82.2677C104.857 82.2358 104.633 81.7357 104.388 81.1505L103.941 80.0971L104.282 79.9801C104.463 79.9162 105.144 79.6821 105.783 79.4481C106.433 79.2246 106.965 79.0331 106.986 79.0331C106.997 79.0225 107.231 79.3629 107.497 79.7779ZM101.716 80.5334C101.493 81.5442 101.471 81.5654 100.854 81.9804C100.524 82.2145 100.098 82.4698 99.917 82.5656L99.5763 82.7358L98.6075 81.6293C97.8942 80.81 97.6813 80.5121 97.8197 80.5014C98.9376 80.4163 100.492 80.3312 101.067 80.3206C101.748 80.2993 101.769 80.3099 101.716 80.5334ZM109.222 82.4805C109.701 83.2253 110.095 83.8743 110.095 83.9169C110.095 84.0339 106.379 85.6619 106.294 85.5768C106.198 85.481 104.985 82.6082 105.017 82.5656C105.134 82.4592 108.147 81.0654 108.232 81.0866C108.296 81.0973 108.732 81.725 109.222 82.4805ZM100.407 83.1189C100.407 83.3849 100.385 83.5977 100.354 83.5977C100.279 83.5977 99.7786 83.0338 99.768 82.9487C99.768 82.8848 100.183 82.6614 100.332 82.6507C100.375 82.6401 100.407 82.8529 100.407 83.1189Z" fill="#FF8B1F"/>
<path d="M7.67826 5.52081C7.06078 5.82938 6.76268 6.38266 6.61364 7.43603C6.48588 8.31916 6.61364 9.44701 6.87979 9.96837C7.35887 10.8941 8.72159 11.1813 9.50941 10.5217C9.92461 10.1705 10.1269 9.68109 10.1269 9.0214C10.1269 8.37236 10.0204 8.08507 9.64781 7.71267C9.06226 7.12747 8.08281 7.10619 7.48663 7.64883L7.22047 7.89355L7.28435 7.32963C7.36952 6.63802 7.61438 6.21242 8.06152 5.9677C8.50866 5.72298 8.92386 5.85066 9.22196 6.31882C9.371 6.56354 9.52005 6.6593 9.73298 6.66994C10.0843 6.66994 10.1162 6.4465 9.8075 5.94642C9.40294 5.28673 8.49802 5.10585 7.67826 5.52081ZM8.94516 7.98931C9.46682 8.26596 9.65845 9.11716 9.32842 9.75557C9.12614 10.1386 8.87063 10.2876 8.4022 10.2876C7.76343 10.2769 7.35887 9.76621 7.35887 8.98948C7.36952 8.09571 8.16798 7.58499 8.94516 7.98931Z" fill="#FF8B1F"/>
<path d="M11.8836 5.43574C11.2235 5.73366 10.8722 6.34014 10.8722 7.18071C10.8722 8.57456 12.2562 9.38321 13.3634 8.6384L13.7467 8.38304V8.68096C13.7467 9.12784 13.5337 9.67049 13.2357 9.98969C12.8524 10.4047 12.1604 10.4153 11.841 10.011C11.7132 9.85137 11.6174 9.65985 11.6174 9.57473C11.6174 9.46833 11.5323 9.44705 11.33 9.50025C10.9467 9.59601 10.9574 9.57473 11.0319 9.89393C11.2022 10.543 12.0859 11.0218 12.8204 10.8728C13.3102 10.7664 13.8105 10.4047 14.0554 9.95777C14.4813 9.20233 14.5771 7.59567 14.2577 6.56359C13.9489 5.56342 12.8098 5.02077 11.8836 5.43574ZM13.0866 5.96774C13.8638 6.37206 13.917 7.71271 13.1824 8.1596C12.7672 8.41496 12.5543 8.4256 12.1391 8.20216C11.5003 7.87232 11.3619 6.92535 11.8516 6.29758C12.2136 5.82942 12.6182 5.72302 13.0866 5.96774Z" fill="#FF8B1F"/>
<path d="M42.8853 29.195C42.864 29.2482 43.3431 38.9732 43.9393 50.8263C44.5461 62.6793 45.0359 72.4363 45.0359 72.5001C45.0465 72.5746 45.153 72.6384 45.2701 72.6384C45.483 72.6384 45.4936 72.6065 45.4298 71.8617C45.3978 71.4467 44.9081 61.8068 44.3545 50.4539C43.7903 39.1009 43.3112 29.6525 43.2792 29.461C43.2367 29.1524 42.9918 28.9928 42.8853 29.195Z" fill="#FF8B1F"/>
<path d="M24.3716 29.3119C24.2651 29.3332 24.1799 29.429 24.1799 29.5354C24.1799 29.6418 23.6795 39.3455 23.0621 51.1028C22.4446 62.8495 21.9442 72.6064 21.9442 72.766C21.9442 72.9895 21.9974 73.064 22.1571 73.064C22.2742 73.064 22.3701 73.0001 22.3701 72.915C22.3701 72.8299 22.8704 63.1155 23.4879 51.3369C24.1054 39.5583 24.5951 29.7695 24.5845 29.5992C24.5632 29.3545 24.51 29.28 24.3716 29.3119Z" fill="#FF8B1F"/>
<path d="M33.0163 49.3366C31.5897 49.56 29.9289 50.4432 29.6308 51.1348C29.5031 51.4433 29.4605 52.0179 29.4499 53.9544L29.4392 56.391L29.0453 56.6995C28.4491 57.1783 28.5662 57.6465 29.205 57.306C29.4286 57.189 29.4286 57.1996 29.3647 57.9657C29.3327 58.4019 29.2476 60.0405 29.1837 61.6259C29.1198 63.2006 29.024 65.052 28.9708 65.7223C28.9069 66.3926 28.8537 67.712 28.843 68.6483L28.8217 70.3508L29.1837 71.3509C29.6521 72.6277 30.0035 73.0001 31.1532 73.4577C33.1121 74.2237 35.1988 74.2131 37.0725 73.4364C38.2223 72.9576 38.3607 72.798 38.8611 71.468C39.2763 70.3614 39.2976 70.2231 39.287 69.2016C39.287 68.6058 39.2444 67.5843 39.1911 66.9459C39.1273 66.2969 39.0421 64.7647 38.9889 63.5411C38.925 62.3069 38.8292 60.4342 38.7546 59.3595C38.6908 58.2849 38.6588 57.3911 38.6908 57.3592C38.7121 57.3273 38.8611 57.3699 39.0208 57.4337C39.1698 57.5082 39.3295 57.5295 39.3721 57.4975C39.4999 57.3699 39.2124 56.9123 38.8824 56.7208L38.563 56.5293L38.5737 54.7737C38.5843 53.8054 38.5524 52.6031 38.5098 52.103C38.4246 51.2199 38.414 51.188 37.9562 50.7517C36.849 49.6771 34.7091 49.0706 33.0163 49.3366ZM31.6323 50.1665C31.6323 50.2091 31.462 50.4219 31.2491 50.624C31.0361 50.8156 30.7593 51.1986 30.6316 51.4646C30.5145 51.7306 30.3228 51.9541 30.2164 51.9753C29.9396 52.0285 29.9609 51.156 30.2483 50.7943C30.5677 50.39 31.6323 49.9112 31.6323 50.1665ZM36.7106 50.1984C37.5729 50.5176 38.0733 51.1241 37.9988 51.7413C37.9455 52.2094 37.69 52.1137 37.3706 51.5391C37.2216 51.2624 36.9235 50.8475 36.7106 50.6347C36.1783 50.092 36.1783 49.9963 36.7106 50.1984ZM35.7311 54.0714C36.0824 54.1672 36.668 54.38 37.0406 54.5502L37.7007 54.8588L37.69 55.3163C37.69 55.5717 37.6048 56.5825 37.4984 57.5827C37.328 59.2638 37.3068 59.3915 37.1151 59.3702C36.998 59.3595 36.4976 59.2957 35.9973 59.2212C35.1349 59.1042 32.1646 59.1467 31.1532 59.2957L30.7168 59.3595L30.5358 57.455C30.2803 54.912 30.2909 54.8482 30.6529 54.6354C30.919 54.4864 32.0369 54.0927 32.5373 53.9863C33.0802 53.8586 35.1349 53.9225 35.7311 54.0714ZM30.2377 57.4975C30.3122 58.0721 30.408 59.0935 30.4719 59.7639C30.5996 61.328 30.7274 68.6164 30.6316 68.8718C30.5571 69.0633 30.5464 69.0633 30.4506 68.8824C30.2377 68.51 29.9396 66.5735 29.8118 64.7647C29.6947 62.9453 29.7373 57.4124 29.8863 56.7527C30.0035 56.2207 30.1206 56.4548 30.2377 57.4975ZM38.201 57.3911C38.3394 58.7211 38.3075 65.2967 38.1478 66.5948C38.0094 67.7652 37.7645 68.776 37.5729 68.9675C37.3919 69.1484 37.541 59.5617 37.7432 57.9551C37.8391 57.2209 37.9136 56.6144 37.9136 56.5931C37.9136 56.5825 37.9562 56.5718 38.0094 56.5718C38.0626 56.5718 38.1478 56.9443 38.201 57.3911ZM37.0406 60.3704L37.2748 60.4236L37.2109 62.6793C37.1684 63.9135 37.1151 64.9456 37.0938 64.9775C36.998 65.0839 31.1107 65.0307 31.0148 64.9243C30.951 64.8605 30.8977 63.8071 30.8764 62.5835L30.8339 60.3491L31.792 60.2852C32.8247 60.2108 36.6467 60.2746 37.0406 60.3704ZM32.7608 66.0522C33.8467 66.1373 34.5494 66.1373 35.6353 66.0415C36.4338 65.9777 37.1045 65.9458 37.1471 65.9777C37.179 66.0202 37.1577 66.9885 37.0938 68.1483C36.9767 70.4146 36.8916 70.7338 36.3486 71.1275C35.2627 71.8936 32.6969 71.851 31.7068 71.0317C31.2065 70.6168 31.1 70.106 31.0255 67.7546C30.9616 65.9458 30.9723 65.7968 31.1426 65.8606C31.2384 65.9032 31.9624 65.9883 32.7608 66.0522ZM29.7586 71.2339C29.8331 71.7446 30.1206 72.1064 30.738 72.5426C31.3875 72.9895 31.2384 73.0746 30.4932 72.6809C29.7905 72.3192 29.5031 71.9148 29.5031 71.2764C29.5031 70.7125 29.6628 70.6912 29.7586 71.2339ZM38.6162 71.4999C38.5311 72.0638 38.201 72.4469 37.509 72.7448C36.9661 72.9895 36.9554 72.9895 36.9554 72.8618C36.9554 72.8086 37.0406 72.7341 37.1577 72.6916C37.5942 72.5533 38.2117 71.8404 38.3501 71.3296C38.5098 70.6806 38.7121 70.8189 38.6162 71.4999Z" fill="#FF8B1F"/>
<path d="M130.11 87.1089C129.194 87.4068 128.971 87.5132 129.237 87.5239C129.428 87.5345 130.046 87.3856 130.61 87.2047L131.643 86.8642L132.761 87.1089C133.378 87.2366 133.932 87.343 133.985 87.3536C134.038 87.3643 134.091 87.3217 134.113 87.2685C134.166 87.1515 132.069 86.6727 131.6 86.694C131.451 86.694 130.78 86.8855 130.11 87.1089Z" fill="#FF8B1F"/>
</g>
<defs>
<clipPath id="clip0_62_3616">
<rect width="157.983" height="90.9065" fill="white" transform="translate(0.676025)"/>
</clipPath>
</defs>
</svg>
