<svg width="45" height="45" viewBox="0 0 45 45" fill="none" xmlns="http://www.w3.org/2000/svg">
<rect width="45" height="45" rx="5" fill="url(#paint0_linear_104_78)"/>
<g clip-path="url(#clip0_104_78)">
<path fill-rule="evenodd" clip-rule="evenodd" d="M15.8403 20.8562C17.6276 24.748 20.8081 27.8422 24.7618 29.5188L24.7743 29.5241L25.5381 29.8645C26.5108 30.2979 27.654 29.9901 28.2776 29.127L29.552 27.3633C29.6298 27.2556 29.6097 27.1058 29.5063 27.0223L27.2816 25.2275C27.171 25.1383 27.0083 25.1591 26.9237 25.2732L26.0579 26.4416C25.8476 26.7254 25.4678 26.824 25.1461 26.6784C22.1897 25.3404 19.814 22.9647 18.476 20.0083C18.3304 19.6866 18.429 19.3068 18.7128 19.0965L19.8812 18.2307C19.9953 18.1461 20.0161 17.9834 19.9269 17.8728L18.1318 15.6478C18.0484 15.5444 17.8987 15.5243 17.7909 15.6021L16.0176 16.8822C15.1488 17.5094 14.8429 18.6623 15.2864 19.6377L15.8397 20.8549L15.8403 20.8562ZM24.1699 30.8971C19.8739 29.0735 16.4186 25.7105 14.4765 21.4807L14.4753 21.4782L13.9208 20.2585C13.1817 18.6327 13.6917 16.7113 15.1397 15.666L16.9129 14.3859C17.6671 13.8415 18.7153 13.9821 19.2993 14.706L21.0943 16.931C21.7189 17.7052 21.5734 18.8436 20.7742 19.4358L20.1047 19.932C21.2357 22.1263 23.028 23.9187 25.2224 25.0496L25.7186 24.3801C26.3108 23.581 27.4492 23.4355 28.2234 24.0601L30.4481 25.8548C31.1722 26.439 31.3127 27.4877 30.7678 28.2418L29.4934 30.0055C28.4541 31.444 26.5487 31.957 24.9277 31.2347L24.1699 30.8971Z" fill="#FFF3E9"/>
</g>
<defs>
<linearGradient id="paint0_linear_104_78" x1="0" y1="22.5" x2="45" y2="22.5" gradientUnits="userSpaceOnUse">
<stop stop-color="#FF8B1F"/>
<stop offset="1" stop-color="#FFA24C"/>
</linearGradient>
<clipPath id="clip0_104_78">
<rect width="19" height="18" fill="white" transform="translate(13 14)"/>
</clipPath>
</defs>
</svg>
