<svg width="159" height="98" viewBox="0 0 159 98" fill="none" xmlns="http://www.w3.org/2000/svg">
<path d="M91.8947 3.05266C91.8947 4.73858 93.2614 6.10529 94.9474 6.10529C96.6333 6.10529 98 4.73858 98 3.05266C98 1.36673 96.6333 2.46951e-05 94.9474 2.46951e-05C93.2614 2.46951e-05 91.8947 1.36673 91.8947 3.05266Z" fill="#FFA551"/>
<path d="M61.3684 3.05266C61.3684 4.73858 62.7351 6.10529 64.4211 6.10529C66.107 6.10529 67.4737 4.73858 67.4737 3.05266C67.4737 1.36673 66.107 2.46951e-05 64.4211 2.46951e-05C62.7351 2.46951e-05 61.3684 1.36673 61.3684 3.05266Z" fill="#FFA551"/>
<path d="M30.8421 3.05266C30.8421 4.73858 32.2088 6.10529 33.8947 6.10529C35.5806 6.10529 36.9474 4.73858 36.9474 3.05266C36.9474 1.36673 35.5806 2.46951e-05 33.8947 2.46951e-05C32.2088 2.46951e-05 30.8421 1.36673 30.8421 3.05266Z" fill="#FFA551"/>
<path d="M0.315765 3.05266C0.315765 4.73858 1.68248 6.10529 3.36841 6.10529C5.05434 6.10529 6.42105 4.73858 6.42105 3.05266C6.42105 1.36673 5.05434 2.46951e-05 3.36841 2.46951e-05C1.68248 2.46951e-05 0.315765 1.36673 0.315765 3.05266Z" fill="#FFA551"/>
<path d="M91.8947 33.579C91.8947 35.2649 93.2614 36.6316 94.9474 36.6316C96.6333 36.6316 98 35.2649 98 33.579C98 31.893 96.6333 30.5263 94.9474 30.5263C93.2614 30.5263 91.8947 31.893 91.8947 33.579Z" fill="#FFA551"/>
<path d="M61.3684 33.579C61.3684 35.2649 62.7351 36.6316 64.4211 36.6316C66.107 36.6316 67.4737 35.2649 67.4737 33.579C67.4737 31.893 66.107 30.5263 64.4211 30.5263C62.7351 30.5263 61.3684 31.893 61.3684 33.579Z" fill="#FFA551"/>
<path d="M30.8421 33.579C30.8421 35.2649 32.2088 36.6316 33.8947 36.6316C35.5806 36.6316 36.9474 35.2649 36.9474 33.579C36.9474 31.893 35.5806 30.5263 33.8947 30.5263C32.2088 30.5263 30.8421 31.893 30.8421 33.579Z" fill="#FFA551"/>
<path d="M0.315765 33.579C0.315765 35.2649 1.68248 36.6316 3.36841 36.6316C5.05434 36.6316 6.42105 35.2649 6.42105 33.579C6.42105 31.893 5.05434 30.5263 3.36841 30.5263C1.68248 30.5263 0.315765 31.893 0.315765 33.579Z" fill="#FFA551"/>
<path d="M91.8947 3.05266C91.8947 4.73858 93.2614 6.10529 94.9474 6.10529C96.6333 6.10529 98 4.73858 98 3.05266C98 1.36673 96.6333 2.46951e-05 94.9474 2.46951e-05C93.2614 2.46951e-05 91.8947 1.36673 91.8947 3.05266Z" fill="#FFA551"/>
<path d="M61.3684 3.05266C61.3684 4.73858 62.7351 6.10529 64.4211 6.10529C66.107 6.10529 67.4737 4.73858 67.4737 3.05266C67.4737 1.36673 66.107 2.46951e-05 64.4211 2.46951e-05C62.7351 2.46951e-05 61.3684 1.36673 61.3684 3.05266Z" fill="#FFA551"/>
<path d="M30.8421 3.05266C30.8421 4.73858 32.2088 6.10529 33.8947 6.10529C35.5806 6.10529 36.9474 4.73858 36.9474 3.05266C36.9474 1.36673 35.5806 2.46951e-05 33.8947 2.46951e-05C32.2088 2.46951e-05 30.8421 1.36673 30.8421 3.05266Z" fill="#FFA551"/>
<path d="M0.315765 3.05266C0.315765 4.73858 1.68248 6.10529 3.36841 6.10529C5.05434 6.10529 6.42105 4.73858 6.42105 3.05266C6.42105 1.36673 5.05434 2.46951e-05 3.36841 2.46951e-05C1.68248 2.46951e-05 0.315765 1.36673 0.315765 3.05266Z" fill="#FFA551"/>
<path d="M91.8947 33.579C91.8947 35.2649 93.2614 36.6316 94.9474 36.6316C96.6333 36.6316 98 35.2649 98 33.579C98 31.893 96.6333 30.5263 94.9474 30.5263C93.2614 30.5263 91.8947 31.893 91.8947 33.579Z" fill="#FFA551"/>
<path d="M61.3684 33.579C61.3684 35.2649 62.7351 36.6316 64.4211 36.6316C66.107 36.6316 67.4737 35.2649 67.4737 33.579C67.4737 31.893 66.107 30.5263 64.4211 30.5263C62.7351 30.5263 61.3684 31.893 61.3684 33.579Z" fill="#FFA551"/>
<path d="M30.8421 33.579C30.8421 35.2649 32.2088 36.6316 33.8947 36.6316C35.5806 36.6316 36.9474 35.2649 36.9474 33.579C36.9474 31.893 35.5806 30.5263 33.8947 30.5263C32.2088 30.5263 30.8421 31.893 30.8421 33.579Z" fill="#FFA551"/>
<path d="M0.315765 33.579C0.315765 35.2649 1.68248 36.6316 3.36841 36.6316C5.05434 36.6316 6.42105 35.2649 6.42105 33.579C6.42105 31.893 5.05434 30.5263 3.36841 30.5263C1.68248 30.5263 0.315765 31.893 0.315765 33.579Z" fill="#FFA551"/>
<path d="M155.947 91.5789C154.261 91.5789 152.895 92.9457 152.895 94.6316C152.895 96.3175 154.261 97.6842 155.947 97.6842C157.633 97.6842 159 96.3175 159 94.6316C159 92.9457 157.633 91.5789 155.947 91.5789Z" fill="#FFA551"/>
<path d="M155.947 61.0526C154.261 61.0526 152.895 62.4194 152.895 64.1053C152.895 65.7912 154.261 67.1579 155.947 67.1579C157.633 67.1579 159 65.7912 159 64.1053C159 62.4194 157.633 61.0526 155.947 61.0526Z" fill="#FFA551"/>
<path d="M155.947 30.5263C154.261 30.5263 152.895 31.893 152.895 33.5789C152.895 35.2649 154.261 36.6316 155.947 36.6316C157.633 36.6316 159 35.2649 159 33.5789C159 31.893 157.633 30.5263 155.947 30.5263Z" fill="#FFA551"/>
<path d="M155.947 0C154.261 0 152.895 1.36672 152.895 3.05264C152.895 4.73856 154.261 6.10529 155.947 6.10529C157.633 6.10529 159 4.73856 159 3.05264C159 1.36672 157.633 0 155.947 0Z" fill="#FFA551"/>
<path d="M125.421 91.5789C123.735 91.5789 122.368 92.9457 122.368 94.6316C122.368 96.3175 123.735 97.6842 125.421 97.6842C127.107 97.6842 128.474 96.3175 128.474 94.6316C128.474 92.9457 127.107 91.5789 125.421 91.5789Z" fill="#FFA551"/>
<path d="M125.421 61.0526C123.735 61.0526 122.368 62.4194 122.368 64.1053C122.368 65.7912 123.735 67.1579 125.421 67.1579C127.107 67.1579 128.474 65.7912 128.474 64.1053C128.474 62.4194 127.107 61.0526 125.421 61.0526Z" fill="#FFA551"/>
<path d="M125.421 30.5263C123.735 30.5263 122.368 31.893 122.368 33.5789C122.368 35.2649 123.735 36.6316 125.421 36.6316C127.107 36.6316 128.474 35.2649 128.474 33.5789C128.474 31.893 127.107 30.5263 125.421 30.5263Z" fill="#FFA551"/>
<path d="M125.421 0C123.735 0 122.368 1.36672 122.368 3.05264C122.368 4.73856 123.735 6.10529 125.421 6.10529C127.107 6.10529 128.474 4.73856 128.474 3.05264C128.474 1.36672 127.107 0 125.421 0Z" fill="#FFA551"/>
<path d="M155.947 91.5789C154.261 91.5789 152.895 92.9457 152.895 94.6316C152.895 96.3175 154.261 97.6842 155.947 97.6842C157.633 97.6842 159 96.3175 159 94.6316C159 92.9457 157.633 91.5789 155.947 91.5789Z" fill="#FFA551"/>
<path d="M155.947 61.0526C154.261 61.0526 152.895 62.4194 152.895 64.1053C152.895 65.7912 154.261 67.1579 155.947 67.1579C157.633 67.1579 159 65.7912 159 64.1053C159 62.4194 157.633 61.0526 155.947 61.0526Z" fill="#FFA551"/>
<path d="M155.947 30.5263C154.261 30.5263 152.895 31.893 152.895 33.5789C152.895 35.2649 154.261 36.6316 155.947 36.6316C157.633 36.6316 159 35.2649 159 33.5789C159 31.893 157.633 30.5263 155.947 30.5263Z" fill="#FFA551"/>
<path d="M155.947 0C154.261 0 152.895 1.36672 152.895 3.05264C152.895 4.73856 154.261 6.10529 155.947 6.10529C157.633 6.10529 159 4.73856 159 3.05264C159 1.36672 157.633 0 155.947 0Z" fill="#FFA551"/>
<path d="M125.421 91.5789C123.735 91.5789 122.368 92.9457 122.368 94.6316C122.368 96.3175 123.735 97.6842 125.421 97.6842C127.107 97.6842 128.474 96.3175 128.474 94.6316C128.474 92.9457 127.107 91.5789 125.421 91.5789Z" fill="#FFA551"/>
<path d="M125.421 61.0526C123.735 61.0526 122.368 62.4194 122.368 64.1053C122.368 65.7912 123.735 67.1579 125.421 67.1579C127.107 67.1579 128.474 65.7912 128.474 64.1053C128.474 62.4194 127.107 61.0526 125.421 61.0526Z" fill="#FFA551"/>
<path d="M125.421 30.5263C123.735 30.5263 122.368 31.893 122.368 33.5789C122.368 35.2649 123.735 36.6316 125.421 36.6316C127.107 36.6316 128.474 35.2649 128.474 33.5789C128.474 31.893 127.107 30.5263 125.421 30.5263Z" fill="#FFA551"/>
<path d="M125.421 0C123.735 0 122.368 1.36672 122.368 3.05264C122.368 4.73856 123.735 6.10529 125.421 6.10529C127.107 6.10529 128.474 4.73856 128.474 3.05264C128.474 1.36672 127.107 0 125.421 0Z" fill="#FFA551"/>
</svg>
